999
Dxf file generated by netDxf http://netdxf.codeplex.com, Copyright(C) 2014 Daniel Carvajal, Licensed under LGPL
0
SECTION
2
HEADER
9
$ACADVER
1
AC1015
9
$DWGCODEPAGE
3
ANSI_1200
9
$HANDSEED
5
3C
9
$ANGBASE
50
0.0
9
$ANGDIR
70
0
9
$ATTMODE
70
1
9
$AUNITS
70
0
9
$AUPREC
70
0
9
$CECOLOR
62
256
9
$CELTSCALE
40
1.0
9
$CELTYPE
6
ByLayer
9
$CELWEIGHT
370
-1
9
$CLAYER
8
0
9
$CMLJUST
70
0
9
$CMLSCALE
40
20.0
9
$CMLSTYLE
2
Standard
9
$DIMSTYLE
2
Standard
9
$TEXTSIZE
40
2.5
9
$TEXTSTYLE
7
Standard
9
$LUNITS
70
2
9
$LUPREC
70
4
9
$EXTNAMES
290
1
9
$INSBASE
10
0.0
20
0.0
30
0.0
9
$INSUNITS
70
0
9
$LTSCALE
40
1.0
9
$LWDISPLAY
290
0
9
$PDMODE
70
0
9
$PDSIZE
40
0.0
9
$PLINEGEN
70
0
9
$TDCREATE
40
2460898.47349309
9
$TDUCREATE
40
2460898.34849309
9
$TDUPDATE
40
2460898.47349309
9
$TDUUPDATE
40
2460898.34849309
9
$TDINDWG
40
0.0
0
ENDSEC
0
SECTION
2
CLASSES
0
CLASS
1
RASTERVARIABLES
2
AcDbRasterVariables
3
ISM
90
0
280
0
281
0
0
ENDSEC
0
SECTION
2
TABLES
0
TABLE
2
APPID
5
3
330
0
100
AcDbSymbolTable
70
2
0
APPID
5
14
330
3
100
AcDbSymbolTableRecord
100
AcDbRegAppTableRecord
2
ACAD
70
0
0
APPID
5
36
330
3
100
AcDbSymbolTableRecord
100
AcDbRegAppTableRecord
2
AcCmTransparency
70
0
0
ENDTAB
0
TABLE
2
VPORT
5
1
330
0
100
AcDbSymbolTable
70
1
0
VPORT
5
E
330
1
100
AcDbSymbolTableRecord
100
AcDbViewportTableRecord
2
*Active
70
0
10
0.0
20
0.0
11
1.0
21
1.0
12
-1.0
22
1.0
13
0.0
23
0.0
14
0.5
24
0.5
15
10.0
25
10.0
16
0.0
26
0.0
36
1.0
17
0.0
27
0.0
37
0.0
0
ENDTAB
0
TABLE
2
LTYPE
5
5
330
0
100
AcDbSymbolTable
70
3
0
LTYPE
5
10
330
5
100
AcDbSymbolTableRecord
100
AcDbLinetypeTableRecord
70
0
2
Continuous
3
Solid line
72
65
73
0
40
0.0
0
LTYPE
5
11
330
5
100
AcDbSymbolTableRecord
100
AcDbLinetypeTableRecord
70
0
2
ByLayer
3

72
65
73
0
40
0.0
0
LTYPE
5
12
330
5
100
AcDbSymbolTableRecord
100
AcDbLinetypeTableRecord
70
0
2
ByBlock
3

72
65
73
0
40
0.0
0
ENDTAB
0
TABLE
2
LAYER
5
4
330
0
100
AcDbSymbolTable
70
4
0
LAYER
5
F
330
4
100
AcDbSymbolTableRecord
100
AcDbLayerTableRecord
2
0
70
0
62
7
6
Continuous
290
1
370
-3
390
0
0
LAYER
5
1D
330
4
100
AcDbSymbolTableRecord
100
AcDbLayerTableRecord
2
pressure
70
0
62
7
6
Continuous
290
1
370
-3
390
0
0
LAYER
5
20
330
4
100
AcDbSymbolTableRecord
100
AcDbLayerTableRecord
2
cam
70
0
62
7
6
Continuous
290
1
370
-3
390
0
0
LAYER
5
23
330
4
100
AcDbSymbolTableRecord
100
AcDbLayerTableRecord
2
roller
70
0
62
7
6
Continuous
290
1
370
-3
390
0
0
ENDTAB
0
TABLE
2
STYLE
5
6
330
0
100
AcDbSymbolTable
70
1
0
STYLE
5
13
330
6
100
AcDbSymbolTableRecord
100
AcDbTextStyleTableRecord
2
Standard
3
simplex.shx
70
0
71
0
40
0.0
41
1.0
42
0.0
50
0.0
0
ENDTAB
0
TABLE
2
DIMSTYLE
5
7
330
0
100
AcDbSymbolTable
70
1
100
AcDbDimStyleTable
0
DIMSTYLE
105
15
330
7
100
AcDbSymbolTableRecord
100
AcDbDimStyleTableRecord
2
Standard
70
0
3
<>
40
1.0
41
0.18
42
0.0625
43
0.38
44
0.18
46
0.0
73
0
74
0
75
0
76
0
77
1
140
0.18
141
0.09
147
0.09
173
0
176
0
177
0
178
0
179
0
271
2
275
0
278
46
280
0
340
13
345
12
346
12
347
12
371
-2
372
-2
0
ENDTAB
0
TABLE
2
VIEW
5
2
330
0
100
AcDbSymbolTable
70
0
0
ENDTAB
0
TABLE
2
UCS
5
9
330
0
100
AcDbSymbolTable
70
0
0
ENDTAB
0
TABLE
2
BLOCK_RECORD
5
A
330
0
100
AcDbSymbolTable
70
2
0
BLOCK_RECORD
5
17
330
A
100
AcDbSymbolTableRecord
100
AcDbBlockTableRecord
2
*Model_Space
340
1B
0
BLOCK_RECORD
5
30
330
A
100
AcDbSymbolTableRecord
100
AcDbBlockTableRecord
2
*Paper_Space
340
35
0
ENDTAB
0
ENDSEC
0
SECTION
2
BLOCKS
0
BLOCK
5
19
330
17
100
AcDbEntity
8
0
100
AcDbBlockBegin
2
*Model_Space
70
0
10
0.0
20
0.0
30
0.0
3
*Model_Space
0
ENDBLK
5
18
330
17
100
AcDbEntity
8
0
100
AcDbBlockEnd
0
BLOCK
5
32
330
30
100
AcDbEntity
8
0
100
AcDbBlockBegin
2
*Paper_Space
70
0
10
0.0
20
0.0
30
0.0
3
*Paper_Space
0
ENDBLK
5
31
330
30
100
AcDbEntity
8
0
100
AcDbBlockEnd
0
ENDSEC
0
SECTION
2
ENTITIES
0
CIRCLE
5
1E
330
17
100
AcDbEntity
67
0
8
pressure
62
256
6
ByLayer
370
-1
48
1.0
60
0
100
AcDbCircle
10
-1.5
20
0.0
30
0.0
40
22.8906123449941
39
0.0
210
0.0
220
0.0
230
1.0
0
CIRCLE
5
1F
330
17
100
AcDbEntity
67
0
8
pressure
62
256
6
ByLayer
370
-1
48
1.0
60
0
100
AcDbCircle
10
-1.5
20
0.0
30
0.0
40
24.8984339366966
39
0.0
210
0.0
220
0.0
230
1.0
0
SPLINE
5
21
330
17
100
AcDbEntity
67
0
8
cam
62
256
6
ByLayer
370
-1
48
1.0
60
0
100
AcDbSpline
70
2053
71
3
40
0.0
40
0.0
40
0.0
40
0.0
40
1.0
40
2.0
40
3.0
40
4.0
40
5.0
40
6.0
40
7.0
40
8.0
40
9.0
40
10.0
40
11.0
40
12.0
40
13.0
40
14.0
40
15.0
40
16.0
40
17.0
40
18.0
40
19.0
40
20.0
40
21.0
40
22.0
40
23.0
40
24.0
40
25.0
40
26.0
40
27.0
40
28.0
40
29.0
40
30.0
40
31.0
40
32.0
40
33.0
40
34.0
40
35.0
40
36.0
40
37.0
40
38.0
40
39.0
40
40.0
40
41.0
40
42.0
40
43.0
40
44.0
40
45.0
40
46.0
40
47.0
40
48.0
40
49.0
40
50.0
40
51.0
40
52.0
40
53.0
40
54.0
40
55.0
40
56.0
40
57.0
40
58.0
40
59.0
40
60.0
40
61.0
40
62.0
40
63.0
40
64.0
40
65.0
40
66.0
40
67.0
40
68.0
40
69.0
40
70.0
40
71.0
40
72.0
40
73.0
40
74.0
40
75.0
40
76.0
40
77.0
40
78.0
40
79.0
40
80.0
40
81.0
40
82.0
40
83.0
40
84.0
40
85.0
40
86.0
40
87.0
40
88.0
40
89.0
40
90.0
40
91.0
40
92.0
40
93.0
40
94.0
40
95.0
40
96.0
40
97.0
40
98.0
40
99.0
40
100.0
40
101.0
40
102.0
40
103.0
40
104.0
40
105.0
40
106.0
40
107.0
40
108.0
40
109.0
40
110.0
40
111.0
40
112.0
40
113.0
40
114.0
40
115.0
40
116.0
40
117.0
40
118.0
40
119.0
40
120.0
40
121.0
40
122.0
40
123.0
40
124.0
40
125.0
40
126.0
40
127.0
40
128.0
40
129.0
40
130.0
40
131.0
40
132.0
40
133.0
40
134.0
40
135.0
40
136.0
40
137.0
40
138.0
40
139.0
40
140.0
40
141.0
40
142.0
40
143.0
40
144.0
40
145.0
40
146.0
40
147.0
40
148.0
40
149.0
40
150.0
40
151.0
40
152.0
40
153.0
40
154.0
40
155.0
40
156.0
40
157.0
40
158.0
40
159.0
40
160.0
40
161.0
40
162.0
40
163.0
40
164.0
40
165.0
40
166.0
40
167.0
40
168.0
40
169.0
40
170.0
40
171.0
40
172.0
40
173.0
40
174.0
40
175.0
40
176.0
40
177.0
40
178.0
40
179.0
40
180.0
40
181.0
40
182.0
40
183.0
40
184.0
40
185.0
40
186.0
40
187.0
40
188.0
40
189.0
40
190.0
40
191.0
40
192.0
40
193.0
40
194.0
40
195.0
40
196.0
40
197.0
40
198.0
40
199.0
40
200.0
40
201.0
40
202.0
40
203.0
40
204.0
40
205.0
40
206.0
40
207.0
40
208.0
40
209.0
40
210.0
40
211.0
40
212.0
40
213.0
40
214.0
40
215.0
40
216.0
40
217.0
40
218.0
40
219.0
40
220.0
40
221.0
40
222.0
40
223.0
40
224.0
40
225.0
40
226.0
40
227.0
40
228.0
40
229.0
40
230.0
40
231.0
40
232.0
40
233.0
40
234.0
40
235.0
40
236.0
40
237.0
40
238.0
40
239.0
40
240.0
40
241.0
40
242.0
40
243.0
40
244.0
40
245.0
40
246.0
40
247.0
40
248.0
40
249.0
40
250.0
40
251.0
40
252.0
40
253.0
40
254.0
40
255.0
40
256.0
40
257.0
40
258.0
40
259.0
40
260.0
40
261.0
40
262.0
40
263.0
40
264.0
40
265.0
40
266.0
40
267.0
40
268.0
40
269.0
40
270.0
40
271.0
40
272.0
40
273.0
40
274.0
40
275.0
40
276.0
40
277.0
40
278.0
40
279.0
40
280.0
40
281.0
40
282.0
40
283.0
40
284.0
40
285.0
40
286.0
40
287.0
40
288.0
40
289.0
40
290.0
40
291.0
40
292.0
40
293.0
40
294.0
40
295.0
40
296.0
40
297.0
40
298.0
40
299.0
40
300.0
40
301.0
40
302.0
40
303.0
40
304.0
40
305.0
40
306.0
40
307.0
40
308.0
40
309.0
40
310.0
40
311.0
40
312.0
40
313.0
40
314.0
40
315.0
40
316.0
40
317.0
40
318.0
40
319.0
40
320.0
40
321.0
40
322.0
40
323.0
40
324.0
40
325.0
40
326.0
40
327.0
40
328.0
40
329.0
40
330.0
40
331.0
40
332.0
40
333.0
40
334.0
40
335.0
40
336.0
40
337.0
40
338.0
40
339.0
40
340.0
40
341.0
40
342.0
40
343.0
40
344.0
40
345.0
40
346.0
40
347.0
40
348.0
40
349.0
40
350.0
40
351.0
40
352.0
40
353.0
40
354.0
40
355.0
40
356.0
40
357.0
40
358.0
40
359.0
40
360.0
40
361.0
40
362.0
40
363.0
40
364.0
40
365.0
40
366.0
40
367.0
40
368.0
40
369.0
40
370.0
40
371.0
40
372.0
40
373.0
40
374.0
40
375.0
40
376.0
40
377.0
40
378.0
40
379.0
40
380.0
40
381.0
40
382.0
40
383.0
40
384.0
40
385.0
40
386.0
40
387.0
40
388.0
40
389.0
40
390.0
40
391.0
40
392.0
40
393.0
40
394.0
40
395.0
40
396.0
40
397.0
40
398.0
40
399.0
40
400.0
40
401.0
40
402.0
40
403.0
40
404.0
40
405.0
40
406.0
40
407.0
40
408.0
40
409.0
40
410.0
40
411.0
40
412.0
40
413.0
40
414.0
40
415.0
40
416.0
40
417.0
40
418.0
40
419.0
40
420.0
40
421.0
40
422.0
40
423.0
40
424.0
40
425.0
40
426.0
40
427.0
40
428.0
40
429.0
40
430.0
40
431.0
40
432.0
40
433.0
40
434.0
40
435.0
40
436.0
40
437.0
40
438.0
40
439.0
40
440.0
40
441.0
40
442.0
40
443.0
40
444.0
40
445.0
40
446.0
40
447.0
40
448.0
40
449.0
40
450.0
40
451.0
40
452.0
40
453.0
40
454.0
40
455.0
40
456.0
40
457.0
40
458.0
40
459.0
40
460.0
40
461.0
40
462.0
40
463.0
40
464.0
40
465.0
40
466.0
40
467.0
40
468.0
40
469.0
40
470.0
40
471.0
40
472.0
40
473.0
40
474.0
40
475.0
40
476.0
40
477.0
40
478.0
40
479.0
40
480.0
40
481.0
40
482.0
40
483.0
40
484.0
40
485.0
40
486.0
40
487.0
40
488.0
40
489.0
40
490.0
40
491.0
40
492.0
40
493.0
40
494.0
40
495.0
40
496.0
40
497.0
40
498.0
40
499.0
40
500.0
40
501.0
40
502.0
40
503.0
40
504.0
40
505.0
40
506.0
40
507.0
40
508.0
40
509.0
40
510.0
40
511.0
40
512.0
40
513.0
40
514.0
40
515.0
40
516.0
40
517.0
40
518.0
40
519.0
40
520.0
40
521.0
40
522.0
40
523.0
40
524.0
40
525.0
40
526.0
40
527.0
40
528.0
40
529.0
40
530.0
40
531.0
40
532.0
40
533.0
40
534.0
40
535.0
40
536.0
40
537.0
40
538.0
40
539.0
40
540.0
40
541.0
40
542.0
40
543.0
40
544.0
40
545.0
40
546.0
40
547.0
40
548.0
40
549.0
40
550.0
40
551.0
40
552.0
40
553.0
40
554.0
40
555.0
40
556.0
40
557.0
40
558.0
40
559.0
40
560.0
40
561.0
40
562.0
40
563.0
40
564.0
40
565.0
40
566.0
40
567.0
40
568.0
40
569.0
40
570.0
40
571.0
40
572.0
40
573.0
40
574.0
40
575.0
40
576.0
40
577.0
40
578.0
40
579.0
40
580.0
40
581.0
40
582.0
40
583.0
40
584.0
40
585.0
40
586.0
40
587.0
40
588.0
40
589.0
40
590.0
40
591.0
40
592.0
40
593.0
40
594.0
40
595.0
40
596.0
40
597.0
40
598.0
40
599.0
40
600.0
40
601.0
40
602.0
40
603.0
40
604.0
40
605.0
40
606.0
40
607.0
40
608.0
40
609.0
40
610.0
40
611.0
40
612.0
40
613.0
40
614.0
40
615.0
40
616.0
40
617.0
40
618.0
40
619.0
40
620.0
40
621.0
40
622.0
40
623.0
40
624.0
40
625.0
40
626.0
40
627.0
40
628.0
40
629.0
40
630.0
40
631.0
40
632.0
40
633.0
40
634.0
40
635.0
40
636.0
40
637.0
40
638.0
40
639.0
40
640.0
40
641.0
40
642.0
40
643.0
40
644.0
40
645.0
40
646.0
40
647.0
40
648.0
40
649.0
40
650.0
40
651.0
40
652.0
40
653.0
40
654.0
40
655.0
40
656.0
40
657.0
40
658.0
40
659.0
40
660.0
40
661.0
40
662.0
40
663.0
40
664.0
40
665.0
40
666.0
40
667.0
40
668.0
40
669.0
40
670.0
40
671.0
40
672.0
40
673.0
40
674.0
40
675.0
40
676.0
40
677.0
40
678.0
40
679.0
40
680.0
40
681.0
40
682.0
40
683.0
40
684.0
40
685.0
40
686.0
40
687.0
40
688.0
40
689.0
40
690.0
40
691.0
40
692.0
40
693.0
40
694.0
40
695.0
40
696.0
40
697.0
40
698.0
40
699.0
40
700.0
40
701.0
40
702.0
40
703.0
40
704.0
40
705.0
40
706.0
40
707.0
40
708.0
40
709.0
40
710.0
40
711.0
40
712.0
40
713.0
40
714.0
40
715.0
40
716.0
40
717.0
40
718.0
40
719.0
40
720.0
40
721.0
40
722.0
40
723.0
40
724.0
40
725.0
40
726.0
40
727.0
40
728.0
40
729.0
40
730.0
40
731.0
40
732.0
40
733.0
40
734.0
40
735.0
40
736.0
40
737.0
40
738.0
40
739.0
40
740.0
40
741.0
40
742.0
40
743.0
40
744.0
40
745.0
40
746.0
40
747.0
40
748.0
40
749.0
40
750.0
40
751.0
40
752.0
40
753.0
40
754.0
40
755.0
40
756.0
40
757.0
40
758.0
40
759.0
40
760.0
40
761.0
40
762.0
40
763.0
40
764.0
40
765.0
40
766.0
40
767.0
40
768.0
40
769.0
40
770.0
40
771.0
40
772.0
40
773.0
40
774.0
40
775.0
40
776.0
40
777.0
40
778.0
40
779.0
40
780.0
40
781.0
40
782.0
40
783.0
40
784.0
40
785.0
40
786.0
40
787.0
40
788.0
40
789.0
40
790.0
40
791.0
40
792.0
40
793.0
40
794.0
40
795.0
40
796.0
40
797.0
40
798.0
40
799.0
40
800.0
40
801.0
40
802.0
40
803.0
40
804.0
40
805.0
40
806.0
40
807.0
40
808.0
40
809.0
40
810.0
40
811.0
40
812.0
40
813.0
40
814.0
40
815.0
40
816.0
40
817.0
40
818.0
40
819.0
40
820.0
40
821.0
40
822.0
40
823.0
40
824.0
40
825.0
40
826.0
40
827.0
40
828.0
40
829.0
40
830.0
40
831.0
40
832.0
40
833.0
40
834.0
40
835.0
40
836.0
40
837.0
40
838.0
40
839.0
40
840.0
40
841.0
40
842.0
40
843.0
40
844.0
40
845.0
40
846.0
40
847.0
40
848.0
40
849.0
40
850.0
40
851.0
40
852.0
40
853.0
40
854.0
40
855.0
40
856.0
40
857.0
40
858.0
40
859.0
40
860.0
40
861.0
40
862.0
40
863.0
40
864.0
40
865.0
40
866.0
40
867.0
40
868.0
40
869.0
40
870.0
40
871.0
40
872.0
40
873.0
40
874.0
40
875.0
40
876.0
40
877.0
40
878.0
40
879.0
40
880.0
40
881.0
40
882.0
40
883.0
40
884.0
40
885.0
40
886.0
40
887.0
40
888.0
40
889.0
40
890.0
40
891.0
40
892.0
40
893.0
40
894.0
40
895.0
40
896.0
40
897.0
40
898.0
40
899.0
40
900.0
40
901.0
40
902.0
40
903.0
40
904.0
40
905.0
40
906.0
40
907.0
40
908.0
40
909.0
40
910.0
40
911.0
40
912.0
40
913.0
40
914.0
40
915.0
40
916.0
40
917.0
40
918.0
40
919.0
40
920.0
40
921.0
40
922.0
40
923.0
40
924.0
40
925.0
40
926.0
40
927.0
40
928.0
40
929.0
40
930.0
40
931.0
40
932.0
40
933.0
40
934.0
40
935.0
40
936.0
40
937.0
40
938.0
40
939.0
40
940.0
40
941.0
40
942.0
40
943.0
40
944.0
40
945.0
40
946.0
40
947.0
40
948.0
40
949.0
40
950.0
40
951.0
40
952.0
40
953.0
40
954.0
40
955.0
40
956.0
40
957.0
40
958.0
40
959.0
40
960.0
40
961.0
40
962.0
40
963.0
40
964.0
40
965.0
40
966.0
40
967.0
40
968.0
40
969.0
40
970.0
40
971.0
40
972.0
40
973.0
40
974.0
40
975.0
40
976.0
40
977.0
40
978.0
40
979.0
40
980.0
40
981.0
40
982.0
40
983.0
40
984.0
40
985.0
40
986.0
40
987.0
40
988.0
40
989.0
40
990.0
40
991.0
40
992.0
40
993.0
40
994.0
40
995.0
40
996.0
40
997.0
40
998.0
40
999.0
40
1000.0
40
1001.0
40
1002.0
40
1003.0
40
1004.0
40
1005.0
40
1006.0
40
1007.0
40
1008.0
40
1009.0
40
1010.0
40
1011.0
40
1012.0
40
1013.0
40
1014.0
40
1015.0
40
1016.0
40
1017.0
40
1018.0
40
1019.0
40
1020.0
40
1021.0
40
1022.0
40
1023.0
40
1024.0
40
1025.0
40
1026.0
40
1027.0
40
1028.0
40
1029.0
40
1030.0
40
1031.0
40
1032.0
40
1033.0
40
1034.0
40
1035.0
40
1036.0
40
1037.0
40
1038.0
40
1039.0
40
1040.0
40
1041.0
40
1042.0
40
1043.0
40
1044.0
40
1045.0
40
1046.0
40
1047.0
40
1048.0
40
1049.0
40
1050.0
40
1051.0
40
1052.0
40
1053.0
40
1054.0
40
1055.0
40
1056.0
40
1057.0
40
1058.0
40
1059.0
40
1060.0
40
1061.0
40
1062.0
40
1063.0
40
1064.0
40
1065.0
40
1066.0
40
1067.0
40
1068.0
40
1069.0
40
1070.0
40
1071.0
40
1072.0
40
1073.0
40
1074.0
40
1075.0
40
1076.0
40
1077.0
40
1078.0
40
1079.0
40
1080.0
40
1081.0
40
1082.0
40
1083.0
40
1084.0
40
1085.0
40
1086.0
40
1087.0
40
1088.0
40
1089.0
40
1090.0
40
1091.0
40
1092.0
40
1093.0
40
1094.0
40
1095.0
40
1096.0
40
1097.0
40
1098.0
40
1099.0
40
1100.0
40
1101.0
40
1102.0
40
1103.0
40
1104.0
40
1105.0
40
1106.0
40
1107.0
40
1108.0
40
1109.0
40
1110.0
40
1111.0
40
1112.0
40
1113.0
40
1114.0
40
1115.0
40
1116.0
40
1117.0
40
1118.0
40
1119.0
40
1120.0
40
1121.0
40
1122.0
40
1123.0
40
1124.0
40
1125.0
40
1126.0
40
1127.0
40
1128.0
40
1129.0
40
1130.0
40
1131.0
40
1132.0
40
1133.0
40
1134.0
40
1135.0
40
1136.0
40
1137.0
40
1138.0
40
1139.0
40
1140.0
40
1141.0
40
1142.0
40
1143.0
40
1144.0
40
1145.0
40
1146.0
40
1147.0
40
1148.0
40
1149.0
40
1150.0
40
1151.0
40
1152.0
40
1153.0
40
1154.0
40
1155.0
40
1156.0
40
1157.0
40
1158.0
40
1159.0
40
1160.0
40
1161.0
40
1162.0
40
1163.0
40
1164.0
40
1165.0
40
1166.0
40
1167.0
40
1168.0
40
1169.0
40
1170.0
40
1171.0
40
1172.0
40
1173.0
40
1174.0
40
1175.0
40
1176.0
40
1177.0
40
1178.0
40
1179.0
40
1180.0
40
1181.0
40
1182.0
40
1183.0
40
1184.0
40
1185.0
40
1186.0
40
1187.0
40
1188.0
40
1189.0
40
1190.0
40
1191.0
40
1192.0
40
1193.0
40
1194.0
40
1195.0
40
1196.0
40
1197.0
40
1198.0
40
1199.0
40
1200.0
40
1201.0
40
1202.0
40
1203.0
40
1204.0
40
1205.0
40
1206.0
40
1207.0
40
1208.0
40
1209.0
40
1210.0
40
1211.0
40
1212.0
40
1213.0
40
1214.0
40
1215.0
40
1216.0
40
1217.0
40
1218.0
40
1219.0
40
1220.0
40
1221.0
40
1222.0
40
1223.0
40
1224.0
40
1225.0
40
1226.0
40
1227.0
40
1228.0
40
1229.0
40
1230.0
40
1231.0
40
1232.0
40
1233.0
40
1234.0
40
1235.0
40
1236.0
40
1237.0
40
1238.0
40
1239.0
40
1240.0
40
1241.0
40
1242.0
40
1243.0
40
1244.0
40
1245.0
40
1246.0
40
1247.0
40
1248.0
40
1249.0
40
1250.0
40
1251.0
40
1252.0
40
1253.0
40
1254.0
40
1255.0
40
1256.0
40
1257.0
40
1258.0
40
1259.0
40
1260.0
40
1261.0
40
1262.0
40
1263.0
40
1264.0
40
1265.0
40
1266.0
40
1267.0
40
1268.0
40
1269.0
40
1270.0
40
1271.0
40
1272.0
40
1273.0
40
1274.0
40
1275.0
40
1276.0
40
1277.0
40
1278.0
40
1279.0
40
1280.0
40
1281.0
40
1282.0
40
1283.0
40
1284.0
40
1285.0
40
1286.0
40
1287.0
40
1288.0
40
1289.0
40
1290.0
40
1291.0
40
1292.0
40
1293.0
40
1294.0
40
1295.0
40
1296.0
40
1297.0
40
1298.0
40
1299.0
40
1300.0
40
1301.0
40
1302.0
40
1303.0
40
1304.0
40
1305.0
40
1306.0
40
1307.0
40
1308.0
40
1309.0
40
1310.0
40
1311.0
40
1312.0
40
1313.0
40
1314.0
40
1315.0
40
1316.0
40
1317.0
40
1318.0
40
1319.0
40
1320.0
40
1321.0
40
1322.0
40
1323.0
40
1324.0
40
1325.0
40
1326.0
40
1327.0
40
1328.0
40
1329.0
40
1330.0
40
1331.0
40
1332.0
40
1333.0
40
1334.0
40
1335.0
40
1336.0
40
1337.0
40
1338.0
40
1339.0
40
1340.0
40
1341.0
40
1342.0
40
1343.0
40
1344.0
40
1345.0
40
1346.0
40
1347.0
40
1348.0
40
1349.0
40
1350.0
40
1351.0
40
1352.0
40
1353.0
40
1354.0
40
1355.0
40
1356.0
40
1357.0
40
1358.0
40
1359.0
40
1360.0
40
1361.0
40
1362.0
40
1363.0
40
1364.0
40
1365.0
40
1366.0
40
1367.0
40
1368.0
40
1369.0
40
1370.0
40
1371.0
40
1372.0
40
1373.0
40
1374.0
40
1375.0
40
1376.0
40
1377.0
40
1378.0
40
1379.0
40
1380.0
40
1381.0
40
1382.0
40
1383.0
40
1384.0
40
1385.0
40
1386.0
40
1387.0
40
1388.0
40
1389.0
40
1390.0
40
1391.0
40
1392.0
40
1393.0
40
1394.0
40
1395.0
40
1396.0
40
1397.0
40
1398.0
40
1399.0
40
1400.0
40
1401.0
40
1402.0
40
1403.0
40
1404.0
40
1405.0
40
1406.0
40
1407.0
40
1408.0
40
1409.0
40
1410.0
40
1411.0
40
1412.0
40
1413.0
40
1414.0
40
1415.0
40
1416.0
40
1417.0
40
1418.0
40
1419.0
40
1420.0
40
1421.0
40
1422.0
40
1423.0
40
1424.0
40
1425.0
40
1426.0
40
1427.0
40
1428.0
40
1429.0
40
1430.0
40
1431.0
40
1432.0
40
1433.0
40
1434.0
40
1435.0
40
1436.0
40
1437.0
40
1438.0
40
1439.0
40
1440.0
40
1441.0
40
1442.0
40
1443.0
40
1444.0
40
1445.0
40
1446.0
40
1447.0
40
1448.0
40
1449.0
40
1450.0
40
1451.0
40
1452.0
40
1453.0
40
1454.0
40
1455.0
40
1456.0
40
1457.0
40
1458.0
40
1459.0
40
1460.0
40
1461.0
40
1462.0
40
1463.0
40
1464.0
40
1465.0
40
1466.0
40
1467.0
40
1468.0
40
1469.0
40
1470.0
40
1471.0
40
1472.0
40
1473.0
40
1474.0
40
1475.0
40
1476.0
40
1477.0
40
1478.0
40
1479.0
40
1480.0
40
1481.0
40
1482.0
40
1483.0
40
1484.0
40
1485.0
40
1486.0
40
1487.0
40
1488.0
40
1489.0
40
1490.0
40
1491.0
40
1492.0
40
1493.0
40
1494.0
40
1495.0
40
1496.0
40
1497.0
40
1498.0
40
1499.0
40
1500.0
40
1501.0
40
1502.0
40
1503.0
40
1504.0
40
1505.0
40
1506.0
40
1507.0
40
1508.0
40
1509.0
40
1510.0
40
1511.0
40
1512.0
40
1513.0
40
1514.0
40
1515.0
40
1516.0
40
1517.0
40
1518.0
40
1519.0
40
1520.0
40
1521.0
40
1522.0
40
1523.0
40
1524.0
40
1525.0
40
1526.0
40
1527.0
40
1528.0
40
1529.0
40
1530.0
40
1531.0
40
1532.0
40
1533.0
40
1534.0
40
1535.0
40
1536.0
40
1537.0
40
1538.0
40
1539.0
40
1540.0
40
1541.0
40
1542.0
40
1543.0
40
1544.0
40
1545.0
40
1546.0
40
1547.0
40
1548.0
40
1549.0
40
1550.0
40
1551.0
40
1552.0
40
1553.0
40
1554.0
40
1555.0
40
1556.0
40
1557.0
40
1558.0
40
1559.0
40
1560.0
40
1561.0
40
1562.0
40
1563.0
40
1564.0
40
1565.0
40
1566.0
40
1567.0
40
1568.0
40
1569.0
40
1570.0
40
1571.0
40
1572.0
40
1573.0
40
1574.0
40
1575.0
40
1576.0
40
1577.0
40
1578.0
40
1579.0
40
1580.0
40
1581.0
40
1582.0
40
1583.0
40
1584.0
40
1585.0
40
1586.0
40
1587.0
40
1588.0
40
1589.0
40
1590.0
40
1591.0
40
1592.0
40
1593.0
40
1594.0
40
1595.0
40
1596.0
40
1597.0
40
1598.0
40
1599.0
40
1600.0
40
1601.0
40
1602.0
40
1603.0
40
1604.0
40
1605.0
40
1606.0
40
1607.0
40
1608.0
40
1609.0
40
1610.0
40
1611.0
40
1612.0
40
1613.0
40
1614.0
40
1615.0
40
1616.0
40
1617.0
40
1618.0
40
1619.0
40
1620.0
40
1621.0
40
1622.0
40
1623.0
40
1624.0
40
1625.0
40
1626.0
40
1627.0
40
1628.0
40
1629.0
40
1630.0
40
1631.0
40
1632.0
40
1633.0
40
1634.0
40
1635.0
40
1636.0
40
1637.0
40
1638.0
40
1639.0
40
1640.0
40
1641.0
40
1642.0
40
1643.0
40
1644.0
40
1645.0
40
1646.0
40
1647.0
40
1648.0
40
1649.0
40
1650.0
40
1651.0
40
1652.0
40
1653.0
40
1654.0
40
1655.0
40
1656.0
40
1657.0
40
1658.0
40
1659.0
40
1660.0
40
1661.0
40
1662.0
40
1663.0
40
1664.0
40
1665.0
40
1666.0
40
1667.0
40
1668.0
40
1669.0
40
1670.0
40
1671.0
40
1672.0
40
1673.0
40
1674.0
40
1675.0
40
1676.0
40
1677.0
40
1678.0
40
1679.0
40
1680.0
40
1681.0
40
1682.0
40
1683.0
40
1684.0
40
1685.0
40
1686.0
40
1687.0
40
1688.0
40
1689.0
40
1690.0
40
1691.0
40
1692.0
40
1693.0
40
1694.0
40
1695.0
40
1696.0
40
1697.0
40
1698.0
40
1699.0
40
1700.0
40
1701.0
40
1702.0
40
1703.0
40
1704.0
40
1705.0
40
1706.0
40
1707.0
40
1708.0
40
1709.0
40
1710.0
40
1711.0
40
1712.0
40
1713.0
40
1714.0
40
1715.0
40
1716.0
40
1717.0
40
1718.0
40
1719.0
40
1720.0
40
1721.0
40
1722.0
40
1723.0
40
1724.0
40
1725.0
40
1726.0
40
1727.0
40
1728.0
40
1729.0
40
1730.0
40
1731.0
40
1732.0
40
1733.0
40
1734.0
40
1735.0
40
1736.0
40
1737.0
40
1738.0
40
1739.0
40
1740.0
40
1741.0
40
1742.0
40
1743.0
40
1744.0
40
1745.0
40
1746.0
40
1747.0
40
1748.0
40
1749.0
40
1750.0
40
1751.0
40
1752.0
40
1753.0
40
1754.0
40
1755.0
40
1756.0
40
1757.0
40
1758.0
40
1759.0
40
1760.0
40
1761.0
40
1762.0
40
1763.0
40
1764.0
40
1765.0
40
1766.0
40
1767.0
40
1768.0
40
1769.0
40
1770.0
40
1771.0
40
1772.0
40
1773.0
40
1774.0
40
1775.0
40
1776.0
40
1777.0
40
1778.0
40
1779.0
40
1780.0
40
1781.0
40
1782.0
40
1783.0
40
1784.0
40
1785.0
40
1786.0
40
1787.0
40
1788.0
40
1789.0
40
1790.0
40
1791.0
40
1792.0
40
1793.0
40
1794.0
40
1795.0
40
1796.0
40
1797.0
40
1798.0
40
1799.0
40
1800.0
40
1801.0
40
1802.0
40
1803.0
40
1804.0
40
1805.0
40
1806.0
40
1807.0
40
1808.0
40
1809.0
40
1810.0
40
1811.0
40
1812.0
40
1813.0
40
1814.0
40
1815.0
40
1816.0
40
1817.0
40
1818.0
40
1819.0
40
1820.0
40
1821.0
40
1822.0
40
1823.0
40
1824.0
40
1825.0
40
1826.0
40
1827.0
40
1828.0
40
1829.0
40
1830.0
40
1831.0
40
1832.0
40
1833.0
40
1834.0
40
1835.0
40
1836.0
40
1837.0
40
1838.0
40
1839.0
40
1840.0
40
1841.0
40
1842.0
40
1843.0
40
1844.0
40
1845.0
40
1846.0
40
1847.0
40
1848.0
40
1849.0
40
1850.0
40
1851.0
40
1852.0
40
1853.0
40
1854.0
40
1855.0
40
1856.0
40
1857.0
40
1858.0
40
1859.0
40
1860.0
40
1861.0
40
1862.0
40
1863.0
40
1864.0
40
1865.0
40
1866.0
40
1867.0
40
1868.0
40
1869.0
40
1870.0
40
1871.0
40
1872.0
40
1873.0
40
1874.0
40
1875.0
40
1876.0
40
1877.0
40
1878.0
40
1879.0
40
1880.0
40
1881.0
40
1882.0
40
1883.0
40
1884.0
40
1885.0
40
1886.0
40
1887.0
40
1888.0
40
1889.0
40
1890.0
40
1891.0
40
1892.0
40
1893.0
40
1894.0
40
1895.0
40
1896.0
40
1897.0
40
1898.0
40
1899.0
40
1900.0
40
1901.0
40
1902.0
40
1903.0
40
1904.0
40
1905.0
40
1906.0
40
1907.0
40
1908.0
40
1909.0
40
1910.0
40
1911.0
40
1912.0
40
1913.0
40
1914.0
40
1915.0
40
1916.0
40
1917.0
40
1918.0
40
1919.0
40
1920.0
40
1921.0
40
1922.0
40
1923.0
40
1924.0
40
1925.0
40
1926.0
40
1927.0
40
1928.0
40
1929.0
40
1930.0
40
1931.0
40
1932.0
40
1933.0
40
1934.0
40
1935.0
40
1936.0
40
1937.0
40
1938.0
40
1939.0
40
1940.0
40
1941.0
40
1942.0
40
1943.0
40
1944.0
40
1945.0
40
1946.0
40
1947.0
40
1948.0
40
1949.0
40
1950.0
40
1951.0
40
1952.0
40
1953.0
40
1954.0
40
1955.0
40
1956.0
40
1957.0
40
1958.0
40
1959.0
40
1960.0
40
1961.0
40
1962.0
40
1963.0
40
1964.0
40
1965.0
40
1966.0
40
1967.0
40
1968.0
40
1969.0
40
1970.0
40
1971.0
40
1972.0
40
1973.0
40
1974.0
40
1975.0
40
1976.0
40
1977.0
40
1978.0
40
1979.0
40
1980.0
40
1981.0
40
1982.0
40
1983.0
40
1984.0
40
1985.0
40
1986.0
40
1987.0
40
1988.0
40
1989.0
40
1990.0
40
1991.0
40
1992.0
40
1993.0
40
1994.0
40
1995.0
40
1996.0
40
1997.0
40
1998.0
40
1998.0
40
1998.0
40
1998.0
41
1.0
10
24.0
20
0.0
30
0.0
41
1.0
10
23.9993112773675
20
0.0914774765673519
30
0.0
41
1.0
10
23.9972459438501
20
0.182907758237893
30
0.0
41
1.0
10
23.9938065011247
20
0.2742437192381
30
0.0
41
1.0
10
23.9889971137771
20
0.365438371962494
30
0.0
41
1.0
10
23.9828236019888
20
0.456444935861513
30
0.0
41
1.0
10
23.9752934313022
20
0.547216906094528
30
0.0
41
1.0
10
23.9664156994646
20
0.637708121870579
30
0.0
41
1.0
10
23.9562011203563
20
0.727872834400171
30
0.0
41
1.0
10
23.9446620050041
20
0.817665774382394
30
0.0
41
1.0
10
23.9318122396859
20
0.907042218952795
30
0.0
41
1.0
10
23.9176672611293
20
0.995958058018769
30
0.0
41
1.0
10
23.9022440288092
20
1.08436985991081
30
0.0
41
1.0
10
23.8855609943479
20
1.17223493627971
30
0.0
41
1.0
10
23.8676380680221
20
1.25951140617192
30
0.0
41
1.0
10
23.8484965823795
20
1.34615825921739
30
0.0
41
1.0
10
23.8281592529676
20
1.43213541786687
30
0.0
41
1.0
10
23.8066501361762
20
1.51740379861846
30
0.0
41
1.0
10
23.7839945841932
20
1.60192537217613
30
0.0
41
1.0
10
23.7602191970712
20
1.68566322248663
30
0.0
41
1.0
10
23.7353517719019
20
1.76858160460477
30
0.0
41
1.0
10
23.70942124909
20
1.85064600134122
30
0.0
41
1.0
10
23.6824576557169
20
1.93182317865175
30
0.0
41
1.0
10
23.6544920459804
20
2.01208123973156
30
0.0
41
1.0
10
23.6255564386919
20
2.09138967778418
30
0.0
41
1.0
10
23.5956837518073
20
2.16971942744028
30
0.0
41
1.0
10
23.5649077339625
20
2.24704291480856
30
0.0
41
1.0
10
23.5332628929783
20
2.32333410614836
30
0.0
41
1.0
10
23.5007844212897
20
2.39856855516165
30
0.0
41
1.0
10
23.4675081182488
20
2.47272344891144
30
0.0
41
1.0
10
23.4334703092395
20
2.54577765238336
30
0.0
41
1.0
10
23.3987077615306
20
2.61771175171872
30
0.0
41
1.0
10
23.3632575967832
20
2.68850809615972
30
0.0
41
1.0
10
23.3271572001145
20
2.75815083876144
30
0.0
41
1.0
10
23.2904441256036
20
2.82662597594089
30
0.0
41
1.0
10
23.2531559981086
20
2.89392138595114
30
0.0
41
1.0
10
23.2153304112468
20
2.96002686638797
30
0.0
41
1.0
10
23.1770048213663
20
3.02493417085929
30
0.0
41
1.0
10
23.1382164373162
20
3.08863704497232
30
0.0
41
1.0
10
23.0990021057951
20
3.15113126182236
30
0.0
41
1.0
10
23.0593981920309
20
3.21241465719962
30
0.0
41
1.0
10
23.0194404555123
20
3.27248716476715
30
0.0
41
1.0
10
22.9791639204582
20
3.33135085150554
30
0.0
41
1.0
10
22.9386027406738
20
3.38900995376815
30
0.0
41
1.0
10
22.897790058399
20
3.44547091434592
30
0.0
41
1.0
10
22.8567578567134
20
3.50074242100458
30
0.0
41
1.0
10
22.8155368050075
20
3.55483544702973
30
0.0
41
1.0
10
22.7741560969819
20
3.60776329439999
30
0.0
41
1.0
10
22.7326432805756
20
3.65954164030526
30
0.0
41
1.0
10
22.6910240791651
20
3.71018858783963
30
0.0
41
1.0
10
22.6493222033118
20
3.75972472182852
30
0.0
41
1.0
10
22.6075591522651
20
3.8081731709007
30
0.0
41
1.0
10
22.565754004364
20
3.85555967709033
30
0.0
41
1.0
10
22.5239231954041
20
3.90191267445801
30
0.0
41
1.0
10
22.4820802839734
20
3.94726337845566
30
0.0
41
1.0
10
22.4402357026939
20
3.99164588803517
30
0.0
41
1.0
10
22.3983964942491
20
4.03509730282027
30
0.0
41
1.0
10
22.3565660310407
20
4.07765785803313
30
0.0
41
1.0
10
22.3147437172953
20
4.11937108029968
30
0.0
41
1.0
10
22.2729246724553
20
4.16028396795998
30
0.0
41
1.0
10
22.2310993947515
20
4.20044720009328
30
0.0
41
1.0
10
22.1892534039772
20
4.23991537914252
30
0.0
41
1.0
10
22.1473668627008
20
4.27874731280243
30
0.0
41
1.0
10
22.1054141754914
20
4.3170063417328
30
0.0
41
1.0
10
22.0633635662374
20
4.35476072068411
30
0.0
41
1.0
10
22.021176634363
20
4.39208406178969
30
0.0
41
1.0
10
21.9788078917725
20
4.4290558500916
30
0.0
41
1.0
10
21.9362042837626
20
4.46576204282799
30
0.0
41
1.0
10
21.8933046990729
20
4.50229576560534
30
0.0
41
1.0
10
21.850039476845
20
4.53875812028067
30
0.0
41
1.0
10
21.806329921731
20
4.57525912112704
30
0.0
41
1.0
10
21.7620878429942
20
4.61191877754866
30
0.0
41
1.0
10
21.7172151394846
20
4.64886834308419
30
0.0
41
1.0
10
21.6716034602472
20
4.68625175142713
30
0.0
41
1.0
10
21.6251339806825
20
4.72422726030872
30
0.0
41
1.0
10
21.577677347191
20
4.7629693227469
30
0.0
41
1.0
10
21.5290938596788
20
4.80267070152216
30
0.0
41
1.0
10
21.4792339818221
20
4.84354483559765
30
0.0
41
1.0
10
21.4279392941523
20
4.88582845488884
30
0.0
41
1.0
10
21.3750440351876
20
4.9297844200392
30
0.0
41
1.0
10
21.3203774108995
20
4.97570473367553
30
0.0
41
1.0
10
21.2637668918036
20
5.02391362517015
30
0.0
41
1.0
10
21.2050427574222
20
5.07477054758342
30
0.0
41
1.0
10
21.1440441849639
20
5.12867283795925
30
0.0
41
1.0
10
21.0806272043524
20
5.18605767533173
30
0.0
41
1.0
10
21.0146748417595
20
5.24740282094991
30
0.0
41
1.0
10
20.9461097285011
20
5.31322544256097
30
0.0
41
1.0
10
20.8749093339277
20
5.3840781173279
30
0.0
41
1.0
10
20.8011237550988
20
5.46054089821944
30
0.0
41
1.0
10
20.7248956247431
20
5.54320816002722
30
0.0
41
1.0
10
20.6464811509517
20
5.63266888606984
30
0.0
41
1.0
10
20.5662705705574
20
5.72947922058687
30
0.0
41
1.0
10
20.4848054287236
20
5.83412662656781
30
0.0
41
1.0
10
20.4027892209842
20
5.94698598558581
30
0.0
41
1.0
10
20.3210872939133
20
6.0682695298823
30
0.0
41
1.0
10
20.240711847171
20
6.19797454023354
30
0.0
41
1.0
10
20.1627888027868
20
6.33583497314039
30
0.0
41
1.0
10
20.0885054848296
20
6.48128501022047
30
0.0
41
1.0
10
20.0190414346662
20
6.63344315146693
30
0.0
41
1.0
10
19.9554887118668
20
6.79112413962436
30
0.0
41
1.0
10
19.898771616641
20
6.95288237343632
30
0.0
41
1.0
10
19.8495776062787
20
7.11708500569687
30
0.0
41
1.0
10
19.8083102796564
20
7.28200695801063
30
0.0
41
1.0
10
19.7750715652958
20
7.44593542436204
30
0.0
41
1.0
10
19.7496746451806
20
7.60726961497886
30
0.0
41
1.0
10
19.7316833830036
20
7.76460306435519
30
0.0
41
1.0
10
19.7204697931157
20
7.91678012422646
30
0.0
41
1.0
10
19.715279361906
20
8.06292376051649
30
0.0
41
1.0
10
19.7152948009674
20
8.20243681729452
30
0.0
41
1.0
10
19.7196912832339
20
8.33498235609617
30
0.0
41
1.0
10
19.7276793190029
20
8.46045015818517
30
0.0
41
1.0
10
19.7385342654778
20
8.57891627714358
30
0.0
41
1.0
10
19.7516135210471
20
8.69060126765747
30
0.0
41
1.0
10
19.7663636133021
20
8.79583103190338
30
0.0
41
1.0
10
19.7823197852047
20
8.89500259177439
30
0.0
41
1.0
10
19.7991005608018
20
8.98855577366708
30
0.0
41
1.0
10
19.8163993710645
20
9.07695086508057
30
0.0
41
1.0
10
19.8339748249985
20
9.16065173968271
30
0.0
41
1.0
10
19.8516407354021
20
9.24011366993438
30
0.0
41
1.0
10
19.8692566091251
20
9.31577496459133
30
0.0
41
1.0
10
19.8867190056842
20
9.38805160533965
30
0.0
41
1.0
10
19.9039539506223
20
9.4573341550076
30
0.0
41
1.0
10
19.920910445981
20
9.52398633095408
30
0.0
41
1.0
10
19.937555032194
20
9.58834475847755
30
0.0
41
1.0
10
19.9538673075078
20
9.65071952846028
30
0.0
41
1.0
10
19.9698362896114
20
9.71139527605417
30
0.0
41
1.0
10
19.9854574996572
20
9.77063257225353
30
0.0
41
1.0
10
20.000730654276
20
9.82866947907866
30
0.0
41
1.0
10
20.0156578618166
20
9.8857231641238
30
0.0
41
1.0
10
20.030242231839
20
9.94199150393019
30
0.0
41
1.0
10
20.0444868200048
20
9.99765463039554
30
0.0
41
1.0
10
20.0583938429172
20
10.0528763922722
30
0.0
41
1.0
10
20.0719641086229
20
10.1078057164222
30
0.0
41
1.0
10
20.0851966182287
20
10.1625778622269
30
0.0
41
1.0
10
20.0980883023722
20
10.2173155684322
30
0.0
41
1.0
10
20.1106338632434
20
10.2721300955337
30
0.0
41
1.0
10
20.1228256986022
20
10.3271221691702
30
0.0
41
1.0
10
20.1346538889555
20
10.3823828313233
30
0.0
41
1.0
10
20.1461062328952
20
10.4379942067519
30
0.0
41
1.0
10
20.1571683187001
20
10.4940301922391
30
0.0
41
1.0
10
20.167823622803
20
10.5505570760716
30
0.0
41
1.0
10
20.1780536277275
20
10.6076340948238
30
0.0
41
1.0
10
20.1878379536962
20
10.6653139340519
30
0.0
41
1.0
10
20.1971544993864
20
10.723643178992
30
0.0
41
1.0
10
20.205979588321
20
10.7826627208196
30
0.0
41
1.0
10
20.2142881181822
20
10.8424081235019
30
0.0
41
1.0
10
20.2220537109693
20
10.9029099557692
30
0.0
41
1.0
10
20.2292488624199
20
10.964194092262
30
0.0
41
1.0
10
20.2358450895047
20
11.0262819874708
30
0.0
41
1.0
10
20.2418130751131
20
11.0891909256885
30
0.0
41
1.0
10
20.2471228092857
20
11.152934249835
30
0.0
41
1.0
10
20.2517437265341
20
11.2175215716871
30
0.0
41
1.0
10
20.2556448389331
20
11.2829589657569
30
0.0
41
1.0
10
20.258794864779
20
11.3492491487996
30
0.0
41
1.0
10
20.2611623526912
20
11.4163916467048
30
0.0
41
1.0
10
20.2627158010978
20
11.484382950313
30
0.0
41
1.0
10
20.2634237730921
20
11.5532166615244
30
0.0
41
1.0
10
20.2632550066806
20
11.6228836308982
30
0.0
41
1.0
10
20.2621785204677
20
11.6933720878019
30
0.0
41
1.0
10
20.2601637148406
20
11.764667764043
30
0.0
41
1.0
10
20.2571804687245
20
11.8367540118005
30
0.0
41
1.0
10
20.2531992319903
20
11.9096119165774
30
0.0
41
1.0
10
20.2481911135959
20
11.9832204058059
30
0.0
41
1.0
10
20.2421279655445
20
12.0575563536587
30
0.0
41
1.0
10
20.2349824627429
20
12.1325946825522
30
0.0
41
1.0
10
20.2267281788399
20
12.2083084617636
30
0.0
41
1.0
10
20.2173396581208
20
12.2846690035325
30
0.0
41
1.0
10
20.2067924835331
20
12.3616459569667
30
0.0
41
1.0
10
20.1950633409112
20
12.4392074000301
30
0.0
41
1.0
10
20.1821300794666
20
12.5173199298524
30
0.0
41
1.0
10
20.1679717686047
20
12.5959487515652
30
0.0
41
1.0
10
20.1525687511257
20
12.6750577658405
30
0.0
41
1.0
10
20.1359026928642
20
12.7546096552783
30
0.0
41
1.0
10
20.1179566288173
20
12.8345659697681
30
0.0
41
1.0
10
20.0987150058085
20
12.9148872109248
30
0.0
41
1.0
10
20.0781637217332
20
12.9955329156835
30
0.0
41
1.0
10
20.0562901614269
20
13.0764617391176
30
0.0
41
1.0
10
20.0330832291962
20
13.1576315365298
30
0.0
41
1.0
10
20.0085333780507
20
13.2389994448534
30
0.0
41
1.0
10
19.9826326356731
20
13.3205219633865
30
0.0
41
1.0
10
19.955374627161
20
13.4021550338725
30
0.0
41
1.0
10
19.9267545945763
20
13.4838541199291
30
0.0
41
1.0
10
19.8967694133347
20
13.5655742858206
30
0.0
41
1.0
10
19.8654176054682
20
13.6472702745583
30
0.0
41
1.0
10
19.8326993497937
20
13.7288965853089
30
0.0
41
1.0
10
19.79861648902
20
13.8104075500838
30
0.0
41
1.0
10
19.7631725338248
20
13.8917574096743
30
0.0
41
1.0
10
19.7263726639365
20
13.9729003887984
30
0.0
41
1.0
10
19.6882237262522
20
14.0537907704127
30
0.0
41
1.0
10
19.6487342300266
20
14.1343829691472
30
0.0
41
1.0
10
19.6079143391658
20
14.2146316038102
30
0.0
41
1.0
10
19.5657758616611
20
14.2944915689139
30
0.0
41
1.0
10
19.5223322361995
20
14.3739181051629
30
0.0
41
1.0
10
19.4775985159865
20
14.4528668688506
30
0.0
41
1.0
10
19.4315913498194
20
14.531294000103
30
0.0
41
1.0
10
19.3843289604509
20
14.6091561899112
30
0.0
41
1.0
10
19.335831120281
20
14.6864107458892
30
0.0
41
1.0
10
19.2861191244184
20
14.7630156566949
30
0.0
41
1.0
10
19.2352157611545
20
14.8389296550517
30
0.0
41
1.0
10
19.1831452798903
20
14.9141122793063
30
0.0
41
1.0
10
19.1299333565612
20
14.9885239334581
30
0.0
41
1.0
10
19.0756070566039
20
15.0621259455973
30
0.0
41
1.0
10
19.0201947955103
20
15.1348806246866
30
0.0
41
1.0
10
18.9637262970144
20
15.2067513156233
30
0.0
41
1.0
10
18.9062325489583
20
15.2777024525179
30
0.0
41
1.0
10
18.847745756885
20
15.3476996101279
30
0.0
41
1.0
10
18.7882992954044
20
15.4167095533825
30
0.0
41
1.0
10
18.7279276573812
20
15.484700284939
30
0.0
41
1.0
10
18.6666664009901
20
15.5516410907101
30
0.0
41
1.0
10
18.6045520946885
20
15.6175025833021
30
0.0
41
1.0
10
18.5416222601516
20
15.6822567433069
30
0.0
41
1.0
10
18.477915313216
20
15.7458769583909
30
0.0
41
1.0
10
18.4134705028801
20
15.8083380601244
30
0.0
41
1.0
10
18.348327848402
20
15.8696163584991
30
0.0
41
1.0
10
18.2825280745407
20
15.9296896740787
30
0.0
41
1.0
10
18.2161125449806
20
15.9885373677339
30
0.0
41
1.0
10
18.149123193978
20
16.0461403679101
30
0.0
41
1.0
10
18.0816024562672
20
16.1024811953811
30
0.0
41
1.0
10
18.0135931952582
20
16.1575439854424
30
0.0
41
1.0
10
17.9451386295574
20
16.2113145074982
30
0.0
41
1.0
10
17.8762822578361
20
16.2637801820008
30
0.0
41
1.0
10
17.8070677820683
20
16.3149300947007
30
0.0
41
1.0
10
17.7375390291542
20
16.3647550081668
30
0.0
41
1.0
10
17.667739870939
20
16.4132473705414
30
0.0
41
1.0
10
17.5977141426304
20
16.4604013214931
30
0.0
41
1.0
10
17.5275055596095
20
16.5062126953328
30
0.0
41
1.0
10
17.4571576326229
20
16.5506790212646
30
0.0
41
1.0
10
17.3867135813331
20
16.593799520738
30
0.0
41
1.0
10
17.3162162461913
20
16.6355751018766
30
0.0
41
1.0
10
17.2457079985898
20
16.676008350958
30
0.0
41
1.0
10
17.1752306492313
20
16.7151035209213
30
0.0
41
1.0
10
17.1048253546407
20
16.7528665168833
30
0.0
41
1.0
10
17.034532521728
20
16.7893048786458
30
0.0
41
1.0
10
16.9643917102889
20
16.8244277601817
30
0.0
41
1.0
10
16.894441533311
20
16.8582459060882
30
0.0
41
1.0
10
16.8247195549281
20
16.8907716250028
30
0.0
41
1.0
10
16.7552621858382
20
16.9220187599808
30
0.0
41
1.0
10
16.6861045759712
20
16.95200265584
30
0.0
41
1.0
10
16.6172805041581
20
16.9807401234831
30
0.0
41
1.0
10
16.5488222645164
20
17.0082494012183
30
0.0
41
1.0
10
16.4807605492242
20
17.0345501131078
30
0.0
41
1.0
10
16.4131243273075
20
17.0596632243841
30
0.0
41
1.0
10
16.3459407190138
20
17.0836109939888
30
0.0
41
1.0
10
16.2792348652859
20
17.1064169243067
30
0.0
41
1.0
10
16.2130297917817
20
17.1281057081853
30
0.0
41
1.0
10
16.1473462668155
20
17.148703173357
30
0.0
41
1.0
10
16.08220265251
20
17.1682362244118
30
0.0
41
1.0
10
16.0176147483582
20
17.1867327825031
30
0.0
41
1.0
10
15.9535956262899
20
17.2042217230163
30
0.0
41
1.0
10
15.8901554562222
20
17.2207328114836
30
0.0
41
1.0
10
15.8273013209453
20
17.2362966380967
30
0.0
41
1.0
10
15.7650370190505
20
17.2509445512513
30
0.0
41
1.0
10
15.7033628544502
20
17.2647085906566
30
0.0
41
1.0
10
15.6422754108609
20
17.2776214206691
30
0.0
41
1.0
10
15.5817673094285
20
17.2897162646582
30
0.0
41
1.0
10
15.5218269474603
20
17.3010268413965
30
0.0
41
1.0
10
15.4624382159953
20
17.3115873046958
30
0.0
41
1.0
10
15.4035801936937
20
17.3214321877827
30
0.0
41
1.0
10
15.3452268142557
20
17.3305963542502
30
0.0
41
1.0
10
15.2873465042961
20
17.3391149578344
30
0.0
41
1.0
10
15.2299017883069
20
17.3470234137719
30
0.0
41
1.0
10
15.1728488570441
20
17.354357385115
30
0.0
41
1.0
10
15.1161370953926
20
17.3611527881386
30
0.0
41
1.0
10
15.0597085655082
20
17.3674458218958
30
0.0
41
1.0
10
15.0034974408408
20
17.37327302811
30
0.0
41
1.0
10
14.9474293865458
20
17.3786713889561
30
0.0
41
1.0
10
14.8914208818451
20
17.3836784719519
30
0.0
41
1.0
10
14.8353784801851
20
17.3883326331918
30
0.0
41
1.0
10
14.7791980036596
20
17.3926732925763
30
0.0
41
1.0
10
14.7227636692698
20
17.3967412976009
30
0.0
41
1.0
10
14.6659471463747
20
17.4005793957171
30
0.0
41
1.0
10
14.6086065474113
20
17.4042328393578
30
0.0
41
1.0
10
14.5505853579882
20
17.4077501524574
30
0.0
41
1.0
10
14.4917113182387
20
17.4111840927265
30
0.0
41
1.0
10
14.4317952754821
20
17.4145928500118
30
0.0
41
1.0
10
14.3706300395472
20
17.4180415276317
30
0.0
41
1.0
10
14.307989287564
20
17.4216039602964
30
0.0
41
1.0
10
14.2436265858307
20
17.4253649285086
30
0.0
41
1.0
10
14.1772746239518
20
17.4294228341656
30
0.0
41
1.0
10
14.1086447924618
20
17.4338929038407
30
0.0
41
1.0
10
14.0374272812516
20
17.4389109824104
30
0.0
41
1.0
10
13.9632919337927
20
17.4446379666603
30
0.0
41
1.0
10
13.8858901621267
20
17.4512649010313
30
0.0
41
1.0
10
13.8048583090276
20
17.4590187086792
30
0.0
41
1.0
10
13.7198229328682
20
17.4681684513846
30
0.0
41
1.0
10
13.6304085788172
20
17.4790318906261
30
0.0
41
1.0
10
13.5362486707197
20
17.4919819477287
30
0.0
41
1.0
10
13.4370001841902
20
17.5074524238245
30
0.0
41
1.0
10
13.3323627020205
20
17.5259420379354
30
0.0
41
1.0
10
13.2221022517753
20
17.5480154867834
30
0.0
41
1.0
10
13.1060799144459
20
17.5742998632202
30
0.0
41
1.0
10
12.9842845048796
20
17.605474472842
30
0.0
41
1.0
10
12.8568676187606
20
17.642251993752
30
0.0
41
1.0
10
12.7241780460713
20
17.6853492158136
30
0.0
41
1.0
10
12.5867911199145
20
17.7354464764714
30
0.0
41
1.0
10
12.4455273253366
20
17.7931365318596
30
0.0
41
1.0
10
12.301453928839
20
17.8588659486303
30
0.0
41
1.0
10
12.155864075472
20
17.932874861674
30
0.0
41
1.0
10
12.0102301669509
20
18.0151434395243
30
0.0
41
1.0
10
11.8661323747615
20
18.105354685429
30
0.0
41
1.0
10
11.7251681765806
20
18.2028823734363
30
0.0
41
1.0
10
11.5888535005457
20
18.3068095796641
30
0.0
41
1.0
10
11.4585288406466
20
18.4159779158413
30
0.0
41
1.0
10
11.3352834209054
20
18.5290616048751
30
0.0
41
1.0
10
11.2199070229923
20
18.6446557717605
30
0.0
41
1.0
10
11.1128735049052
20
18.7613662075118
30
0.0
41
1.0
10
11.0143540885883
20
18.8778888523403
30
0.0
41
1.0
10
10.9242538674039
20
18.9930706788006
30
0.0
41
1.0
10
10.8422626405906
20
19.1059481875238
30
0.0
41
1.0
10
10.7679111564948
20
19.2157639683811
30
0.0
41
1.0
10
10.7006254894782
20
19.3219648021379
30
0.0
41
1.0
10
10.6397746880294
20
19.4241862830852
30
0.0
41
1.0
10
10.5847092377322
20
19.5222291319622
30
0.0
41
1.0
10
10.5347898095091
20
19.6160316862486
30
0.0
41
1.0
10
10.4894070434045
20
19.7056419660703
30
0.0
41
1.0
10
10.4479937954197
20
19.7911915725174
30
0.0
41
1.0
10
10.4100314957969
20
19.8728726892449
30
0.0
41
1.0
10
10.3750521970182
20
19.9509187118667
30
0.0
41
1.0
10
10.3426376680352
20
20.0255885254498
30
0.0
41
1.0
10
10.3124166160792
20
20.0971541494243
30
0.0
41
1.0
10
10.2840608481409
20
20.1658913192531
30
0.0
41
1.0
10
10.2572809505568
20
20.2320725258068
30
0.0
41
1.0
10
10.2318218774125
20
20.295962046762
30
0.0
41
1.0
10
10.2074586959642
20
20.3578125506662
30
0.0
41
1.0
10
10.183992633999
20
20.4178629144632
30
0.0
41
1.0
10
10.1612475022961
20
20.4763369575877
30
0.0
41
1.0
10
10.1390665176043
20
20.5334428538017
30
0.0
41
1.0
10
10.1173095213281
20
20.5893730327651
30
0.0
41
1.0
10
10.0958505712485
20
20.6443044260087
30
0.0
41
1.0
10
10.0745758741397
20
20.6983989467704
30
0.0
41
1.0
10
10.0533820232109
20
20.7518041208898
30
0.0
41
1.0
10
10.0321745038515
20
20.8046538076785
30
0.0
41
1.0
10
10.0108664327719
20
20.8570689664569
30
0.0
41
1.0
10
9.9893774983807
20
20.9091584372284
30
0.0
41
1.0
10
9.96763307348714
20
20.9610197135983
30
0.0
41
1.0
10
9.94556347479427
20
21.0127396932239
30
0.0
41
1.0
10
9.92310334691562
20
21.064395396374
30
0.0
41
1.0
10
9.90019115167862
20
21.1160546470272
30
0.0
41
1.0
10
9.87676874621465
20
21.1677767137016
30
0.0
41
1.0
10
9.85278103575704
20
21.2196129091529
30
0.0
41
1.0
10
9.82817568918168
20
21.2716071494229
30
0.0
41
1.0
10
9.80290290715076
20
21.3237964736072
30
0.0
41
1.0
10
9.77691523428509
20
21.3762115262835
30
0.0
41
1.0
10
9.75016740812423
20
21.4288770048681
30
0.0
41
1.0
10
9.72261623876584
20
21.4818120743328
30
0.0
41
1.0
10
9.69422051403289
20
21.5350307517592
30
0.0
41
1.0
10
9.66494092582564
20
21.5885422631698
30
0.0
41
1.0
10
9.63474001399628
20
21.6423513749888
30
0.0
41
1.0
10
9.60358212465701
20
21.6964587023589
30
0.0
41
1.0
10
9.57143338031472
20
21.7508609964016
30
0.0
41
1.0
10
9.53826165963059
20
21.8055514123543
30
0.0
41
1.0
10
9.50403658494438
20
21.8605197603645
30
0.0
41
1.0
10
9.4687295159895
20
21.9157527405702
30
0.0
41
1.0
10
9.43231354846723
20
21.9712341639486
30
0.0
41
1.0
10
9.39476351635145
20
22.0269451602784
30
0.0
41
1.0
10
9.35605599696725
20
22.0828643744308
30
0.0
41
1.0
10
9.31616931803155
20
22.138968152084
30
0.0
41
1.0
10
9.27508356596669
20
22.1952307158462
30
0.0
41
1.0
10
9.23278059490141
20
22.2516243326683
30
0.0
41
1.0
10
9.18924403586194
20
22.308119473339
30
0.0
41
1.0
10
9.14445930573066
20
22.3646849647645
30
0.0
41
1.0
10
9.09841361561334
20
22.4212881356654
30
0.0
41
1.0
10
9.05109597831042
20
22.4778949562475
30
0.0
41
1.0
10
9.00249721463432
20
22.5344701723464
30
0.0
41
1.0
10
8.9526099583542
20
22.5909774344837
30
0.0
41
1.0
10
8.90142865958444
20
22.6473794222276
30
0.0
41
1.0
10
8.84894958646183
20
22.7036379641988
30
0.0
41
1.0
10
8.79517082498274
20
22.7597141540263
30
0.0
41
1.0
10
8.740092276893
20
22.8155684625176
30
0.0
41
1.0
10
8.68371565554285
20
22.8711608462763
30
0.0
41
1.0
10
8.62604447963596
20
22.9264508529676
30
0.0
41
1.0
10
8.5670840648164
20
22.9813977234096
30
0.0
41
1.0
10
8.50684151305007
20
23.0359604906396
30
0.0
41
1.0
10
8.44532569976922
20
23.0900980760859
30
0.0
41
1.0
10
8.382547258758
20
23.1437693829562
30
0.0
41
1.0
10
8.31851856476696
20
23.1969333869342
30
0.0
41
1.0
10
8.25325371385175
20
23.249549224264
30
0.0
41
1.0
10
8.18676850143932
20
23.3015762772842
30
0.0
41
1.0
10
8.11908039813077
20
23.3529742574655
30
0.0
41
1.0
10
8.05020852325686
20
23.4037032859901
30
0.0
41
1.0
10
7.98017361620673
20
23.453723971906
30
0.0
41
1.0
10
7.90899800555628
20
23.5029974878773
30
0.0
41
1.0
10
7.83670557602647
20
23.5514856435455
30
0.0
41
1.0
10
7.76332173330664
20
23.5991509565098
30
0.0
41
1.0
10
7.68887336678143
20
23.6459567209291
30
0.0
41
1.0
10
7.61338881020378
20
23.6918670737411
30
0.0
41
1.0
10
7.53689780035957
20
23.7368470584932
30
0.0
41
1.0
10
7.45943143377294
20
23.7808626867722
30
0.0
41
1.0
10
7.38102212150381
20
23.8238809972182
30
0.0
41
1.0
10
7.30170354209209
20
23.8658701121065
30
0.0
41
1.0
10
7.2215105927056
20
23.9067992914761
30
0.0
41
1.0
10
7.14047933855068
20
23.9466389847839
30
0.0
41
1.0
10
7.05864696060717
20
23.9853608800613
30
0.0
41
1.0
10
6.97605170175088
20
24.0229379505481
30
0.0
41
1.0
10
6.89273281132891
20
24.0593444987786
30
0.0
41
1.0
10
6.80873048825457
20
24.0945561980938
30
0.0
41
1.0
10
6.72408582269032
20
24.1285501315529
30
0.0
41
1.0
10
6.63884073638846
20
24.1613048282172
30
0.0
41
1.0
10
6.55303792176045
20
24.1928002967803
30
0.0
41
1.0
10
6.46672077974693
20
24.223018056517
30
0.0
41
1.0
10
6.37993335656116
20
24.2519411655264
30
0.0
41
1.0
10
6.2927202793797
20
24.2795542462407
30
0.0
41
1.0
10
6.20512669105429
20
24.3058435081773
30
0.0
41
1.0
10
6.11719818391963
20
24.3307967679076
30
0.0
41
1.0
10
6.02898073277188
20
24.3544034662192
30
0.0
41
1.0
10
5.94052062709254
20
24.376654682449
30
0.0
41
1.0
10
5.85186440259276
20
24.3975431459635
30
0.0
41
1.0
10
5.76305877215216
20
24.4170632447659
30
0.0
41
1.0
10
5.67415055622616
20
24.4352110312083
30
0.0
41
1.0
10
5.58518661279489
20
24.4519842247897
30
0.0
41
1.0
10
5.49621376692586
20
24.4673822120201
30
0.0
41
1.0
10
5.40727874002125
20
24.4814060433315
30
0.0
41
1.0
10
5.31842807881933
20
24.494058427019
30
0.0
41
1.0
10
5.22970808421763
20
24.5053437201931
30
0.0
41
1.0
10
5.1411647399838
20
24.5152679167256
30
0.0
41
1.0
10
5.05284364141729
20
24.5238386321738
30
0.0
41
1.0
10
4.96478992402269
20
24.5310650856634
30
0.0
41
1.0
10
4.87704819225243
20
24.5369580787143
30
0.0
41
1.0
10
4.78966244837319
20
24.5415299709911
30
0.0
41
1.0
10
4.70267602150629
20
24.5447946529597
30
0.0
41
1.0
10
4.61613149688853
20
24.5467675154296
30
0.0
41
1.0
10
4.53007064539459
20
24.547465415963
30
0.0
41
1.0
10
4.44453435335725
20
24.5469066421271
30
0.0
41
1.0
10
4.35956255271546
20
24.5451108715643
30
0.0
41
1.0
10
4.27519415151362
20
24.5420991288553
30
0.0
41
1.0
10
4.19146696476842
20
24.5378937391432
30
0.0
41
1.0
10
4.10841764571093
20
24.5325182784875
30
0.0
41
1.0
10
4.02608161740288
20
24.5259975209074
30
0.0
41
1.0
10
3.9444930047158
20
24.5183573820762
30
0.0
41
1.0
10
3.86368456665029
20
24.5096248596157
30
0.0
41
1.0
10
3.78368762896042
20
24.4998279699404
30
0.0
41
1.0
10
3.70453201703387
20
24.4889956815885
30
0.0
41
1.0
10
3.62624598896304
20
24.4771578449736
30
0.0
41
1.0
10
3.54885616872473
20
24.4643451184799
30
0.0
41
1.0
10
3.47238747936636
20
24.4505888908136
30
0.0
41
1.0
10
3.39686307607498
20
24.4359211995156
30
0.0
41
1.0
10
3.32230427898021
20
24.4203746455243
30
0.0
41
1.0
10
3.2487305055151
20
24.4039823036684
30
0.0
41
1.0
10
3.17615920212736
20
24.3867776289524
30
0.0
41
1.0
10
3.10460577509828
20
24.3687943584839
30
0.0
41
1.0
10
3.03408352018713
20
24.3500664088722
30
0.0
41
1.0
10
2.96460355077384
20
24.3306277689129
30
0.0
41
1.0
10
2.8961747241219
20
24.3105123873497
30
0.0
41
1.0
10
2.82880356532603
20
24.2897540554866
30
0.0
41
1.0
10
2.76249418844333
20
24.268386284399
30
0.0
41
1.0
10
2.69724821423269
20
24.2464421764702
30
0.0
41
1.0
10
2.63306468384222
20
24.2239542909557
30
0.0
41
1.0
10
2.56993996768807
20
24.2009545032521
30
0.0
41
1.0
10
2.50786766865795
20
24.1774738575244
30
0.0
41
1.0
10
2.44683851864679
20
24.1535424123214
30
0.0
41
1.0
10
2.3868402672886
20
24.1291890787876
30
0.0
41
1.0
10
2.32785756158375
20
24.1044414510637
30
0.0
41
1.0
10
2.26987181493383
20
24.0793256284543
30
0.0
41
1.0
10
2.2128610638804
20
24.0538660289378
30
0.0
41
1.0
10
2.15679981059868
20
24.0280851936031
30
0.0
41
1.0
10
2.10165884891567
20
24.0020035816187
30
0.0
41
1.0
10
2.04740507130141
20
23.9756393553888
30
0.0
41
1.0
10
1.99400125391513
20
23.9490081556257
30
0.0
41
1.0
10
1.94140581637145
20
23.9221228661821
30
0.0
41
1.0
10
1.88957255241758
20
23.8949933686577
30
0.0
41
1.0
10
1.83845032717678
20
23.8676262870298
30
0.0
41
1.0
10
1.78798273600999
20
23.8400247228864
30
0.0
41
1.0
10
1.7381077193724
20
23.8121879822857
30
0.0
41
1.0
10
1.68875712729365
20
23.784111295867
30
0.0
41
1.0
10
1.63985622629001
20
23.7557855346297
30
0.0
41
1.0
10
1.59132314063193
20
23.7271969248566
30
0.0
41
1.0
10
1.54306821895756
20
23.6983267670264
30
0.0
41
1.0
10
1.49499331627046
20
23.6691511653652
30
0.0
41
1.0
10
1.4469909804378
20
23.6396407770057
30
0.0
41
1.0
10
1.39894353149053
20
23.6097605927265
30
0.0
41
1.0
10
1.35072202143752
20
23.5794697650843
30
0.0
41
1.0
10
1.30218506211642
20
23.5487215046493
30
0.0
41
1.0
10
1.2531775090716
20
23.5174630712581
30
0.0
41
1.0
10
1.20352899093939
20
23.4856358949858
30
0.0
41
1.0
10
1.15305227685264
20
23.4531758712513
30
0.0
41
1.0
10
1.10154147967141
20
23.4200138864184
30
0.0
41
1.0
10
1.04877010139404
20
23.3860766447772
30
0.0
41
1.0
10
0.994488940238424
20
23.3512878850996
30
0.0
41
1.0
10
0.9384238983679
20
23.3155700950846
30
0.0
41
1.0
10
0.880273757339623
20
23.2788468546007
30
0.0
41
1.0
10
0.819708027895357
20
23.2410459626483
30
0.0
41
1.0
10
0.756365035035012
20
23.2021035263231
30
0.0
41
1.0
10
0.689850472071353
20
23.1619692089632
30
0.0
41
1.0
10
0.619736752043958
20
23.1206128429039
30
0.0
41
1.0
10
0.545563603783426
20
23.0780326002171
30
0.0
41
1.0
10
0.466840502439776
20
23.0342648685265
30
0.0
41
1.0
10
0.38305168401887
20
22.9893958794637
30
0.0
41
1.0
10
0.293664654055465
20
22.9435749608418
30
0.0
41
1.0
10
0.198143230236592
20
22.8970290040206
30
0.0
41
1.0
10
0.0959662044806588
20
22.8500773326978
30
0.0
41
1.0
10
-0.013347406981153
20
22.803145621103
30
0.0
41
1.0
10
-0.130205938938809
20
22.7567768645401
30
0.0
41
1.0
10
-0.254905649586169
20
22.7116367374135
30
0.0
41
1.0
10
-0.387585680410802
20
22.6685101485119
30
0.0
41
1.0
10
-0.528180469471442
20
22.6282856747029
30
0.0
41
1.0
10
-0.676374643735968
20
22.5919251347827
30
0.0
41
1.0
10
-0.831567251759474
20
22.5604171322715
30
0.0
41
1.0
10
-0.992853264967176
20
22.5347160319666
30
0.0
41
1.0
10
-1.15902982870557
20
22.5156712458881
30
0.0
41
1.0
10
-1.32863223137239
20
22.5039551197719
30
0.0
41
1.0
10
-1.5
20
22.5
30
0.0
41
1.0
10
-1.67136776862761
20
22.5039551197719
30
0.0
41
1.0
10
-1.84097017129443
20
22.5156712458881
30
0.0
41
1.0
10
-2.00714673503284
20
22.5347160319666
30
0.0
41
1.0
10
-2.16843274824053
20
22.5604171322715
30
0.0
41
1.0
10
-2.32362535626403
20
22.5919251347827
30
0.0
41
1.0
10
-2.47181953052857
20
22.6282856747029
30
0.0
41
1.0
10
-2.6124143195892
20
22.6685101485119
30
0.0
41
1.0
10
-2.74509435041382
20
22.7116367374135
30
0.0
41
1.0
10
-2.86979406106119
20
22.7567768645401
30
0.0
41
1.0
10
-2.98665259301885
20
22.803145621103
30
0.0
41
1.0
10
-3.09596620448066
20
22.8500773326978
30
0.0
41
1.0
10
-3.1981432302366
20
22.8970290040206
30
0.0
41
1.0
10
-3.29366465405547
20
22.9435749608418
30
0.0
41
1.0
10
-3.38305168401888
20
22.9893958794637
30
0.0
41
1.0
10
-3.46684050243978
20
23.0342648685265
30
0.0
41
1.0
10
-3.54556360378342
20
23.0780326002171
30
0.0
41
1.0
10
-3.61973675204395
20
23.1206128429039
30
0.0
41
1.0
10
-3.68985047207136
20
23.1619692089632
30
0.0
41
1.0
10
-3.75636503503501
20
23.2021035263231
30
0.0
41
1.0
10
-3.81970802789536
20
23.2410459626483
30
0.0
41
1.0
10
-3.88027375733962
20
23.2788468546007
30
0.0
41
1.0
10
-3.93842389836791
20
23.3155700950846
30
0.0
41
1.0
10
-3.99448894023843
20
23.3512878850996
30
0.0
41
1.0
10
-4.04877010139404
20
23.3860766447772
30
0.0
41
1.0
10
-4.10154147967141
20
23.4200138864184
30
0.0
41
1.0
10
-4.15305227685265
20
23.4531758712513
30
0.0
41
1.0
10
-4.20352899093939
20
23.4856358949858
30
0.0
41
1.0
10
-4.2531775090716
20
23.5174630712581
30
0.0
41
1.0
10
-4.30218506211642
20
23.5487215046493
30
0.0
41
1.0
10
-4.35072202143752
20
23.5794697650843
30
0.0
41
1.0
10
-4.39894353149054
20
23.6097605927265
30
0.0
41
1.0
10
-4.4469909804378
20
23.6396407770057
30
0.0
41
1.0
10
-4.49499331627046
20
23.6691511653652
30
0.0
41
1.0
10
-4.54306821895756
20
23.6983267670264
30
0.0
41
1.0
10
-4.59132314063193
20
23.7271969248566
30
0.0
41
1.0
10
-4.63985622629001
20
23.7557855346297
30
0.0
41
1.0
10
-4.68875712729365
20
23.784111295867
30
0.0
41
1.0
10
-4.7381077193724
20
23.8121879822857
30
0.0
41
1.0
10
-4.78798273600999
20
23.8400247228864
30
0.0
41
1.0
10
-4.83845032717678
20
23.8676262870298
30
0.0
41
1.0
10
-4.88957255241758
20
23.8949933686577
30
0.0
41
1.0
10
-4.94140581637145
20
23.9221228661821
30
0.0
41
1.0
10
-4.99400125391513
20
23.9490081556257
30
0.0
41
1.0
10
-5.04740507130141
20
23.9756393553888
30
0.0
41
1.0
10
-5.10165884891567
20
24.0020035816187
30
0.0
41
1.0
10
-5.15679981059868
20
24.0280851936031
30
0.0
41
1.0
10
-5.21286106388041
20
24.0538660289378
30
0.0
41
1.0
10
-5.26987181493383
20
24.0793256284543
30
0.0
41
1.0
10
-5.32785756158375
20
24.1044414510637
30
0.0
41
1.0
10
-5.3868402672886
20
24.1291890787876
30
0.0
41
1.0
10
-5.4468385186468
20
24.1535424123214
30
0.0
41
1.0
10
-5.50786766865795
20
24.1774738575244
30
0.0
41
1.0
10
-5.56993996768807
20
24.2009545032521
30
0.0
41
1.0
10
-5.63306468384222
20
24.2239542909557
30
0.0
41
1.0
10
-5.69724821423269
20
24.2464421764702
30
0.0
41
1.0
10
-5.76249418844333
20
24.268386284399
30
0.0
41
1.0
10
-5.82880356532603
20
24.2897540554866
30
0.0
41
1.0
10
-5.8961747241219
20
24.3105123873497
30
0.0
41
1.0
10
-5.96460355077384
20
24.3306277689129
30
0.0
41
1.0
10
-6.03408352018713
20
24.3500664088722
30
0.0
41
1.0
10
-6.10460577509828
20
24.3687943584839
30
0.0
41
1.0
10
-6.17615920212736
20
24.3867776289524
30
0.0
41
1.0
10
-6.2487305055151
20
24.4039823036684
30
0.0
41
1.0
10
-6.32230427898021
20
24.4203746455243
30
0.0
41
1.0
10
-6.39686307607499
20
24.4359211995156
30
0.0
41
1.0
10
-6.47238747936637
20
24.4505888908136
30
0.0
41
1.0
10
-6.54885616872472
20
24.4643451184799
30
0.0
41
1.0
10
-6.62624598896304
20
24.4771578449736
30
0.0
41
1.0
10
-6.70453201703387
20
24.4889956815885
30
0.0
41
1.0
10
-6.78368762896042
20
24.4998279699404
30
0.0
41
1.0
10
-6.8636845666503
20
24.5096248596157
30
0.0
41
1.0
10
-6.9444930047158
20
24.5183573820762
30
0.0
41
1.0
10
-7.02608161740288
20
24.5259975209074
30
0.0
41
1.0
10
-7.10841764571093
20
24.5325182784875
30
0.0
41
1.0
10
-7.19146696476841
20
24.5378937391432
30
0.0
41
1.0
10
-7.27519415151362
20
24.5420991288553
30
0.0
41
1.0
10
-7.35956255271546
20
24.5451108715643
30
0.0
41
1.0
10
-7.44453435335725
20
24.5469066421271
30
0.0
41
1.0
10
-7.53007064539459
20
24.547465415963
30
0.0
41
1.0
10
-7.61613149688853
20
24.5467675154296
30
0.0
41
1.0
10
-7.70267602150629
20
24.5447946529597
30
0.0
41
1.0
10
-7.78966244837319
20
24.5415299709912
30
0.0
41
1.0
10
-7.87704819225244
20
24.5369580787143
30
0.0
41
1.0
10
-7.96478992402268
20
24.5310650856634
30
0.0
41
1.0
10
-8.05284364141729
20
24.5238386321738
30
0.0
41
1.0
10
-8.14116473998381
20
24.5152679167256
30
0.0
41
1.0
10
-8.22970808421764
20
24.5053437201931
30
0.0
41
1.0
10
-8.31842807881933
20
24.494058427019
30
0.0
41
1.0
10
-8.40727874002126
20
24.4814060433315
30
0.0
41
1.0
10
-8.49621376692586
20
24.4673822120201
30
0.0
41
1.0
10
-8.58518661279489
20
24.4519842247897
30
0.0
41
1.0
10
-8.67415055622615
20
24.4352110312083
30
0.0
41
1.0
10
-8.76305877215216
20
24.4170632447659
30
0.0
41
1.0
10
-8.85186440259276
20
24.3975431459635
30
0.0
41
1.0
10
-8.94052062709254
20
24.376654682449
30
0.0
41
1.0
10
-9.02898073277188
20
24.3544034662192
30
0.0
41
1.0
10
-9.11719818391963
20
24.3307967679076
30
0.0
41
1.0
10
-9.20512669105429
20
24.3058435081773
30
0.0
41
1.0
10
-9.2927202793797
20
24.2795542462407
30
0.0
41
1.0
10
-9.37993335656116
20
24.2519411655264
30
0.0
41
1.0
10
-9.46672077974693
20
24.223018056517
30
0.0
41
1.0
10
-9.55303792176046
20
24.1928002967803
30
0.0
41
1.0
10
-9.63884073638846
20
24.1613048282172
30
0.0
41
1.0
10
-9.72408582269033
20
24.1285501315529
30
0.0
41
1.0
10
-9.80873048825457
20
24.0945561980938
30
0.0
41
1.0
10
-9.89273281132891
20
24.0593444987786
30
0.0
41
1.0
10
-9.97605170175088
20
24.0229379505481
30
0.0
41
1.0
10
-10.0586469606072
20
23.9853608800613
30
0.0
41
1.0
10
-10.1404793385507
20
23.9466389847839
30
0.0
41
1.0
10
-10.2215105927056
20
23.9067992914761
30
0.0
41
1.0
10
-10.3017035420921
20
23.8658701121065
30
0.0
41
1.0
10
-10.3810221215038
20
23.8238809972182
30
0.0
41
1.0
10
-10.4594314337729
20
23.7808626867722
30
0.0
41
1.0
10
-10.5368978003596
20
23.7368470584932
30
0.0
41
1.0
10
-10.6133888102038
20
23.6918670737411
30
0.0
41
1.0
10
-10.6888733667814
20
23.6459567209291
30
0.0
41
1.0
10
-10.7633217333066
20
23.5991509565098
30
0.0
41
1.0
10
-10.8367055760265
20
23.5514856435455
30
0.0
41
1.0
10
-10.9089980055563
20
23.5029974878773
30
0.0
41
1.0
10
-10.9801736162067
20
23.453723971906
30
0.0
41
1.0
10
-11.0502085232569
20
23.4037032859901
30
0.0
41
1.0
10
-11.1190803981308
20
23.3529742574655
30
0.0
41
1.0
10
-11.1867685014393
20
23.3015762772842
30
0.0
41
1.0
10
-11.2532537138518
20
23.2495492242639
30
0.0
41
1.0
10
-11.318518564767
20
23.1969333869342
30
0.0
41
1.0
10
-11.382547258758
20
23.1437693829562
30
0.0
41
1.0
10
-11.4453256997692
20
23.0900980760859
30
0.0
41
1.0
10
-11.5068415130501
20
23.0359604906396
30
0.0
41
1.0
10
-11.5670840648164
20
22.9813977234096
30
0.0
41
1.0
10
-11.626044479636
20
22.9264508529676
30
0.0
41
1.0
10
-11.6837156555429
20
22.8711608462763
30
0.0
41
1.0
10
-11.740092276893
20
22.8155684625176
30
0.0
41
1.0
10
-11.7951708249827
20
22.7597141540263
30
0.0
41
1.0
10
-11.8489495864618
20
22.7036379641988
30
0.0
41
1.0
10
-11.9014286595844
20
22.6473794222276
30
0.0
41
1.0
10
-11.9526099583542
20
22.5909774344837
30
0.0
41
1.0
10
-12.0024972146343
20
22.5344701723463
30
0.0
41
1.0
10
-12.0510959783104
20
22.4778949562475
30
0.0
41
1.0
10
-12.0984136156133
20
22.4212881356654
30
0.0
41
1.0
10
-12.1444593057307
20
22.3646849647645
30
0.0
41
1.0
10
-12.1892440358619
20
22.308119473339
30
0.0
41
1.0
10
-12.2327805949014
20
22.2516243326683
30
0.0
41
1.0
10
-12.2750835659667
20
22.1952307158462
30
0.0
41
1.0
10
-12.3161693180316
20
22.138968152084
30
0.0
41
1.0
10
-12.3560559969672
20
22.0828643744308
30
0.0
41
1.0
10
-12.3947635163515
20
22.0269451602784
30
0.0
41
1.0
10
-12.4323135484672
20
21.9712341639486
30
0.0
41
1.0
10
-12.4687295159895
20
21.9157527405703
30
0.0
41
1.0
10
-12.5040365849444
20
21.8605197603645
30
0.0
41
1.0
10
-12.5382616596306
20
21.8055514123543
30
0.0
41
1.0
10
-12.5714333803147
20
21.7508609964016
30
0.0
41
1.0
10
-12.603582124657
20
21.6964587023589
30
0.0
41
1.0
10
-12.6347400139963
20
21.6423513749888
30
0.0
41
1.0
10
-12.6649409258256
20
21.5885422631698
30
0.0
41
1.0
10
-12.6942205140329
20
21.5350307517592
30
0.0
41
1.0
10
-12.7226162387658
20
21.4818120743328
30
0.0
41
1.0
10
-12.7501674081242
20
21.4288770048681
30
0.0
41
1.0
10
-12.7769152342851
20
21.3762115262835
30
0.0
41
1.0
10
-12.8029029071508
20
21.3237964736072
30
0.0
41
1.0
10
-12.8281756891817
20
21.2716071494229
30
0.0
41
1.0
10
-12.852781035757
20
21.2196129091529
30
0.0
41
1.0
10
-12.8767687462147
20
21.1677767137016
30
0.0
41
1.0
10
-12.9001911516786
20
21.1160546470272
30
0.0
41
1.0
10
-12.9231033469156
20
21.064395396374
30
0.0
41
1.0
10
-12.9455634747943
20
21.0127396932239
30
0.0
41
1.0
10
-12.9676330734871
20
20.9610197135983
30
0.0
41
1.0
10
-12.9893774983807
20
20.9091584372284
30
0.0
41
1.0
10
-13.0108664327719
20
20.8570689664569
30
0.0
41
1.0
10
-13.0321745038515
20
20.8046538076785
30
0.0
41
1.0
10
-13.0533820232109
20
20.7518041208898
30
0.0
41
1.0
10
-13.0745758741397
20
20.6983989467704
30
0.0
41
1.0
10
-13.0958505712485
20
20.6443044260086
30
0.0
41
1.0
10
-13.1173095213281
20
20.5893730327651
30
0.0
41
1.0
10
-13.1390665176043
20
20.5334428538017
30
0.0
41
1.0
10
-13.1612475022961
20
20.4763369575877
30
0.0
41
1.0
10
-13.183992633999
20
20.4178629144632
30
0.0
41
1.0
10
-13.2074586959642
20
20.3578125506662
30
0.0
41
1.0
10
-13.2318218774125
20
20.2959620467619
30
0.0
41
1.0
10
-13.2572809505568
20
20.2320725258068
30
0.0
41
1.0
10
-13.2840608481409
20
20.1658913192531
30
0.0
41
1.0
10
-13.3124166160792
20
20.0971541494243
30
0.0
41
1.0
10
-13.3426376680352
20
20.0255885254498
30
0.0
41
1.0
10
-13.3750521970182
20
19.9509187118667
30
0.0
41
1.0
10
-13.4100314957969
20
19.8728726892449
30
0.0
41
1.0
10
-13.4479937954197
20
19.7911915725174
30
0.0
41
1.0
10
-13.4894070434045
20
19.7056419660703
30
0.0
41
1.0
10
-13.5347898095091
20
19.6160316862486
30
0.0
41
1.0
10
-13.5847092377322
20
19.5222291319622
30
0.0
41
1.0
10
-13.6397746880294
20
19.4241862830852
30
0.0
41
1.0
10
-13.7006254894782
20
19.3219648021379
30
0.0
41
1.0
10
-13.7679111564948
20
19.2157639683812
30
0.0
41
1.0
10
-13.8422626405906
20
19.1059481875238
30
0.0
41
1.0
10
-13.9242538674039
20
18.9930706788006
30
0.0
41
1.0
10
-14.0143540885883
20
18.8778888523403
30
0.0
41
1.0
10
-14.1128735049052
20
18.7613662075118
30
0.0
41
1.0
10
-14.2199070229923
20
18.6446557717605
30
0.0
41
1.0
10
-14.3352834209054
20
18.5290616048751
30
0.0
41
1.0
10
-14.4585288406466
20
18.4159779158414
30
0.0
41
1.0
10
-14.5888535005457
20
18.3068095796641
30
0.0
41
1.0
10
-14.7251681765806
20
18.2028823734363
30
0.0
41
1.0
10
-14.8661323747615
20
18.105354685429
30
0.0
41
1.0
10
-15.0102301669509
20
18.0151434395243
30
0.0
41
1.0
10
-15.155864075472
20
17.932874861674
30
0.0
41
1.0
10
-15.301453928839
20
17.8588659486303
30
0.0
41
1.0
10
-15.4455273253366
20
17.7931365318596
30
0.0
41
1.0
10
-15.5867911199145
20
17.7354464764714
30
0.0
41
1.0
10
-15.7241780460713
20
17.6853492158136
30
0.0
41
1.0
10
-15.8568676187606
20
17.642251993752
30
0.0
41
1.0
10
-15.9842845048796
20
17.605474472842
30
0.0
41
1.0
10
-16.1060799144459
20
17.5742998632202
30
0.0
41
1.0
10
-16.2221022517753
20
17.5480154867834
30
0.0
41
1.0
10
-16.3323627020205
20
17.5259420379354
30
0.0
41
1.0
10
-16.4370001841902
20
17.5074524238245
30
0.0
41
1.0
10
-16.5362486707197
20
17.4919819477287
30
0.0
41
1.0
10
-16.6304085788172
20
17.4790318906261
30
0.0
41
1.0
10
-16.7198229328682
20
17.4681684513846
30
0.0
41
1.0
10
-16.8048583090276
20
17.4590187086792
30
0.0
41
1.0
10
-16.8858901621267
20
17.4512649010313
30
0.0
41
1.0
10
-16.9632919337927
20
17.4446379666603
30
0.0
41
1.0
10
-17.0374272812516
20
17.4389109824104
30
0.0
41
1.0
10
-17.1086447924618
20
17.4338929038407
30
0.0
41
1.0
10
-17.1772746239518
20
17.4294228341656
30
0.0
41
1.0
10
-17.2436265858307
20
17.4253649285086
30
0.0
41
1.0
10
-17.307989287564
20
17.4216039602964
30
0.0
41
1.0
10
-17.3706300395472
20
17.4180415276317
30
0.0
41
1.0
10
-17.4317952754822
20
17.4145928500118
30
0.0
41
1.0
10
-17.4917113182387
20
17.4111840927265
30
0.0
41
1.0
10
-17.5505853579882
20
17.4077501524574
30
0.0
41
1.0
10
-17.6086065474113
20
17.4042328393578
30
0.0
41
1.0
10
-17.6659471463747
20
17.4005793957171
30
0.0
41
1.0
10
-17.7227636692698
20
17.3967412976009
30
0.0
41
1.0
10
-17.7791980036596
20
17.3926732925763
30
0.0
41
1.0
10
-17.8353784801851
20
17.3883326331918
30
0.0
41
1.0
10
-17.8914208818451
20
17.3836784719519
30
0.0
41
1.0
10
-17.9474293865458
20
17.3786713889561
30
0.0
41
1.0
10
-18.0034974408408
20
17.37327302811
30
0.0
41
1.0
10
-18.0597085655082
20
17.3674458218958
30
0.0
41
1.0
10
-18.1161370953926
20
17.3611527881386
30
0.0
41
1.0
10
-18.1728488570441
20
17.354357385115
30
0.0
41
1.0
10
-18.2299017883069
20
17.3470234137719
30
0.0
41
1.0
10
-18.2873465042961
20
17.3391149578344
30
0.0
41
1.0
10
-18.3452268142557
20
17.3305963542502
30
0.0
41
1.0
10
-18.4035801936937
20
17.3214321877827
30
0.0
41
1.0
10
-18.4624382159953
20
17.3115873046958
30
0.0
41
1.0
10
-18.5218269474603
20
17.3010268413966
30
0.0
41
1.0
10
-18.5817673094285
20
17.2897162646582
30
0.0
41
1.0
10
-18.6422754108609
20
17.2776214206691
30
0.0
41
1.0
10
-18.7033628544502
20
17.2647085906566
30
0.0
41
1.0
10
-18.7650370190505
20
17.2509445512513
30
0.0
41
1.0
10
-18.8273013209453
20
17.2362966380967
30
0.0
41
1.0
10
-18.8901554562222
20
17.2207328114836
30
0.0
41
1.0
10
-18.9535956262899
20
17.2042217230163
30
0.0
41
1.0
10
-19.0176147483582
20
17.1867327825031
30
0.0
41
1.0
10
-19.08220265251
20
17.1682362244118
30
0.0
41
1.0
10
-19.1473462668155
20
17.148703173357
30
0.0
41
1.0
10
-19.2130297917818
20
17.1281057081853
30
0.0
41
1.0
10
-19.2792348652859
20
17.1064169243067
30
0.0
41
1.0
10
-19.3459407190138
20
17.0836109939888
30
0.0
41
1.0
10
-19.4131243273075
20
17.0596632243841
30
0.0
41
1.0
10
-19.4807605492242
20
17.0345501131078
30
0.0
41
1.0
10
-19.5488222645164
20
17.0082494012183
30
0.0
41
1.0
10
-19.6172805041581
20
16.9807401234831
30
0.0
41
1.0
10
-19.6861045759712
20
16.95200265584
30
0.0
41
1.0
10
-19.7552621858382
20
16.9220187599808
30
0.0
41
1.0
10
-19.8247195549281
20
16.8907716250028
30
0.0
41
1.0
10
-19.894441533311
20
16.8582459060882
30
0.0
41
1.0
10
-19.9643917102889
20
16.8244277601817
30
0.0
41
1.0
10
-20.034532521728
20
16.7893048786458
30
0.0
41
1.0
10
-20.1048253546407
20
16.7528665168833
30
0.0
41
1.0
10
-20.1752306492313
20
16.7151035209213
30
0.0
41
1.0
10
-20.2457079985898
20
16.676008350958
30
0.0
41
1.0
10
-20.3162162461913
20
16.6355751018766
30
0.0
41
1.0
10
-20.3867135813331
20
16.593799520738
30
0.0
41
1.0
10
-20.4571576326229
20
16.5506790212646
30
0.0
41
1.0
10
-20.5275055596095
20
16.5062126953328
30
0.0
41
1.0
10
-20.5977141426304
20
16.4604013214931
30
0.0
41
1.0
10
-20.667739870939
20
16.4132473705415
30
0.0
41
1.0
10
-20.7375390291542
20
16.3647550081668
30
0.0
41
1.0
10
-20.8070677820683
20
16.3149300947007
30
0.0
41
1.0
10
-20.8762822578362
20
16.2637801820008
30
0.0
41
1.0
10
-20.9451386295574
20
16.2113145074982
30
0.0
41
1.0
10
-21.0135931952582
20
16.1575439854424
30
0.0
41
1.0
10
-21.0816024562672
20
16.1024811953811
30
0.0
41
1.0
10
-21.149123193978
20
16.0461403679101
30
0.0
41
1.0
10
-21.2161125449806
20
15.9885373677339
30
0.0
41
1.0
10
-21.2825280745407
20
15.9296896740787
30
0.0
41
1.0
10
-21.348327848402
20
15.8696163584991
30
0.0
41
1.0
10
-21.4134705028801
20
15.8083380601244
30
0.0
41
1.0
10
-21.477915313216
20
15.7458769583909
30
0.0
41
1.0
10
-21.5416222601516
20
15.6822567433069
30
0.0
41
1.0
10
-21.6045520946885
20
15.6175025833021
30
0.0
41
1.0
10
-21.6666664009901
20
15.5516410907101
30
0.0
41
1.0
10
-21.7279276573812
20
15.484700284939
30
0.0
41
1.0
10
-21.7882992954044
20
15.4167095533825
30
0.0
41
1.0
10
-21.847745756885
20
15.3476996101279
30
0.0
41
1.0
10
-21.9062325489583
20
15.2777024525179
30
0.0
41
1.0
10
-21.9637262970144
20
15.2067513156233
30
0.0
41
1.0
10
-22.0201947955103
20
15.1348806246866
30
0.0
41
1.0
10
-22.0756070566039
20
15.0621259455973
30
0.0
41
1.0
10
-22.1299333565612
20
14.9885239334581
30
0.0
41
1.0
10
-22.1831452798903
20
14.9141122793063
30
0.0
41
1.0
10
-22.2352157611545
20
14.8389296550517
30
0.0
41
1.0
10
-22.2861191244184
20
14.7630156566949
30
0.0
41
1.0
10
-22.335831120281
20
14.6864107458892
30
0.0
41
1.0
10
-22.3843289604509
20
14.6091561899112
30
0.0
41
1.0
10
-22.4315913498194
20
14.531294000103
30
0.0
41
1.0
10
-22.4775985159865
20
14.4528668688506
30
0.0
41
1.0
10
-22.5223322361995
20
14.3739181051629
30
0.0
41
1.0
10
-22.5657758616611
20
14.2944915689139
30
0.0
41
1.0
10
-22.6079143391658
20
14.2146316038102
30
0.0
41
1.0
10
-22.6487342300266
20
14.1343829691472
30
0.0
41
1.0
10
-22.6882237262522
20
14.0537907704127
30
0.0
41
1.0
10
-22.7263726639365
20
13.9729003887984
30
0.0
41
1.0
10
-22.7631725338248
20
13.8917574096743
30
0.0
41
1.0
10
-22.79861648902
20
13.8104075500838
30
0.0
41
1.0
10
-22.8326993497937
20
13.7288965853089
30
0.0
41
1.0
10
-22.8654176054682
20
13.6472702745583
30
0.0
41
1.0
10
-22.8967694133347
20
13.5655742858206
30
0.0
41
1.0
10
-22.9267545945763
20
13.4838541199291
30
0.0
41
1.0
10
-22.955374627161
20
13.4021550338725
30
0.0
41
1.0
10
-22.9826326356731
20
13.3205219633865
30
0.0
41
1.0
10
-23.0085333780507
20
13.2389994448534
30
0.0
41
1.0
10
-23.0330832291962
20
13.1576315365298
30
0.0
41
1.0
10
-23.0562901614269
20
13.0764617391176
30
0.0
41
1.0
10
-23.0781637217332
20
12.9955329156835
30
0.0
41
1.0
10
-23.0987150058085
20
12.9148872109248
30
0.0
41
1.0
10
-23.1179566288173
20
12.8345659697681
30
0.0
41
1.0
10
-23.1359026928642
20
12.7546096552783
30
0.0
41
1.0
10
-23.1525687511257
20
12.6750577658404
30
0.0
41
1.0
10
-23.1679717686047
20
12.5959487515652
30
0.0
41
1.0
10
-23.1821300794666
20
12.5173199298524
30
0.0
41
1.0
10
-23.1950633409112
20
12.4392074000301
30
0.0
41
1.0
10
-23.2067924835331
20
12.3616459569667
30
0.0
41
1.0
10
-23.2173396581208
20
12.2846690035325
30
0.0
41
1.0
10
-23.2267281788399
20
12.2083084617636
30
0.0
41
1.0
10
-23.2349824627429
20
12.1325946825522
30
0.0
41
1.0
10
-23.2421279655445
20
12.0575563536587
30
0.0
41
1.0
10
-23.2481911135959
20
11.9832204058059
30
0.0
41
1.0
10
-23.2531992319903
20
11.9096119165774
30
0.0
41
1.0
10
-23.2571804687245
20
11.8367540118005
30
0.0
41
1.0
10
-23.2601637148406
20
11.764667764043
30
0.0
41
1.0
10
-23.2621785204677
20
11.6933720878019
30
0.0
41
1.0
10
-23.2632550066806
20
11.6228836308982
30
0.0
41
1.0
10
-23.2634237730921
20
11.5532166615244
30
0.0
41
1.0
10
-23.2627158010978
20
11.484382950313
30
0.0
41
1.0
10
-23.2611623526912
20
11.4163916467047
30
0.0
41
1.0
10
-23.258794864779
20
11.3492491487996
30
0.0
41
1.0
10
-23.2556448389331
20
11.2829589657569
30
0.0
41
1.0
10
-23.2517437265341
20
11.2175215716871
30
0.0
41
1.0
10
-23.2471228092857
20
11.152934249835
30
0.0
41
1.0
10
-23.2418130751131
20
11.0891909256885
30
0.0
41
1.0
10
-23.2358450895047
20
11.0262819874708
30
0.0
41
1.0
10
-23.2292488624199
20
10.964194092262
30
0.0
41
1.0
10
-23.2220537109693
20
10.9029099557692
30
0.0
41
1.0
10
-23.2142881181822
20
10.8424081235019
30
0.0
41
1.0
10
-23.205979588321
20
10.7826627208196
30
0.0
41
1.0
10
-23.1971544993864
20
10.723643178992
30
0.0
41
1.0
10
-23.1878379536962
20
10.6653139340519
30
0.0
41
1.0
10
-23.1780536277275
20
10.6076340948238
30
0.0
41
1.0
10
-23.167823622803
20
10.5505570760716
30
0.0
41
1.0
10
-23.1571683187001
20
10.4940301922391
30
0.0
41
1.0
10
-23.1461062328952
20
10.4379942067519
30
0.0
41
1.0
10
-23.1346538889555
20
10.3823828313233
30
0.0
41
1.0
10
-23.1228256986022
20
10.3271221691702
30
0.0
41
1.0
10
-23.1106338632434
20
10.2721300955337
30
0.0
41
1.0
10
-23.0980883023722
20
10.2173155684322
30
0.0
41
1.0
10
-23.0851966182287
20
10.1625778622269
30
0.0
41
1.0
10
-23.0719641086229
20
10.1078057164222
30
0.0
41
1.0
10
-23.0583938429172
20
10.0528763922722
30
0.0
41
1.0
10
-23.0444868200048
20
9.99765463039554
30
0.0
41
1.0
10
-23.030242231839
20
9.94199150393018
30
0.0
41
1.0
10
-23.0156578618166
20
9.8857231641238
30
0.0
41
1.0
10
-23.000730654276
20
9.82866947907866
30
0.0
41
1.0
10
-22.9854574996572
20
9.77063257225353
30
0.0
41
1.0
10
-22.9698362896114
20
9.71139527605417
30
0.0
41
1.0
10
-22.9538673075078
20
9.65071952846028
30
0.0
41
1.0
10
-22.937555032194
20
9.58834475847755
30
0.0
41
1.0
10
-22.920910445981
20
9.52398633095408
30
0.0
41
1.0
10
-22.9039539506223
20
9.4573341550076
30
0.0
41
1.0
10
-22.8867190056842
20
9.38805160533965
30
0.0
41
1.0
10
-22.8692566091251
20
9.31577496459133
30
0.0
41
1.0
10
-22.8516407354022
20
9.24011366993438
30
0.0
41
1.0
10
-22.8339748249985
20
9.1606517396827
30
0.0
41
1.0
10
-22.8163993710645
20
9.07695086508058
30
0.0
41
1.0
10
-22.7991005608018
20
8.98855577366708
30
0.0
41
1.0
10
-22.7823197852047
20
8.89500259177438
30
0.0
41
1.0
10
-22.7663636133021
20
8.79583103190337
30
0.0
41
1.0
10
-22.7516135210471
20
8.69060126765747
30
0.0
41
1.0
10
-22.7385342654778
20
8.57891627714357
30
0.0
41
1.0
10
-22.7276793190029
20
8.46045015818517
30
0.0
41
1.0
10
-22.7196912832339
20
8.33498235609617
30
0.0
41
1.0
10
-22.7152948009674
20
8.20243681729451
30
0.0
41
1.0
10
-22.715279361906
20
8.06292376051649
30
0.0
41
1.0
10
-22.7204697931157
20
7.91678012422647
30
0.0
41
1.0
10
-22.7316833830036
20
7.76460306435518
30
0.0
41
1.0
10
-22.7496746451806
20
7.60726961497884
30
0.0
41
1.0
10
-22.7750715652958
20
7.44593542436203
30
0.0
41
1.0
10
-22.8083102796564
20
7.28200695801061
30
0.0
41
1.0
10
-22.8495776062787
20
7.11708500569686
30
0.0
41
1.0
10
-22.898771616641
20
6.95288237343632
30
0.0
41
1.0
10
-22.9554887118668
20
6.79112413962436
30
0.0
41
1.0
10
-23.0190414346662
20
6.63344315146694
30
0.0
41
1.0
10
-23.0885054848296
20
6.48128501022046
30
0.0
41
1.0
10
-23.1627888027868
20
6.33583497314038
30
0.0
41
1.0
10
-23.240711847171
20
6.19797454023353
30
0.0
41
1.0
10
-23.3210872939133
20
6.06826952988229
30
0.0
41
1.0
10
-23.4027892209842
20
5.9469859855858
30
0.0
41
1.0
10
-23.4848054287236
20
5.83412662656781
30
0.0
41
1.0
10
-23.5662705705574
20
5.72947922058687
30
0.0
41
1.0
10
-23.6464811509517
20
5.63266888606983
30
0.0
41
1.0
10
-23.7248956247431
20
5.54320816002723
30
0.0
41
1.0
10
-23.8011237550988
20
5.46054089821944
30
0.0
41
1.0
10
-23.8749093339277
20
5.38407811732789
30
0.0
41
1.0
10
-23.9461097285011
20
5.31322544256096
30
0.0
41
1.0
10
-24.0146748417595
20
5.24740282094991
30
0.0
41
1.0
10
-24.0806272043524
20
5.18605767533173
30
0.0
41
1.0
10
-24.1440441849639
20
5.12867283795925
30
0.0
41
1.0
10
-24.2050427574222
20
5.07477054758342
30
0.0
41
1.0
10
-24.2637668918036
20
5.02391362517014
30
0.0
41
1.0
10
-24.3203774108995
20
4.97570473367554
30
0.0
41
1.0
10
-24.3750440351876
20
4.9297844200392
30
0.0
41
1.0
10
-24.4279392941523
20
4.88582845488883
30
0.0
41
1.0
10
-24.4792339818221
20
4.84354483559765
30
0.0
41
1.0
10
-24.5290938596788
20
4.80267070152215
30
0.0
41
1.0
10
-24.577677347191
20
4.7629693227469
30
0.0
41
1.0
10
-24.6251339806825
20
4.72422726030872
30
0.0
41
1.0
10
-24.6716034602472
20
4.68625175142712
30
0.0
41
1.0
10
-24.7172151394847
20
4.64886834308418
30
0.0
41
1.0
10
-24.7620878429941
20
4.61191877754866
30
0.0
41
1.0
10
-24.806329921731
20
4.57525912112703
30
0.0
41
1.0
10
-24.850039476845
20
4.53875812028067
30
0.0
41
1.0
10
-24.8933046990729
20
4.50229576560534
30
0.0
41
1.0
10
-24.9362042837626
20
4.46576204282799
30
0.0
41
1.0
10
-24.9788078917725
20
4.4290558500916
30
0.0
41
1.0
10
-25.021176634363
20
4.39208406178969
30
0.0
41
1.0
10
-25.0633635662374
20
4.35476072068411
30
0.0
41
1.0
10
-25.1054141754914
20
4.3170063417328
30
0.0
41
1.0
10
-25.1473668627008
20
4.27874731280243
30
0.0
41
1.0
10
-25.1892534039772
20
4.23991537914251
30
0.0
41
1.0
10
-25.2310993947515
20
4.20044720009329
30
0.0
41
1.0
10
-25.2729246724553
20
4.16028396795998
30
0.0
41
1.0
10
-25.3147437172953
20
4.11937108029968
30
0.0
41
1.0
10
-25.3565660310407
20
4.07765785803313
30
0.0
41
1.0
10
-25.3983964942491
20
4.03509730282027
30
0.0
41
1.0
10
-25.4402357026939
20
3.99164588803517
30
0.0
41
1.0
10
-25.4820802839734
20
3.94726337845566
30
0.0
41
1.0
10
-25.5239231954041
20
3.90191267445801
30
0.0
41
1.0
10
-25.565754004364
20
3.85555967709032
30
0.0
41
1.0
10
-25.6075591522652
20
3.8081731709007
30
0.0
41
1.0
10
-25.6493222033118
20
3.75972472182852
30
0.0
41
1.0
10
-25.6910240791651
20
3.71018858783962
30
0.0
41
1.0
10
-25.7326432805755
20
3.65954164030527
30
0.0
41
1.0
10
-25.7741560969819
20
3.60776329439998
30
0.0
41
1.0
10
-25.8155368050075
20
3.55483544702973
30
0.0
41
1.0
10
-25.8567578567134
20
3.50074242100457
30
0.0
41
1.0
10
-25.897790058399
20
3.44547091434592
30
0.0
41
1.0
10
-25.9386027406738
20
3.38900995376815
30
0.0
41
1.0
10
-25.9791639204582
20
3.33135085150554
30
0.0
41
1.0
10
-26.0194404555123
20
3.27248716476715
30
0.0
41
1.0
10
-26.0593981920309
20
3.21241465719962
30
0.0
41
1.0
10
-26.0990021057951
20
3.15113126182236
30
0.0
41
1.0
10
-26.1382164373162
20
3.08863704497231
30
0.0
41
1.0
10
-26.1770048213663
20
3.02493417085929
30
0.0
41
1.0
10
-26.2153304112468
20
2.96002686638796
30
0.0
41
1.0
10
-26.2531559981086
20
2.89392138595113
30
0.0
41
1.0
10
-26.2904441256036
20
2.82662597594089
30
0.0
41
1.0
10
-26.3271572001145
20
2.75815083876143
30
0.0
41
1.0
10
-26.3632575967832
20
2.68850809615972
30
0.0
41
1.0
10
-26.3987077615306
20
2.61771175171871
30
0.0
41
1.0
10
-26.4334703092395
20
2.54577765238336
30
0.0
41
1.0
10
-26.4675081182488
20
2.47272344891143
30
0.0
41
1.0
10
-26.5007844212896
20
2.39856855516165
30
0.0
41
1.0
10
-26.5332628929783
20
2.32333410614835
30
0.0
41
1.0
10
-26.5649077339625
20
2.24704291480856
30
0.0
41
1.0
10
-26.5956837518073
20
2.16971942744028
30
0.0
41
1.0
10
-26.6255564386919
20
2.09138967778418
30
0.0
41
1.0
10
-26.6544920459804
20
2.01208123973155
30
0.0
41
1.0
10
-26.6824576557169
20
1.93182317865174
30
0.0
41
1.0
10
-26.70942124909
20
1.85064600134122
30
0.0
41
1.0
10
-26.7353517719019
20
1.76858160460477
30
0.0
41
1.0
10
-26.7602191970712
20
1.68566322248663
30
0.0
41
1.0
10
-26.7839945841932
20
1.60192537217612
30
0.0
41
1.0
10
-26.8066501361762
20
1.51740379861847
30
0.0
41
1.0
10
-26.8281592529676
20
1.43213541786688
30
0.0
41
1.0
10
-26.8484965823795
20
1.34615825921738
30
0.0
41
1.0
10
-26.8676380680221
20
1.25951140617192
30
0.0
41
1.0
10
-26.8855609943479
20
1.1722349362797
30
0.0
41
1.0
10
-26.9022440288092
20
1.08436985991081
30
0.0
41
1.0
10
-26.9176672611293
20
0.995958058018764
30
0.0
41
1.0
10
-26.9318122396859
20
0.90704221895279
30
0.0
41
1.0
10
-26.9446620050041
20
0.817665774382402
30
0.0
41
1.0
10
-26.9562011203563
20
0.727872834400167
30
0.0
41
1.0
10
-26.9664156994646
20
0.637708121870582
30
0.0
41
1.0
10
-26.9752934313022
20
0.547216906094523
30
0.0
41
1.0
10
-26.9828236019888
20
0.456444935861514
30
0.0
41
1.0
10
-26.9889971137771
20
0.365438371962485
30
0.0
41
1.0
10
-26.9938065011247
20
0.274243719238104
30
0.0
41
1.0
10
-26.9972459438501
20
0.182907758237885
30
0.0
41
1.0
10
-26.9993112773675
20
0.0914774765673483
30
0.0
41
1.0
10
-27.0
20
0.00000000000001445
30
0.0
41
1.0
10
-26.9993112773675
20
-0.0914774765673483
30
0.0
41
1.0
10
-26.9972459438501
20
-0.182907758237896
30
0.0
41
1.0
10
-26.9938065011247
20
-0.274243719238104
30
0.0
41
1.0
10
-26.9889971137771
20
-0.365438371962496
30
0.0
41
1.0
10
-26.9828236019888
20
-0.456444935861525
30
0.0
41
1.0
10
-26.9752934313022
20
-0.547216906094523
30
0.0
41
1.0
10
-26.9664156994646
20
-0.637708121870582
30
0.0
41
1.0
10
-26.9562011203563
20
-0.727872834400167
30
0.0
41
1.0
10
-26.9446620050041
20
-0.81766577438239
30
0.0
41
1.0
10
-26.9318122396859
20
-0.907042218952802
30
0.0
41
1.0
10
-26.9176672611293
20
-0.995958058018776
30
0.0
41
1.0
10
-26.9022440288092
20
-1.08436985991081
30
0.0
41
1.0
10
-26.8855609943479
20
-1.17223493627972
30
0.0
41
1.0
10
-26.8676380680221
20
-1.25951140617193
30
0.0
41
1.0
10
-26.8484965823795
20
-1.3461582592174
30
0.0
41
1.0
10
-26.8281592529676
20
-1.43213541786686
30
0.0
41
1.0
10
-26.8066501361762
20
-1.51740379861847
30
0.0
41
1.0
10
-26.7839945841932
20
-1.60192537217612
30
0.0
41
1.0
10
-26.7602191970712
20
-1.68566322248663
30
0.0
41
1.0
10
-26.7353517719019
20
-1.76858160460477
30
0.0
41
1.0
10
-26.70942124909
20
-1.85064600134123
30
0.0
41
1.0
10
-26.6824576557169
20
-1.93182317865175
30
0.0
41
1.0
10
-26.6544920459804
20
-2.01208123973157
30
0.0
41
1.0
10
-26.6255564386919
20
-2.09138967778419
30
0.0
41
1.0
10
-26.5956837518073
20
-2.16971942744028
30
0.0
41
1.0
10
-26.5649077339625
20
-2.24704291480856
30
0.0
41
1.0
10
-26.5332628929783
20
-2.32333410614835
30
0.0
41
1.0
10
-26.5007844212897
20
-2.39856855516165
30
0.0
41
1.0
10
-26.4675081182488
20
-2.47272344891144
30
0.0
41
1.0
10
-26.4334703092395
20
-2.54577765238337
30
0.0
41
1.0
10
-26.3987077615306
20
-2.61771175171872
30
0.0
41
1.0
10
-26.3632575967832
20
-2.68850809615972
30
0.0
41
1.0
10
-26.3271572001145
20
-2.75815083876143
30
0.0
41
1.0
10
-26.2904441256036
20
-2.82662597594089
30
0.0
41
1.0
10
-26.2531559981086
20
-2.89392138595113
30
0.0
41
1.0
10
-26.2153304112468
20
-2.96002686638797
30
0.0
41
1.0
10
-26.1770048213663
20
-3.0249341708593
30
0.0
41
1.0
10
-26.1382164373162
20
-3.08863704497232
30
0.0
41
1.0
10
-26.0990021057951
20
-3.15113126182237
30
0.0
41
1.0
10
-26.0593981920309
20
-3.21241465719963
30
0.0
41
1.0
10
-26.0194404555123
20
-3.27248716476715
30
0.0
41
1.0
10
-25.9791639204582
20
-3.33135085150555
30
0.0
41
1.0
10
-25.9386027406738
20
-3.38900995376815
30
0.0
41
1.0
10
-25.897790058399
20
-3.44547091434592
30
0.0
41
1.0
10
-25.8567578567134
20
-3.50074242100458
30
0.0
41
1.0
10
-25.8155368050075
20
-3.55483544702973
30
0.0
41
1.0
10
-25.7741560969819
20
-3.60776329439999
30
0.0
41
1.0
10
-25.7326432805755
20
-3.65954164030527
30
0.0
41
1.0
10
-25.6910240791651
20
-3.71018858783963
30
0.0
41
1.0
10
-25.6493222033118
20
-3.75972472182852
30
0.0
41
1.0
10
-25.6075591522652
20
-3.8081731709007
30
0.0
41
1.0
10
-25.565754004364
20
-3.85555967709033
30
0.0
41
1.0
10
-25.5239231954041
20
-3.90191267445801
30
0.0
41
1.0
10
-25.4820802839735
20
-3.94726337845566
30
0.0
41
1.0
10
-25.4402357026939
20
-3.99164588803518
30
0.0
41
1.0
10
-25.3983964942491
20
-4.03509730282027
30
0.0
41
1.0
10
-25.3565660310407
20
-4.07765785803313
30
0.0
41
1.0
10
-25.3147437172953
20
-4.11937108029968
30
0.0
41
1.0
10
-25.2729246724553
20
-4.16028396795998
30
0.0
41
1.0
10
-25.2310993947515
20
-4.20044720009329
30
0.0
41
1.0
10
-25.1892534039772
20
-4.23991537914252
30
0.0
41
1.0
10
-25.1473668627008
20
-4.27874731280243
30
0.0
41
1.0
10
-25.1054141754914
20
-4.31700634173281
30
0.0
41
1.0
10
-25.0633635662374
20
-4.35476072068412
30
0.0
41
1.0
10
-25.021176634363
20
-4.39208406178969
30
0.0
41
1.0
10
-24.9788078917726
20
-4.4290558500916
30
0.0
41
1.0
10
-24.9362042837626
20
-4.46576204282799
30
0.0
41
1.0
10
-24.8933046990729
20
-4.50229576560534
30
0.0
41
1.0
10
-24.850039476845
20
-4.53875812028067
30
0.0
41
1.0
10
-24.806329921731
20
-4.57525912112704
30
0.0
41
1.0
10
-24.7620878429942
20
-4.61191877754867
30
0.0
41
1.0
10
-24.7172151394847
20
-4.64886834308419
30
0.0
41
1.0
10
-24.6716034602472
20
-4.68625175142713
30
0.0
41
1.0
10
-24.6251339806825
20
-4.72422726030872
30
0.0
41
1.0
10
-24.577677347191
20
-4.7629693227469
30
0.0
41
1.0
10
-24.5290938596788
20
-4.80267070152215
30
0.0
41
1.0
10
-24.4792339818221
20
-4.84354483559765
30
0.0
41
1.0
10
-24.4279392941523
20
-4.88582845488884
30
0.0
41
1.0
10
-24.3750440351876
20
-4.92978442003921
30
0.0
41
1.0
10
-24.3203774108995
20
-4.97570473367554
30
0.0
41
1.0
10
-24.2637668918036
20
-5.02391362517015
30
0.0
41
1.0
10
-24.2050427574222
20
-5.07477054758343
30
0.0
41
1.0
10
-24.1440441849639
20
-5.12867283795925
30
0.0
41
1.0
10
-24.0806272043524
20
-5.18605767533172
30
0.0
41
1.0
10
-24.0146748417595
20
-5.24740282094991
30
0.0
41
1.0
10
-23.9461097285011
20
-5.31322544256097
30
0.0
41
1.0
10
-23.8749093339277
20
-5.3840781173279
30
0.0
41
1.0
10
-23.8011237550989
20
-5.46054089821944
30
0.0
41
1.0
10
-23.724895624743
20
-5.54320816002724
30
0.0
41
1.0
10
-23.6464811509517
20
-5.63266888606984
30
0.0
41
1.0
10
-23.5662705705574
20
-5.72947922058688
30
0.0
41
1.0
10
-23.4848054287236
20
-5.83412662656783
30
0.0
41
1.0
10
-23.4027892209842
20
-5.94698598558579
30
0.0
41
1.0
10
-23.3210872939133
20
-6.0682695298823
30
0.0
41
1.0
10
-23.240711847171
20
-6.19797454023354
30
0.0
41
1.0
10
-23.1627888027867
20
-6.3358349731404
30
0.0
41
1.0
10
-23.0885054848296
20
-6.48128501022045
30
0.0
41
1.0
10
-23.0190414346662
20
-6.63344315146696
30
0.0
41
1.0
10
-22.9554887118668
20
-6.79112413962437
30
0.0
41
1.0
10
-22.898771616641
20
-6.95288237343629
30
0.0
41
1.0
10
-22.8495776062787
20
-7.11708500569688
30
0.0
41
1.0
10
-22.8083102796564
20
-7.28200695801061
30
0.0
41
1.0
10
-22.7750715652958
20
-7.44593542436203
30
0.0
41
1.0
10
-22.7496746451806
20
-7.60726961497886
30
0.0
41
1.0
10
-22.7316833830036
20
-7.7646030643552
30
0.0
41
1.0
10
-22.7204697931157
20
-7.91678012422646
30
0.0
41
1.0
10
-22.715279361906
20
-8.06292376051652
30
0.0
41
1.0
10
-22.7152948009674
20
-8.20243681729452
30
0.0
41
1.0
10
-22.7196912832339
20
-8.33498235609615
30
0.0
41
1.0
10
-22.7276793190029
20
-8.46045015818518
30
0.0
41
1.0
10
-22.7385342654778
20
-8.57891627714357
30
0.0
41
1.0
10
-22.7516135210471
20
-8.69060126765747
30
0.0
41
1.0
10
-22.7663636133021
20
-8.79583103190339
30
0.0
41
1.0
10
-22.7823197852047
20
-8.8950025917744
30
0.0
41
1.0
10
-22.7991005608018
20
-8.98855577366708
30
0.0
41
1.0
10
-22.8163993710645
20
-9.07695086508059
30
0.0
41
1.0
10
-22.8339748249985
20
-9.16065173968271
30
0.0
41
1.0
10
-22.8516407354021
20
-9.24011366993437
30
0.0
41
1.0
10
-22.8692566091251
20
-9.31577496459134
30
0.0
41
1.0
10
-22.8867190056842
20
-9.38805160533965
30
0.0
41
1.0
10
-22.9039539506223
20
-9.4573341550076
30
0.0
41
1.0
10
-22.920910445981
20
-9.52398633095409
30
0.0
41
1.0
10
-22.937555032194
20
-9.58834475847755
30
0.0
41
1.0
10
-22.9538673075078
20
-9.65071952846028
30
0.0
41
1.0
10
-22.9698362896114
20
-9.71139527605416
30
0.0
41
1.0
10
-22.9854574996572
20
-9.77063257225353
30
0.0
41
1.0
10
-23.000730654276
20
-9.82866947907866
30
0.0
41
1.0
10
-23.0156578618166
20
-9.8857231641238
30
0.0
41
1.0
10
-23.030242231839
20
-9.94199150393019
30
0.0
41
1.0
10
-23.0444868200048
20
-9.99765463039554
30
0.0
41
1.0
10
-23.0583938429172
20
-10.0528763922722
30
0.0
41
1.0
10
-23.0719641086229
20
-10.1078057164222
30
0.0
41
1.0
10
-23.0851966182287
20
-10.1625778622269
30
0.0
41
1.0
10
-23.0980883023722
20
-10.2173155684321
30
0.0
41
1.0
10
-23.1106338632434
20
-10.2721300955337
30
0.0
41
1.0
10
-23.1228256986022
20
-10.3271221691702
30
0.0
41
1.0
10
-23.1346538889555
20
-10.3823828313233
30
0.0
41
1.0
10
-23.1461062328952
20
-10.4379942067519
30
0.0
41
1.0
10
-23.1571683187001
20
-10.4940301922391
30
0.0
41
1.0
10
-23.167823622803
20
-10.5505570760716
30
0.0
41
1.0
10
-23.1780536277275
20
-10.6076340948238
30
0.0
41
1.0
10
-23.1878379536962
20
-10.6653139340519
30
0.0
41
1.0
10
-23.1971544993864
20
-10.723643178992
30
0.0
41
1.0
10
-23.205979588321
20
-10.7826627208196
30
0.0
41
1.0
10
-23.2142881181822
20
-10.8424081235019
30
0.0
41
1.0
10
-23.2220537109693
20
-10.9029099557692
30
0.0
41
1.0
10
-23.2292488624199
20
-10.964194092262
30
0.0
41
1.0
10
-23.2358450895047
20
-11.0262819874708
30
0.0
41
1.0
10
-23.2418130751131
20
-11.0891909256885
30
0.0
41
1.0
10
-23.2471228092857
20
-11.152934249835
30
0.0
41
1.0
10
-23.2517437265341
20
-11.2175215716871
30
0.0
41
1.0
10
-23.2556448389331
20
-11.2829589657569
30
0.0
41
1.0
10
-23.258794864779
20
-11.3492491487996
30
0.0
41
1.0
10
-23.2611623526912
20
-11.4163916467048
30
0.0
41
1.0
10
-23.2627158010978
20
-11.484382950313
30
0.0
41
1.0
10
-23.2634237730921
20
-11.5532166615244
30
0.0
41
1.0
10
-23.2632550066806
20
-11.6228836308982
30
0.0
41
1.0
10
-23.2621785204677
20
-11.6933720878019
30
0.0
41
1.0
10
-23.2601637148406
20
-11.764667764043
30
0.0
41
1.0
10
-23.2571804687245
20
-11.8367540118005
30
0.0
41
1.0
10
-23.2531992319903
20
-11.9096119165774
30
0.0
41
1.0
10
-23.2481911135959
20
-11.9832204058059
30
0.0
41
1.0
10
-23.2421279655445
20
-12.0575563536587
30
0.0
41
1.0
10
-23.2349824627429
20
-12.1325946825522
30
0.0
41
1.0
10
-23.2267281788399
20
-12.2083084617636
30
0.0
41
1.0
10
-23.2173396581208
20
-12.2846690035325
30
0.0
41
1.0
10
-23.2067924835331
20
-12.3616459569667
30
0.0
41
1.0
10
-23.1950633409112
20
-12.4392074000301
30
0.0
41
1.0
10
-23.1821300794666
20
-12.5173199298524
30
0.0
41
1.0
10
-23.1679717686047
20
-12.5959487515652
30
0.0
41
1.0
10
-23.1525687511257
20
-12.6750577658405
30
0.0
41
1.0
10
-23.1359026928642
20
-12.7546096552783
30
0.0
41
1.0
10
-23.1179566288173
20
-12.8345659697681
30
0.0
41
1.0
10
-23.0987150058085
20
-12.9148872109248
30
0.0
41
1.0
10
-23.0781637217332
20
-12.9955329156835
30
0.0
41
1.0
10
-23.0562901614269
20
-13.0764617391176
30
0.0
41
1.0
10
-23.0330832291962
20
-13.1576315365298
30
0.0
41
1.0
10
-23.0085333780507
20
-13.2389994448534
30
0.0
41
1.0
10
-22.9826326356731
20
-13.3205219633865
30
0.0
41
1.0
10
-22.955374627161
20
-13.4021550338725
30
0.0
41
1.0
10
-22.9267545945763
20
-13.4838541199292
30
0.0
41
1.0
10
-22.8967694133347
20
-13.5655742858206
30
0.0
41
1.0
10
-22.8654176054682
20
-13.6472702745583
30
0.0
41
1.0
10
-22.8326993497937
20
-13.7288965853089
30
0.0
41
1.0
10
-22.79861648902
20
-13.8104075500838
30
0.0
41
1.0
10
-22.7631725338248
20
-13.8917574096743
30
0.0
41
1.0
10
-22.7263726639365
20
-13.9729003887984
30
0.0
41
1.0
10
-22.6882237262522
20
-14.0537907704127
30
0.0
41
1.0
10
-22.6487342300266
20
-14.1343829691472
30
0.0
41
1.0
10
-22.6079143391658
20
-14.2146316038102
30
0.0
41
1.0
10
-22.5657758616611
20
-14.2944915689139
30
0.0
41
1.0
10
-22.5223322361995
20
-14.373918105163
30
0.0
41
1.0
10
-22.4775985159865
20
-14.4528668688506
30
0.0
41
1.0
10
-22.4315913498194
20
-14.531294000103
30
0.0
41
1.0
10
-22.384328960451
20
-14.6091561899112
30
0.0
41
1.0
10
-22.335831120281
20
-14.6864107458892
30
0.0
41
1.0
10
-22.2861191244184
20
-14.7630156566949
30
0.0
41
1.0
10
-22.2352157611545
20
-14.8389296550517
30
0.0
41
1.0
10
-22.1831452798903
20
-14.9141122793063
30
0.0
41
1.0
10
-22.1299333565612
20
-14.9885239334581
30
0.0
41
1.0
10
-22.0756070566039
20
-15.0621259455973
30
0.0
41
1.0
10
-22.0201947955103
20
-15.1348806246866
30
0.0
41
1.0
10
-21.9637262970144
20
-15.2067513156233
30
0.0
41
1.0
10
-21.9062325489583
20
-15.2777024525179
30
0.0
41
1.0
10
-21.847745756885
20
-15.3476996101279
30
0.0
41
1.0
10
-21.7882992954044
20
-15.4167095533825
30
0.0
41
1.0
10
-21.7279276573812
20
-15.484700284939
30
0.0
41
1.0
10
-21.66666640099
20
-15.5516410907102
30
0.0
41
1.0
10
-21.6045520946886
20
-15.6175025833021
30
0.0
41
1.0
10
-21.5416222601516
20
-15.6822567433069
30
0.0
41
1.0
10
-21.477915313216
20
-15.7458769583909
30
0.0
41
1.0
10
-21.4134705028801
20
-15.8083380601244
30
0.0
41
1.0
10
-21.348327848402
20
-15.8696163584991
30
0.0
41
1.0
10
-21.2825280745407
20
-15.9296896740787
30
0.0
41
1.0
10
-21.2161125449806
20
-15.9885373677339
30
0.0
41
1.0
10
-21.149123193978
20
-16.0461403679101
30
0.0
41
1.0
10
-21.0816024562671
20
-16.1024811953811
30
0.0
41
1.0
10
-21.0135931952582
20
-16.1575439854424
30
0.0
41
1.0
10
-20.9451386295574
20
-16.2113145074982
30
0.0
41
1.0
10
-20.8762822578362
20
-16.2637801820008
30
0.0
41
1.0
10
-20.8070677820683
20
-16.3149300947007
30
0.0
41
1.0
10
-20.7375390291542
20
-16.3647550081668
30
0.0
41
1.0
10
-20.667739870939
20
-16.4132473705415
30
0.0
41
1.0
10
-20.5977141426304
20
-16.4604013214931
30
0.0
41
1.0
10
-20.5275055596095
20
-16.5062126953328
30
0.0
41
1.0
10
-20.4571576326229
20
-16.5506790212647
30
0.0
41
1.0
10
-20.3867135813331
20
-16.593799520738
30
0.0
41
1.0
10
-20.3162162461913
20
-16.6355751018766
30
0.0
41
1.0
10
-20.2457079985898
20
-16.676008350958
30
0.0
41
1.0
10
-20.1752306492313
20
-16.7151035209214
30
0.0
41
1.0
10
-20.1048253546407
20
-16.7528665168833
30
0.0
41
1.0
10
-20.034532521728
20
-16.7893048786458
30
0.0
41
1.0
10
-19.9643917102889
20
-16.8244277601817
30
0.0
41
1.0
10
-19.894441533311
20
-16.8582459060882
30
0.0
41
1.0
10
-19.8247195549281
20
-16.8907716250028
30
0.0
41
1.0
10
-19.7552621858382
20
-16.9220187599808
30
0.0
41
1.0
10
-19.6861045759712
20
-16.95200265584
30
0.0
41
1.0
10
-19.6172805041581
20
-16.9807401234831
30
0.0
41
1.0
10
-19.5488222645164
20
-17.0082494012183
30
0.0
41
1.0
10
-19.4807605492242
20
-17.0345501131078
30
0.0
41
1.0
10
-19.4131243273075
20
-17.0596632243841
30
0.0
41
1.0
10
-19.3459407190138
20
-17.0836109939888
30
0.0
41
1.0
10
-19.2792348652859
20
-17.1064169243067
30
0.0
41
1.0
10
-19.2130297917817
20
-17.1281057081853
30
0.0
41
1.0
10
-19.1473462668155
20
-17.148703173357
30
0.0
41
1.0
10
-19.08220265251
20
-17.1682362244118
30
0.0
41
1.0
10
-19.0176147483582
20
-17.1867327825031
30
0.0
41
1.0
10
-18.9535956262899
20
-17.2042217230163
30
0.0
41
1.0
10
-18.8901554562222
20
-17.2207328114836
30
0.0
41
1.0
10
-18.8273013209453
20
-17.2362966380967
30
0.0
41
1.0
10
-18.7650370190505
20
-17.2509445512513
30
0.0
41
1.0
10
-18.7033628544502
20
-17.2647085906566
30
0.0
41
1.0
10
-18.6422754108609
20
-17.2776214206691
30
0.0
41
1.0
10
-18.5817673094285
20
-17.2897162646582
30
0.0
41
1.0
10
-18.5218269474603
20
-17.3010268413965
30
0.0
41
1.0
10
-18.4624382159953
20
-17.3115873046958
30
0.0
41
1.0
10
-18.4035801936937
20
-17.3214321877827
30
0.0
41
1.0
10
-18.3452268142557
20
-17.3305963542502
30
0.0
41
1.0
10
-18.2873465042961
20
-17.3391149578344
30
0.0
41
1.0
10
-18.2299017883069
20
-17.3470234137719
30
0.0
41
1.0
10
-18.1728488570441
20
-17.354357385115
30
0.0
41
1.0
10
-18.1161370953926
20
-17.3611527881386
30
0.0
41
1.0
10
-18.0597085655082
20
-17.3674458218958
30
0.0
41
1.0
10
-18.0034974408408
20
-17.37327302811
30
0.0
41
1.0
10
-17.9474293865458
20
-17.3786713889561
30
0.0
41
1.0
10
-17.8914208818451
20
-17.3836784719519
30
0.0
41
1.0
10
-17.8353784801851
20
-17.3883326331918
30
0.0
41
1.0
10
-17.7791980036596
20
-17.3926732925763
30
0.0
41
1.0
10
-17.7227636692698
20
-17.3967412976009
30
0.0
41
1.0
10
-17.6659471463747
20
-17.4005793957171
30
0.0
41
1.0
10
-17.6086065474113
20
-17.4042328393578
30
0.0
41
1.0
10
-17.5505853579882
20
-17.4077501524574
30
0.0
41
1.0
10
-17.4917113182387
20
-17.4111840927265
30
0.0
41
1.0
10
-17.4317952754821
20
-17.4145928500118
30
0.0
41
1.0
10
-17.3706300395472
20
-17.4180415276317
30
0.0
41
1.0
10
-17.307989287564
20
-17.4216039602964
30
0.0
41
1.0
10
-17.2436265858307
20
-17.4253649285086
30
0.0
41
1.0
10
-17.1772746239518
20
-17.4294228341656
30
0.0
41
1.0
10
-17.1086447924618
20
-17.4338929038407
30
0.0
41
1.0
10
-17.0374272812516
20
-17.4389109824104
30
0.0
41
1.0
10
-16.9632919337927
20
-17.4446379666603
30
0.0
41
1.0
10
-16.8858901621267
20
-17.4512649010313
30
0.0
41
1.0
10
-16.8048583090276
20
-17.4590187086792
30
0.0
41
1.0
10
-16.7198229328682
20
-17.4681684513846
30
0.0
41
1.0
10
-16.6304085788172
20
-17.4790318906261
30
0.0
41
1.0
10
-16.5362486707198
20
-17.4919819477287
30
0.0
41
1.0
10
-16.4370001841902
20
-17.5074524238245
30
0.0
41
1.0
10
-16.3323627020205
20
-17.5259420379354
30
0.0
41
1.0
10
-16.2221022517753
20
-17.5480154867834
30
0.0
41
1.0
10
-16.1060799144459
20
-17.5742998632202
30
0.0
41
1.0
10
-15.9842845048796
20
-17.605474472842
30
0.0
41
1.0
10
-15.8568676187606
20
-17.642251993752
30
0.0
41
1.0
10
-15.7241780460712
20
-17.6853492158136
30
0.0
41
1.0
10
-15.5867911199145
20
-17.7354464764714
30
0.0
41
1.0
10
-15.4455273253366
20
-17.7931365318596
30
0.0
41
1.0
10
-15.301453928839
20
-17.8588659486303
30
0.0
41
1.0
10
-15.155864075472
20
-17.932874861674
30
0.0
41
1.0
10
-15.0102301669509
20
-18.0151434395243
30
0.0
41
1.0
10
-14.8661323747615
20
-18.105354685429
30
0.0
41
1.0
10
-14.7251681765806
20
-18.2028823734363
30
0.0
41
1.0
10
-14.5888535005458
20
-18.3068095796641
30
0.0
41
1.0
10
-14.4585288406466
20
-18.4159779158414
30
0.0
41
1.0
10
-14.3352834209054
20
-18.5290616048751
30
0.0
41
1.0
10
-14.2199070229923
20
-18.6446557717605
30
0.0
41
1.0
10
-14.1128735049052
20
-18.7613662075118
30
0.0
41
1.0
10
-14.0143540885883
20
-18.8778888523403
30
0.0
41
1.0
10
-13.9242538674039
20
-18.9930706788006
30
0.0
41
1.0
10
-13.8422626405906
20
-19.1059481875239
30
0.0
41
1.0
10
-13.7679111564948
20
-19.2157639683812
30
0.0
41
1.0
10
-13.7006254894782
20
-19.3219648021379
30
0.0
41
1.0
10
-13.6397746880294
20
-19.4241862830853
30
0.0
41
1.0
10
-13.5847092377322
20
-19.5222291319622
30
0.0
41
1.0
10
-13.5347898095091
20
-19.6160316862486
30
0.0
41
1.0
10
-13.4894070434045
20
-19.7056419660703
30
0.0
41
1.0
10
-13.4479937954197
20
-19.7911915725174
30
0.0
41
1.0
10
-13.4100314957969
20
-19.8728726892449
30
0.0
41
1.0
10
-13.3750521970182
20
-19.9509187118667
30
0.0
41
1.0
10
-13.3426376680352
20
-20.0255885254498
30
0.0
41
1.0
10
-13.3124166160792
20
-20.0971541494243
30
0.0
41
1.0
10
-13.2840608481409
20
-20.1658913192531
30
0.0
41
1.0
10
-13.2572809505568
20
-20.2320725258068
30
0.0
41
1.0
10
-13.2318218774125
20
-20.295962046762
30
0.0
41
1.0
10
-13.2074586959642
20
-20.3578125506662
30
0.0
41
1.0
10
-13.183992633999
20
-20.4178629144632
30
0.0
41
1.0
10
-13.1612475022961
20
-20.4763369575877
30
0.0
41
1.0
10
-13.1390665176043
20
-20.5334428538017
30
0.0
41
1.0
10
-13.1173095213281
20
-20.5893730327651
30
0.0
41
1.0
10
-13.0958505712486
20
-20.6443044260086
30
0.0
41
1.0
10
-13.0745758741397
20
-20.6983989467704
30
0.0
41
1.0
10
-13.0533820232109
20
-20.7518041208898
30
0.0
41
1.0
10
-13.0321745038515
20
-20.8046538076785
30
0.0
41
1.0
10
-13.0108664327719
20
-20.8570689664569
30
0.0
41
1.0
10
-12.9893774983807
20
-20.9091584372284
30
0.0
41
1.0
10
-12.9676330734871
20
-20.9610197135983
30
0.0
41
1.0
10
-12.9455634747943
20
-21.0127396932239
30
0.0
41
1.0
10
-12.9231033469156
20
-21.064395396374
30
0.0
41
1.0
10
-12.9001911516786
20
-21.1160546470272
30
0.0
41
1.0
10
-12.8767687462147
20
-21.1677767137016
30
0.0
41
1.0
10
-12.852781035757
20
-21.2196129091529
30
0.0
41
1.0
10
-12.8281756891817
20
-21.2716071494229
30
0.0
41
1.0
10
-12.8029029071508
20
-21.3237964736072
30
0.0
41
1.0
10
-12.7769152342851
20
-21.3762115262835
30
0.0
41
1.0
10
-12.7501674081242
20
-21.4288770048681
30
0.0
41
1.0
10
-12.7226162387658
20
-21.4818120743329
30
0.0
41
1.0
10
-12.6942205140329
20
-21.5350307517592
30
0.0
41
1.0
10
-12.6649409258256
20
-21.5885422631698
30
0.0
41
1.0
10
-12.6347400139963
20
-21.6423513749888
30
0.0
41
1.0
10
-12.603582124657
20
-21.6964587023589
30
0.0
41
1.0
10
-12.5714333803147
20
-21.7508609964016
30
0.0
41
1.0
10
-12.5382616596306
20
-21.8055514123543
30
0.0
41
1.0
10
-12.5040365849444
20
-21.8605197603645
30
0.0
41
1.0
10
-12.4687295159895
20
-21.9157527405703
30
0.0
41
1.0
10
-12.4323135484672
20
-21.9712341639486
30
0.0
41
1.0
10
-12.3947635163515
20
-22.0269451602784
30
0.0
41
1.0
10
-12.3560559969672
20
-22.0828643744308
30
0.0
41
1.0
10
-12.3161693180315
20
-22.138968152084
30
0.0
41
1.0
10
-12.2750835659667
20
-22.1952307158462
30
0.0
41
1.0
10
-12.2327805949014
20
-22.2516243326683
30
0.0
41
1.0
10
-12.1892440358619
20
-22.308119473339
30
0.0
41
1.0
10
-12.1444593057307
20
-22.3646849647645
30
0.0
41
1.0
10
-12.0984136156133
20
-22.4212881356654
30
0.0
41
1.0
10
-12.0510959783104
20
-22.4778949562475
30
0.0
41
1.0
10
-12.0024972146343
20
-22.5344701723463
30
0.0
41
1.0
10
-11.9526099583542
20
-22.5909774344837
30
0.0
41
1.0
10
-11.9014286595844
20
-22.6473794222276
30
0.0
41
1.0
10
-11.8489495864618
20
-22.7036379641988
30
0.0
41
1.0
10
-11.7951708249827
20
-22.7597141540263
30
0.0
41
1.0
10
-11.740092276893
20
-22.8155684625176
30
0.0
41
1.0
10
-11.6837156555429
20
-22.8711608462763
30
0.0
41
1.0
10
-11.626044479636
20
-22.9264508529676
30
0.0
41
1.0
10
-11.5670840648164
20
-22.9813977234096
30
0.0
41
1.0
10
-11.5068415130501
20
-23.0359604906396
30
0.0
41
1.0
10
-11.4453256997692
20
-23.0900980760859
30
0.0
41
1.0
10
-11.382547258758
20
-23.1437693829562
30
0.0
41
1.0
10
-11.318518564767
20
-23.1969333869342
30
0.0
41
1.0
10
-11.2532537138518
20
-23.249549224264
30
0.0
41
1.0
10
-11.1867685014393
20
-23.3015762772842
30
0.0
41
1.0
10
-11.1190803981308
20
-23.3529742574655
30
0.0
41
1.0
10
-11.0502085232569
20
-23.4037032859901
30
0.0
41
1.0
10
-10.9801736162067
20
-23.453723971906
30
0.0
41
1.0
10
-10.9089980055563
20
-23.5029974878773
30
0.0
41
1.0
10
-10.8367055760265
20
-23.5514856435455
30
0.0
41
1.0
10
-10.7633217333066
20
-23.5991509565099
30
0.0
41
1.0
10
-10.6888733667814
20
-23.6459567209291
30
0.0
41
1.0
10
-10.6133888102038
20
-23.6918670737411
30
0.0
41
1.0
10
-10.5368978003596
20
-23.7368470584932
30
0.0
41
1.0
10
-10.4594314337729
20
-23.7808626867722
30
0.0
41
1.0
10
-10.3810221215038
20
-23.8238809972182
30
0.0
41
1.0
10
-10.3017035420921
20
-23.8658701121065
30
0.0
41
1.0
10
-10.2215105927056
20
-23.9067992914761
30
0.0
41
1.0
10
-10.1404793385507
20
-23.9466389847839
30
0.0
41
1.0
10
-10.0586469606072
20
-23.9853608800613
30
0.0
41
1.0
10
-9.97605170175087
20
-24.0229379505481
30
0.0
41
1.0
10
-9.89273281132891
20
-24.0593444987786
30
0.0
41
1.0
10
-9.80873048825457
20
-24.0945561980938
30
0.0
41
1.0
10
-9.72408582269034
20
-24.1285501315529
30
0.0
41
1.0
10
-9.63884073638845
20
-24.1613048282172
30
0.0
41
1.0
10
-9.55303792176045
20
-24.1928002967803
30
0.0
41
1.0
10
-9.46672077974693
20
-24.223018056517
30
0.0
41
1.0
10
-9.37993335656116
20
-24.2519411655264
30
0.0
41
1.0
10
-9.29272027937968
20
-24.2795542462407
30
0.0
41
1.0
10
-9.20512669105428
20
-24.3058435081773
30
0.0
41
1.0
10
-9.11719818391963
20
-24.3307967679076
30
0.0
41
1.0
10
-9.02898073277188
20
-24.3544034662192
30
0.0
41
1.0
10
-8.94052062709255
20
-24.376654682449
30
0.0
41
1.0
10
-8.85186440259274
20
-24.3975431459635
30
0.0
41
1.0
10
-8.76305877215216
20
-24.4170632447659
30
0.0
41
1.0
10
-8.67415055622616
20
-24.4352110312083
30
0.0
41
1.0
10
-8.58518661279488
20
-24.4519842247897
30
0.0
41
1.0
10
-8.49621376692584
20
-24.4673822120201
30
0.0
41
1.0
10
-8.40727874002125
20
-24.4814060433315
30
0.0
41
1.0
10
-8.31842807881933
20
-24.494058427019
30
0.0
41
1.0
10
-8.22970808421763
20
-24.5053437201931
30
0.0
41
1.0
10
-8.14116473998382
20
-24.5152679167256
30
0.0
41
1.0
10
-8.05284364141728
20
-24.5238386321738
30
0.0
41
1.0
10
-7.96478992402268
20
-24.5310650856634
30
0.0
41
1.0
10
-7.87704819225243
20
-24.5369580787143
30
0.0
41
1.0
10
-7.78966244837319
20
-24.5415299709911
30
0.0
41
1.0
10
-7.70267602150629
20
-24.5447946529597
30
0.0
41
1.0
10
-7.61613149688852
20
-24.5467675154295
30
0.0
41
1.0
10
-7.53007064539458
20
-24.547465415963
30
0.0
41
1.0
10
-7.44453435335725
20
-24.5469066421271
30
0.0
41
1.0
10
-7.35956255271546
20
-24.5451108715643
30
0.0
41
1.0
10
-7.2751941515136
20
-24.5420991288553
30
0.0
41
1.0
10
-7.19146696476841
20
-24.5378937391432
30
0.0
41
1.0
10
-7.10841764571093
20
-24.5325182784875
30
0.0
41
1.0
10
-7.02608161740288
20
-24.5259975209074
30
0.0
41
1.0
10
-6.9444930047158
20
-24.5183573820762
30
0.0
41
1.0
10
-6.86368456665029
20
-24.5096248596157
30
0.0
41
1.0
10
-6.78368762896042
20
-24.4998279699404
30
0.0
41
1.0
10
-6.70453201703387
20
-24.4889956815885
30
0.0
41
1.0
10
-6.62624598896305
20
-24.4771578449736
30
0.0
41
1.0
10
-6.54885616872471
20
-24.4643451184799
30
0.0
41
1.0
10
-6.47238747936635
20
-24.4505888908136
30
0.0
41
1.0
10
-6.39686307607498
20
-24.4359211995156
30
0.0
41
1.0
10
-6.3223042789802
20
-24.4203746455243
30
0.0
41
1.0
10
-6.2487305055151
20
-24.4039823036684
30
0.0
41
1.0
10
-6.17615920212735
20
-24.3867776289524
30
0.0
41
1.0
10
-6.10460577509828
20
-24.3687943584839
30
0.0
41
1.0
10
-6.03408352018713
20
-24.3500664088722
30
0.0
41
1.0
10
-5.96460355077384
20
-24.3306277689129
30
0.0
41
1.0
10
-5.89617472412188
20
-24.3105123873497
30
0.0
41
1.0
10
-5.82880356532602
20
-24.2897540554866
30
0.0
41
1.0
10
-5.76249418844333
20
-24.268386284399
30
0.0
41
1.0
10
-5.69724821423269
20
-24.2464421764702
30
0.0
41
1.0
10
-5.63306468384222
20
-24.2239542909557
30
0.0
41
1.0
10
-5.56993996768806
20
-24.2009545032521
30
0.0
41
1.0
10
-5.50786766865794
20
-24.1774738575244
30
0.0
41
1.0
10
-5.4468385186468
20
-24.1535424123214
30
0.0
41
1.0
10
-5.3868402672886
20
-24.1291890787876
30
0.0
41
1.0
10
-5.32785756158374
20
-24.1044414510637
30
0.0
41
1.0
10
-5.26987181493382
20
-24.0793256284543
30
0.0
41
1.0
10
-5.21286106388041
20
-24.0538660289378
30
0.0
41
1.0
10
-5.15679981059868
20
-24.0280851936031
30
0.0
41
1.0
10
-5.10165884891567
20
-24.0020035816187
30
0.0
41
1.0
10
-5.0474050713014
20
-23.9756393553888
30
0.0
41
1.0
10
-4.99400125391513
20
-23.9490081556257
30
0.0
41
1.0
10
-4.94140581637145
20
-23.9221228661821
30
0.0
41
1.0
10
-4.88957255241758
20
-23.8949933686577
30
0.0
41
1.0
10
-4.83845032717677
20
-23.8676262870298
30
0.0
41
1.0
10
-4.78798273600999
20
-23.8400247228864
30
0.0
41
1.0
10
-4.73810771937239
20
-23.8121879822858
30
0.0
41
1.0
10
-4.68875712729365
20
-23.784111295867
30
0.0
41
1.0
10
-4.63985622629001
20
-23.7557855346297
30
0.0
41
1.0
10
-4.59132314063192
20
-23.7271969248566
30
0.0
41
1.0
10
-4.54306821895756
20
-23.6983267670264
30
0.0
41
1.0
10
-4.49499331627046
20
-23.6691511653652
30
0.0
41
1.0
10
-4.4469909804378
20
-23.6396407770057
30
0.0
41
1.0
10
-4.39894353149054
20
-23.6097605927265
30
0.0
41
1.0
10
-4.35072202143752
20
-23.5794697650843
30
0.0
41
1.0
10
-4.30218506211642
20
-23.5487215046493
30
0.0
41
1.0
10
-4.25317750907161
20
-23.5174630712581
30
0.0
41
1.0
10
-4.2035289909394
20
-23.4856358949858
30
0.0
41
1.0
10
-4.15305227685264
20
-23.4531758712513
30
0.0
41
1.0
10
-4.10154147967141
20
-23.4200138864184
30
0.0
41
1.0
10
-4.04877010139404
20
-23.3860766447772
30
0.0
41
1.0
10
-3.99448894023842
20
-23.3512878850996
30
0.0
41
1.0
10
-3.93842389836791
20
-23.3155700950846
30
0.0
41
1.0
10
-3.88027375733962
20
-23.2788468546007
30
0.0
41
1.0
10
-3.81970802789535
20
-23.2410459626483
30
0.0
41
1.0
10
-3.75636503503502
20
-23.2021035263231
30
0.0
41
1.0
10
-3.68985047207137
20
-23.1619692089632
30
0.0
41
1.0
10
-3.61973675204394
20
-23.1206128429039
30
0.0
41
1.0
10
-3.54556360378342
20
-23.0780326002171
30
0.0
41
1.0
10
-3.46684050243978
20
-23.0342648685265
30
0.0
41
1.0
10
-3.38305168401887
20
-22.9893958794637
30
0.0
41
1.0
10
-3.29366465405548
20
-22.9435749608418
30
0.0
41
1.0
10
-3.19814323023658
20
-22.8970290040206
30
0.0
41
1.0
10
-3.09596620448064
20
-22.8500773326978
30
0.0
41
1.0
10
-2.98665259301886
20
-22.803145621103
30
0.0
41
1.0
10
-2.86979406106121
20
-22.7567768645401
30
0.0
41
1.0
10
-2.74509435041381
20
-22.7116367374135
30
0.0
41
1.0
10
-2.61241431958917
20
-22.6685101485119
30
0.0
41
1.0
10
-2.47181953052857
20
-22.6282856747029
30
0.0
41
1.0
10
-2.32362535626403
20
-22.5919251347827
30
0.0
41
1.0
10
-2.16843274824055
20
-22.5604171322715
30
0.0
41
1.0
10
-2.00714673503281
20
-22.5347160319666
30
0.0
41
1.0
10
-1.84097017129441
20
-22.5156712458881
30
0.0
41
1.0
10
-1.67136776862762
20
-22.5039551197719
30
0.0
41
1.0
10
-1.50000000000003
20
-22.5
30
0.0
41
1.0
10
-1.32863223137236
20
-22.5039551197719
30
0.0
41
1.0
10
-1.15902982870554
20
-22.5156712458881
30
0.0
41
1.0
10
-0.992853264967171
20
-22.5347160319666
30
0.0
41
1.0
10
-0.831567251759464
20
-22.5604171322715
30
0.0
41
1.0
10
-0.676374643735983
20
-22.5919251347826
30
0.0
41
1.0
10
-0.528180469471422
20
-22.6282856747029
30
0.0
41
1.0
10
-0.387585680410782
20
-22.6685101485119
30
0.0
41
1.0
10
-0.254905649586179
20
-22.7116367374135
30
0.0
41
1.0
10
-0.130205938938825
20
-22.7567768645401
30
0.0
41
1.0
10
-0.0133474069811275
20
-22.803145621103
30
0.0
41
1.0
10
0.0959662044806746
20
-22.8500773326978
30
0.0
41
1.0
10
0.198143230236593
20
-22.8970290040206
30
0.0
41
1.0
10
0.29366465405547
20
-22.9435749608418
30
0.0
41
1.0
10
0.383051684018866
20
-22.9893958794637
30
0.0
41
1.0
10
0.466840502439789
20
-23.0342648685265
30
0.0
41
1.0
10
0.545563603783435
20
-23.0780326002171
30
0.0
41
1.0
10
0.619736752043952
20
-23.1206128429039
30
0.0
41
1.0
10
0.689850472071348
20
-23.1619692089632
30
0.0
41
1.0
10
0.756365035035027
20
-23.2021035263231
30
0.0
41
1.0
10
0.819708027895363
20
-23.2410459626483
30
0.0
41
1.0
10
0.880273757339623
20
-23.2788468546007
30
0.0
41
1.0
10
0.938423898367903
20
-23.3155700950846
30
0.0
41
1.0
10
0.994488940238421
20
-23.3512878850996
30
0.0
41
1.0
10
1.04877010139405
20
-23.3860766447772
30
0.0
41
1.0
10
1.10154147967142
20
-23.4200138864184
30
0.0
41
1.0
10
1.15305227685264
20
-23.4531758712513
30
0.0
41
1.0
10
1.20352899093939
20
-23.4856358949858
30
0.0
41
1.0
10
1.2531775090716
20
-23.5174630712581
30
0.0
41
1.0
10
1.30218506211642
20
-23.5487215046493
30
0.0
41
1.0
10
1.35072202143752
20
-23.5794697650843
30
0.0
41
1.0
10
1.39894353149054
20
-23.6097605927265
30
0.0
41
1.0
10
1.4469909804378
20
-23.6396407770057
30
0.0
41
1.0
10
1.49499331627047
20
-23.6691511653652
30
0.0
41
1.0
10
1.54306821895756
20
-23.6983267670264
30
0.0
41
1.0
10
1.59132314063193
20
-23.7271969248566
30
0.0
41
1.0
10
1.63985622629001
20
-23.7557855346298
30
0.0
41
1.0
10
1.68875712729365
20
-23.784111295867
30
0.0
41
1.0
10
1.7381077193724
20
-23.8121879822858
30
0.0
41
1.0
10
1.78798273600999
20
-23.8400247228864
30
0.0
41
1.0
10
1.83845032717678
20
-23.8676262870298
30
0.0
41
1.0
10
1.88957255241757
20
-23.8949933686577
30
0.0
41
1.0
10
1.94140581637146
20
-23.9221228661821
30
0.0
41
1.0
10
1.99400125391514
20
-23.9490081556257
30
0.0
41
1.0
10
2.04740507130141
20
-23.9756393553888
30
0.0
41
1.0
10
2.10165884891567
20
-24.0020035816187
30
0.0
41
1.0
10
2.15679981059867
20
-24.0280851936031
30
0.0
41
1.0
10
2.21286106388041
20
-24.0538660289379
30
0.0
41
1.0
10
2.26987181493383
20
-24.0793256284543
30
0.0
41
1.0
10
2.32785756158375
20
-24.1044414510637
30
0.0
41
1.0
10
2.3868402672886
20
-24.1291890787876
30
0.0
41
1.0
10
2.44683851864681
20
-24.1535424123214
30
0.0
41
1.0
10
2.50786766865795
20
-24.1774738575244
30
0.0
41
1.0
10
2.56993996768808
20
-24.2009545032521
30
0.0
41
1.0
10
2.63306468384222
20
-24.2239542909557
30
0.0
41
1.0
10
2.69724821423269
20
-24.2464421764702
30
0.0
41
1.0
10
2.76249418844334
20
-24.268386284399
30
0.0
41
1.0
10
2.82880356532603
20
-24.2897540554866
30
0.0
41
1.0
10
2.8961747241219
20
-24.3105123873497
30
0.0
41
1.0
10
2.96460355077383
20
-24.3306277689129
30
0.0
41
1.0
10
3.03408352018715
20
-24.3500664088722
30
0.0
41
1.0
10
3.10460577509829
20
-24.3687943584839
30
0.0
41
1.0
10
3.17615920212737
20
-24.3867776289524
30
0.0
41
1.0
10
3.2487305055151
20
-24.4039823036684
30
0.0
41
1.0
10
3.3223042789802
20
-24.4203746455243
30
0.0
41
1.0
10
3.396863076075
20
-24.4359211995156
30
0.0
41
1.0
10
3.47238747936637
20
-24.4505888908136
30
0.0
41
1.0
10
3.54885616872472
20
-24.4643451184799
30
0.0
41
1.0
10
3.62624598896304
20
-24.4771578449736
30
0.0
41
1.0
10
3.70453201703388
20
-24.4889956815885
30
0.0
41
1.0
10
3.78368762896043
20
-24.4998279699404
30
0.0
41
1.0
10
3.8636845666503
20
-24.5096248596157
30
0.0
41
1.0
10
3.9444930047158
20
-24.5183573820762
30
0.0
41
1.0
10
4.02608161740288
20
-24.5259975209074
30
0.0
41
1.0
10
4.10841764571094
20
-24.5325182784875
30
0.0
41
1.0
10
4.19146696476843
20
-24.5378937391432
30
0.0
41
1.0
10
4.27519415151362
20
-24.5420991288553
30
0.0
41
1.0
10
4.35956255271545
20
-24.5451108715643
30
0.0
41
1.0
10
4.44453435335725
20
-24.5469066421271
30
0.0
41
1.0
10
4.53007064539459
20
-24.547465415963
30
0.0
41
1.0
10
4.61613149688854
20
-24.5467675154296
30
0.0
41
1.0
10
4.7026760215063
20
-24.5447946529597
30
0.0
41
1.0
10
4.78966244837318
20
-24.5415299709911
30
0.0
41
1.0
10
4.87704819225245
20
-24.5369580787143
30
0.0
41
1.0
10
4.9647899240227
20
-24.5310650856634
30
0.0
41
1.0
10
5.0528436414173
20
-24.5238386321738
30
0.0
41
1.0
10
5.1411647399838
20
-24.5152679167256
30
0.0
41
1.0
10
5.22970808421763
20
-24.5053437201931
30
0.0
41
1.0
10
5.31842807881934
20
-24.494058427019
30
0.0
41
1.0
10
5.40727874002127
20
-24.4814060433315
30
0.0
41
1.0
10
5.49621376692587
20
-24.4673822120201
30
0.0
41
1.0
10
5.58518661279488
20
-24.4519842247897
30
0.0
41
1.0
10
5.67415055622618
20
-24.4352110312083
30
0.0
41
1.0
10
5.76305877215218
20
-24.4170632447659
30
0.0
41
1.0
10
5.85186440259276
20
-24.3975431459635
30
0.0
41
1.0
10
5.94052062709253
20
-24.376654682449
30
0.0
41
1.0
10
6.02898073277187
20
-24.3544034662192
30
0.0
41
1.0
10
6.11719818391964
20
-24.3307967679076
30
0.0
41
1.0
10
6.2051266910543
20
-24.3058435081773
30
0.0
41
1.0
10
6.29272027937971
20
-24.2795542462407
30
0.0
41
1.0
10
6.37993335656116
20
-24.2519411655264
30
0.0
41
1.0
10
6.46672077974695
20
-24.223018056517
30
0.0
41
1.0
10
6.55303792176047
20
-24.1928002967803
30
0.0
41
1.0
10
6.63884073638846
20
-24.1613048282172
30
0.0
41
1.0
10
6.72408582269032
20
-24.1285501315529
30
0.0
41
1.0
10
6.80873048825456
20
-24.0945561980938
30
0.0
41
1.0
10
6.89273281132892
20
-24.0593444987786
30
0.0
41
1.0
10
6.97605170175089
20
-24.0229379505481
30
0.0
41
1.0
10
7.05864696060718
20
-23.9853608800613
30
0.0
41
1.0
10
7.14047933855068
20
-23.9466389847839
30
0.0
41
1.0
10
7.22151059270561
20
-23.9067992914761
30
0.0
41
1.0
10
7.3017035420921
20
-23.8658701121065
30
0.0
41
1.0
10
7.38102212150381
20
-23.8238809972182
30
0.0
41
1.0
10
7.45943143377294
20
-23.7808626867722
30
0.0
41
1.0
10
7.53689780035956
20
-23.7368470584932
30
0.0
41
1.0
10
7.61338881020379
20
-23.6918670737411
30
0.0
41
1.0
10
7.68887336678144
20
-23.6459567209291
30
0.0
41
1.0
10
7.76332173330665
20
-23.5991509565098
30
0.0
41
1.0
10
7.83670557602647
20
-23.5514856435455
30
0.0
41
1.0
10
7.9089980055563
20
-23.5029974878773
30
0.0
41
1.0
10
7.98017361620675
20
-23.453723971906
30
0.0
41
1.0
10
8.05020852325686
20
-23.4037032859901
30
0.0
41
1.0
10
8.11908039813077
20
-23.3529742574655
30
0.0
41
1.0
10
8.18676850143931
20
-23.3015762772842
30
0.0
41
1.0
10
8.25325371385176
20
-23.2495492242639
30
0.0
41
1.0
10
8.31851856476697
20
-23.1969333869342
30
0.0
41
1.0
10
8.38254725875801
20
-23.1437693829562
30
0.0
41
1.0
10
8.44532569976922
20
-23.0900980760859
30
0.0
41
1.0
10
8.50684151305008
20
-23.0359604906396
30
0.0
41
1.0
10
8.56708406481641
20
-22.9813977234096
30
0.0
41
1.0
10
8.62604447963596
20
-22.9264508529676
30
0.0
41
1.0
10
8.68371565554285
20
-22.8711608462763
30
0.0
41
1.0
10
8.74009227689299
20
-22.8155684625176
30
0.0
41
1.0
10
8.79517082498274
20
-22.7597141540263
30
0.0
41
1.0
10
8.84894958646183
20
-22.7036379641988
30
0.0
41
1.0
10
8.90142865958445
20
-22.6473794222276
30
0.0
41
1.0
10
8.9526099583542
20
-22.5909774344837
30
0.0
41
1.0
10
9.00249721463431
20
-22.5344701723464
30
0.0
41
1.0
10
9.05109597831043
20
-22.4778949562475
30
0.0
41
1.0
10
9.09841361561334
20
-22.4212881356654
30
0.0
41
1.0
10
9.14445930573067
20
-22.3646849647645
30
0.0
41
1.0
10
9.18924403586194
20
-22.308119473339
30
0.0
41
1.0
10
9.23278059490141
20
-22.2516243326683
30
0.0
41
1.0
10
9.2750835659667
20
-22.1952307158462
30
0.0
41
1.0
10
9.31616931803155
20
-22.138968152084
30
0.0
41
1.0
10
9.35605599696724
20
-22.0828643744308
30
0.0
41
1.0
10
9.39476351635145
20
-22.0269451602784
30
0.0
41
1.0
10
9.43231354846723
20
-21.9712341639486
30
0.0
41
1.0
10
9.4687295159895
20
-21.9157527405702
30
0.0
41
1.0
10
9.50403658494438
20
-21.8605197603645
30
0.0
41
1.0
10
9.53826165963059
20
-21.8055514123543
30
0.0
41
1.0
10
9.57143338031472
20
-21.7508609964016
30
0.0
41
1.0
10
9.60358212465702
20
-21.6964587023589
30
0.0
41
1.0
10
9.63474001399628
20
-21.6423513749888
30
0.0
41
1.0
10
9.66494092582564
20
-21.5885422631698
30
0.0
41
1.0
10
9.69422051403289
20
-21.5350307517592
30
0.0
41
1.0
10
9.72261623876584
20
-21.4818120743328
30
0.0
41
1.0
10
9.75016740812423
20
-21.4288770048681
30
0.0
41
1.0
10
9.77691523428509
20
-21.3762115262835
30
0.0
41
1.0
10
9.80290290715076
20
-21.3237964736072
30
0.0
41
1.0
10
9.82817568918168
20
-21.2716071494229
30
0.0
41
1.0
10
9.85278103575704
20
-21.2196129091529
30
0.0
41
1.0
10
9.87676874621465
20
-21.1677767137016
30
0.0
41
1.0
10
9.90019115167862
20
-21.1160546470272
30
0.0
41
1.0
10
9.92310334691562
20
-21.064395396374
30
0.0
41
1.0
10
9.94556347479427
20
-21.0127396932239
30
0.0
41
1.0
10
9.96763307348714
20
-20.9610197135983
30
0.0
41
1.0
10
9.9893774983807
20
-20.9091584372284
30
0.0
41
1.0
10
10.0108664327719
20
-20.8570689664569
30
0.0
41
1.0
10
10.0321745038515
20
-20.8046538076785
30
0.0
41
1.0
10
10.0533820232109
20
-20.7518041208898
30
0.0
41
1.0
10
10.0745758741397
20
-20.6983989467704
30
0.0
41
1.0
10
10.0958505712485
20
-20.6443044260087
30
0.0
41
1.0
10
10.1173095213281
20
-20.5893730327651
30
0.0
41
1.0
10
10.1390665176043
20
-20.5334428538017
30
0.0
41
1.0
10
10.1612475022961
20
-20.4763369575877
30
0.0
41
1.0
10
10.183992633999
20
-20.4178629144632
30
0.0
41
1.0
10
10.2074586959642
20
-20.3578125506662
30
0.0
41
1.0
10
10.2318218774125
20
-20.2959620467619
30
0.0
41
1.0
10
10.2572809505568
20
-20.2320725258068
30
0.0
41
1.0
10
10.2840608481409
20
-20.1658913192531
30
0.0
41
1.0
10
10.3124166160792
20
-20.0971541494243
30
0.0
41
1.0
10
10.3426376680352
20
-20.0255885254498
30
0.0
41
1.0
10
10.3750521970182
20
-19.9509187118667
30
0.0
41
1.0
10
10.4100314957969
20
-19.8728726892448
30
0.0
41
1.0
10
10.4479937954197
20
-19.7911915725174
30
0.0
41
1.0
10
10.4894070434045
20
-19.7056419660703
30
0.0
41
1.0
10
10.5347898095092
20
-19.6160316862486
30
0.0
41
1.0
10
10.5847092377322
20
-19.5222291319621
30
0.0
41
1.0
10
10.6397746880294
20
-19.4241862830852
30
0.0
41
1.0
10
10.7006254894782
20
-19.3219648021379
30
0.0
41
1.0
10
10.7679111564948
20
-19.2157639683811
30
0.0
41
1.0
10
10.8422626405906
20
-19.1059481875238
30
0.0
41
1.0
10
10.9242538674039
20
-18.9930706788006
30
0.0
41
1.0
10
11.0143540885883
20
-18.8778888523403
30
0.0
41
1.0
10
11.1128735049052
20
-18.7613662075118
30
0.0
41
1.0
10
11.2199070229923
20
-18.6446557717605
30
0.0
41
1.0
10
11.3352834209054
20
-18.5290616048751
30
0.0
41
1.0
10
11.4585288406466
20
-18.4159779158414
30
0.0
41
1.0
10
11.5888535005457
20
-18.3068095796641
30
0.0
41
1.0
10
11.7251681765807
20
-18.2028823734363
30
0.0
41
1.0
10
11.8661323747615
20
-18.105354685429
30
0.0
41
1.0
10
12.0102301669509
20
-18.0151434395243
30
0.0
41
1.0
10
12.155864075472
20
-17.932874861674
30
0.0
41
1.0
10
12.301453928839
20
-17.8588659486303
30
0.0
41
1.0
10
12.4455273253366
20
-17.7931365318596
30
0.0
41
1.0
10
12.5867911199145
20
-17.7354464764714
30
0.0
41
1.0
10
12.7241780460713
20
-17.6853492158136
30
0.0
41
1.0
10
12.8568676187606
20
-17.642251993752
30
0.0
41
1.0
10
12.9842845048796
20
-17.605474472842
30
0.0
41
1.0
10
13.1060799144459
20
-17.5742998632202
30
0.0
41
1.0
10
13.2221022517753
20
-17.5480154867834
30
0.0
41
1.0
10
13.3323627020205
20
-17.5259420379354
30
0.0
41
1.0
10
13.4370001841902
20
-17.5074524238245
30
0.0
41
1.0
10
13.5362486707197
20
-17.4919819477287
30
0.0
41
1.0
10
13.6304085788172
20
-17.4790318906261
30
0.0
41
1.0
10
13.7198229328682
20
-17.4681684513846
30
0.0
41
1.0
10
13.8048583090276
20
-17.4590187086792
30
0.0
41
1.0
10
13.8858901621267
20
-17.4512649010313
30
0.0
41
1.0
10
13.9632919337927
20
-17.4446379666603
30
0.0
41
1.0
10
14.0374272812516
20
-17.4389109824104
30
0.0
41
1.0
10
14.1086447924618
20
-17.4338929038407
30
0.0
41
1.0
10
14.1772746239518
20
-17.4294228341656
30
0.0
41
1.0
10
14.2436265858307
20
-17.4253649285086
30
0.0
41
1.0
10
14.307989287564
20
-17.4216039602964
30
0.0
41
1.0
10
14.3706300395472
20
-17.4180415276317
30
0.0
41
1.0
10
14.4317952754821
20
-17.4145928500118
30
0.0
41
1.0
10
14.4917113182387
20
-17.4111840927265
30
0.0
41
1.0
10
14.5505853579882
20
-17.4077501524574
30
0.0
41
1.0
10
14.6086065474113
20
-17.4042328393578
30
0.0
41
1.0
10
14.6659471463747
20
-17.4005793957171
30
0.0
41
1.0
10
14.7227636692698
20
-17.3967412976009
30
0.0
41
1.0
10
14.7791980036596
20
-17.3926732925763
30
0.0
41
1.0
10
14.8353784801851
20
-17.3883326331918
30
0.0
41
1.0
10
14.8914208818451
20
-17.3836784719519
30
0.0
41
1.0
10
14.9474293865458
20
-17.3786713889561
30
0.0
41
1.0
10
15.0034974408408
20
-17.37327302811
30
0.0
41
1.0
10
15.0597085655082
20
-17.3674458218958
30
0.0
41
1.0
10
15.1161370953926
20
-17.3611527881386
30
0.0
41
1.0
10
15.1728488570441
20
-17.354357385115
30
0.0
41
1.0
10
15.2299017883069
20
-17.3470234137719
30
0.0
41
1.0
10
15.2873465042961
20
-17.3391149578344
30
0.0
41
1.0
10
15.3452268142557
20
-17.3305963542502
30
0.0
41
1.0
10
15.4035801936937
20
-17.3214321877827
30
0.0
41
1.0
10
15.4624382159953
20
-17.3115873046958
30
0.0
41
1.0
10
15.5218269474603
20
-17.3010268413965
30
0.0
41
1.0
10
15.5817673094285
20
-17.2897162646582
30
0.0
41
1.0
10
15.6422754108609
20
-17.2776214206691
30
0.0
41
1.0
10
15.7033628544502
20
-17.2647085906566
30
0.0
41
1.0
10
15.7650370190505
20
-17.2509445512513
30
0.0
41
1.0
10
15.8273013209453
20
-17.2362966380967
30
0.0
41
1.0
10
15.8901554562222
20
-17.2207328114836
30
0.0
41
1.0
10
15.9535956262899
20
-17.2042217230163
30
0.0
41
1.0
10
16.0176147483582
20
-17.1867327825031
30
0.0
41
1.0
10
16.08220265251
20
-17.1682362244118
30
0.0
41
1.0
10
16.1473462668155
20
-17.148703173357
30
0.0
41
1.0
10
16.2130297917818
20
-17.1281057081853
30
0.0
41
1.0
10
16.2792348652859
20
-17.1064169243067
30
0.0
41
1.0
10
16.3459407190138
20
-17.0836109939888
30
0.0
41
1.0
10
16.4131243273075
20
-17.0596632243841
30
0.0
41
1.0
10
16.4807605492242
20
-17.0345501131078
30
0.0
41
1.0
10
16.5488222645164
20
-17.0082494012183
30
0.0
41
1.0
10
16.6172805041581
20
-16.9807401234831
30
0.0
41
1.0
10
16.6861045759712
20
-16.95200265584
30
0.0
41
1.0
10
16.7552621858382
20
-16.9220187599808
30
0.0
41
1.0
10
16.8247195549281
20
-16.8907716250028
30
0.0
41
1.0
10
16.894441533311
20
-16.8582459060882
30
0.0
41
1.0
10
16.9643917102889
20
-16.8244277601817
30
0.0
41
1.0
10
17.034532521728
20
-16.7893048786458
30
0.0
41
1.0
10
17.1048253546407
20
-16.7528665168833
30
0.0
41
1.0
10
17.1752306492313
20
-16.7151035209213
30
0.0
41
1.0
10
17.2457079985898
20
-16.676008350958
30
0.0
41
1.0
10
17.3162162461913
20
-16.6355751018766
30
0.0
41
1.0
10
17.3867135813331
20
-16.593799520738
30
0.0
41
1.0
10
17.4571576326229
20
-16.5506790212646
30
0.0
41
1.0
10
17.5275055596095
20
-16.5062126953328
30
0.0
41
1.0
10
17.5977141426304
20
-16.4604013214931
30
0.0
41
1.0
10
17.667739870939
20
-16.4132473705414
30
0.0
41
1.0
10
17.7375390291542
20
-16.3647550081668
30
0.0
41
1.0
10
17.8070677820683
20
-16.3149300947007
30
0.0
41
1.0
10
17.8762822578362
20
-16.2637801820008
30
0.0
41
1.0
10
17.9451386295574
20
-16.2113145074982
30
0.0
41
1.0
10
18.0135931952582
20
-16.1575439854424
30
0.0
41
1.0
10
18.0816024562672
20
-16.1024811953811
30
0.0
41
1.0
10
18.149123193978
20
-16.0461403679101
30
0.0
41
1.0
10
18.2161125449806
20
-15.9885373677339
30
0.0
41
1.0
10
18.2825280745407
20
-15.9296896740787
30
0.0
41
1.0
10
18.348327848402
20
-15.869616358499
30
0.0
41
1.0
10
18.4134705028801
20
-15.8083380601244
30
0.0
41
1.0
10
18.477915313216
20
-15.7458769583909
30
0.0
41
1.0
10
18.5416222601516
20
-15.6822567433069
30
0.0
41
1.0
10
18.6045520946885
20
-15.6175025833021
30
0.0
41
1.0
10
18.6666664009901
20
-15.5516410907101
30
0.0
41
1.0
10
18.7279276573812
20
-15.484700284939
30
0.0
41
1.0
10
18.7882992954044
20
-15.4167095533825
30
0.0
41
1.0
10
18.847745756885
20
-15.3476996101279
30
0.0
41
1.0
10
18.9062325489583
20
-15.2777024525179
30
0.0
41
1.0
10
18.9637262970144
20
-15.2067513156233
30
0.0
41
1.0
10
19.0201947955103
20
-15.1348806246866
30
0.0
41
1.0
10
19.0756070566039
20
-15.0621259455973
30
0.0
41
1.0
10
19.1299333565612
20
-14.9885239334581
30
0.0
41
1.0
10
19.1831452798903
20
-14.9141122793062
30
0.0
41
1.0
10
19.2352157611545
20
-14.8389296550517
30
0.0
41
1.0
10
19.2861191244184
20
-14.7630156566949
30
0.0
41
1.0
10
19.335831120281
20
-14.6864107458892
30
0.0
41
1.0
10
19.3843289604509
20
-14.6091561899112
30
0.0
41
1.0
10
19.4315913498194
20
-14.531294000103
30
0.0
41
1.0
10
19.4775985159865
20
-14.4528668688506
30
0.0
41
1.0
10
19.5223322361995
20
-14.373918105163
30
0.0
41
1.0
10
19.5657758616611
20
-14.2944915689139
30
0.0
41
1.0
10
19.6079143391658
20
-14.2146316038102
30
0.0
41
1.0
10
19.6487342300266
20
-14.1343829691472
30
0.0
41
1.0
10
19.6882237262522
20
-14.0537907704127
30
0.0
41
1.0
10
19.7263726639365
20
-13.9729003887984
30
0.0
41
1.0
10
19.7631725338248
20
-13.8917574096744
30
0.0
41
1.0
10
19.79861648902
20
-13.8104075500837
30
0.0
41
1.0
10
19.8326993497937
20
-13.7288965853089
30
0.0
41
1.0
10
19.8654176054682
20
-13.6472702745583
30
0.0
41
1.0
10
19.8967694133347
20
-13.5655742858206
30
0.0
41
1.0
10
19.9267545945763
20
-13.4838541199291
30
0.0
41
1.0
10
19.955374627161
20
-13.4021550338725
30
0.0
41
1.0
10
19.9826326356731
20
-13.3205219633865
30
0.0
41
1.0
10
20.0085333780507
20
-13.2389994448534
30
0.0
41
1.0
10
20.0330832291962
20
-13.1576315365298
30
0.0
41
1.0
10
20.0562901614269
20
-13.0764617391175
30
0.0
41
1.0
10
20.0781637217332
20
-12.9955329156835
30
0.0
41
1.0
10
20.0987150058085
20
-12.9148872109248
30
0.0
41
1.0
10
20.1179566288173
20
-12.8345659697681
30
0.0
41
1.0
10
20.1359026928642
20
-12.7546096552783
30
0.0
41
1.0
10
20.1525687511257
20
-12.6750577658405
30
0.0
41
1.0
10
20.1679717686047
20
-12.5959487515652
30
0.0
41
1.0
10
20.1821300794666
20
-12.5173199298524
30
0.0
41
1.0
10
20.1950633409112
20
-12.4392074000301
30
0.0
41
1.0
10
20.2067924835331
20
-12.3616459569667
30
0.0
41
1.0
10
20.2173396581208
20
-12.2846690035325
30
0.0
41
1.0
10
20.2267281788399
20
-12.2083084617636
30
0.0
41
1.0
10
20.2349824627429
20
-12.1325946825522
30
0.0
41
1.0
10
20.2421279655445
20
-12.0575563536587
30
0.0
41
1.0
10
20.248191113596
20
-11.9832204058059
30
0.0
41
1.0
10
20.2531992319903
20
-11.9096119165774
30
0.0
41
1.0
10
20.2571804687245
20
-11.8367540118005
30
0.0
41
1.0
10
20.2601637148406
20
-11.764667764043
30
0.0
41
1.0
10
20.2621785204677
20
-11.6933720878019
30
0.0
41
1.0
10
20.2632550066806
20
-11.6228836308982
30
0.0
41
1.0
10
20.2634237730921
20
-11.5532166615244
30
0.0
41
1.0
10
20.2627158010978
20
-11.484382950313
30
0.0
41
1.0
10
20.2611623526912
20
-11.4163916467047
30
0.0
41
1.0
10
20.258794864779
20
-11.3492491487996
30
0.0
41
1.0
10
20.2556448389331
20
-11.2829589657569
30
0.0
41
1.0
10
20.2517437265341
20
-11.2175215716871
30
0.0
41
1.0
10
20.2471228092857
20
-11.152934249835
30
0.0
41
1.0
10
20.2418130751131
20
-11.0891909256885
30
0.0
41
1.0
10
20.2358450895047
20
-11.0262819874708
30
0.0
41
1.0
10
20.2292488624199
20
-10.964194092262
30
0.0
41
1.0
10
20.2220537109693
20
-10.9029099557692
30
0.0
41
1.0
10
20.2142881181822
20
-10.8424081235019
30
0.0
41
1.0
10
20.205979588321
20
-10.7826627208196
30
0.0
41
1.0
10
20.1971544993864
20
-10.723643178992
30
0.0
41
1.0
10
20.1878379536962
20
-10.6653139340519
30
0.0
41
1.0
10
20.1780536277275
20
-10.6076340948238
30
0.0
41
1.0
10
20.167823622803
20
-10.5505570760716
30
0.0
41
1.0
10
20.1571683187001
20
-10.494030192239
30
0.0
41
1.0
10
20.1461062328952
20
-10.4379942067519
30
0.0
41
1.0
10
20.1346538889555
20
-10.3823828313233
30
0.0
41
1.0
10
20.1228256986022
20
-10.3271221691702
30
0.0
41
1.0
10
20.1106338632434
20
-10.2721300955337
30
0.0
41
1.0
10
20.0980883023722
20
-10.2173155684322
30
0.0
41
1.0
10
20.0851966182287
20
-10.1625778622269
30
0.0
41
1.0
10
20.0719641086229
20
-10.1078057164222
30
0.0
41
1.0
10
20.0583938429172
20
-10.0528763922722
30
0.0
41
1.0
10
20.0444868200048
20
-9.99765463039553
30
0.0
41
1.0
10
20.030242231839
20
-9.94199150393019
30
0.0
41
1.0
10
20.0156578618166
20
-9.8857231641238
30
0.0
41
1.0
10
20.000730654276
20
-9.82866947907867
30
0.0
41
1.0
10
19.9854574996572
20
-9.77063257225352
30
0.0
41
1.0
10
19.9698362896114
20
-9.71139527605416
30
0.0
41
1.0
10
19.9538673075078
20
-9.65071952846027
30
0.0
41
1.0
10
19.937555032194
20
-9.58834475847755
30
0.0
41
1.0
10
19.920910445981
20
-9.52398633095407
30
0.0
41
1.0
10
19.9039539506223
20
-9.4573341550076
30
0.0
41
1.0
10
19.8867190056842
20
-9.38805160533965
30
0.0
41
1.0
10
19.8692566091251
20
-9.31577496459133
30
0.0
41
1.0
10
19.8516407354021
20
-9.24011366993439
30
0.0
41
1.0
10
19.8339748249985
20
-9.16065173968269
30
0.0
41
1.0
10
19.8163993710645
20
-9.07695086508057
30
0.0
41
1.0
10
19.7991005608018
20
-8.98855577366707
30
0.0
41
1.0
10
19.7823197852047
20
-8.89500259177439
30
0.0
41
1.0
10
19.7663636133021
20
-8.79583103190337
30
0.0
41
1.0
10
19.7516135210471
20
-8.69060126765746
30
0.0
41
1.0
10
19.7385342654778
20
-8.57891627714357
30
0.0
41
1.0
10
19.7276793190029
20
-8.46045015818517
30
0.0
41
1.0
10
19.7196912832339
20
-8.33498235609619
30
0.0
41
1.0
10
19.7152948009674
20
-8.2024368172945
30
0.0
41
1.0
10
19.715279361906
20
-8.06292376051647
30
0.0
41
1.0
10
19.7204697931157
20
-7.91678012422646
30
0.0
41
1.0
10
19.7316833830036
20
-7.76460306435519
30
0.0
41
1.0
10
19.7496746451806
20
-7.60726961497884
30
0.0
41
1.0
10
19.7750715652958
20
-7.44593542436201
30
0.0
41
1.0
10
19.8083102796564
20
-7.28200695801061
30
0.0
41
1.0
10
19.8495776062787
20
-7.11708500569686
30
0.0
41
1.0
10
19.8987716166409
20
-6.95288237343634
30
0.0
41
1.0
10
19.9554887118668
20
-6.79112413962434
30
0.0
41
1.0
10
20.0190414346663
20
-6.63344315146691
30
0.0
41
1.0
10
20.0885054848296
20
-6.48128501022046
30
0.0
41
1.0
10
20.1627888027868
20
-6.33583497314039
30
0.0
41
1.0
10
20.240711847171
20
-6.19797454023352
30
0.0
41
1.0
10
20.3210872939133
20
-6.06826952988228
30
0.0
41
1.0
10
20.4027892209842
20
-5.9469859855858
30
0.0
41
1.0
10
20.4848054287236
20
-5.83412662656781
30
0.0
41
1.0
10
20.5662705705574
20
-5.72947922058689
30
0.0
41
1.0
10
20.6464811509518
20
-5.63266888606982
30
0.0
41
1.0
10
20.7248956247431
20
-5.54320816002722
30
0.0
41
1.0
10
20.8011237550988
20
-5.46054089821943
30
0.0
41
1.0
10
20.8749093339277
20
-5.38407811732789
30
0.0
41
1.0
10
20.9461097285011
20
-5.31322544256098
30
0.0
41
1.0
10
21.0146748417595
20
-5.2474028209499
30
0.0
41
1.0
10
21.0806272043524
20
-5.18605767533173
30
0.0
41
1.0
10
21.1440441849639
20
-5.12867283795925
30
0.0
41
1.0
10
21.2050427574222
20
-5.07477054758343
30
0.0
41
1.0
10
21.2637668918036
20
-5.02391362517014
30
0.0
41
1.0
10
21.3203774108995
20
-4.97570473367553
30
0.0
41
1.0
10
21.3750440351876
20
-4.9297844200392
30
0.0
41
1.0
10
21.4279392941523
20
-4.88582845488883
30
0.0
41
1.0
10
21.4792339818221
20
-4.84354483559767
30
0.0
41
1.0
10
21.5290938596788
20
-4.80267070152215
30
0.0
41
1.0
10
21.577677347191
20
-4.7629693227469
30
0.0
41
1.0
10
21.6251339806825
20
-4.72422726030872
30
0.0
41
1.0
10
21.6716034602472
20
-4.68625175142713
30
0.0
41
1.0
10
21.7172151394847
20
-4.64886834308418
30
0.0
41
1.0
10
21.7620878429942
20
-4.61191877754867
30
0.0
41
1.0
10
21.806329921731
20
-4.57525912112703
30
0.0
41
1.0
10
21.850039476845
20
-4.53875812028067
30
0.0
41
1.0
10
21.8933046990729
20
-4.50229576560534
30
0.0
41
1.0
10
21.9362042837626
20
-4.46576204282799
30
0.0
41
1.0
10
21.9788078917726
20
-4.42905585009161
30
0.0
41
1.0
10
22.021176634363
20
-4.39208406178969
30
0.0
41
1.0
10
22.0633635662374
20
-4.35476072068412
30
0.0
41
1.0
10
22.1054141754914
20
-4.3170063417328
30
0.0
41
1.0
10
22.1473668627008
20
-4.27874731280243
30
0.0
41
1.0
10
22.1892534039772
20
-4.23991537914251
30
0.0
41
1.0
10
22.2310993947515
20
-4.20044720009329
30
0.0
41
1.0
10
22.2729246724553
20
-4.16028396795998
30
0.0
41
1.0
10
22.3147437172953
20
-4.11937108029967
30
0.0
41
1.0
10
22.3565660310407
20
-4.07765785803313
30
0.0
41
1.0
10
22.3983964942491
20
-4.03509730282027
30
0.0
41
1.0
10
22.4402357026939
20
-3.99164588803518
30
0.0
41
1.0
10
22.4820802839735
20
-3.94726337845565
30
0.0
41
1.0
10
22.5239231954041
20
-3.90191267445801
30
0.0
41
1.0
10
22.565754004364
20
-3.85555967709032
30
0.0
41
1.0
10
22.6075591522651
20
-3.8081731709007
30
0.0
41
1.0
10
22.6493222033118
20
-3.75972472182852
30
0.0
41
1.0
10
22.6910240791651
20
-3.71018858783962
30
0.0
41
1.0
10
22.7326432805756
20
-3.65954164030526
30
0.0
41
1.0
10
22.7741560969819
20
-3.60776329439999
30
0.0
41
1.0
10
22.8155368050075
20
-3.55483544702972
30
0.0
41
1.0
10
22.8567578567134
20
-3.50074242100457
30
0.0
41
1.0
10
22.897790058399
20
-3.44547091434592
30
0.0
41
1.0
10
22.9386027406738
20
-3.38900995376814
30
0.0
41
1.0
10
22.9791639204582
20
-3.33135085150555
30
0.0
41
1.0
10
23.0194404555123
20
-3.27248716476716
30
0.0
41
1.0
10
23.0593981920309
20
-3.21241465719962
30
0.0
41
1.0
10
23.0990021057951
20
-3.15113126182236
30
0.0
41
1.0
10
23.1382164373162
20
-3.08863704497232
30
0.0
41
1.0
10
23.1770048213663
20
-3.02493417085929
30
0.0
41
1.0
10
23.2153304112468
20
-2.96002686638795
30
0.0
41
1.0
10
23.2531559981086
20
-2.89392138595113
30
0.0
41
1.0
10
23.2904441256036
20
-2.82662597594089
30
0.0
41
1.0
10
23.3271572001145
20
-2.75815083876144
30
0.0
41
1.0
10
23.3632575967832
20
-2.68850809615972
30
0.0
41
1.0
10
23.3987077615306
20
-2.61771175171871
30
0.0
41
1.0
10
23.4334703092396
20
-2.54577765238335
30
0.0
41
1.0
10
23.4675081182488
20
-2.47272344891144
30
0.0
41
1.0
10
23.5007844212897
20
-2.39856855516165
30
0.0
41
1.0
10
23.5332628929783
20
-2.32333410614837
30
0.0
41
1.0
10
23.5649077339625
20
-2.24704291480855
30
0.0
41
1.0
10
23.5956837518073
20
-2.16971942744028
30
0.0
41
1.0
10
23.6255564386919
20
-2.09138967778419
30
0.0
41
1.0
10
23.6544920459804
20
-2.01208123973156
30
0.0
41
1.0
10
23.6824576557169
20
-1.93182317865173
30
0.0
41
1.0
10
23.70942124909
20
-1.85064600134121
30
0.0
41
1.0
10
23.7353517719019
20
-1.76858160460477
30
0.0
41
1.0
10
23.7602191970712
20
-1.68566322248663
30
0.0
41
1.0
10
23.7839945841932
20
-1.60192537217614
30
0.0
41
1.0
10
23.8066501361762
20
-1.51740379861845
30
0.0
41
1.0
10
23.8281592529676
20
-1.43213541786688
30
0.0
41
1.0
10
23.8484965823795
20
-1.34615825921739
30
0.0
41
1.0
10
23.8676380680221
20
-1.25951140617192
30
0.0
41
1.0
10
23.8855609943479
20
-1.1722349362797
30
0.0
41
1.0
10
23.9022440288092
20
-1.08436985991079
30
0.0
41
1.0
10
23.9176672611293
20
-0.99595805801877
30
0.0
41
1.0
10
23.9318122396859
20
-0.90704221895279
30
0.0
41
1.0
10
23.9446620050041
20
-0.817665774382411
30
0.0
41
1.0
10
23.9562011203563
20
-0.727872834400156
30
0.0
41
1.0
10
23.9664156994646
20
-0.637708121870578
30
0.0
41
1.0
10
23.9752934313022
20
-0.547216906094529
30
0.0
41
1.0
10
23.9828236019888
20
-0.456444935861508
30
0.0
41
1.0
10
23.9889971137771
20
-0.365438371962479
30
0.0
41
1.0
10
23.9938065011247
20
-0.274243719238085
30
0.0
41
1.0
10
23.9972459438501
20
-0.182907758237893
30
0.0
41
1.0
10
23.9993112773675
20
-0.0914774765673472
30
0.0
41
1.0
10
24.0
20
-0.00000000000001791
30
0.0
0
CIRCLE
5
22
330
17
100
AcDbEntity
67
0
8
cam
62
256
6
ByLayer
370
-1
48
1.0
60
0
100
AcDbCircle
10
-1.5
20
0.0
30
0.0
40
8.5
39
0.0
210
0.0
220
0.0
230
1.0
0
CIRCLE
5
24
330
17
100
AcDbEntity
67
0
8
roller
62
256
6
ByLayer
370
-1
48
1.0
60
0
100
AcDbCircle
10
27.0
20
0.0
30
0.0
40
3.0
39
0.0
210
0.0
220
0.0
230
1.0
0
CIRCLE
5
25
330
17
100
AcDbEntity
67
0
8
roller
62
256
6
ByLayer
370
-1
48
1.0
60
0
100
AcDbCircle
10
22.7138453864419
20
14.5973020713011
30
0.0
40
3.0
39
0.0
210
0.0
220
0.0
230
1.0
0
CIRCLE
5
26
330
17
100
AcDbEntity
67
0
8
roller
62
256
6
ByLayer
370
-1
48
1.0
60
0
100
AcDbCircle
10
11.2162053510509
20
24.560063874572
30
0.0
40
3.0
39
0.0
210
0.0
220
0.0
230
1.0
0
CIRCLE
5
27
330
17
100
AcDbEntity
67
0
8
roller
62
256
6
ByLayer
370
-1
48
1.0
60
0
100
AcDbCircle
10
-3.8425006333787
20
26.7251789307852
30
0.0
40
3.0
39
0.0
210
0.0
220
0.0
230
1.0
0
CIRCLE
5
28
330
17
100
AcDbEntity
67
0
8
roller
62
256
6
ByLayer
370
-1
48
1.0
60
0
100
AcDbCircle
10
-17.6812398165227
20
20.405238507565
30
0.0
40
3.0
39
0.0
210
0.0
220
0.0
230
1.0
0
CIRCLE
5
29
330
17
100
AcDbEntity
67
0
8
roller
62
256
6
ByLayer
370
-1
48
1.0
60
0
100
AcDbCircle
10
-25.9063102875914
20
7.6067790347186
30
0.0
40
3.0
39
0.0
210
0.0
220
0.0
230
1.0
0
CIRCLE
5
2A
330
17
100
AcDbEntity
67
0
8
roller
62
256
6
ByLayer
370
-1
48
1.0
60
0
100
AcDbCircle
10
-25.9063102875914
20
-7.60677903471859
30
0.0
40
3.0
39
0.0
210
0.0
220
0.0
230
1.0
0
CIRCLE
5
2B
330
17
100
AcDbEntity
67
0
8
roller
62
256
6
ByLayer
370
-1
48
1.0
60
0
100
AcDbCircle
10
-17.6812398165227
20
-20.405238507565
30
0.0
40
3.0
39
0.0
210
0.0
220
0.0
230
1.0
0
CIRCLE
5
2C
330
17
100
AcDbEntity
67
0
8
roller
62
256
6
ByLayer
370
-1
48
1.0
60
0
100
AcDbCircle
10
-3.8425006333787
20
-26.7251789307852
30
0.0
40
3.0
39
0.0
210
0.0
220
0.0
230
1.0
0
CIRCLE
5
2D
330
17
100
AcDbEntity
67
0
8
roller
62
256
6
ByLayer
370
-1
48
1.0
60
0
100
AcDbCircle
10
11.2162053510509
20
-24.560063874572
30
0.0
40
3.0
39
0.0
210
0.0
220
0.0
230
1.0
0
CIRCLE
5
2E
330
17
100
AcDbEntity
67
0
8
roller
62
256
6
ByLayer
370
-1
48
1.0
60
0
100
AcDbCircle
10
22.7138453864419
20
-14.5973020713011
30
0.0
40
3.0
39
0.0
210
0.0
220
0.0
230
1.0
0
CIRCLE
5
2F
330
17
100
AcDbEntity
67
0
8
roller
62
256
6
ByLayer
370
-1
48
1.0
60
0
100
AcDbCircle
10
0.0
20
0.0
30
0.0
40
4.0
39
0.0
210
0.0
220
0.0
230
1.0
0
VIEWPORT
5
34
330
30
100
AcDbEntity
67
1
8
0
62
256
6
ByLayer
370
-1
48
1.0
60
0
100
AcDbViewport
10
0.0
20
0.0
30
0.0
40
297.0
41
210.0
68
1
69
1
12
50.0
22
100.0
13
0.0
23
0.0
14
10.0
24
10.0
15
10.0
25
10.0
16
0.0
26
0.0
36
1.0
17
0.0
27
0.0
37
0.0
42
50.0
43
0.0
44
0.0
45
250.0
50
0.0
51
0.0
72
1000
90
819232
110
0.0
120
0.0
130
0.0
111
1.0
121
0.0
131
0.0
112
0.0
122
1.0
132
0.0
0
ENDSEC
0
SECTION
2
OBJECTS
0
DICTIONARY
5
37
330
0
100
AcDbDictionary
280
0
281
1
3
ACAD_GROUP
350
38
3
ACAD_LAYOUT
350
39
3
ACAD_MLINESTYLE
350
3A
0
DICTIONARY
5
38
330
37
100
AcDbDictionary
280
0
281
1
0
DICTIONARY
5
39
330
37
100
AcDbDictionary
280
0
281
1
3
Model
350
1B
3
Layout1
350
35
0
DICTIONARY
5
3A
330
37
100
AcDbDictionary
280
0
281
1
3
Standard
350
16
0
LAYOUT
5
1B
330
39
100
AcDbPlotSettings
1

2
none_device
4
ISO_A4_(210.00_x_297.00_MM)
6

40
7.5
41
20.0
42
7.5
43
20.0
44
210.0
45
297.0
46
0.0
47
0.0
48
0.0
49
0.0
140
0.0
141
0.0
142
1.0
143
1.0
70
11952
72
1
73
1
74
5
7

75
16
147
1.0
148
0.0
149
0.0
100
AcDbLayout
1
Model
70
1
71
0
10
-20.0
20
-7.5
11
277.0
21
202.5
12
0.0
22
0.0
32
0.0
14
25.7
24
19.5
34
0.0
15
231.3
25
175.5
35
0.0
146
0.0
13
0.0
23
0.0
33
0.0
16
1.0
26
0.0
36
0.0
17
0.0
27
1.0
37
0.0
76
0
330
17
0
LAYOUT
5
35
330
39
100
AcDbPlotSettings
1

2
none_device
4
ISO_A4_(210.00_x_297.00_MM)
6

40
7.5
41
20.0
42
7.5
43
20.0
44
210.0
45
297.0
46
0.0
47
0.0
48
0.0
49
0.0
140
0.0
141
0.0
142
1.0
143
1.0
70
688
72
1
73
1
74
5
7

75
16
147
1.0
148
0.0
149
0.0
100
AcDbLayout
1
Layout1
70
1
71
1
10
-20.0
20
-7.5
11
277.0
21
202.5
12
0.0
22
0.0
32
0.0
14
25.7
24
19.5
34
0.0
15
231.3
25
175.5
35
0.0
146
0.0
13
0.0
23
0.0
33
0.0
16
1.0
26
0.0
36
0.0
17
0.0
27
1.0
37
0.0
76
0
330
30
0
MLINESTYLE
5
16
330
3A
100
AcDbMlineStyle
2
Standard
70
0
3

62
256
51
90.0
52
90.0
71
2
49
0.5
62
256
6
ByLayer
49
-0.5
62
256
6
ByLayer
0
ENDSEC
0
EOF
