999
Dxf file generated by netDxf http://netdxf.codeplex.com, Copyright(C) 2014 Daniel Carvajal, Licensed under LGPL
0
SECTION
2
HEADER
9
$ACADVER
1
AC1015
9
$DWGCODEPAGE
3
ANSI_1200
9
$HANDSEED
5
42
9
$ANGBASE
50
0.0
9
$ANGDIR
70
0
9
$ATTMODE
70
1
9
$AUNITS
70
0
9
$AUPREC
70
0
9
$CECOLOR
62
256
9
$CELTSCALE
40
1.0
9
$CELTYPE
6
ByLayer
9
$CELWEIGHT
370
-1
9
$CLAYER
8
0
9
$CMLJUST
70
0
9
$CMLSCALE
40
20.0
9
$CMLSTYLE
2
Standard
9
$DIMSTYLE
2
Standard
9
$TEXTSIZE
40
2.5
9
$TEXTSTYLE
7
Standard
9
$LUNITS
70
2
9
$LUPREC
70
4
9
$EXTNAMES
290
1
9
$INSBASE
10
0.0
20
0.0
30
0.0
9
$INSUNITS
70
0
9
$LTSCALE
40
1.0
9
$LWDISPLAY
290
0
9
$PDMODE
70
0
9
$PDSIZE
40
0.0
9
$PLINEGEN
70
0
9
$TDCREATE
40
2460861.11522606
9
$TDUCREATE
40
2460860.9485594
9
$TDUPDATE
40
2460861.11522606
9
$TDUUPDATE
40
2460860.9485594
9
$TDINDWG
40
0.0
0
ENDSEC
0
SECTION
2
CLASSES
0
CLASS
1
RASTERVARIABLES
2
AcDbRasterVariables
3
ISM
90
0
280
0
281
0
0
ENDSEC
0
SECTION
2
TABLES
0
TABLE
2
APPID
5
3
330
0
100
AcDbSymbolTable
70
2
0
APPID
5
14
330
3
100
AcDbSymbolTableRecord
100
AcDbRegAppTableRecord
2
ACAD
70
0
0
APPID
5
3C
330
3
100
AcDbSymbolTableRecord
100
AcDbRegAppTableRecord
2
AcCmTransparency
70
0
0
ENDTAB
0
TABLE
2
VPORT
5
1
330
0
100
AcDbSymbolTable
70
1
0
VPORT
5
E
330
1
100
AcDbSymbolTableRecord
100
AcDbViewportTableRecord
2
*Active
70
0
10
0.0
20
0.0
11
1.0
21
1.0
12
-1.0
22
1.0
13
0.0
23
0.0
14
0.5
24
0.5
15
10.0
25
10.0
16
0.0
26
0.0
36
1.0
17
0.0
27
0.0
37
0.0
0
ENDTAB
0
TABLE
2
LTYPE
5
5
330
0
100
AcDbSymbolTable
70
3
0
LTYPE
5
10
330
5
100
AcDbSymbolTableRecord
100
AcDbLinetypeTableRecord
70
0
2
Continuous
3
Solid line
72
65
73
0
40
0.0
0
LTYPE
5
11
330
5
100
AcDbSymbolTableRecord
100
AcDbLinetypeTableRecord
70
0
2
ByLayer
3

72
65
73
0
40
0.0
0
LTYPE
5
12
330
5
100
AcDbSymbolTableRecord
100
AcDbLinetypeTableRecord
70
0
2
ByBlock
3

72
65
73
0
40
0.0
0
ENDTAB
0
TABLE
2
LAYER
5
4
330
0
100
AcDbSymbolTable
70
4
0
LAYER
5
F
330
4
100
AcDbSymbolTableRecord
100
AcDbLayerTableRecord
2
0
70
0
62
7
6
Continuous
290
1
370
-3
390
0
0
LAYER
5
1D
330
4
100
AcDbSymbolTableRecord
100
AcDbLayerTableRecord
2
pressure
70
0
62
7
6
Continuous
290
1
370
-3
390
0
0
LAYER
5
20
330
4
100
AcDbSymbolTableRecord
100
AcDbLayerTableRecord
2
cam
70
0
62
7
6
Continuous
290
1
370
-3
390
0
0
LAYER
5
23
330
4
100
AcDbSymbolTableRecord
100
AcDbLayerTableRecord
2
roller
70
0
62
7
6
Continuous
290
1
370
-3
390
0
0
ENDTAB
0
TABLE
2
STYLE
5
6
330
0
100
AcDbSymbolTable
70
1
0
STYLE
5
13
330
6
100
AcDbSymbolTableRecord
100
AcDbTextStyleTableRecord
2
Standard
3
simplex.shx
70
0
71
0
40
0.0
41
1.0
42
0.0
50
0.0
0
ENDTAB
0
TABLE
2
DIMSTYLE
5
7
330
0
100
AcDbSymbolTable
70
1
100
AcDbDimStyleTable
0
DIMSTYLE
105
15
330
7
100
AcDbSymbolTableRecord
100
AcDbDimStyleTableRecord
2
Standard
70
0
3
<>
40
1.0
41
0.18
42
0.0625
43
0.38
44
0.18
46
0.0
73
0
74
0
75
0
76
0
77
1
140
0.18
141
0.09
147
0.09
173
0
176
0
177
0
178
0
179
0
271
2
275
0
278
46
280
0
340
13
345
12
346
12
347
12
371
-2
372
-2
0
ENDTAB
0
TABLE
2
VIEW
5
2
330
0
100
AcDbSymbolTable
70
0
0
ENDTAB
0
TABLE
2
UCS
5
9
330
0
100
AcDbSymbolTable
70
0
0
ENDTAB
0
TABLE
2
BLOCK_RECORD
5
A
330
0
100
AcDbSymbolTable
70
2
0
BLOCK_RECORD
5
17
330
A
100
AcDbSymbolTableRecord
100
AcDbBlockTableRecord
2
*Model_Space
340
1B
0
BLOCK_RECORD
5
36
330
A
100
AcDbSymbolTableRecord
100
AcDbBlockTableRecord
2
*Paper_Space
340
3B
0
ENDTAB
0
ENDSEC
0
SECTION
2
BLOCKS
0
BLOCK
5
19
330
17
100
AcDbEntity
8
0
100
AcDbBlockBegin
2
*Model_Space
70
0
10
0.0
20
0.0
30
0.0
3
*Model_Space
0
ENDBLK
5
18
330
17
100
AcDbEntity
8
0
100
AcDbBlockEnd
0
BLOCK
5
38
330
36
100
AcDbEntity
8
0
100
AcDbBlockBegin
2
*Paper_Space
70
0
10
0.0
20
0.0
30
0.0
3
*Paper_Space
0
ENDBLK
5
37
330
36
100
AcDbEntity
8
0
100
AcDbBlockEnd
0
ENDSEC
0
SECTION
2
ENTITIES
0
CIRCLE
5
1E
330
17
100
AcDbEntity
67
0
8
pressure
62
256
6
ByLayer
370
-1
48
1.0
60
0
100
AcDbCircle
10
-1.5
20
0.0
30
0.0
40
44.5039986612779
39
0.0
210
0.0
220
0.0
230
1.0
0
CIRCLE
5
1F
330
17
100
AcDbEntity
67
0
8
pressure
62
256
6
ByLayer
370
-1
48
1.0
60
0
100
AcDbCircle
10
-1.5
20
0.0
30
0.0
40
47.4995046452906
39
0.0
210
0.0
220
0.0
230
1.0
0
SPLINE
5
21
330
17
100
AcDbEntity
67
0
8
cam
62
256
6
ByLayer
370
-1
48
1.0
60
0
100
AcDbSpline
70
2053
71
3
40
0.0
40
0.0
40
0.0
40
0.0
40
1.0
40
2.0
40
3.0
40
4.0
40
5.0
40
6.0
40
7.0
40
8.0
40
9.0
40
10.0
40
11.0
40
12.0
40
13.0
40
14.0
40
15.0
40
16.0
40
17.0
40
18.0
40
19.0
40
20.0
40
21.0
40
22.0
40
23.0
40
24.0
40
25.0
40
26.0
40
27.0
40
28.0
40
29.0
40
30.0
40
31.0
40
32.0
40
33.0
40
34.0
40
35.0
40
36.0
40
37.0
40
38.0
40
39.0
40
40.0
40
41.0
40
42.0
40
43.0
40
44.0
40
45.0
40
46.0
40
47.0
40
48.0
40
49.0
40
50.0
40
51.0
40
52.0
40
53.0
40
54.0
40
55.0
40
56.0
40
57.0
40
58.0
40
59.0
40
60.0
40
61.0
40
62.0
40
63.0
40
64.0
40
65.0
40
66.0
40
67.0
40
68.0
40
69.0
40
70.0
40
71.0
40
72.0
40
73.0
40
74.0
40
75.0
40
76.0
40
77.0
40
78.0
40
79.0
40
80.0
40
81.0
40
82.0
40
83.0
40
84.0
40
85.0
40
86.0
40
87.0
40
88.0
40
89.0
40
90.0
40
91.0
40
92.0
40
93.0
40
94.0
40
95.0
40
96.0
40
97.0
40
98.0
40
99.0
40
100.0
40
101.0
40
102.0
40
103.0
40
104.0
40
105.0
40
106.0
40
107.0
40
108.0
40
109.0
40
110.0
40
111.0
40
112.0
40
113.0
40
114.0
40
115.0
40
116.0
40
117.0
40
118.0
40
119.0
40
120.0
40
121.0
40
122.0
40
123.0
40
124.0
40
125.0
40
126.0
40
127.0
40
128.0
40
129.0
40
130.0
40
131.0
40
132.0
40
133.0
40
134.0
40
135.0
40
136.0
40
137.0
40
138.0
40
139.0
40
140.0
40
141.0
40
142.0
40
143.0
40
144.0
40
145.0
40
146.0
40
147.0
40
148.0
40
149.0
40
150.0
40
151.0
40
152.0
40
153.0
40
154.0
40
155.0
40
156.0
40
157.0
40
158.0
40
159.0
40
160.0
40
161.0
40
162.0
40
163.0
40
164.0
40
165.0
40
166.0
40
167.0
40
168.0
40
169.0
40
170.0
40
171.0
40
172.0
40
173.0
40
174.0
40
175.0
40
176.0
40
177.0
40
178.0
40
179.0
40
180.0
40
181.0
40
182.0
40
183.0
40
184.0
40
185.0
40
186.0
40
187.0
40
188.0
40
189.0
40
190.0
40
191.0
40
192.0
40
193.0
40
194.0
40
195.0
40
196.0
40
197.0
40
198.0
40
199.0
40
200.0
40
201.0
40
202.0
40
203.0
40
204.0
40
205.0
40
206.0
40
207.0
40
208.0
40
209.0
40
210.0
40
211.0
40
212.0
40
213.0
40
214.0
40
215.0
40
216.0
40
217.0
40
218.0
40
219.0
40
220.0
40
221.0
40
222.0
40
223.0
40
224.0
40
225.0
40
226.0
40
227.0
40
228.0
40
229.0
40
230.0
40
231.0
40
232.0
40
233.0
40
234.0
40
235.0
40
236.0
40
237.0
40
238.0
40
239.0
40
240.0
40
241.0
40
242.0
40
243.0
40
244.0
40
245.0
40
246.0
40
247.0
40
248.0
40
249.0
40
250.0
40
251.0
40
252.0
40
253.0
40
254.0
40
255.0
40
256.0
40
257.0
40
258.0
40
259.0
40
260.0
40
261.0
40
262.0
40
263.0
40
264.0
40
265.0
40
266.0
40
267.0
40
268.0
40
269.0
40
270.0
40
271.0
40
272.0
40
273.0
40
274.0
40
275.0
40
276.0
40
277.0
40
278.0
40
279.0
40
280.0
40
281.0
40
282.0
40
283.0
40
284.0
40
285.0
40
286.0
40
287.0
40
288.0
40
289.0
40
290.0
40
291.0
40
292.0
40
293.0
40
294.0
40
295.0
40
296.0
40
297.0
40
298.0
40
299.0
40
300.0
40
301.0
40
302.0
40
303.0
40
304.0
40
305.0
40
306.0
40
307.0
40
308.0
40
309.0
40
310.0
40
311.0
40
312.0
40
313.0
40
314.0
40
315.0
40
316.0
40
317.0
40
318.0
40
319.0
40
320.0
40
321.0
40
322.0
40
323.0
40
324.0
40
325.0
40
326.0
40
327.0
40
328.0
40
329.0
40
330.0
40
331.0
40
332.0
40
333.0
40
334.0
40
335.0
40
336.0
40
337.0
40
338.0
40
339.0
40
340.0
40
341.0
40
342.0
40
343.0
40
344.0
40
345.0
40
346.0
40
347.0
40
348.0
40
349.0
40
350.0
40
351.0
40
352.0
40
353.0
40
354.0
40
355.0
40
356.0
40
357.0
40
358.0
40
359.0
40
360.0
40
361.0
40
362.0
40
363.0
40
364.0
40
365.0
40
366.0
40
367.0
40
368.0
40
369.0
40
370.0
40
371.0
40
372.0
40
373.0
40
374.0
40
375.0
40
376.0
40
377.0
40
378.0
40
379.0
40
380.0
40
381.0
40
382.0
40
383.0
40
384.0
40
385.0
40
386.0
40
387.0
40
388.0
40
389.0
40
390.0
40
391.0
40
392.0
40
393.0
40
394.0
40
395.0
40
396.0
40
397.0
40
398.0
40
399.0
40
400.0
40
401.0
40
402.0
40
403.0
40
404.0
40
405.0
40
406.0
40
407.0
40
408.0
40
409.0
40
410.0
40
411.0
40
412.0
40
413.0
40
414.0
40
415.0
40
416.0
40
417.0
40
418.0
40
419.0
40
420.0
40
421.0
40
422.0
40
423.0
40
424.0
40
425.0
40
426.0
40
427.0
40
428.0
40
429.0
40
430.0
40
431.0
40
432.0
40
433.0
40
434.0
40
435.0
40
436.0
40
437.0
40
438.0
40
439.0
40
440.0
40
441.0
40
442.0
40
443.0
40
444.0
40
445.0
40
446.0
40
447.0
40
448.0
40
449.0
40
450.0
40
451.0
40
452.0
40
453.0
40
454.0
40
455.0
40
456.0
40
457.0
40
458.0
40
459.0
40
460.0
40
461.0
40
462.0
40
463.0
40
464.0
40
465.0
40
466.0
40
467.0
40
468.0
40
469.0
40
470.0
40
471.0
40
472.0
40
473.0
40
474.0
40
475.0
40
476.0
40
477.0
40
478.0
40
479.0
40
480.0
40
481.0
40
482.0
40
483.0
40
484.0
40
485.0
40
486.0
40
487.0
40
488.0
40
489.0
40
490.0
40
491.0
40
492.0
40
493.0
40
494.0
40
495.0
40
496.0
40
497.0
40
498.0
40
499.0
40
500.0
40
501.0
40
502.0
40
503.0
40
504.0
40
505.0
40
506.0
40
507.0
40
508.0
40
509.0
40
510.0
40
511.0
40
512.0
40
513.0
40
514.0
40
515.0
40
516.0
40
517.0
40
518.0
40
519.0
40
520.0
40
521.0
40
522.0
40
523.0
40
524.0
40
525.0
40
526.0
40
527.0
40
528.0
40
529.0
40
530.0
40
531.0
40
532.0
40
533.0
40
534.0
40
535.0
40
536.0
40
537.0
40
538.0
40
539.0
40
540.0
40
541.0
40
542.0
40
543.0
40
544.0
40
545.0
40
546.0
40
547.0
40
548.0
40
549.0
40
550.0
40
551.0
40
552.0
40
553.0
40
554.0
40
555.0
40
556.0
40
557.0
40
558.0
40
559.0
40
560.0
40
561.0
40
562.0
40
563.0
40
564.0
40
565.0
40
566.0
40
567.0
40
568.0
40
569.0
40
570.0
40
571.0
40
572.0
40
573.0
40
574.0
40
575.0
40
576.0
40
577.0
40
578.0
40
579.0
40
580.0
40
581.0
40
582.0
40
583.0
40
584.0
40
585.0
40
586.0
40
587.0
40
588.0
40
589.0
40
590.0
40
591.0
40
592.0
40
593.0
40
594.0
40
595.0
40
596.0
40
597.0
40
598.0
40
599.0
40
600.0
40
601.0
40
602.0
40
603.0
40
604.0
40
605.0
40
606.0
40
607.0
40
608.0
40
609.0
40
610.0
40
611.0
40
612.0
40
613.0
40
614.0
40
615.0
40
616.0
40
617.0
40
618.0
40
619.0
40
620.0
40
621.0
40
622.0
40
623.0
40
624.0
40
625.0
40
626.0
40
627.0
40
628.0
40
629.0
40
630.0
40
631.0
40
632.0
40
633.0
40
634.0
40
635.0
40
636.0
40
637.0
40
638.0
40
639.0
40
640.0
40
641.0
40
642.0
40
643.0
40
644.0
40
645.0
40
646.0
40
647.0
40
648.0
40
649.0
40
650.0
40
651.0
40
652.0
40
653.0
40
654.0
40
655.0
40
656.0
40
657.0
40
658.0
40
659.0
40
660.0
40
661.0
40
662.0
40
663.0
40
664.0
40
665.0
40
666.0
40
667.0
40
668.0
40
669.0
40
670.0
40
671.0
40
672.0
40
673.0
40
674.0
40
675.0
40
676.0
40
677.0
40
678.0
40
679.0
40
680.0
40
681.0
40
682.0
40
683.0
40
684.0
40
685.0
40
686.0
40
687.0
40
688.0
40
689.0
40
690.0
40
691.0
40
692.0
40
693.0
40
694.0
40
695.0
40
696.0
40
697.0
40
698.0
40
699.0
40
700.0
40
701.0
40
702.0
40
703.0
40
704.0
40
705.0
40
706.0
40
707.0
40
708.0
40
709.0
40
710.0
40
711.0
40
712.0
40
713.0
40
714.0
40
715.0
40
716.0
40
717.0
40
718.0
40
719.0
40
720.0
40
721.0
40
722.0
40
723.0
40
724.0
40
725.0
40
726.0
40
727.0
40
728.0
40
729.0
40
730.0
40
731.0
40
732.0
40
733.0
40
734.0
40
735.0
40
736.0
40
737.0
40
738.0
40
739.0
40
740.0
40
741.0
40
742.0
40
743.0
40
744.0
40
745.0
40
746.0
40
747.0
40
748.0
40
749.0
40
750.0
40
751.0
40
752.0
40
753.0
40
754.0
40
755.0
40
756.0
40
757.0
40
758.0
40
759.0
40
760.0
40
761.0
40
762.0
40
763.0
40
764.0
40
765.0
40
766.0
40
767.0
40
768.0
40
769.0
40
770.0
40
771.0
40
772.0
40
773.0
40
774.0
40
775.0
40
776.0
40
777.0
40
778.0
40
779.0
40
780.0
40
781.0
40
782.0
40
783.0
40
784.0
40
785.0
40
786.0
40
787.0
40
788.0
40
789.0
40
790.0
40
791.0
40
792.0
40
793.0
40
794.0
40
795.0
40
796.0
40
797.0
40
798.0
40
799.0
40
800.0
40
801.0
40
802.0
40
803.0
40
804.0
40
805.0
40
806.0
40
807.0
40
808.0
40
809.0
40
810.0
40
811.0
40
812.0
40
813.0
40
814.0
40
815.0
40
816.0
40
817.0
40
818.0
40
819.0
40
820.0
40
821.0
40
822.0
40
823.0
40
824.0
40
825.0
40
826.0
40
827.0
40
828.0
40
829.0
40
830.0
40
831.0
40
832.0
40
833.0
40
834.0
40
835.0
40
836.0
40
837.0
40
838.0
40
839.0
40
840.0
40
841.0
40
842.0
40
843.0
40
844.0
40
845.0
40
846.0
40
847.0
40
848.0
40
849.0
40
850.0
40
851.0
40
852.0
40
853.0
40
854.0
40
855.0
40
856.0
40
857.0
40
858.0
40
859.0
40
860.0
40
861.0
40
862.0
40
863.0
40
864.0
40
865.0
40
866.0
40
867.0
40
868.0
40
869.0
40
870.0
40
871.0
40
872.0
40
873.0
40
874.0
40
875.0
40
876.0
40
877.0
40
878.0
40
879.0
40
880.0
40
881.0
40
882.0
40
883.0
40
884.0
40
885.0
40
886.0
40
887.0
40
888.0
40
889.0
40
890.0
40
891.0
40
892.0
40
893.0
40
894.0
40
895.0
40
896.0
40
897.0
40
898.0
40
899.0
40
900.0
40
901.0
40
902.0
40
903.0
40
904.0
40
905.0
40
906.0
40
907.0
40
908.0
40
909.0
40
910.0
40
911.0
40
912.0
40
913.0
40
914.0
40
915.0
40
916.0
40
917.0
40
918.0
40
919.0
40
920.0
40
921.0
40
922.0
40
923.0
40
924.0
40
925.0
40
926.0
40
927.0
40
928.0
40
929.0
40
930.0
40
931.0
40
932.0
40
933.0
40
934.0
40
935.0
40
936.0
40
937.0
40
938.0
40
939.0
40
940.0
40
941.0
40
942.0
40
943.0
40
944.0
40
945.0
40
946.0
40
947.0
40
948.0
40
949.0
40
950.0
40
951.0
40
952.0
40
953.0
40
954.0
40
955.0
40
956.0
40
957.0
40
958.0
40
959.0
40
960.0
40
961.0
40
962.0
40
963.0
40
964.0
40
965.0
40
966.0
40
967.0
40
968.0
40
969.0
40
970.0
40
971.0
40
972.0
40
973.0
40
974.0
40
975.0
40
976.0
40
977.0
40
978.0
40
979.0
40
980.0
40
981.0
40
982.0
40
983.0
40
984.0
40
985.0
40
986.0
40
987.0
40
988.0
40
989.0
40
990.0
40
991.0
40
992.0
40
993.0
40
994.0
40
995.0
40
996.0
40
997.0
40
998.0
40
999.0
40
1000.0
40
1001.0
40
1002.0
40
1003.0
40
1004.0
40
1005.0
40
1006.0
40
1007.0
40
1008.0
40
1009.0
40
1010.0
40
1011.0
40
1012.0
40
1013.0
40
1014.0
40
1015.0
40
1016.0
40
1017.0
40
1018.0
40
1019.0
40
1020.0
40
1021.0
40
1022.0
40
1023.0
40
1024.0
40
1025.0
40
1026.0
40
1027.0
40
1028.0
40
1029.0
40
1030.0
40
1031.0
40
1032.0
40
1033.0
40
1034.0
40
1035.0
40
1036.0
40
1037.0
40
1038.0
40
1039.0
40
1040.0
40
1041.0
40
1042.0
40
1043.0
40
1044.0
40
1045.0
40
1046.0
40
1047.0
40
1048.0
40
1049.0
40
1050.0
40
1051.0
40
1052.0
40
1053.0
40
1054.0
40
1055.0
40
1056.0
40
1057.0
40
1058.0
40
1059.0
40
1060.0
40
1061.0
40
1062.0
40
1063.0
40
1064.0
40
1065.0
40
1066.0
40
1067.0
40
1068.0
40
1069.0
40
1070.0
40
1071.0
40
1072.0
40
1073.0
40
1074.0
40
1075.0
40
1076.0
40
1077.0
40
1078.0
40
1079.0
40
1080.0
40
1081.0
40
1082.0
40
1083.0
40
1084.0
40
1085.0
40
1086.0
40
1087.0
40
1088.0
40
1089.0
40
1090.0
40
1091.0
40
1092.0
40
1093.0
40
1094.0
40
1095.0
40
1096.0
40
1097.0
40
1098.0
40
1099.0
40
1100.0
40
1101.0
40
1102.0
40
1103.0
40
1104.0
40
1105.0
40
1106.0
40
1107.0
40
1108.0
40
1109.0
40
1110.0
40
1111.0
40
1112.0
40
1113.0
40
1114.0
40
1115.0
40
1116.0
40
1117.0
40
1118.0
40
1119.0
40
1120.0
40
1121.0
40
1122.0
40
1123.0
40
1124.0
40
1125.0
40
1126.0
40
1127.0
40
1128.0
40
1129.0
40
1130.0
40
1131.0
40
1132.0
40
1133.0
40
1134.0
40
1135.0
40
1136.0
40
1137.0
40
1138.0
40
1139.0
40
1140.0
40
1141.0
40
1142.0
40
1143.0
40
1144.0
40
1145.0
40
1146.0
40
1147.0
40
1148.0
40
1149.0
40
1150.0
40
1151.0
40
1152.0
40
1153.0
40
1154.0
40
1155.0
40
1156.0
40
1157.0
40
1158.0
40
1159.0
40
1160.0
40
1161.0
40
1162.0
40
1163.0
40
1164.0
40
1165.0
40
1166.0
40
1167.0
40
1168.0
40
1169.0
40
1170.0
40
1171.0
40
1172.0
40
1173.0
40
1174.0
40
1175.0
40
1176.0
40
1177.0
40
1178.0
40
1179.0
40
1180.0
40
1181.0
40
1182.0
40
1183.0
40
1184.0
40
1185.0
40
1186.0
40
1187.0
40
1188.0
40
1189.0
40
1190.0
40
1191.0
40
1192.0
40
1193.0
40
1194.0
40
1195.0
40
1196.0
40
1197.0
40
1198.0
40
1199.0
40
1200.0
40
1201.0
40
1202.0
40
1203.0
40
1204.0
40
1205.0
40
1206.0
40
1207.0
40
1208.0
40
1209.0
40
1210.0
40
1211.0
40
1212.0
40
1213.0
40
1214.0
40
1215.0
40
1216.0
40
1217.0
40
1218.0
40
1219.0
40
1220.0
40
1221.0
40
1222.0
40
1223.0
40
1224.0
40
1225.0
40
1226.0
40
1227.0
40
1228.0
40
1229.0
40
1230.0
40
1231.0
40
1232.0
40
1233.0
40
1234.0
40
1235.0
40
1236.0
40
1237.0
40
1238.0
40
1239.0
40
1240.0
40
1241.0
40
1242.0
40
1243.0
40
1244.0
40
1245.0
40
1246.0
40
1247.0
40
1248.0
40
1249.0
40
1250.0
40
1251.0
40
1252.0
40
1253.0
40
1254.0
40
1255.0
40
1256.0
40
1257.0
40
1258.0
40
1259.0
40
1260.0
40
1261.0
40
1262.0
40
1263.0
40
1264.0
40
1265.0
40
1266.0
40
1267.0
40
1268.0
40
1269.0
40
1270.0
40
1271.0
40
1272.0
40
1273.0
40
1274.0
40
1275.0
40
1276.0
40
1277.0
40
1278.0
40
1279.0
40
1280.0
40
1281.0
40
1282.0
40
1283.0
40
1284.0
40
1285.0
40
1286.0
40
1287.0
40
1288.0
40
1289.0
40
1290.0
40
1291.0
40
1292.0
40
1293.0
40
1294.0
40
1295.0
40
1296.0
40
1297.0
40
1298.0
40
1299.0
40
1300.0
40
1301.0
40
1302.0
40
1303.0
40
1304.0
40
1305.0
40
1306.0
40
1307.0
40
1308.0
40
1309.0
40
1310.0
40
1311.0
40
1312.0
40
1313.0
40
1314.0
40
1315.0
40
1316.0
40
1317.0
40
1318.0
40
1319.0
40
1320.0
40
1321.0
40
1322.0
40
1323.0
40
1324.0
40
1325.0
40
1326.0
40
1327.0
40
1328.0
40
1329.0
40
1330.0
40
1331.0
40
1332.0
40
1333.0
40
1334.0
40
1335.0
40
1336.0
40
1337.0
40
1338.0
40
1339.0
40
1340.0
40
1341.0
40
1342.0
40
1343.0
40
1344.0
40
1345.0
40
1346.0
40
1347.0
40
1348.0
40
1349.0
40
1350.0
40
1351.0
40
1352.0
40
1353.0
40
1354.0
40
1355.0
40
1356.0
40
1357.0
40
1358.0
40
1359.0
40
1360.0
40
1361.0
40
1362.0
40
1363.0
40
1364.0
40
1365.0
40
1366.0
40
1367.0
40
1368.0
40
1369.0
40
1370.0
40
1371.0
40
1372.0
40
1373.0
40
1374.0
40
1375.0
40
1376.0
40
1377.0
40
1378.0
40
1379.0
40
1380.0
40
1381.0
40
1382.0
40
1383.0
40
1384.0
40
1385.0
40
1386.0
40
1387.0
40
1388.0
40
1389.0
40
1390.0
40
1391.0
40
1392.0
40
1393.0
40
1394.0
40
1395.0
40
1396.0
40
1397.0
40
1398.0
40
1399.0
40
1400.0
40
1401.0
40
1402.0
40
1403.0
40
1404.0
40
1405.0
40
1406.0
40
1407.0
40
1408.0
40
1409.0
40
1410.0
40
1411.0
40
1412.0
40
1413.0
40
1414.0
40
1415.0
40
1416.0
40
1417.0
40
1418.0
40
1419.0
40
1420.0
40
1421.0
40
1422.0
40
1423.0
40
1424.0
40
1425.0
40
1426.0
40
1427.0
40
1428.0
40
1429.0
40
1430.0
40
1431.0
40
1432.0
40
1433.0
40
1434.0
40
1435.0
40
1436.0
40
1437.0
40
1438.0
40
1439.0
40
1440.0
40
1441.0
40
1442.0
40
1443.0
40
1444.0
40
1445.0
40
1446.0
40
1447.0
40
1448.0
40
1449.0
40
1450.0
40
1451.0
40
1452.0
40
1453.0
40
1454.0
40
1455.0
40
1456.0
40
1457.0
40
1458.0
40
1459.0
40
1460.0
40
1461.0
40
1462.0
40
1463.0
40
1464.0
40
1465.0
40
1466.0
40
1467.0
40
1468.0
40
1469.0
40
1470.0
40
1471.0
40
1472.0
40
1473.0
40
1474.0
40
1475.0
40
1476.0
40
1477.0
40
1478.0
40
1479.0
40
1480.0
40
1481.0
40
1482.0
40
1483.0
40
1484.0
40
1485.0
40
1486.0
40
1487.0
40
1488.0
40
1489.0
40
1490.0
40
1491.0
40
1492.0
40
1493.0
40
1494.0
40
1495.0
40
1496.0
40
1497.0
40
1498.0
40
1498.0
40
1498.0
40
1498.0
41
1.0
10
46.0
20
0.0
30
0.0
41
1.0
10
45.9971985443289
20
0.20889062809158
30
0.0
41
1.0
10
45.9888077243315
20
0.417401242644026
30
0.0
41
1.0
10
45.9748680572181
20
0.625154550415218
30
0.0
41
1.0
10
45.9554466588514
20
0.831778690006773
30
0.0
41
1.0
10
45.9306366243898
20
1.0369099261504
30
0.0
41
1.0
10
45.9005561608926
20
1.24019531871183
30
0.0
41
1.0
10
45.8653474714753
20
1.44129535914181
30
0.0
41
1.0
10
45.8251753903229
20
1.63988656814289
30
0.0
41
1.0
10
45.7802257674644
20
1.83566404968374
30
0.0
41
1.0
10
45.7307036016541
20
2.0283439982253
30
0.0
41
1.0
10
45.6768309189681
20
2.21766615819089
30
0.0
41
1.0
10
45.6188443937892
20
2.40339623739445
30
0.0
41
1.0
10
45.5569927076862
20
2.58532827944688
30
0.0
41
1.0
10
45.4915336403035
20
2.76328700422452
30
0.0
41
1.0
10
45.4227308847532
20
2.93713013048149
30
0.0
41
1.0
10
45.3508505781843
20
3.10675070084319
30
0.0
41
1.0
10
45.276157536271
20
3.27207943701242
30
0.0
41
1.0
10
45.1989111784495
20
3.4330871624108
30
0.0
41
1.0
10
45.119361129096
20
3.58978734111192
30
0.0
41
1.0
10
45.0377424788944
20
3.7422387963491
30
0.0
41
1.0
10
44.954270691052
20
3.89054868976935
30
0.0
41
1.0
10
44.8691361398416
20
4.03487586474316
30
0.0
41
1.0
10
44.7824982758145
20
4.17543468431577
30
0.0
41
1.0
10
44.6944794254409
20
4.31249952772071
30
0.0
41
1.0
10
44.6051582567151
20
4.44641014957037
30
0.0
41
1.0
10
44.5145629821345
20
4.57757815325058
30
0.0
41
1.0
10
44.4226644349776
20
4.70649488398156
30
0.0
41
1.0
10
44.329369256513
20
4.83374110459564
30
0.0
41
1.0
10
44.2345135888223
20
4.95999887126719
30
0.0
41
1.0
10
44.1378579059236
20
5.08606606252315
30
0.0
41
1.0
10
44.0390839696875
20
5.21287400472349
30
0.0
41
1.0
10
43.9377954114033
20
5.3415085298649
30
0.0
41
1.0
10
43.8335241664648
20
5.47323450878506
30
0.0
41
1.0
10
43.7257459753808
20
5.60952327859063
30
0.0
41
1.0
10
43.6139094206696
20
5.75208119841091
30
0.0
41
1.0
10
43.4974844058745
20
5.90287548964399
30
0.0
41
1.0
10
43.3760372807222
20
6.06415011984284
30
0.0
41
1.0
10
43.2493402157726
20
6.23841936018142
30
0.0
41
1.0
10
43.1175204469881
20
6.42841970875931
30
0.0
41
1.0
10
42.9812482193115
20
6.63699310846966
30
0.0
41
1.0
10
42.8419475652732
20
6.86686908228476
30
0.0
41
1.0
10
42.7019893332114
20
7.12031757337233
30
0.0
41
1.0
10
42.5647939710221
20
7.3986686943975
30
0.0
41
1.0
10
42.4347462008575
20
7.7017500606864
30
0.0
41
1.0
10
42.3168321953163
20
8.02737288739074
30
0.0
41
1.0
10
42.2159815495851
20
8.37107009449383
30
0.0
41
1.0
10
42.1362303849039
20
8.72628853199864
30
0.0
41
1.0
10
42.0799557008978
20
9.08511086198613
30
0.0
41
1.0
10
42.0474609073918
20
9.43936121027687
30
0.0
41
1.0
10
42.0370635772681
20
9.78176254375024
30
0.0
41
1.0
10
42.0456176535617
20
10.1067957507044
30
0.0
41
1.0
10
42.0692384096992
20
10.411069641562
30
0.0
41
1.0
10
42.1039791162418
20
10.6932269305275
30
0.0
41
1.0
10
42.146304675502
20
10.9535526598596
30
0.0
41
1.0
10
42.1933289747363
20
11.1934761568314
30
0.0
41
1.0
10
42.2428630617174
20
11.4151049482622
30
0.0
41
1.0
10
42.2933474284735
20
11.6208578499176
30
0.0
41
1.0
10
42.34373261919
20
11.8132103636159
30
0.0
41
1.0
10
42.3933508386914
20
11.9945368445121
30
0.0
41
1.0
10
42.4418010805496
20
12.1670245728956
30
0.0
41
1.0
10
42.4888563534897
20
12.3326360305508
30
0.0
41
1.0
10
42.5343937118576
20
12.4931008084067
30
0.0
41
1.0
10
42.5783441942658
20
12.6499241366069
30
0.0
41
1.0
10
42.6206586625461
20
12.804403619339
30
0.0
41
1.0
10
42.6612856524677
20
12.9576490801329
30
0.0
41
1.0
10
42.7001579544874
20
13.1106026420269
30
0.0
41
1.0
10
42.7371853542314
20
13.2640575632028
30
0.0
41
1.0
10
42.7722516098911
20
13.4186751836307
30
0.0
41
1.0
10
42.8052142713722
20
13.5749998116104
30
0.0
41
1.0
10
42.8359063505563
20
13.7334716294818
30
0.0
41
1.0
10
42.8641391505844
20
13.8944378159173
30
0.0
41
1.0
10
42.8897057769008
20
14.0581621250852
30
0.0
41
1.0
10
42.9123850046375
20
14.2248331652091
30
0.0
41
1.0
10
42.9319452828126
20
14.3945716010822
30
0.0
41
1.0
10
42.9481487288857
20
14.5674364785722
30
0.0
41
1.0
10
42.9607550171693
20
14.7434308404699
30
0.0
41
1.0
10
42.9695250984569
20
14.9225067754764
30
0.0
41
1.0
10
42.9742247109797
20
15.104570017193
30
0.0
41
1.0
10
42.9746276579455
20
15.2894841882117
30
0.0
41
1.0
10
42.9705188368783
20
15.4770747658091
30
0.0
41
1.0
10
42.9616970124595
20
15.6671328300756
30
0.0
41
1.0
10
42.947977328722
20
15.8594186422388
30
0.0
41
1.0
10
42.9291935590609
20
16.0536650900861
30
0.0
41
1.0
10
42.9052000941495
20
16.2495810284262
30
0.0
41
1.0
10
42.87587366883
20
16.4468545351397
30
0.0
41
1.0
10
42.8411148296511
20
16.645156097293
30
0.0
41
1.0
10
42.8008491450898
20
16.8441417368073
30
0.0
41
1.0
10
42.75502816074
20
17.0434560810935
30
0.0
41
1.0
10
42.7036301019272
20
17.2427353807469
30
0.0
41
1.0
10
42.6466603263682
20
17.4416104737014
30
0.0
41
1.0
10
42.5841515296401
20
17.6397096930842
30
0.0
41
1.0
10
42.5161637063719
20
17.8366617143061
30
0.0
41
1.0
10
42.4427838702202
20
18.0320983355963
30
0.0
41
1.0
10
42.3641255358205
20
18.2256571852042
30
0.0
41
1.0
10
42.280327966018
20
18.4169843477953
30
0.0
41
1.0
10
42.1915551877437
20
18.6057369021344
30
0.0
41
1.0
10
42.0979947799096
20
18.791585361958
30
0.0
41
1.0
10
41.999856436611
20
18.974216011967
30
0.0
41
1.0
10
41.8973703087327
20
19.1533331311184
30
0.0
41
1.0
10
41.7907851267241
20
19.3286610958526
30
0.0
41
1.0
10
41.6803661068001
20
19.4999463565735
30
0.0
41
1.0
10
41.5663926421133
20
19.666959281611
30
0.0
41
1.0
10
41.4491557794822
20
19.8294958640671
30
0.0
41
1.0
10
41.3289554809997
20
19.9873792884112
30
0.0
41
1.0
10
41.2060976682517
20
20.1404613555068
30
0.0
41
1.0
10
41.0808910448709
20
20.28862376698
30
0.0
41
1.0
10
40.9536436906968
20
20.4317792725916
30
0.0
41
1.0
10
40.8246594178274
20
20.5698726876715
30
0.0
41
1.0
10
40.6942338752923
20
20.7028817918986
30
0.0
41
1.0
10
40.5626503848761
20
20.8308181259871
30
0.0
41
1.0
10
40.4301754857608
20
20.9537277094991
30
0.0
41
1.0
10
40.2970541601367
20
21.0716917114326
30
0.0
41
1.0
10
40.1635047058374
20
21.1848271160043
30
0.0
41
1.0
10
40.0297132155982
20
21.2932874398451
30
0.0
41
1.0
10
39.8958276161438
20
21.3972635746095
30
0.0
41
1.0
10
39.7619512147517
20
21.4969848519554
30
0.0
41
1.0
10
39.6281356975516
20
21.5927204575182
30
0.0
41
1.0
10
39.4943735248326
20
21.6847813587896
30
0.0
41
1.0
10
39.3605896776616
20
21.7735229610065
30
0.0
41
1.0
10
39.2266327329708
20
21.8593487678401
30
0.0
41
1.0
10
39.0922652900624
20
21.9427154024319
30
0.0
41
1.0
10
38.9571538543668
20
22.0241394410289
30
0.0
41
1.0
10
38.8208584258707
20
22.1042066257959
30
0.0
41
1.0
10
38.6828222722196
20
22.1835841498885
30
0.0
41
1.0
10
38.5423627371467
20
22.2630368305577
30
0.0
41
1.0
10
38.3986645094776
20
22.3434480686672
30
0.0
41
1.0
10
38.2507776430987
20
22.4258464626056
30
0.0
41
1.0
10
38.0976238756193
20
22.5114386653835
30
0.0
41
1.0
10
37.9380165346232
20
22.6016483092482
30
0.0
41
1.0
10
37.7707015603693
20
22.6981591897472
30
0.0
41
1.0
10
37.5944297053321
20
22.8029578403661
30
0.0
41
1.0
10
37.4080720930421
20
22.9183654471866
30
0.0
41
1.0
10
37.2107914147811
20
23.0470411902554
30
0.0
41
1.0
10
37.0022761169838
20
23.1919288530247
30
0.0
41
1.0
10
36.783030569395
20
23.356108517608
30
0.0
41
1.0
10
36.5546860557374
20
23.5425122922504
30
0.0
41
1.0
10
36.320255799079
20
23.7534796153377
30
0.0
41
1.0
10
36.0842150044211
20
23.9901776080555
30
0.0
41
1.0
10
35.8522754514854
20
24.2519971203777
30
0.0
41
1.0
10
35.6307836526768
20
24.5361251958676
30
0.0
41
1.0
10
35.425814528319
20
24.8375217701474
30
0.0
41
1.0
10
35.2422014077179
20
25.1494277800097
30
0.0
41
1.0
10
35.0828218780716
20
25.4643183660674
30
0.0
41
1.0
10
34.9483673918499
20
25.775010859985
30
0.0
41
1.0
10
34.8376102747283
20
26.075582874371
30
0.0
41
1.0
10
34.7479884176617
20
26.3618787485361
30
0.0
41
1.0
10
34.6762638201324
20
26.6315800688125
30
0.0
41
1.0
10
34.6190710968461
20
26.8839621518706
30
0.0
41
1.0
10
34.5732786804321
20
27.119502269288
30
0.0
41
1.0
10
34.5361704779681
20
27.3394731787334
30
0.0
41
1.0
10
34.5054960757539
20
27.5455974965504
30
0.0
41
1.0
10
34.4794428459834
20
27.7397890012497
30
0.0
41
1.0
10
34.4565717118678
20
27.9239772481365
30
0.0
41
1.0
10
34.4357432357925
20
28.0999992118179
30
0.0
41
1.0
10
34.4160483186213
20
28.269539407035
30
0.0
41
1.0
10
34.3967495905621
20
28.4341024535731
30
0.0
41
1.0
10
34.3772348950643
20
28.5950059523735
30
0.0
41
1.0
10
34.3569819765386
20
28.7533852190023
30
0.0
41
1.0
10
34.3355325972806
20
28.9102043264107
30
0.0
41
1.0
10
34.3124741571297
20
29.0662699957473
30
0.0
41
1.0
10
34.287427069097
20
29.222246283621
30
0.0
41
1.0
10
34.2600364382186
20
29.3786689243892
30
0.0
41
1.0
10
34.2299668934785
20
29.5359587516318
30
0.0
41
1.0
10
34.1968996895651
20
29.6944339612296
30
0.0
41
1.0
10
34.1605314134114
20
29.8543211716941
30
0.0
41
1.0
10
34.1205738011895
20
30.0157653407331
30
0.0
41
1.0
10
34.076754301415
20
30.1788386462138
30
0.0
41
1.0
10
34.0288171170863
20
30.3435484573024
30
0.0
41
1.0
10
33.9765245317448
20
30.5098445215879
30
0.0
41
1.0
10
33.9196583772071
20
30.677625484918
30
0.0
41
1.0
10
33.858021539399
20
30.8467448474727
30
0.0
41
1.0
10
33.7914394269701
20
31.017016445154
30
0.0
41
1.0
10
33.7197613480022
20
31.1882195312254
30
0.0
41
1.0
10
33.642861755231
20
31.3601035200871
30
0.0
41
1.0
10
33.5606413312966
20
31.5323924434497
30
0.0
41
1.0
10
33.4730278937415
20
31.7047891590495
30
0.0
41
1.0
10
33.3799771055815
20
31.8769793433764
30
0.0
41
1.0
10
33.2814729818663
20
32.0486352925411
30
0.0
41
1.0
10
33.1775281861482
20
32.219419549235
30
0.0
41
1.0
10
33.0681841134745
20
32.3889883686006
30
0.0
41
1.0
10
32.9535107586411
20
32.5569950315718
30
0.0
41
1.0
10
32.8336063701296
20
32.7230930107479
30
0.0
41
1.0
10
32.7085968915187
20
32.8869389910216
30
0.0
41
1.0
10
32.5786351932748
20
33.0481957448781
30
0.0
41
1.0
10
32.4439000987451
20
33.2065348604614
30
0.0
41
1.0
10
32.3045952089287
20
33.3616393190714
30
0.0
41
1.0
10
32.1609475312057
20
33.5132059176736
30
0.0
41
1.0
10
32.0132059176736
20
33.6609475312057
30
0.0
41
1.0
10
31.8616393190714
20
33.8045952089287
30
0.0
41
1.0
10
31.7065348604614
20
33.9439000987451
30
0.0
41
1.0
10
31.5481957448781
20
34.0786351932748
30
0.0
41
1.0
10
31.3869389910216
20
34.2085968915187
30
0.0
41
1.0
10
31.223093010748
20
34.3336063701296
30
0.0
41
1.0
10
31.0569950315718
20
34.4535107586411
30
0.0
41
1.0
10
30.8889883686007
20
34.5681841134745
30
0.0
41
1.0
10
30.719419549235
20
34.6775281861482
30
0.0
41
1.0
10
30.5486352925411
20
34.7814729818663
30
0.0
41
1.0
10
30.3769793433765
20
34.8799771055815
30
0.0
41
1.0
10
30.2047891590495
20
34.9730278937415
30
0.0
41
1.0
10
30.0323924434497
20
35.0606413312966
30
0.0
41
1.0
10
29.8601035200871
20
35.142861755231
30
0.0
41
1.0
10
29.6882195312254
20
35.2197613480022
30
0.0
41
1.0
10
29.517016445154
20
35.2914394269701
30
0.0
41
1.0
10
29.3467448474727
20
35.358021539399
30
0.0
41
1.0
10
29.177625484918
20
35.4196583772071
30
0.0
41
1.0
10
29.0098445215879
20
35.4765245317448
30
0.0
41
1.0
10
28.8435484573024
20
35.5288171170863
30
0.0
41
1.0
10
28.6788386462138
20
35.576754301415
30
0.0
41
1.0
10
28.5157653407331
20
35.6205738011895
30
0.0
41
1.0
10
28.3543211716942
20
35.6605314134114
30
0.0
41
1.0
10
28.1944339612296
20
35.6968996895651
30
0.0
41
1.0
10
28.0359587516318
20
35.7299668934785
30
0.0
41
1.0
10
27.8786689243892
20
35.7600364382186
30
0.0
41
1.0
10
27.722246283621
20
35.787427069097
30
0.0
41
1.0
10
27.5662699957473
20
35.8124741571297
30
0.0
41
1.0
10
27.4102043264107
20
35.8355325972806
30
0.0
41
1.0
10
27.2533852190023
20
35.8569819765386
30
0.0
41
1.0
10
27.0950059523735
20
35.8772348950643
30
0.0
41
1.0
10
26.9341024535731
20
35.8967495905621
30
0.0
41
1.0
10
26.769539407035
20
35.9160483186213
30
0.0
41
1.0
10
26.5999992118179
20
35.9357432357925
30
0.0
41
1.0
10
26.4239772481365
20
35.9565717118678
30
0.0
41
1.0
10
26.2397890012497
20
35.9794428459834
30
0.0
41
1.0
10
26.0455974965504
20
36.0054960757539
30
0.0
41
1.0
10
25.8394731787334
20
36.0361704779681
30
0.0
41
1.0
10
25.619502269288
20
36.0732786804321
30
0.0
41
1.0
10
25.3839621518706
20
36.1190710968461
30
0.0
41
1.0
10
25.1315800688125
20
36.1762638201324
30
0.0
41
1.0
10
24.8618787485361
20
36.2479884176617
30
0.0
41
1.0
10
24.575582874371
20
36.3376102747283
30
0.0
41
1.0
10
24.275010859985
20
36.4483673918499
30
0.0
41
1.0
10
23.9643183660674
20
36.5828218780716
30
0.0
41
1.0
10
23.6494277800097
20
36.7422014077179
30
0.0
41
1.0
10
23.3375217701475
20
36.925814528319
30
0.0
41
1.0
10
23.0361251958676
20
37.1307836526768
30
0.0
41
1.0
10
22.7519971203778
20
37.3522754514854
30
0.0
41
1.0
10
22.4901776080556
20
37.5842150044211
30
0.0
41
1.0
10
22.2534796153377
20
37.820255799079
30
0.0
41
1.0
10
22.0425122922504
20
38.0546860557374
30
0.0
41
1.0
10
21.856108517608
20
38.2830305693949
30
0.0
41
1.0
10
21.6919288530247
20
38.5022761169838
30
0.0
41
1.0
10
21.5470411902554
20
38.7107914147811
30
0.0
41
1.0
10
21.4183654471867
20
38.9080720930421
30
0.0
41
1.0
10
21.3029578403661
20
39.0944297053321
30
0.0
41
1.0
10
21.1981591897472
20
39.2707015603693
30
0.0
41
1.0
10
21.1016483092482
20
39.4380165346232
30
0.0
41
1.0
10
21.0114386653835
20
39.5976238756193
30
0.0
41
1.0
10
20.9258464626056
20
39.7507776430987
30
0.0
41
1.0
10
20.8434480686672
20
39.8986645094776
30
0.0
41
1.0
10
20.7630368305577
20
40.0423627371467
30
0.0
41
1.0
10
20.6835841498885
20
40.1828222722196
30
0.0
41
1.0
10
20.6042066257959
20
40.3208584258707
30
0.0
41
1.0
10
20.5241394410289
20
40.4571538543668
30
0.0
41
1.0
10
20.4427154024319
20
40.5922652900624
30
0.0
41
1.0
10
20.3593487678401
20
40.7266327329708
30
0.0
41
1.0
10
20.2735229610065
20
40.8605896776616
30
0.0
41
1.0
10
20.1847813587896
20
40.9943735248326
30
0.0
41
1.0
10
20.0927204575182
20
41.1281356975516
30
0.0
41
1.0
10
19.9969848519554
20
41.2619512147517
30
0.0
41
1.0
10
19.8972635746095
20
41.3958276161438
30
0.0
41
1.0
10
19.7932874398451
20
41.5297132155982
30
0.0
41
1.0
10
19.6848271160044
20
41.6635047058374
30
0.0
41
1.0
10
19.5716917114326
20
41.7970541601367
30
0.0
41
1.0
10
19.4537277094991
20
41.9301754857608
30
0.0
41
1.0
10
19.3308181259871
20
42.0626503848761
30
0.0
41
1.0
10
19.2028817918986
20
42.1942338752923
30
0.0
41
1.0
10
19.0698726876715
20
42.3246594178274
30
0.0
41
1.0
10
18.9317792725916
20
42.4536436906968
30
0.0
41
1.0
10
18.7886237669801
20
42.5808910448709
30
0.0
41
1.0
10
18.6404613555068
20
42.7060976682517
30
0.0
41
1.0
10
18.4873792884112
20
42.8289554809997
30
0.0
41
1.0
10
18.3294958640671
20
42.9491557794822
30
0.0
41
1.0
10
18.1669592816111
20
43.0663926421133
30
0.0
41
1.0
10
17.9999463565735
20
43.1803661068001
30
0.0
41
1.0
10
17.8286610958526
20
43.2907851267241
30
0.0
41
1.0
10
17.6533331311185
20
43.3973703087327
30
0.0
41
1.0
10
17.474216011967
20
43.4998564366109
30
0.0
41
1.0
10
17.291585361958
20
43.5979947799096
30
0.0
41
1.0
10
17.1057369021344
20
43.6915551877436
30
0.0
41
1.0
10
16.9169843477953
20
43.780327966018
30
0.0
41
1.0
10
16.7256571852042
20
43.8641255358205
30
0.0
41
1.0
10
16.5320983355963
20
43.9427838702202
30
0.0
41
1.0
10
16.3366617143061
20
44.016163706372
30
0.0
41
1.0
10
16.1397096930842
20
44.0841515296401
30
0.0
41
1.0
10
15.9416104737014
20
44.1466603263682
30
0.0
41
1.0
10
15.7427353807469
20
44.2036301019272
30
0.0
41
1.0
10
15.5434560810935
20
44.25502816074
30
0.0
41
1.0
10
15.3441417368073
20
44.3008491450898
30
0.0
41
1.0
10
15.145156097293
20
44.3411148296511
30
0.0
41
1.0
10
14.9468545351397
20
44.37587366883
30
0.0
41
1.0
10
14.7495810284262
20
44.4052000941495
30
0.0
41
1.0
10
14.5536650900861
20
44.4291935590609
30
0.0
41
1.0
10
14.3594186422388
20
44.447977328722
30
0.0
41
1.0
10
14.1671328300756
20
44.4616970124595
30
0.0
41
1.0
10
13.9770747658091
20
44.4705188368783
30
0.0
41
1.0
10
13.7894841882117
20
44.4746276579455
30
0.0
41
1.0
10
13.604570017193
20
44.4742247109797
30
0.0
41
1.0
10
13.4225067754764
20
44.4695250984569
30
0.0
41
1.0
10
13.2434308404699
20
44.4607550171693
30
0.0
41
1.0
10
13.0674364785722
20
44.4481487288857
30
0.0
41
1.0
10
12.8945716010822
20
44.4319452828126
30
0.0
41
1.0
10
12.7248331652091
20
44.4123850046375
30
0.0
41
1.0
10
12.5581621250852
20
44.3897057769008
30
0.0
41
1.0
10
12.3944378159173
20
44.3641391505844
30
0.0
41
1.0
10
12.2334716294818
20
44.3359063505563
30
0.0
41
1.0
10
12.0749998116104
20
44.3052142713722
30
0.0
41
1.0
10
11.9186751836307
20
44.2722516098911
30
0.0
41
1.0
10
11.7640575632028
20
44.2371853542314
30
0.0
41
1.0
10
11.6106026420269
20
44.2001579544873
30
0.0
41
1.0
10
11.4576490801329
20
44.1612856524677
30
0.0
41
1.0
10
11.304403619339
20
44.1206586625461
30
0.0
41
1.0
10
11.1499241366069
20
44.0783441942658
30
0.0
41
1.0
10
10.9931008084067
20
44.0343937118576
30
0.0
41
1.0
10
10.8326360305508
20
43.9888563534897
30
0.0
41
1.0
10
10.6670245728956
20
43.9418010805496
30
0.0
41
1.0
10
10.4945368445121
20
43.8933508386914
30
0.0
41
1.0
10
10.3132103636159
20
43.84373261919
30
0.0
41
1.0
10
10.1208578499176
20
43.7933474284735
30
0.0
41
1.0
10
9.91510494826224
20
43.7428630617174
30
0.0
41
1.0
10
9.69347615683145
20
43.6933289747363
30
0.0
41
1.0
10
9.45355265985961
20
43.646304675502
30
0.0
41
1.0
10
9.1932269305275
20
43.6039791162418
30
0.0
41
1.0
10
8.91106964156198
20
43.5692384096992
30
0.0
41
1.0
10
8.60679575070438
20
43.5456176535617
30
0.0
41
1.0
10
8.28176254375025
20
43.5370635772681
30
0.0
41
1.0
10
7.93936121027689
20
43.5474609073918
30
0.0
41
1.0
10
7.58511086198614
20
43.5799557008978
30
0.0
41
1.0
10
7.22628853199867
20
43.6362303849039
30
0.0
41
1.0
10
6.87107009449383
20
43.7159815495851
30
0.0
41
1.0
10
6.52737288739075
20
43.8168321953163
30
0.0
41
1.0
10
6.20175006068641
20
43.9347462008575
30
0.0
41
1.0
10
5.89866869439752
20
44.0647939710221
30
0.0
41
1.0
10
5.62031757337234
20
44.2019893332114
30
0.0
41
1.0
10
5.36686908228477
20
44.3419475652732
30
0.0
41
1.0
10
5.13699310846967
20
44.4812482193115
30
0.0
41
1.0
10
4.92841970875932
20
44.6175204469881
30
0.0
41
1.0
10
4.73841936018143
20
44.7493402157726
30
0.0
41
1.0
10
4.56415011984284
20
44.8760372807222
30
0.0
41
1.0
10
4.402875489644
20
44.9974844058745
30
0.0
41
1.0
10
4.25208119841091
20
45.1139094206696
30
0.0
41
1.0
10
4.10952327859063
20
45.2257459753808
30
0.0
41
1.0
10
3.97323450878507
20
45.3335241664648
30
0.0
41
1.0
10
3.84150852986491
20
45.4377954114033
30
0.0
41
1.0
10
3.7128740047235
20
45.5390839696875
30
0.0
41
1.0
10
3.58606606252316
20
45.6378579059236
30
0.0
41
1.0
10
3.45999887126719
20
45.7345135888222
30
0.0
41
1.0
10
3.33374110459564
20
45.829369256513
30
0.0
41
1.0
10
3.20649488398157
20
45.9226644349776
30
0.0
41
1.0
10
3.07757815325058
20
46.0145629821345
30
0.0
41
1.0
10
2.94641014957038
20
46.1051582567151
30
0.0
41
1.0
10
2.81249952772071
20
46.1944794254409
30
0.0
41
1.0
10
2.67543468431578
20
46.2824982758145
30
0.0
41
1.0
10
2.53487586474317
20
46.3691361398416
30
0.0
41
1.0
10
2.39054868976936
20
46.454270691052
30
0.0
41
1.0
10
2.24223879634911
20
46.5377424788944
30
0.0
41
1.0
10
2.08978734111193
20
46.619361129096
30
0.0
41
1.0
10
1.93308716241081
20
46.6989111784495
30
0.0
41
1.0
10
1.77207943701242
20
46.776157536271
30
0.0
41
1.0
10
1.6067507008432
20
46.8508505781843
30
0.0
41
1.0
10
1.43713013048149
20
46.9227308847532
30
0.0
41
1.0
10
1.26328700422453
20
46.9915336403035
30
0.0
41
1.0
10
1.0853282794469
20
47.0569927076862
30
0.0
41
1.0
10
0.903396237394458
20
47.1188443937892
30
0.0
41
1.0
10
0.717666158190897
20
47.1768309189681
30
0.0
41
1.0
10
0.528343998225305
20
47.2307036016541
30
0.0
41
1.0
10
0.335664049683742
20
47.2802257674644
30
0.0
41
1.0
10
0.139886568142904
20
47.3251753903229
30
0.0
41
1.0
10
-0.0587046408581835
20
47.3653474714753
30
0.0
41
1.0
10
-0.259804681288156
20
47.4005561608926
30
0.0
41
1.0
10
-0.463090073849598
20
47.4306366243898
30
0.0
41
1.0
10
-0.668221309993219
20
47.4554466588514
30
0.0
41
1.0
10
-0.874845449584772
20
47.4748680572181
30
0.0
41
1.0
10
-1.08259875735596
20
47.4888077243315
30
0.0
41
1.0
10
-1.29110937190841
20
47.4971985443289
30
0.0
41
1.0
10
-1.49999999999999
20
47.5
30
0.0
41
1.0
10
-1.70889062809158
20
47.4971985443289
30
0.0
41
1.0
10
-1.91740124264402
20
47.4888077243315
30
0.0
41
1.0
10
-2.12515455041521
20
47.4748680572181
30
0.0
41
1.0
10
-2.33177869000676
20
47.4554466588514
30
0.0
41
1.0
10
-2.53690992615039
20
47.4306366243898
30
0.0
41
1.0
10
-2.74019531871182
20
47.4005561608926
30
0.0
41
1.0
10
-2.9412953591418
20
47.3653474714753
30
0.0
41
1.0
10
-3.13988656814289
20
47.3251753903229
30
0.0
41
1.0
10
-3.33566404968373
20
47.2802257674644
30
0.0
41
1.0
10
-3.52834399822529
20
47.2307036016541
30
0.0
41
1.0
10
-3.71766615819088
20
47.1768309189681
30
0.0
41
1.0
10
-3.90339623739444
20
47.1188443937892
30
0.0
41
1.0
10
-4.08532827944688
20
47.0569927076862
30
0.0
41
1.0
10
-4.26328700422451
20
46.9915336403035
30
0.0
41
1.0
10
-4.43713013048148
20
46.9227308847532
30
0.0
41
1.0
10
-4.60675070084318
20
46.8508505781843
30
0.0
41
1.0
10
-4.77207943701241
20
46.776157536271
30
0.0
41
1.0
10
-4.93308716241079
20
46.6989111784495
30
0.0
41
1.0
10
-5.08978734111191
20
46.619361129096
30
0.0
41
1.0
10
-5.2422387963491
20
46.5377424788944
30
0.0
41
1.0
10
-5.39054868976935
20
46.454270691052
30
0.0
41
1.0
10
-5.53487586474315
20
46.3691361398416
30
0.0
41
1.0
10
-5.67543468431576
20
46.2824982758145
30
0.0
41
1.0
10
-5.8124995277207
20
46.1944794254409
30
0.0
41
1.0
10
-5.94641014957037
20
46.1051582567151
30
0.0
41
1.0
10
-6.07757815325057
20
46.0145629821345
30
0.0
41
1.0
10
-6.20649488398156
20
45.9226644349776
30
0.0
41
1.0
10
-6.33374110459563
20
45.829369256513
30
0.0
41
1.0
10
-6.45999887126718
20
45.7345135888223
30
0.0
41
1.0
10
-6.58606606252315
20
45.6378579059236
30
0.0
41
1.0
10
-6.71287400472349
20
45.5390839696875
30
0.0
41
1.0
10
-6.84150852986489
20
45.4377954114033
30
0.0
41
1.0
10
-6.97323450878506
20
45.3335241664649
30
0.0
41
1.0
10
-7.10952327859062
20
45.2257459753808
30
0.0
41
1.0
10
-7.25208119841089
20
45.1139094206696
30
0.0
41
1.0
10
-7.40287548964399
20
44.9974844058745
30
0.0
41
1.0
10
-7.56415011984283
20
44.8760372807222
30
0.0
41
1.0
10
-7.73841936018141
20
44.7493402157726
30
0.0
41
1.0
10
-7.9284197087593
20
44.6175204469881
30
0.0
41
1.0
10
-8.13699310846965
20
44.4812482193115
30
0.0
41
1.0
10
-8.36686908228476
20
44.3419475652732
30
0.0
41
1.0
10
-8.62031757337232
20
44.2019893332114
30
0.0
41
1.0
10
-8.89866869439749
20
44.0647939710221
30
0.0
41
1.0
10
-9.20175006068638
20
43.9347462008575
30
0.0
41
1.0
10
-9.52737288739072
20
43.8168321953163
30
0.0
41
1.0
10
-9.8710700944938
20
43.7159815495851
30
0.0
41
1.0
10
-10.2262885319986
20
43.6362303849039
30
0.0
41
1.0
10
-10.5851108619861
20
43.5799557008978
30
0.0
41
1.0
10
-10.9393612102769
20
43.5474609073918
30
0.0
41
1.0
10
-11.2817625437502
20
43.5370635772681
30
0.0
41
1.0
10
-11.6067957507044
20
43.5456176535617
30
0.0
41
1.0
10
-11.911069641562
20
43.5692384096991
30
0.0
41
1.0
10
-12.1932269305275
20
43.6039791162418
30
0.0
41
1.0
10
-12.4535526598596
20
43.646304675502
30
0.0
41
1.0
10
-12.6934761568314
20
43.6933289747363
30
0.0
41
1.0
10
-12.9151049482622
20
43.7428630617174
30
0.0
41
1.0
10
-13.1208578499176
20
43.7933474284735
30
0.0
41
1.0
10
-13.3132103636159
20
43.84373261919
30
0.0
41
1.0
10
-13.4945368445121
20
43.8933508386914
30
0.0
41
1.0
10
-13.6670245728956
20
43.9418010805496
30
0.0
41
1.0
10
-13.8326360305508
20
43.9888563534897
30
0.0
41
1.0
10
-13.9931008084067
20
44.0343937118576
30
0.0
41
1.0
10
-14.1499241366069
20
44.0783441942658
30
0.0
41
1.0
10
-14.304403619339
20
44.1206586625461
30
0.0
41
1.0
10
-14.4576490801329
20
44.1612856524677
30
0.0
41
1.0
10
-14.6106026420269
20
44.2001579544873
30
0.0
41
1.0
10
-14.7640575632027
20
44.2371853542314
30
0.0
41
1.0
10
-14.9186751836307
20
44.2722516098911
30
0.0
41
1.0
10
-15.0749998116104
20
44.3052142713722
30
0.0
41
1.0
10
-15.2334716294817
20
44.3359063505563
30
0.0
41
1.0
10
-15.3944378159173
20
44.3641391505844
30
0.0
41
1.0
10
-15.5581621250852
20
44.3897057769008
30
0.0
41
1.0
10
-15.7248331652091
20
44.4123850046375
30
0.0
41
1.0
10
-15.8945716010822
20
44.4319452828126
30
0.0
41
1.0
10
-16.0674364785722
20
44.4481487288857
30
0.0
41
1.0
10
-16.2434308404699
20
44.4607550171693
30
0.0
41
1.0
10
-16.4225067754764
20
44.4695250984569
30
0.0
41
1.0
10
-16.6045700171929
20
44.4742247109797
30
0.0
41
1.0
10
-16.7894841882117
20
44.4746276579455
30
0.0
41
1.0
10
-16.9770747658091
20
44.4705188368783
30
0.0
41
1.0
10
-17.1671328300756
20
44.4616970124595
30
0.0
41
1.0
10
-17.3594186422388
20
44.447977328722
30
0.0
41
1.0
10
-17.5536650900861
20
44.4291935590609
30
0.0
41
1.0
10
-17.7495810284262
20
44.4052000941495
30
0.0
41
1.0
10
-17.9468545351396
20
44.37587366883
30
0.0
41
1.0
10
-18.145156097293
20
44.3411148296511
30
0.0
41
1.0
10
-18.3441417368073
20
44.3008491450898
30
0.0
41
1.0
10
-18.5434560810935
20
44.25502816074
30
0.0
41
1.0
10
-18.7427353807469
20
44.2036301019272
30
0.0
41
1.0
10
-18.9416104737014
20
44.1466603263682
30
0.0
41
1.0
10
-19.1397096930842
20
44.0841515296401
30
0.0
41
1.0
10
-19.3366617143061
20
44.016163706372
30
0.0
41
1.0
10
-19.5320983355963
20
43.9427838702202
30
0.0
41
1.0
10
-19.7256571852042
20
43.8641255358205
30
0.0
41
1.0
10
-19.9169843477953
20
43.780327966018
30
0.0
41
1.0
10
-20.1057369021344
20
43.6915551877437
30
0.0
41
1.0
10
-20.291585361958
20
43.5979947799096
30
0.0
41
1.0
10
-20.474216011967
20
43.499856436611
30
0.0
41
1.0
10
-20.6533331311184
20
43.3973703087327
30
0.0
41
1.0
10
-20.8286610958526
20
43.2907851267241
30
0.0
41
1.0
10
-20.9999463565735
20
43.1803661068001
30
0.0
41
1.0
10
-21.166959281611
20
43.0663926421133
30
0.0
41
1.0
10
-21.3294958640671
20
42.9491557794822
30
0.0
41
1.0
10
-21.4873792884112
20
42.8289554809997
30
0.0
41
1.0
10
-21.6404613555068
20
42.7060976682517
30
0.0
41
1.0
10
-21.78862376698
20
42.5808910448709
30
0.0
41
1.0
10
-21.9317792725916
20
42.4536436906968
30
0.0
41
1.0
10
-22.0698726876715
20
42.3246594178274
30
0.0
41
1.0
10
-22.2028817918986
20
42.1942338752923
30
0.0
41
1.0
10
-22.3308181259871
20
42.0626503848761
30
0.0
41
1.0
10
-22.4537277094991
20
41.9301754857608
30
0.0
41
1.0
10
-22.5716917114326
20
41.7970541601367
30
0.0
41
1.0
10
-22.6848271160043
20
41.6635047058374
30
0.0
41
1.0
10
-22.7932874398451
20
41.5297132155982
30
0.0
41
1.0
10
-22.8972635746095
20
41.3958276161438
30
0.0
41
1.0
10
-22.9969848519554
20
41.2619512147517
30
0.0
41
1.0
10
-23.0927204575182
20
41.1281356975516
30
0.0
41
1.0
10
-23.1847813587896
20
40.9943735248326
30
0.0
41
1.0
10
-23.2735229610065
20
40.8605896776616
30
0.0
41
1.0
10
-23.3593487678401
20
40.7266327329708
30
0.0
41
1.0
10
-23.4427154024319
20
40.5922652900624
30
0.0
41
1.0
10
-23.5241394410289
20
40.4571538543668
30
0.0
41
1.0
10
-23.6042066257959
20
40.3208584258707
30
0.0
41
1.0
10
-23.6835841498885
20
40.1828222722196
30
0.0
41
1.0
10
-23.7630368305577
20
40.0423627371467
30
0.0
41
1.0
10
-23.8434480686672
20
39.8986645094776
30
0.0
41
1.0
10
-23.9258464626056
20
39.7507776430987
30
0.0
41
1.0
10
-24.0114386653835
20
39.5976238756193
30
0.0
41
1.0
10
-24.1016483092482
20
39.4380165346232
30
0.0
41
1.0
10
-24.1981591897472
20
39.2707015603693
30
0.0
41
1.0
10
-24.3029578403661
20
39.0944297053321
30
0.0
41
1.0
10
-24.4183654471866
20
38.9080720930421
30
0.0
41
1.0
10
-24.5470411902554
20
38.7107914147811
30
0.0
41
1.0
10
-24.6919288530247
20
38.5022761169838
30
0.0
41
1.0
10
-24.8561085176079
20
38.283030569395
30
0.0
41
1.0
10
-25.0425122922504
20
38.0546860557374
30
0.0
41
1.0
10
-25.2534796153377
20
37.820255799079
30
0.0
41
1.0
10
-25.4901776080555
20
37.5842150044211
30
0.0
41
1.0
10
-25.7519971203777
20
37.3522754514854
30
0.0
41
1.0
10
-26.0361251958676
20
37.1307836526768
30
0.0
41
1.0
10
-26.3375217701474
20
36.925814528319
30
0.0
41
1.0
10
-26.6494277800097
20
36.7422014077179
30
0.0
41
1.0
10
-26.9643183660674
20
36.5828218780716
30
0.0
41
1.0
10
-27.275010859985
20
36.4483673918499
30
0.0
41
1.0
10
-27.575582874371
20
36.3376102747283
30
0.0
41
1.0
10
-27.861878748536
20
36.2479884176617
30
0.0
41
1.0
10
-28.1315800688125
20
36.1762638201324
30
0.0
41
1.0
10
-28.3839621518706
20
36.1190710968461
30
0.0
41
1.0
10
-28.619502269288
20
36.0732786804321
30
0.0
41
1.0
10
-28.8394731787334
20
36.0361704779681
30
0.0
41
1.0
10
-29.0455974965504
20
36.0054960757539
30
0.0
41
1.0
10
-29.2397890012497
20
35.9794428459834
30
0.0
41
1.0
10
-29.4239772481364
20
35.9565717118678
30
0.0
41
1.0
10
-29.5999992118179
20
35.9357432357925
30
0.0
41
1.0
10
-29.769539407035
20
35.9160483186213
30
0.0
41
1.0
10
-29.934102453573
20
35.8967495905621
30
0.0
41
1.0
10
-30.0950059523735
20
35.8772348950643
30
0.0
41
1.0
10
-30.2533852190023
20
35.8569819765386
30
0.0
41
1.0
10
-30.4102043264107
20
35.8355325972806
30
0.0
41
1.0
10
-30.5662699957473
20
35.8124741571297
30
0.0
41
1.0
10
-30.722246283621
20
35.787427069097
30
0.0
41
1.0
10
-30.8786689243892
20
35.7600364382186
30
0.0
41
1.0
10
-31.0359587516317
20
35.7299668934785
30
0.0
41
1.0
10
-31.1944339612296
20
35.6968996895651
30
0.0
41
1.0
10
-31.3543211716941
20
35.6605314134114
30
0.0
41
1.0
10
-31.5157653407331
20
35.6205738011895
30
0.0
41
1.0
10
-31.6788386462138
20
35.576754301415
30
0.0
41
1.0
10
-31.8435484573024
20
35.5288171170863
30
0.0
41
1.0
10
-32.0098445215879
20
35.4765245317448
30
0.0
41
1.0
10
-32.177625484918
20
35.4196583772071
30
0.0
41
1.0
10
-32.3467448474727
20
35.358021539399
30
0.0
41
1.0
10
-32.517016445154
20
35.2914394269701
30
0.0
41
1.0
10
-32.6882195312254
20
35.2197613480022
30
0.0
41
1.0
10
-32.8601035200871
20
35.142861755231
30
0.0
41
1.0
10
-33.0323924434497
20
35.0606413312966
30
0.0
41
1.0
10
-33.2047891590494
20
34.9730278937415
30
0.0
41
1.0
10
-33.3769793433764
20
34.8799771055816
30
0.0
41
1.0
10
-33.5486352925411
20
34.7814729818663
30
0.0
41
1.0
10
-33.719419549235
20
34.6775281861482
30
0.0
41
1.0
10
-33.8889883686006
20
34.5681841134745
30
0.0
41
1.0
10
-34.0569950315718
20
34.4535107586411
30
0.0
41
1.0
10
-34.2230930107479
20
34.3336063701296
30
0.0
41
1.0
10
-34.3869389910216
20
34.2085968915187
30
0.0
41
1.0
10
-34.5481957448781
20
34.0786351932748
30
0.0
41
1.0
10
-34.7065348604613
20
33.9439000987452
30
0.0
41
1.0
10
-34.8616393190714
20
33.8045952089287
30
0.0
41
1.0
10
-35.0132059176736
20
33.6609475312057
30
0.0
41
1.0
10
-35.1609475312057
20
33.5132059176736
30
0.0
41
1.0
10
-35.3045952089287
20
33.3616393190714
30
0.0
41
1.0
10
-35.4439000987451
20
33.2065348604614
30
0.0
41
1.0
10
-35.5786351932748
20
33.0481957448781
30
0.0
41
1.0
10
-35.7085968915187
20
32.8869389910216
30
0.0
41
1.0
10
-35.8336063701296
20
32.7230930107479
30
0.0
41
1.0
10
-35.9535107586411
20
32.5569950315718
30
0.0
41
1.0
10
-36.0681841134745
20
32.3889883686006
30
0.0
41
1.0
10
-36.1775281861482
20
32.219419549235
30
0.0
41
1.0
10
-36.2814729818663
20
32.0486352925411
30
0.0
41
1.0
10
-36.3799771055815
20
31.8769793433765
30
0.0
41
1.0
10
-36.4730278937415
20
31.7047891590495
30
0.0
41
1.0
10
-36.5606413312966
20
31.5323924434497
30
0.0
41
1.0
10
-36.642861755231
20
31.3601035200871
30
0.0
41
1.0
10
-36.7197613480022
20
31.1882195312254
30
0.0
41
1.0
10
-36.7914394269701
20
31.017016445154
30
0.0
41
1.0
10
-36.858021539399
20
30.8467448474727
30
0.0
41
1.0
10
-36.9196583772071
20
30.677625484918
30
0.0
41
1.0
10
-36.9765245317448
20
30.5098445215879
30
0.0
41
1.0
10
-37.0288171170863
20
30.3435484573024
30
0.0
41
1.0
10
-37.076754301415
20
30.1788386462138
30
0.0
41
1.0
10
-37.1205738011895
20
30.0157653407331
30
0.0
41
1.0
10
-37.1605314134114
20
29.8543211716942
30
0.0
41
1.0
10
-37.1968996895651
20
29.6944339612296
30
0.0
41
1.0
10
-37.2299668934785
20
29.5359587516318
30
0.0
41
1.0
10
-37.2600364382186
20
29.3786689243892
30
0.0
41
1.0
10
-37.287427069097
20
29.222246283621
30
0.0
41
1.0
10
-37.3124741571297
20
29.0662699957473
30
0.0
41
1.0
10
-37.3355325972806
20
28.9102043264107
30
0.0
41
1.0
10
-37.3569819765386
20
28.7533852190023
30
0.0
41
1.0
10
-37.3772348950643
20
28.5950059523735
30
0.0
41
1.0
10
-37.3967495905621
20
28.4341024535731
30
0.0
41
1.0
10
-37.4160483186213
20
28.269539407035
30
0.0
41
1.0
10
-37.4357432357925
20
28.0999992118179
30
0.0
41
1.0
10
-37.4565717118678
20
27.9239772481365
30
0.0
41
1.0
10
-37.4794428459834
20
27.7397890012498
30
0.0
41
1.0
10
-37.5054960757539
20
27.5455974965505
30
0.0
41
1.0
10
-37.5361704779681
20
27.3394731787334
30
0.0
41
1.0
10
-37.5732786804321
20
27.119502269288
30
0.0
41
1.0
10
-37.6190710968461
20
26.8839621518706
30
0.0
41
1.0
10
-37.6762638201324
20
26.6315800688125
30
0.0
41
1.0
10
-37.7479884176617
20
26.3618787485361
30
0.0
41
1.0
10
-37.8376102747283
20
26.075582874371
30
0.0
41
1.0
10
-37.9483673918499
20
25.7750108599851
30
0.0
41
1.0
10
-38.0828218780716
20
25.4643183660674
30
0.0
41
1.0
10
-38.2422014077179
20
25.1494277800097
30
0.0
41
1.0
10
-38.425814528319
20
24.8375217701475
30
0.0
41
1.0
10
-38.6307836526768
20
24.5361251958676
30
0.0
41
1.0
10
-38.8522754514854
20
24.2519971203778
30
0.0
41
1.0
10
-39.0842150044211
20
23.9901776080556
30
0.0
41
1.0
10
-39.320255799079
20
23.7534796153377
30
0.0
41
1.0
10
-39.5546860557374
20
23.5425122922504
30
0.0
41
1.0
10
-39.7830305693949
20
23.356108517608
30
0.0
41
1.0
10
-40.0022761169838
20
23.1919288530247
30
0.0
41
1.0
10
-40.2107914147811
20
23.0470411902555
30
0.0
41
1.0
10
-40.4080720930421
20
22.9183654471867
30
0.0
41
1.0
10
-40.5944297053321
20
22.8029578403662
30
0.0
41
1.0
10
-40.7707015603692
20
22.6981591897472
30
0.0
41
1.0
10
-40.9380165346232
20
22.6016483092482
30
0.0
41
1.0
10
-41.0976238756193
20
22.5114386653835
30
0.0
41
1.0
10
-41.2507776430987
20
22.4258464626056
30
0.0
41
1.0
10
-41.3986645094776
20
22.3434480686672
30
0.0
41
1.0
10
-41.5423627371467
20
22.2630368305577
30
0.0
41
1.0
10
-41.6828222722196
20
22.1835841498885
30
0.0
41
1.0
10
-41.8208584258707
20
22.104206625796
30
0.0
41
1.0
10
-41.9571538543668
20
22.0241394410289
30
0.0
41
1.0
10
-42.0922652900624
20
21.9427154024319
30
0.0
41
1.0
10
-42.2266327329708
20
21.8593487678401
30
0.0
41
1.0
10
-42.3605896776616
20
21.7735229610065
30
0.0
41
1.0
10
-42.4943735248326
20
21.6847813587896
30
0.0
41
1.0
10
-42.6281356975516
20
21.5927204575182
30
0.0
41
1.0
10
-42.7619512147516
20
21.4969848519554
30
0.0
41
1.0
10
-42.8958276161438
20
21.3972635746095
30
0.0
41
1.0
10
-43.0297132155982
20
21.2932874398451
30
0.0
41
1.0
10
-43.1635047058374
20
21.1848271160044
30
0.0
41
1.0
10
-43.2970541601367
20
21.0716917114326
30
0.0
41
1.0
10
-43.4301754857608
20
20.9537277094991
30
0.0
41
1.0
10
-43.5626503848761
20
20.8308181259871
30
0.0
41
1.0
10
-43.6942338752923
20
20.7028817918986
30
0.0
41
1.0
10
-43.8246594178274
20
20.5698726876715
30
0.0
41
1.0
10
-43.9536436906968
20
20.4317792725916
30
0.0
41
1.0
10
-44.0808910448709
20
20.2886237669801
30
0.0
41
1.0
10
-44.2060976682517
20
20.1404613555068
30
0.0
41
1.0
10
-44.3289554809997
20
19.9873792884112
30
0.0
41
1.0
10
-44.4491557794822
20
19.8294958640671
30
0.0
41
1.0
10
-44.5663926421133
20
19.6669592816111
30
0.0
41
1.0
10
-44.6803661068
20
19.4999463565735
30
0.0
41
1.0
10
-44.7907851267241
20
19.3286610958526
30
0.0
41
1.0
10
-44.8973703087327
20
19.1533331311185
30
0.0
41
1.0
10
-44.9998564366109
20
18.9742160119671
30
0.0
41
1.0
10
-45.0979947799096
20
18.791585361958
30
0.0
41
1.0
10
-45.1915551877436
20
18.6057369021344
30
0.0
41
1.0
10
-45.280327966018
20
18.4169843477953
30
0.0
41
1.0
10
-45.3641255358205
20
18.2256571852042
30
0.0
41
1.0
10
-45.4427838702202
20
18.0320983355963
30
0.0
41
1.0
10
-45.5161637063719
20
17.8366617143062
30
0.0
41
1.0
10
-45.5841515296401
20
17.6397096930843
30
0.0
41
1.0
10
-45.6466603263682
20
17.4416104737014
30
0.0
41
1.0
10
-45.7036301019271
20
17.2427353807469
30
0.0
41
1.0
10
-45.75502816074
20
17.0434560810935
30
0.0
41
1.0
10
-45.8008491450898
20
16.8441417368073
30
0.0
41
1.0
10
-45.8411148296511
20
16.6451560972931
30
0.0
41
1.0
10
-45.87587366883
20
16.4468545351397
30
0.0
41
1.0
10
-45.9052000941495
20
16.2495810284262
30
0.0
41
1.0
10
-45.9291935590609
20
16.0536650900861
30
0.0
41
1.0
10
-45.947977328722
20
15.8594186422388
30
0.0
41
1.0
10
-45.9616970124595
20
15.6671328300756
30
0.0
41
1.0
10
-45.9705188368783
20
15.4770747658091
30
0.0
41
1.0
10
-45.9746276579455
20
15.2894841882117
30
0.0
41
1.0
10
-45.9742247109797
20
15.104570017193
30
0.0
41
1.0
10
-45.9695250984569
20
14.9225067754764
30
0.0
41
1.0
10
-45.9607550171693
20
14.7434308404699
30
0.0
41
1.0
10
-45.9481487288857
20
14.5674364785722
30
0.0
41
1.0
10
-45.9319452828126
20
14.3945716010822
30
0.0
41
1.0
10
-45.9123850046375
20
14.2248331652091
30
0.0
41
1.0
10
-45.8897057769008
20
14.0581621250852
30
0.0
41
1.0
10
-45.8641391505844
20
13.8944378159173
30
0.0
41
1.0
10
-45.8359063505563
20
13.7334716294818
30
0.0
41
1.0
10
-45.8052142713722
20
13.5749998116104
30
0.0
41
1.0
10
-45.7722516098911
20
13.4186751836307
30
0.0
41
1.0
10
-45.7371853542314
20
13.2640575632028
30
0.0
41
1.0
10
-45.7001579544874
20
13.1106026420269
30
0.0
41
1.0
10
-45.6612856524677
20
12.9576490801329
30
0.0
41
1.0
10
-45.6206586625461
20
12.804403619339
30
0.0
41
1.0
10
-45.5783441942658
20
12.6499241366069
30
0.0
41
1.0
10
-45.5343937118576
20
12.4931008084068
30
0.0
41
1.0
10
-45.4888563534897
20
12.3326360305508
30
0.0
41
1.0
10
-45.4418010805496
20
12.1670245728956
30
0.0
41
1.0
10
-45.3933508386914
20
11.9945368445121
30
0.0
41
1.0
10
-45.34373261919
20
11.813210363616
30
0.0
41
1.0
10
-45.2933474284735
20
11.6208578499176
30
0.0
41
1.0
10
-45.2428630617174
20
11.4151049482622
30
0.0
41
1.0
10
-45.1933289747363
20
11.1934761568315
30
0.0
41
1.0
10
-45.146304675502
20
10.9535526598596
30
0.0
41
1.0
10
-45.1039791162418
20
10.6932269305275
30
0.0
41
1.0
10
-45.0692384096991
20
10.411069641562
30
0.0
41
1.0
10
-45.0456176535617
20
10.1067957507044
30
0.0
41
1.0
10
-45.0370635772681
20
9.78176254375027
30
0.0
41
1.0
10
-45.0474609073918
20
9.4393612102769
30
0.0
41
1.0
10
-45.0799557008978
20
9.08511086198617
30
0.0
41
1.0
10
-45.1362303849039
20
8.72628853199868
30
0.0
41
1.0
10
-45.2159815495851
20
8.37107009449388
30
0.0
41
1.0
10
-45.3168321953163
20
8.02737288739078
30
0.0
41
1.0
10
-45.4347462008575
20
7.70175006068641
30
0.0
41
1.0
10
-45.564793971022
20
7.39866869439754
30
0.0
41
1.0
10
-45.7019893332114
20
7.12031757337235
30
0.0
41
1.0
10
-45.8419475652732
20
6.86686908228479
30
0.0
41
1.0
10
-45.9812482193115
20
6.63699310846968
30
0.0
41
1.0
10
-46.1175204469881
20
6.42841970875932
30
0.0
41
1.0
10
-46.2493402157726
20
6.23841936018144
30
0.0
41
1.0
10
-46.3760372807222
20
6.06415011984285
30
0.0
41
1.0
10
-46.4974844058745
20
5.90287548964401
30
0.0
41
1.0
10
-46.6139094206696
20
5.75208119841091
30
0.0
41
1.0
10
-46.7257459753808
20
5.60952327859064
30
0.0
41
1.0
10
-46.8335241664648
20
5.47323450878508
30
0.0
41
1.0
10
-46.9377954114033
20
5.3415085298649
30
0.0
41
1.0
10
-47.0390839696875
20
5.21287400472351
30
0.0
41
1.0
10
-47.1378579059236
20
5.08606606252316
30
0.0
41
1.0
10
-47.2345135888222
20
4.9599988712672
30
0.0
41
1.0
10
-47.329369256513
20
4.83374110459565
30
0.0
41
1.0
10
-47.4226644349776
20
4.70649488398157
30
0.0
41
1.0
10
-47.5145629821345
20
4.57757815325059
30
0.0
41
1.0
10
-47.6051582567151
20
4.44641014957038
30
0.0
41
1.0
10
-47.6944794254409
20
4.31249952772072
30
0.0
41
1.0
10
-47.7824982758145
20
4.17543468431578
30
0.0
41
1.0
10
-47.8691361398416
20
4.03487586474317
30
0.0
41
1.0
10
-47.954270691052
20
3.89054868976937
30
0.0
41
1.0
10
-48.0377424788944
20
3.74223879634911
30
0.0
41
1.0
10
-48.119361129096
20
3.58978734111194
30
0.0
41
1.0
10
-48.1989111784495
20
3.43308716241081
30
0.0
41
1.0
10
-48.276157536271
20
3.27207943701244
30
0.0
41
1.0
10
-48.3508505781843
20
3.10675070084321
30
0.0
41
1.0
10
-48.4227308847532
20
2.93713013048149
30
0.0
41
1.0
10
-48.4915336403035
20
2.76328700422454
30
0.0
41
1.0
10
-48.5569927076862
20
2.5853282794469
30
0.0
41
1.0
10
-48.6188443937892
20
2.40339623739447
30
0.0
41
1.0
10
-48.6768309189681
20
2.21766615819091
30
0.0
41
1.0
10
-48.7307036016541
20
2.02834399822531
30
0.0
41
1.0
10
-48.7802257674644
20
1.83566404968376
30
0.0
41
1.0
10
-48.8251753903229
20
1.63988656814291
30
0.0
41
1.0
10
-48.8653474714753
20
1.44129535914183
30
0.0
41
1.0
10
-48.9005561608926
20
1.24019531871185
30
0.0
41
1.0
10
-48.9306366243898
20
1.03690992615041
30
0.0
41
1.0
10
-48.9554466588514
20
0.831778690006796
30
0.0
41
1.0
10
-48.9748680572181
20
0.625154550415234
30
0.0
41
1.0
10
-48.9888077243315
20
0.417401242644055
30
0.0
41
1.0
10
-48.9971985443289
20
0.2088906280916
30
0.0
41
1.0
10
-49.0
20
0.00000000000002691
30
0.0
41
1.0
10
-48.9971985443289
20
-0.208890628091555
30
0.0
41
1.0
10
-48.9888077243315
20
-0.417401242644021
30
0.0
41
1.0
10
-48.9748680572181
20
-0.6251545504152
30
0.0
41
1.0
10
-48.9554466588514
20
-0.831778690006763
30
0.0
41
1.0
10
-48.9306366243898
20
-1.03690992615037
30
0.0
41
1.0
10
-48.9005561608926
20
-1.24019531871182
30
0.0
41
1.0
10
-48.8653474714753
20
-1.4412953591418
30
0.0
41
1.0
10
-48.8251753903229
20
-1.63988656814288
30
0.0
41
1.0
10
-48.7802257674644
20
-1.83566404968373
30
0.0
41
1.0
10
-48.7307036016541
20
-2.02834399822528
30
0.0
41
1.0
10
-48.6768309189681
20
-2.21766615819088
30
0.0
41
1.0
10
-48.6188443937892
20
-2.40339623739442
30
0.0
41
1.0
10
-48.5569927076862
20
-2.58532827944687
30
0.0
41
1.0
10
-48.4915336403035
20
-2.76328700422451
30
0.0
41
1.0
10
-48.4227308847532
20
-2.93713013048147
30
0.0
41
1.0
10
-48.3508505781843
20
-3.10675070084318
30
0.0
41
1.0
10
-48.276157536271
20
-3.27207943701239
30
0.0
41
1.0
10
-48.1989111784495
20
-3.43308716241078
30
0.0
41
1.0
10
-48.119361129096
20
-3.58978734111191
30
0.0
41
1.0
10
-48.0377424788944
20
-3.74223879634909
30
0.0
41
1.0
10
-47.954270691052
20
-3.89054868976934
30
0.0
41
1.0
10
-47.8691361398416
20
-4.03487586474315
30
0.0
41
1.0
10
-47.7824982758145
20
-4.17543468431576
30
0.0
41
1.0
10
-47.6944794254409
20
-4.3124995277207
30
0.0
41
1.0
10
-47.6051582567152
20
-4.44641014957036
30
0.0
41
1.0
10
-47.5145629821345
20
-4.57757815325057
30
0.0
41
1.0
10
-47.4226644349776
20
-4.70649488398155
30
0.0
41
1.0
10
-47.329369256513
20
-4.83374110459563
30
0.0
41
1.0
10
-47.2345135888223
20
-4.95999887126717
30
0.0
41
1.0
10
-47.1378579059236
20
-5.08606606252314
30
0.0
41
1.0
10
-47.0390839696875
20
-5.21287400472349
30
0.0
41
1.0
10
-46.9377954114034
20
-5.34150852986488
30
0.0
41
1.0
10
-46.8335241664649
20
-5.47323450878505
30
0.0
41
1.0
10
-46.7257459753808
20
-5.60952327859061
30
0.0
41
1.0
10
-46.6139094206696
20
-5.75208119841089
30
0.0
41
1.0
10
-46.4974844058745
20
-5.90287548964398
30
0.0
41
1.0
10
-46.3760372807222
20
-6.06415011984282
30
0.0
41
1.0
10
-46.2493402157726
20
-6.23841936018141
30
0.0
41
1.0
10
-46.1175204469881
20
-6.42841970875928
30
0.0
41
1.0
10
-45.9812482193115
20
-6.63699310846965
30
0.0
41
1.0
10
-45.8419475652732
20
-6.86686908228473
30
0.0
41
1.0
10
-45.7019893332114
20
-7.1203175733723
30
0.0
41
1.0
10
-45.5647939710221
20
-7.39866869439749
30
0.0
41
1.0
10
-45.4347462008575
20
-7.70175006068636
30
0.0
41
1.0
10
-45.3168321953163
20
-8.02737288739072
30
0.0
41
1.0
10
-45.2159815495851
20
-8.37107009449378
30
0.0
41
1.0
10
-45.1362303849039
20
-8.7262885319986
30
0.0
41
1.0
10
-45.0799557008978
20
-9.08511086198611
30
0.0
41
1.0
10
-45.0474609073918
20
-9.43936121027684
30
0.0
41
1.0
10
-45.0370635772681
20
-9.78176254375022
30
0.0
41
1.0
10
-45.0456176535617
20
-10.1067957507043
30
0.0
41
1.0
10
-45.0692384096991
20
-10.411069641562
30
0.0
41
1.0
10
-45.1039791162418
20
-10.6932269305275
30
0.0
41
1.0
10
-45.146304675502
20
-10.9535526598596
30
0.0
41
1.0
10
-45.1933289747363
20
-11.1934761568314
30
0.0
41
1.0
10
-45.2428630617174
20
-11.4151049482622
30
0.0
41
1.0
10
-45.2933474284735
20
-11.6208578499176
30
0.0
41
1.0
10
-45.34373261919
20
-11.8132103636159
30
0.0
41
1.0
10
-45.3933508386913
20
-11.9945368445121
30
0.0
41
1.0
10
-45.4418010805496
20
-12.1670245728956
30
0.0
41
1.0
10
-45.4888563534897
20
-12.3326360305508
30
0.0
41
1.0
10
-45.5343937118576
20
-12.4931008084067
30
0.0
41
1.0
10
-45.5783441942658
20
-12.6499241366069
30
0.0
41
1.0
10
-45.6206586625461
20
-12.804403619339
30
0.0
41
1.0
10
-45.6612856524677
20
-12.9576490801329
30
0.0
41
1.0
10
-45.7001579544874
20
-13.1106026420268
30
0.0
41
1.0
10
-45.7371853542314
20
-13.2640575632027
30
0.0
41
1.0
10
-45.7722516098911
20
-13.4186751836307
30
0.0
41
1.0
10
-45.8052142713722
20
-13.5749998116104
30
0.0
41
1.0
10
-45.8359063505563
20
-13.7334716294817
30
0.0
41
1.0
10
-45.8641391505844
20
-13.8944378159173
30
0.0
41
1.0
10
-45.8897057769008
20
-14.0581621250852
30
0.0
41
1.0
10
-45.9123850046375
20
-14.2248331652091
30
0.0
41
1.0
10
-45.9319452828126
20
-14.3945716010822
30
0.0
41
1.0
10
-45.9481487288857
20
-14.5674364785721
30
0.0
41
1.0
10
-45.9607550171693
20
-14.7434308404698
30
0.0
41
1.0
10
-45.9695250984569
20
-14.9225067754764
30
0.0
41
1.0
10
-45.9742247109797
20
-15.1045700171929
30
0.0
41
1.0
10
-45.9746276579455
20
-15.2894841882117
30
0.0
41
1.0
10
-45.9705188368783
20
-15.477074765809
30
0.0
41
1.0
10
-45.9616970124595
20
-15.6671328300756
30
0.0
41
1.0
10
-45.947977328722
20
-15.8594186422388
30
0.0
41
1.0
10
-45.9291935590609
20
-16.0536650900861
30
0.0
41
1.0
10
-45.9052000941495
20
-16.2495810284262
30
0.0
41
1.0
10
-45.87587366883
20
-16.4468545351396
30
0.0
41
1.0
10
-45.8411148296511
20
-16.645156097293
30
0.0
41
1.0
10
-45.8008491450898
20
-16.8441417368073
30
0.0
41
1.0
10
-45.75502816074
20
-17.0434560810934
30
0.0
41
1.0
10
-45.7036301019272
20
-17.2427353807469
30
0.0
41
1.0
10
-45.6466603263682
20
-17.4416104737014
30
0.0
41
1.0
10
-45.5841515296401
20
-17.6397096930842
30
0.0
41
1.0
10
-45.516163706372
20
-17.8366617143061
30
0.0
41
1.0
10
-45.4427838702202
20
-18.0320983355963
30
0.0
41
1.0
10
-45.3641255358205
20
-18.2256571852042
30
0.0
41
1.0
10
-45.280327966018
20
-18.4169843477953
30
0.0
41
1.0
10
-45.1915551877437
20
-18.6057369021344
30
0.0
41
1.0
10
-45.0979947799096
20
-18.791585361958
30
0.0
41
1.0
10
-44.999856436611
20
-18.974216011967
30
0.0
41
1.0
10
-44.8973703087327
20
-19.1533331311184
30
0.0
41
1.0
10
-44.7907851267241
20
-19.3286610958526
30
0.0
41
1.0
10
-44.6803661068001
20
-19.4999463565735
30
0.0
41
1.0
10
-44.5663926421133
20
-19.666959281611
30
0.0
41
1.0
10
-44.4491557794822
20
-19.8294958640671
30
0.0
41
1.0
10
-44.3289554809998
20
-19.9873792884111
30
0.0
41
1.0
10
-44.2060976682517
20
-20.1404613555068
30
0.0
41
1.0
10
-44.080891044871
20
-20.28862376698
30
0.0
41
1.0
10
-43.9536436906968
20
-20.4317792725916
30
0.0
41
1.0
10
-43.8246594178274
20
-20.5698726876715
30
0.0
41
1.0
10
-43.6942338752923
20
-20.7028817918985
30
0.0
41
1.0
10
-43.5626503848761
20
-20.8308181259871
30
0.0
41
1.0
10
-43.4301754857608
20
-20.953727709499
30
0.0
41
1.0
10
-43.2970541601368
20
-21.0716917114326
30
0.0
41
1.0
10
-43.1635047058374
20
-21.1848271160043
30
0.0
41
1.0
10
-43.0297132155982
20
-21.2932874398451
30
0.0
41
1.0
10
-42.8958276161438
20
-21.3972635746095
30
0.0
41
1.0
10
-42.7619512147517
20
-21.4969848519554
30
0.0
41
1.0
10
-42.6281356975516
20
-21.5927204575182
30
0.0
41
1.0
10
-42.4943735248326
20
-21.6847813587896
30
0.0
41
1.0
10
-42.3605896776616
20
-21.7735229610065
30
0.0
41
1.0
10
-42.2266327329708
20
-21.8593487678401
30
0.0
41
1.0
10
-42.0922652900624
20
-21.9427154024319
30
0.0
41
1.0
10
-41.9571538543668
20
-22.0241394410289
30
0.0
41
1.0
10
-41.8208584258707
20
-22.1042066257959
30
0.0
41
1.0
10
-41.6828222722196
20
-22.1835841498885
30
0.0
41
1.0
10
-41.5423627371467
20
-22.2630368305577
30
0.0
41
1.0
10
-41.3986645094776
20
-22.3434480686671
30
0.0
41
1.0
10
-41.2507776430987
20
-22.4258464626056
30
0.0
41
1.0
10
-41.0976238756193
20
-22.5114386653835
30
0.0
41
1.0
10
-40.9380165346232
20
-22.6016483092482
30
0.0
41
1.0
10
-40.7707015603693
20
-22.6981591897472
30
0.0
41
1.0
10
-40.5944297053322
20
-22.8029578403661
30
0.0
41
1.0
10
-40.4080720930421
20
-22.9183654471866
30
0.0
41
1.0
10
-40.2107914147811
20
-23.0470411902554
30
0.0
41
1.0
10
-40.0022761169838
20
-23.1919288530247
30
0.0
41
1.0
10
-39.783030569395
20
-23.356108517608
30
0.0
41
1.0
10
-39.5546860557374
20
-23.5425122922504
30
0.0
41
1.0
10
-39.320255799079
20
-23.7534796153377
30
0.0
41
1.0
10
-39.0842150044211
20
-23.9901776080555
30
0.0
41
1.0
10
-38.8522754514854
20
-24.2519971203777
30
0.0
41
1.0
10
-38.6307836526768
20
-24.5361251958675
30
0.0
41
1.0
10
-38.425814528319
20
-24.8375217701474
30
0.0
41
1.0
10
-38.2422014077179
20
-25.1494277800097
30
0.0
41
1.0
10
-38.0828218780716
20
-25.4643183660674
30
0.0
41
1.0
10
-37.9483673918499
20
-25.775010859985
30
0.0
41
1.0
10
-37.8376102747283
20
-26.0755828743709
30
0.0
41
1.0
10
-37.7479884176617
20
-26.361878748536
30
0.0
41
1.0
10
-37.6762638201324
20
-26.6315800688125
30
0.0
41
1.0
10
-37.6190710968461
20
-26.8839621518706
30
0.0
41
1.0
10
-37.5732786804321
20
-27.1195022692879
30
0.0
41
1.0
10
-37.5361704779681
20
-27.3394731787334
30
0.0
41
1.0
10
-37.5054960757539
20
-27.5455974965504
30
0.0
41
1.0
10
-37.4794428459834
20
-27.7397890012497
30
0.0
41
1.0
10
-37.4565717118678
20
-27.9239772481364
30
0.0
41
1.0
10
-37.4357432357925
20
-28.0999992118179
30
0.0
41
1.0
10
-37.4160483186213
20
-28.269539407035
30
0.0
41
1.0
10
-37.3967495905621
20
-28.434102453573
30
0.0
41
1.0
10
-37.3772348950643
20
-28.5950059523735
30
0.0
41
1.0
10
-37.3569819765386
20
-28.7533852190023
30
0.0
41
1.0
10
-37.3355325972806
20
-28.9102043264107
30
0.0
41
1.0
10
-37.3124741571297
20
-29.0662699957473
30
0.0
41
1.0
10
-37.287427069097
20
-29.222246283621
30
0.0
41
1.0
10
-37.2600364382186
20
-29.3786689243892
30
0.0
41
1.0
10
-37.2299668934785
20
-29.5359587516317
30
0.0
41
1.0
10
-37.1968996895651
20
-29.6944339612296
30
0.0
41
1.0
10
-37.1605314134114
20
-29.8543211716941
30
0.0
41
1.0
10
-37.1205738011895
20
-30.0157653407331
30
0.0
41
1.0
10
-37.076754301415
20
-30.1788386462138
30
0.0
41
1.0
10
-37.0288171170863
20
-30.3435484573024
30
0.0
41
1.0
10
-36.9765245317448
20
-30.5098445215879
30
0.0
41
1.0
10
-36.9196583772071
20
-30.6776254849179
30
0.0
41
1.0
10
-36.858021539399
20
-30.8467448474727
30
0.0
41
1.0
10
-36.7914394269701
20
-31.017016445154
30
0.0
41
1.0
10
-36.7197613480022
20
-31.1882195312254
30
0.0
41
1.0
10
-36.642861755231
20
-31.360103520087
30
0.0
41
1.0
10
-36.5606413312966
20
-31.5323924434497
30
0.0
41
1.0
10
-36.4730278937415
20
-31.7047891590494
30
0.0
41
1.0
10
-36.3799771055815
20
-31.8769793433764
30
0.0
41
1.0
10
-36.2814729818664
20
-32.0486352925411
30
0.0
41
1.0
10
-36.1775281861482
20
-32.219419549235
30
0.0
41
1.0
10
-36.0681841134745
20
-32.3889883686006
30
0.0
41
1.0
10
-35.9535107586411
20
-32.5569950315718
30
0.0
41
1.0
10
-35.8336063701296
20
-32.7230930107479
30
0.0
41
1.0
10
-35.7085968915187
20
-32.8869389910216
30
0.0
41
1.0
10
-35.5786351932748
20
-33.0481957448781
30
0.0
41
1.0
10
-35.4439000987452
20
-33.2065348604613
30
0.0
41
1.0
10
-35.3045952089287
20
-33.3616393190714
30
0.0
41
1.0
10
-35.1609475312057
20
-33.5132059176736
30
0.0
41
1.0
10
-35.0132059176736
20
-33.6609475312057
30
0.0
41
1.0
10
-34.8616393190714
20
-33.8045952089287
30
0.0
41
1.0
10
-34.7065348604614
20
-33.9439000987451
30
0.0
41
1.0
10
-34.5481957448782
20
-34.0786351932748
30
0.0
41
1.0
10
-34.3869389910217
20
-34.2085968915187
30
0.0
41
1.0
10
-34.223093010748
20
-34.3336063701296
30
0.0
41
1.0
10
-34.0569950315718
20
-34.4535107586411
30
0.0
41
1.0
10
-33.8889883686007
20
-34.5681841134745
30
0.0
41
1.0
10
-33.719419549235
20
-34.6775281861481
30
0.0
41
1.0
10
-33.5486352925411
20
-34.7814729818663
30
0.0
41
1.0
10
-33.3769793433765
20
-34.8799771055815
30
0.0
41
1.0
10
-33.2047891590495
20
-34.9730278937415
30
0.0
41
1.0
10
-33.0323924434497
20
-35.0606413312966
30
0.0
41
1.0
10
-32.8601035200871
20
-35.142861755231
30
0.0
41
1.0
10
-32.6882195312254
20
-35.2197613480022
30
0.0
41
1.0
10
-32.5170164451541
20
-35.2914394269701
30
0.0
41
1.0
10
-32.3467448474727
20
-35.358021539399
30
0.0
41
1.0
10
-32.177625484918
20
-35.4196583772071
30
0.0
41
1.0
10
-32.0098445215879
20
-35.4765245317448
30
0.0
41
1.0
10
-31.8435484573024
20
-35.5288171170862
30
0.0
41
1.0
10
-31.6788386462138
20
-35.5767543014149
30
0.0
41
1.0
10
-31.5157653407331
20
-35.6205738011895
30
0.0
41
1.0
10
-31.3543211716942
20
-35.6605314134114
30
0.0
41
1.0
10
-31.1944339612296
20
-35.6968996895651
30
0.0
41
1.0
10
-31.0359587516318
20
-35.7299668934785
30
0.0
41
1.0
10
-30.8786689243892
20
-35.7600364382186
30
0.0
41
1.0
10
-30.7222462836211
20
-35.787427069097
30
0.0
41
1.0
10
-30.5662699957473
20
-35.8124741571297
30
0.0
41
1.0
10
-30.4102043264107
20
-35.8355325972806
30
0.0
41
1.0
10
-30.2533852190024
20
-35.8569819765386
30
0.0
41
1.0
10
-30.0950059523735
20
-35.8772348950643
30
0.0
41
1.0
10
-29.9341024535731
20
-35.8967495905621
30
0.0
41
1.0
10
-29.7695394070351
20
-35.9160483186213
30
0.0
41
1.0
10
-29.599999211818
20
-35.9357432357925
30
0.0
41
1.0
10
-29.4239772481365
20
-35.9565717118678
30
0.0
41
1.0
10
-29.2397890012498
20
-35.9794428459834
30
0.0
41
1.0
10
-29.0455974965505
20
-36.0054960757539
30
0.0
41
1.0
10
-28.8394731787334
20
-36.0361704779681
30
0.0
41
1.0
10
-28.619502269288
20
-36.0732786804321
30
0.0
41
1.0
10
-28.3839621518706
20
-36.1190710968461
30
0.0
41
1.0
10
-28.1315800688125
20
-36.1762638201324
30
0.0
41
1.0
10
-27.8618787485361
20
-36.2479884176617
30
0.0
41
1.0
10
-27.575582874371
20
-36.3376102747283
30
0.0
41
1.0
10
-27.2750108599851
20
-36.4483673918499
30
0.0
41
1.0
10
-26.9643183660674
20
-36.5828218780716
30
0.0
41
1.0
10
-26.6494277800097
20
-36.7422014077179
30
0.0
41
1.0
10
-26.3375217701475
20
-36.925814528319
30
0.0
41
1.0
10
-26.0361251958676
20
-37.1307836526768
30
0.0
41
1.0
10
-25.7519971203778
20
-37.3522754514853
30
0.0
41
1.0
10
-25.4901776080556
20
-37.5842150044211
30
0.0
41
1.0
10
-25.2534796153377
20
-37.820255799079
30
0.0
41
1.0
10
-25.0425122922504
20
-38.0546860557374
30
0.0
41
1.0
10
-24.856108517608
20
-38.2830305693949
30
0.0
41
1.0
10
-24.6919288530247
20
-38.5022761169838
30
0.0
41
1.0
10
-24.5470411902555
20
-38.710791414781
30
0.0
41
1.0
10
-24.4183654471867
20
-38.9080720930421
30
0.0
41
1.0
10
-24.3029578403662
20
-39.0944297053321
30
0.0
41
1.0
10
-24.1981591897472
20
-39.2707015603693
30
0.0
41
1.0
10
-24.1016483092482
20
-39.4380165346232
30
0.0
41
1.0
10
-24.0114386653835
20
-39.5976238756193
30
0.0
41
1.0
10
-23.9258464626056
20
-39.7507776430987
30
0.0
41
1.0
10
-23.8434480686672
20
-39.8986645094776
30
0.0
41
1.0
10
-23.7630368305577
20
-40.0423627371467
30
0.0
41
1.0
10
-23.6835841498885
20
-40.1828222722195
30
0.0
41
1.0
10
-23.6042066257959
20
-40.3208584258707
30
0.0
41
1.0
10
-23.5241394410289
20
-40.4571538543668
30
0.0
41
1.0
10
-23.4427154024319
20
-40.5922652900624
30
0.0
41
1.0
10
-23.3593487678401
20
-40.7266327329707
30
0.0
41
1.0
10
-23.2735229610065
20
-40.8605896776615
30
0.0
41
1.0
10
-23.1847813587896
20
-40.9943735248326
30
0.0
41
1.0
10
-23.0927204575182
20
-41.1281356975516
30
0.0
41
1.0
10
-22.9969848519554
20
-41.2619512147516
30
0.0
41
1.0
10
-22.8972635746095
20
-41.3958276161438
30
0.0
41
1.0
10
-22.7932874398451
20
-41.5297132155982
30
0.0
41
1.0
10
-22.6848271160044
20
-41.6635047058374
30
0.0
41
1.0
10
-22.5716917114326
20
-41.7970541601367
30
0.0
41
1.0
10
-22.4537277094991
20
-41.9301754857608
30
0.0
41
1.0
10
-22.3308181259871
20
-42.0626503848761
30
0.0
41
1.0
10
-22.2028817918986
20
-42.1942338752923
30
0.0
41
1.0
10
-22.0698726876715
20
-42.3246594178274
30
0.0
41
1.0
10
-21.9317792725916
20
-42.4536436906968
30
0.0
41
1.0
10
-21.7886237669801
20
-42.5808910448709
30
0.0
41
1.0
10
-21.6404613555068
20
-42.7060976682517
30
0.0
41
1.0
10
-21.4873792884112
20
-42.8289554809997
30
0.0
41
1.0
10
-21.3294958640671
20
-42.9491557794822
30
0.0
41
1.0
10
-21.1669592816111
20
-43.0663926421133
30
0.0
41
1.0
10
-20.9999463565735
20
-43.1803661068
30
0.0
41
1.0
10
-20.8286610958527
20
-43.2907851267241
30
0.0
41
1.0
10
-20.6533331311185
20
-43.3973703087327
30
0.0
41
1.0
10
-20.4742160119671
20
-43.4998564366109
30
0.0
41
1.0
10
-20.291585361958
20
-43.5979947799096
30
0.0
41
1.0
10
-20.1057369021345
20
-43.6915551877436
30
0.0
41
1.0
10
-19.9169843477953
20
-43.780327966018
30
0.0
41
1.0
10
-19.7256571852042
20
-43.8641255358205
30
0.0
41
1.0
10
-19.5320983355963
20
-43.9427838702202
30
0.0
41
1.0
10
-19.3366617143062
20
-44.0161637063719
30
0.0
41
1.0
10
-19.1397096930843
20
-44.0841515296401
30
0.0
41
1.0
10
-18.9416104737014
20
-44.1466603263682
30
0.0
41
1.0
10
-18.7427353807469
20
-44.2036301019272
30
0.0
41
1.0
10
-18.5434560810935
20
-44.25502816074
30
0.0
41
1.0
10
-18.3441417368073
20
-44.3008491450898
30
0.0
41
1.0
10
-18.1451560972931
20
-44.3411148296511
30
0.0
41
1.0
10
-17.9468545351397
20
-44.37587366883
30
0.0
41
1.0
10
-17.7495810284262
20
-44.4052000941495
30
0.0
41
1.0
10
-17.5536650900862
20
-44.4291935590609
30
0.0
41
1.0
10
-17.3594186422388
20
-44.447977328722
30
0.0
41
1.0
10
-17.1671328300756
20
-44.4616970124595
30
0.0
41
1.0
10
-16.9770747658091
20
-44.4705188368783
30
0.0
41
1.0
10
-16.7894841882117
20
-44.4746276579455
30
0.0
41
1.0
10
-16.604570017193
20
-44.4742247109797
30
0.0
41
1.0
10
-16.4225067754764
20
-44.4695250984569
30
0.0
41
1.0
10
-16.2434308404699
20
-44.4607550171693
30
0.0
41
1.0
10
-16.0674364785722
20
-44.4481487288858
30
0.0
41
1.0
10
-15.8945716010822
20
-44.4319452828126
30
0.0
41
1.0
10
-15.7248331652091
20
-44.4123850046375
30
0.0
41
1.0
10
-15.5581621250853
20
-44.3897057769008
30
0.0
41
1.0
10
-15.3944378159173
20
-44.3641391505844
30
0.0
41
1.0
10
-15.2334716294818
20
-44.3359063505563
30
0.0
41
1.0
10
-15.0749998116105
20
-44.3052142713722
30
0.0
41
1.0
10
-14.9186751836307
20
-44.2722516098911
30
0.0
41
1.0
10
-14.7640575632028
20
-44.2371853542314
30
0.0
41
1.0
10
-14.6106026420269
20
-44.2001579544874
30
0.0
41
1.0
10
-14.4576490801329
20
-44.1612856524677
30
0.0
41
1.0
10
-14.304403619339
20
-44.1206586625461
30
0.0
41
1.0
10
-14.149924136607
20
-44.0783441942658
30
0.0
41
1.0
10
-13.9931008084068
20
-44.0343937118576
30
0.0
41
1.0
10
-13.8326360305508
20
-43.9888563534897
30
0.0
41
1.0
10
-13.6670245728956
20
-43.9418010805496
30
0.0
41
1.0
10
-13.4945368445121
20
-43.8933508386914
30
0.0
41
1.0
10
-13.3132103636159
20
-43.84373261919
30
0.0
41
1.0
10
-13.1208578499176
20
-43.7933474284735
30
0.0
41
1.0
10
-12.9151049482623
20
-43.7428630617174
30
0.0
41
1.0
10
-12.6934761568315
20
-43.6933289747363
30
0.0
41
1.0
10
-12.4535526598596
20
-43.646304675502
30
0.0
41
1.0
10
-12.1932269305275
20
-43.6039791162418
30
0.0
41
1.0
10
-11.911069641562
20
-43.5692384096992
30
0.0
41
1.0
10
-11.6067957507044
20
-43.5456176535617
30
0.0
41
1.0
10
-11.2817625437503
20
-43.5370635772681
30
0.0
41
1.0
10
-10.9393612102769
20
-43.5474609073918
30
0.0
41
1.0
10
-10.5851108619861
20
-43.5799557008978
30
0.0
41
1.0
10
-10.2262885319987
20
-43.6362303849039
30
0.0
41
1.0
10
-9.87107009449388
20
-43.7159815495851
30
0.0
41
1.0
10
-9.52737288739082
20
-43.8168321953162
30
0.0
41
1.0
10
-9.20175006068641
20
-43.9347462008575
30
0.0
41
1.0
10
-8.89866869439755
20
-44.064793971022
30
0.0
41
1.0
10
-8.62031757337237
20
-44.2019893332114
30
0.0
41
1.0
10
-8.36686908228477
20
-44.3419475652732
30
0.0
41
1.0
10
-8.13699310846968
20
-44.4812482193115
30
0.0
41
1.0
10
-7.92841970875934
20
-44.617520446988
30
0.0
41
1.0
10
-7.73841936018145
20
-44.7493402157725
30
0.0
41
1.0
10
-7.56415011984285
20
-44.8760372807222
30
0.0
41
1.0
10
-7.402875489644
20
-44.9974844058745
30
0.0
41
1.0
10
-7.25208119841094
20
-45.1139094206696
30
0.0
41
1.0
10
-7.10952327859065
20
-45.2257459753808
30
0.0
41
1.0
10
-6.97323450878508
20
-45.3335241664648
30
0.0
41
1.0
10
-6.84150852986491
20
-45.4377954114033
30
0.0
41
1.0
10
-6.7128740047235
20
-45.5390839696875
30
0.0
41
1.0
10
-6.58606606252317
20
-45.6378579059236
30
0.0
41
1.0
10
-6.4599988712672
20
-45.7345135888222
30
0.0
41
1.0
10
-6.33374110459567
20
-45.829369256513
30
0.0
41
1.0
10
-6.20649488398157
20
-45.9226644349776
30
0.0
41
1.0
10
-6.07757815325059
20
-46.0145629821345
30
0.0
41
1.0
10
-5.9464101495704
20
-46.1051582567151
30
0.0
41
1.0
10
-5.81249952772071
20
-46.194479425441
30
0.0
41
1.0
10
-5.67543468431578
20
-46.2824982758145
30
0.0
41
1.0
10
-5.53487586474319
20
-46.3691361398416
30
0.0
41
1.0
10
-5.39054868976939
20
-46.4542706910519
30
0.0
41
1.0
10
-5.24223879634911
20
-46.5377424788944
30
0.0
41
1.0
10
-5.08978734111194
20
-46.619361129096
30
0.0
41
1.0
10
-4.93308716241083
20
-46.6989111784495
30
0.0
41
1.0
10
-4.77207943701243
20
-46.776157536271
30
0.0
41
1.0
10
-4.60675070084321
20
-46.8508505781843
30
0.0
41
1.0
10
-4.43713013048152
20
-46.9227308847532
30
0.0
41
1.0
10
-4.26328700422456
20
-46.9915336403035
30
0.0
41
1.0
10
-4.0853282794469
20
-47.0569927076861
30
0.0
41
1.0
10
-3.90339623739447
20
-47.1188443937892
30
0.0
41
1.0
10
-3.71766615819094
20
-47.1768309189681
30
0.0
41
1.0
10
-3.52834399822531
20
-47.2307036016541
30
0.0
41
1.0
10
-3.33566404968377
20
-47.2802257674644
30
0.0
41
1.0
10
-3.13988656814293
20
-47.3251753903229
30
0.0
41
1.0
10
-2.9412953591418
20
-47.3653474714753
30
0.0
41
1.0
10
-2.74019531871185
20
-47.4005561608926
30
0.0
41
1.0
10
-2.53690992615044
20
-47.4306366243898
30
0.0
41
1.0
10
-2.33177869000682
20
-47.4554466588514
30
0.0
41
1.0
10
-2.12515455041522
20
-47.4748680572181
30
0.0
41
1.0
10
-1.91740124264406
20
-47.4888077243315
30
0.0
41
1.0
10
-1.70889062809161
20
-47.4971985443289
30
0.0
41
1.0
10
-1.50000000000001
20
-47.5
30
0.0
41
1.0
10
-1.29110937190843
20
-47.4971985443289
30
0.0
41
1.0
10
-1.08259875735601
20
-47.4888077243315
30
0.0
41
1.0
10
-0.874845449584822
20
-47.4748680572181
30
0.0
41
1.0
10
-0.668221309993248
20
-47.4554466588514
30
0.0
41
1.0
10
-0.463090073849625
20
-47.4306366243898
30
0.0
41
1.0
10
-0.259804681288214
20
-47.4005561608927
30
0.0
41
1.0
10
-0.0587046408581997
20
-47.3653474714753
30
0.0
41
1.0
10
0.139886568142868
20
-47.3251753903229
30
0.0
41
1.0
10
0.335664049683707
20
-47.2802257674644
30
0.0
41
1.0
10
0.528343998225288
20
-47.2307036016541
30
0.0
41
1.0
10
0.717666158190879
20
-47.1768309189681
30
0.0
41
1.0
10
0.903396237394416
20
-47.1188443937892
30
0.0
41
1.0
10
1.08532827944685
20
-47.0569927076862
30
0.0
41
1.0
10
1.2632870042245
20
-46.9915336403035
30
0.0
41
1.0
10
1.43713013048146
20
-46.9227308847532
30
0.0
41
1.0
10
1.60675070084316
20
-46.8508505781843
30
0.0
41
1.0
10
1.77207943701241
20
-46.776157536271
30
0.0
41
1.0
10
1.93308716241078
20
-46.6989111784495
30
0.0
41
1.0
10
2.08978734111189
20
-46.619361129096
30
0.0
41
1.0
10
2.24223879634907
20
-46.5377424788944
30
0.0
41
1.0
10
2.39054868976934
20
-46.454270691052
30
0.0
41
1.0
10
2.53487586474314
20
-46.3691361398416
30
0.0
41
1.0
10
2.67543468431574
20
-46.2824982758145
30
0.0
41
1.0
10
2.8124995277207
20
-46.1944794254409
30
0.0
41
1.0
10
2.94641014957036
20
-46.1051582567151
30
0.0
41
1.0
10
3.07757815325055
20
-46.0145629821345
30
0.0
41
1.0
10
3.20649488398156
20
-45.9226644349776
30
0.0
41
1.0
10
3.33374110459562
20
-45.829369256513
30
0.0
41
1.0
10
3.45999887126717
20
-45.7345135888223
30
0.0
41
1.0
10
3.58606606252312
20
-45.6378579059236
30
0.0
41
1.0
10
3.71287400472349
20
-45.5390839696875
30
0.0
41
1.0
10
3.84150852986488
20
-45.4377954114034
30
0.0
41
1.0
10
3.97323450878504
20
-45.3335241664649
30
0.0
41
1.0
10
4.10952327859062
20
-45.2257459753808
30
0.0
41
1.0
10
4.2520811984109
20
-45.1139094206696
30
0.0
41
1.0
10
4.40287548964396
20
-44.9974844058745
30
0.0
41
1.0
10
4.5641501198428
20
-44.8760372807222
30
0.0
41
1.0
10
4.7384193601814
20
-44.7493402157726
30
0.0
41
1.0
10
4.92841970875928
20
-44.6175204469881
30
0.0
41
1.0
10
5.13699310846962
20
-44.4812482193115
30
0.0
41
1.0
10
5.36686908228476
20
-44.3419475652732
30
0.0
41
1.0
10
5.6203175733723
20
-44.2019893332114
30
0.0
41
1.0
10
5.89866869439746
20
-44.0647939710221
30
0.0
41
1.0
10
6.20175006068632
20
-43.9347462008575
30
0.0
41
1.0
10
6.52737288739072
20
-43.8168321953163
30
0.0
41
1.0
10
6.87107009449377
20
-43.7159815495851
30
0.0
41
1.0
10
7.22628853199857
20
-43.6362303849039
30
0.0
41
1.0
10
7.5851108619861
20
-43.5799557008978
30
0.0
41
1.0
10
7.93936121027684
20
-43.5474609073918
30
0.0
41
1.0
10
8.28176254375017
20
-43.5370635772681
30
0.0
41
1.0
10
8.60679575070435
20
-43.5456176535617
30
0.0
41
1.0
10
8.91106964156194
20
-43.5692384096991
30
0.0
41
1.0
10
9.19322693052743
20
-43.6039791162418
30
0.0
41
1.0
10
9.45355265985954
20
-43.646304675502
30
0.0
41
1.0
10
9.69347615683142
20
-43.6933289747363
30
0.0
41
1.0
10
9.91510494826221
20
-43.7428630617174
30
0.0
41
1.0
10
10.1208578499176
20
-43.7933474284735
30
0.0
41
1.0
10
10.3132103636159
20
-43.84373261919
30
0.0
41
1.0
10
10.4945368445121
20
-43.8933508386913
30
0.0
41
1.0
10
10.6670245728956
20
-43.9418010805496
30
0.0
41
1.0
10
10.8326360305507
20
-43.9888563534897
30
0.0
41
1.0
10
10.9931008084067
20
-44.0343937118576
30
0.0
41
1.0
10
11.1499241366069
20
-44.0783441942658
30
0.0
41
1.0
10
11.304403619339
20
-44.1206586625461
30
0.0
41
1.0
10
11.4576490801329
20
-44.1612856524677
30
0.0
41
1.0
10
11.6106026420268
20
-44.2001579544873
30
0.0
41
1.0
10
11.7640575632027
20
-44.2371853542314
30
0.0
41
1.0
10
11.9186751836307
20
-44.2722516098911
30
0.0
41
1.0
10
12.0749998116104
20
-44.3052142713722
30
0.0
41
1.0
10
12.2334716294817
20
-44.3359063505563
30
0.0
41
1.0
10
12.3944378159173
20
-44.3641391505844
30
0.0
41
1.0
10
12.5581621250852
20
-44.3897057769008
30
0.0
41
1.0
10
12.7248331652091
20
-44.4123850046375
30
0.0
41
1.0
10
12.8945716010822
20
-44.4319452828126
30
0.0
41
1.0
10
13.0674364785722
20
-44.4481487288858
30
0.0
41
1.0
10
13.2434308404698
20
-44.4607550171693
30
0.0
41
1.0
10
13.4225067754764
20
-44.4695250984569
30
0.0
41
1.0
10
13.6045700171929
20
-44.4742247109797
30
0.0
41
1.0
10
13.7894841882117
20
-44.4746276579455
30
0.0
41
1.0
10
13.9770747658091
20
-44.4705188368783
30
0.0
41
1.0
10
14.1671328300755
20
-44.4616970124595
30
0.0
41
1.0
10
14.3594186422388
20
-44.447977328722
30
0.0
41
1.0
10
14.5536650900861
20
-44.4291935590609
30
0.0
41
1.0
10
14.7495810284262
20
-44.4052000941495
30
0.0
41
1.0
10
14.9468545351396
20
-44.37587366883
30
0.0
41
1.0
10
15.145156097293
20
-44.3411148296511
30
0.0
41
1.0
10
15.3441417368073
20
-44.3008491450898
30
0.0
41
1.0
10
15.5434560810934
20
-44.25502816074
30
0.0
41
1.0
10
15.7427353807469
20
-44.2036301019272
30
0.0
41
1.0
10
15.9416104737014
20
-44.1466603263682
30
0.0
41
1.0
10
16.1397096930842
20
-44.0841515296401
30
0.0
41
1.0
10
16.3366617143061
20
-44.0161637063719
30
0.0
41
1.0
10
16.5320983355963
20
-43.9427838702202
30
0.0
41
1.0
10
16.7256571852042
20
-43.8641255358205
30
0.0
41
1.0
10
16.9169843477952
20
-43.780327966018
30
0.0
41
1.0
10
17.1057369021344
20
-43.6915551877437
30
0.0
41
1.0
10
17.291585361958
20
-43.5979947799096
30
0.0
41
1.0
10
17.474216011967
20
-43.499856436611
30
0.0
41
1.0
10
17.6533331311184
20
-43.3973703087327
30
0.0
41
1.0
10
17.8286610958526
20
-43.2907851267241
30
0.0
41
1.0
10
17.9999463565735
20
-43.1803661068001
30
0.0
41
1.0
10
18.166959281611
20
-43.0663926421134
30
0.0
41
1.0
10
18.3294958640671
20
-42.9491557794822
30
0.0
41
1.0
10
18.4873792884111
20
-42.8289554809998
30
0.0
41
1.0
10
18.6404613555068
20
-42.7060976682517
30
0.0
41
1.0
10
18.78862376698
20
-42.580891044871
30
0.0
41
1.0
10
18.9317792725916
20
-42.4536436906968
30
0.0
41
1.0
10
19.0698726876715
20
-42.3246594178274
30
0.0
41
1.0
10
19.2028817918985
20
-42.1942338752923
30
0.0
41
1.0
10
19.3308181259871
20
-42.0626503848761
30
0.0
41
1.0
10
19.453727709499
20
-41.9301754857608
30
0.0
41
1.0
10
19.5716917114326
20
-41.7970541601368
30
0.0
41
1.0
10
19.6848271160043
20
-41.6635047058374
30
0.0
41
1.0
10
19.7932874398451
20
-41.5297132155982
30
0.0
41
1.0
10
19.8972635746095
20
-41.3958276161438
30
0.0
41
1.0
10
19.9969848519554
20
-41.2619512147517
30
0.0
41
1.0
10
20.0927204575182
20
-41.1281356975516
30
0.0
41
1.0
10
20.1847813587896
20
-40.9943735248326
30
0.0
41
1.0
10
20.2735229610065
20
-40.8605896776616
30
0.0
41
1.0
10
20.3593487678401
20
-40.7266327329708
30
0.0
41
1.0
10
20.4427154024319
20
-40.5922652900624
30
0.0
41
1.0
10
20.5241394410289
20
-40.4571538543668
30
0.0
41
1.0
10
20.6042066257959
20
-40.3208584258707
30
0.0
41
1.0
10
20.6835841498885
20
-40.1828222722196
30
0.0
41
1.0
10
20.7630368305576
20
-40.0423627371468
30
0.0
41
1.0
10
20.8434480686672
20
-39.8986645094776
30
0.0
41
1.0
10
20.9258464626056
20
-39.7507776430987
30
0.0
41
1.0
10
21.0114386653835
20
-39.5976238756193
30
0.0
41
1.0
10
21.1016483092482
20
-39.4380165346232
30
0.0
41
1.0
10
21.1981591897472
20
-39.2707015603693
30
0.0
41
1.0
10
21.3029578403661
20
-39.0944297053322
30
0.0
41
1.0
10
21.4183654471866
20
-38.9080720930422
30
0.0
41
1.0
10
21.5470411902554
20
-38.7107914147811
30
0.0
41
1.0
10
21.6919288530246
20
-38.5022761169839
30
0.0
41
1.0
10
21.8561085176079
20
-38.283030569395
30
0.0
41
1.0
10
22.0425122922503
20
-38.0546860557375
30
0.0
41
1.0
10
22.2534796153377
20
-37.820255799079
30
0.0
41
1.0
10
22.4901776080555
20
-37.5842150044211
30
0.0
41
1.0
10
22.7519971203777
20
-37.3522754514854
30
0.0
41
1.0
10
23.0361251958676
20
-37.1307836526768
30
0.0
41
1.0
10
23.3375217701474
20
-36.925814528319
30
0.0
41
1.0
10
23.6494277800096
20
-36.7422014077179
30
0.0
41
1.0
10
23.9643183660673
20
-36.5828218780716
30
0.0
41
1.0
10
24.275010859985
20
-36.4483673918499
30
0.0
41
1.0
10
24.5755828743709
20
-36.3376102747283
30
0.0
41
1.0
10
24.861878748536
20
-36.2479884176618
30
0.0
41
1.0
10
25.1315800688125
20
-36.1762638201324
30
0.0
41
1.0
10
25.3839621518706
20
-36.1190710968461
30
0.0
41
1.0
10
25.6195022692879
20
-36.0732786804321
30
0.0
41
1.0
10
25.8394731787334
20
-36.0361704779681
30
0.0
41
1.0
10
26.0455974965504
20
-36.0054960757539
30
0.0
41
1.0
10
26.2397890012497
20
-35.9794428459834
30
0.0
41
1.0
10
26.4239772481364
20
-35.9565717118678
30
0.0
41
1.0
10
26.5999992118179
20
-35.9357432357925
30
0.0
41
1.0
10
26.769539407035
20
-35.9160483186213
30
0.0
41
1.0
10
26.934102453573
20
-35.8967495905621
30
0.0
41
1.0
10
27.0950059523735
20
-35.8772348950643
30
0.0
41
1.0
10
27.2533852190023
20
-35.8569819765386
30
0.0
41
1.0
10
27.4102043264107
20
-35.8355325972806
30
0.0
41
1.0
10
27.5662699957472
20
-35.8124741571297
30
0.0
41
1.0
10
27.722246283621
20
-35.7874270690971
30
0.0
41
1.0
10
27.8786689243892
20
-35.7600364382186
30
0.0
41
1.0
10
28.0359587516317
20
-35.7299668934785
30
0.0
41
1.0
10
28.1944339612296
20
-35.6968996895651
30
0.0
41
1.0
10
28.3543211716941
20
-35.6605314134114
30
0.0
41
1.0
10
28.5157653407331
20
-35.6205738011895
30
0.0
41
1.0
10
28.6788386462138
20
-35.576754301415
30
0.0
41
1.0
10
28.8435484573024
20
-35.5288171170863
30
0.0
41
1.0
10
29.0098445215879
20
-35.4765245317448
30
0.0
41
1.0
10
29.1776254849179
20
-35.4196583772071
30
0.0
41
1.0
10
29.3467448474727
20
-35.358021539399
30
0.0
41
1.0
10
29.517016445154
20
-35.2914394269701
30
0.0
41
1.0
10
29.6882195312254
20
-35.2197613480022
30
0.0
41
1.0
10
29.8601035200871
20
-35.142861755231
30
0.0
41
1.0
10
30.0323924434497
20
-35.0606413312966
30
0.0
41
1.0
10
30.2047891590494
20
-34.9730278937415
30
0.0
41
1.0
10
30.3769793433764
20
-34.8799771055816
30
0.0
41
1.0
10
30.5486352925411
20
-34.7814729818663
30
0.0
41
1.0
10
30.7194195492349
20
-34.6775281861482
30
0.0
41
1.0
10
30.8889883686006
20
-34.5681841134745
30
0.0
41
1.0
10
31.0569950315718
20
-34.4535107586411
30
0.0
41
1.0
10
31.2230930107479
20
-34.3336063701296
30
0.0
41
1.0
10
31.3869389910216
20
-34.2085968915187
30
0.0
41
1.0
10
31.5481957448781
20
-34.0786351932749
30
0.0
41
1.0
10
31.7065348604613
20
-33.9439000987452
30
0.0
41
1.0
10
31.8616393190714
20
-33.8045952089287
30
0.0
41
1.0
10
32.0132059176736
20
-33.6609475312057
30
0.0
41
1.0
10
32.1609475312057
20
-33.5132059176736
30
0.0
41
1.0
10
32.3045952089287
20
-33.3616393190714
30
0.0
41
1.0
10
32.4439000987451
20
-33.2065348604614
30
0.0
41
1.0
10
32.5786351932748
20
-33.0481957448781
30
0.0
41
1.0
10
32.7085968915187
20
-32.8869389910216
30
0.0
41
1.0
10
32.8336063701296
20
-32.723093010748
30
0.0
41
1.0
10
32.9535107586411
20
-32.5569950315718
30
0.0
41
1.0
10
33.0681841134745
20
-32.3889883686007
30
0.0
41
1.0
10
33.1775281861481
20
-32.219419549235
30
0.0
41
1.0
10
33.2814729818663
20
-32.0486352925412
30
0.0
41
1.0
10
33.3799771055815
20
-31.8769793433765
30
0.0
41
1.0
10
33.4730278937415
20
-31.7047891590495
30
0.0
41
1.0
10
33.5606413312966
20
-31.5323924434497
30
0.0
41
1.0
10
33.642861755231
20
-31.3601035200871
30
0.0
41
1.0
10
33.7197613480022
20
-31.1882195312254
30
0.0
41
1.0
10
33.7914394269701
20
-31.0170164451541
30
0.0
41
1.0
10
33.858021539399
20
-30.8467448474727
30
0.0
41
1.0
10
33.9196583772071
20
-30.677625484918
30
0.0
41
1.0
10
33.9765245317448
20
-30.5098445215879
30
0.0
41
1.0
10
34.0288171170863
20
-30.3435484573024
30
0.0
41
1.0
10
34.076754301415
20
-30.1788386462138
30
0.0
41
1.0
10
34.1205738011895
20
-30.0157653407331
30
0.0
41
1.0
10
34.1605314134114
20
-29.8543211716942
30
0.0
41
1.0
10
34.1968996895651
20
-29.6944339612296
30
0.0
41
1.0
10
34.2299668934785
20
-29.5359587516318
30
0.0
41
1.0
10
34.2600364382186
20
-29.3786689243892
30
0.0
41
1.0
10
34.287427069097
20
-29.2222462836211
30
0.0
41
1.0
10
34.3124741571297
20
-29.0662699957473
30
0.0
41
1.0
10
34.3355325972806
20
-28.9102043264107
30
0.0
41
1.0
10
34.3569819765386
20
-28.7533852190024
30
0.0
41
1.0
10
34.3772348950643
20
-28.5950059523736
30
0.0
41
1.0
10
34.3967495905621
20
-28.4341024535731
30
0.0
41
1.0
10
34.4160483186213
20
-28.2695394070351
30
0.0
41
1.0
10
34.4357432357925
20
-28.099999211818
30
0.0
41
1.0
10
34.4565717118678
20
-27.9239772481365
30
0.0
41
1.0
10
34.4794428459834
20
-27.7397890012498
30
0.0
41
1.0
10
34.5054960757539
20
-27.5455974965505
30
0.0
41
1.0
10
34.5361704779681
20
-27.3394731787334
30
0.0
41
1.0
10
34.5732786804321
20
-27.119502269288
30
0.0
41
1.0
10
34.6190710968461
20
-26.8839621518706
30
0.0
41
1.0
10
34.6762638201324
20
-26.6315800688126
30
0.0
41
1.0
10
34.7479884176617
20
-26.3618787485361
30
0.0
41
1.0
10
34.8376102747283
20
-26.075582874371
30
0.0
41
1.0
10
34.9483673918499
20
-25.7750108599851
30
0.0
41
1.0
10
35.0828218780716
20
-25.4643183660674
30
0.0
41
1.0
10
35.2422014077179
20
-25.1494277800097
30
0.0
41
1.0
10
35.425814528319
20
-24.8375217701475
30
0.0
41
1.0
10
35.6307836526767
20
-24.5361251958677
30
0.0
41
1.0
10
35.8522754514854
20
-24.2519971203778
30
0.0
41
1.0
10
36.0842150044211
20
-23.9901776080556
30
0.0
41
1.0
10
36.320255799079
20
-23.7534796153377
30
0.0
41
1.0
10
36.5546860557374
20
-23.5425122922504
30
0.0
41
1.0
10
36.7830305693949
20
-23.356108517608
30
0.0
41
1.0
10
37.0022761169838
20
-23.1919288530247
30
0.0
41
1.0
10
37.210791414781
20
-23.0470411902555
30
0.0
41
1.0
10
37.4080720930421
20
-22.9183654471867
30
0.0
41
1.0
10
37.5944297053321
20
-22.8029578403662
30
0.0
41
1.0
10
37.7707015603692
20
-22.6981591897472
30
0.0
41
1.0
10
37.9380165346232
20
-22.6016483092482
30
0.0
41
1.0
10
38.0976238756193
20
-22.5114386653835
30
0.0
41
1.0
10
38.2507776430987
20
-22.4258464626056
30
0.0
41
1.0
10
38.3986645094776
20
-22.3434480686672
30
0.0
41
1.0
10
38.5423627371467
20
-22.2630368305577
30
0.0
41
1.0
10
38.6828222722195
20
-22.1835841498885
30
0.0
41
1.0
10
38.8208584258707
20
-22.104206625796
30
0.0
41
1.0
10
38.9571538543668
20
-22.0241394410289
30
0.0
41
1.0
10
39.0922652900624
20
-21.9427154024319
30
0.0
41
1.0
10
39.2266327329707
20
-21.8593487678401
30
0.0
41
1.0
10
39.3605896776616
20
-21.7735229610065
30
0.0
41
1.0
10
39.4943735248325
20
-21.6847813587896
30
0.0
41
1.0
10
39.6281356975516
20
-21.5927204575182
30
0.0
41
1.0
10
39.7619512147516
20
-21.4969848519554
30
0.0
41
1.0
10
39.8958276161438
20
-21.3972635746095
30
0.0
41
1.0
10
40.0297132155982
20
-21.2932874398451
30
0.0
41
1.0
10
40.1635047058374
20
-21.1848271160044
30
0.0
41
1.0
10
40.2970541601367
20
-21.0716917114326
30
0.0
41
1.0
10
40.4301754857608
20
-20.9537277094991
30
0.0
41
1.0
10
40.5626503848761
20
-20.8308181259871
30
0.0
41
1.0
10
40.6942338752923
20
-20.7028817918986
30
0.0
41
1.0
10
40.8246594178274
20
-20.5698726876715
30
0.0
41
1.0
10
40.9536436906968
20
-20.4317792725916
30
0.0
41
1.0
10
41.0808910448709
20
-20.2886237669801
30
0.0
41
1.0
10
41.2060976682517
20
-20.1404613555068
30
0.0
41
1.0
10
41.3289554809997
20
-19.9873792884112
30
0.0
41
1.0
10
41.4491557794822
20
-19.8294958640671
30
0.0
41
1.0
10
41.5663926421133
20
-19.6669592816111
30
0.0
41
1.0
10
41.6803661068
20
-19.4999463565735
30
0.0
41
1.0
10
41.7907851267241
20
-19.3286610958526
30
0.0
41
1.0
10
41.8973703087326
20
-19.1533331311185
30
0.0
41
1.0
10
41.9998564366109
20
-18.9742160119671
30
0.0
41
1.0
10
42.0979947799096
20
-18.791585361958
30
0.0
41
1.0
10
42.1915551877436
20
-18.6057369021345
30
0.0
41
1.0
10
42.280327966018
20
-18.4169843477953
30
0.0
41
1.0
10
42.3641255358205
20
-18.2256571852042
30
0.0
41
1.0
10
42.4427838702202
20
-18.0320983355963
30
0.0
41
1.0
10
42.5161637063719
20
-17.8366617143062
30
0.0
41
1.0
10
42.5841515296401
20
-17.6397096930843
30
0.0
41
1.0
10
42.6466603263682
20
-17.4416104737014
30
0.0
41
1.0
10
42.7036301019271
20
-17.242735380747
30
0.0
41
1.0
10
42.75502816074
20
-17.0434560810935
30
0.0
41
1.0
10
42.8008491450898
20
-16.8441417368073
30
0.0
41
1.0
10
42.8411148296511
20
-16.6451560972931
30
0.0
41
1.0
10
42.87587366883
20
-16.4468545351397
30
0.0
41
1.0
10
42.9052000941495
20
-16.2495810284262
30
0.0
41
1.0
10
42.9291935590609
20
-16.0536650900862
30
0.0
41
1.0
10
42.947977328722
20
-15.8594186422389
30
0.0
41
1.0
10
42.9616970124595
20
-15.6671328300756
30
0.0
41
1.0
10
42.9705188368783
20
-15.4770747658091
30
0.0
41
1.0
10
42.9746276579455
20
-15.2894841882117
30
0.0
41
1.0
10
42.9742247109797
20
-15.104570017193
30
0.0
41
1.0
10
42.9695250984569
20
-14.9225067754764
30
0.0
41
1.0
10
42.9607550171694
20
-14.7434308404699
30
0.0
41
1.0
10
42.9481487288857
20
-14.5674364785722
30
0.0
41
1.0
10
42.9319452828126
20
-14.3945716010823
30
0.0
41
1.0
10
42.9123850046375
20
-14.2248331652091
30
0.0
41
1.0
10
42.8897057769008
20
-14.0581621250853
30
0.0
41
1.0
10
42.8641391505844
20
-13.8944378159173
30
0.0
41
1.0
10
42.8359063505563
20
-13.7334716294818
30
0.0
41
1.0
10
42.8052142713722
20
-13.5749998116104
30
0.0
41
1.0
10
42.7722516098911
20
-13.4186751836307
30
0.0
41
1.0
10
42.7371853542314
20
-13.2640575632028
30
0.0
41
1.0
10
42.7001579544874
20
-13.1106026420269
30
0.0
41
1.0
10
42.6612856524677
20
-12.957649080133
30
0.0
41
1.0
10
42.6206586625461
20
-12.804403619339
30
0.0
41
1.0
10
42.5783441942658
20
-12.649924136607
30
0.0
41
1.0
10
42.5343937118576
20
-12.4931008084068
30
0.0
41
1.0
10
42.4888563534897
20
-12.3326360305508
30
0.0
41
1.0
10
42.4418010805496
20
-12.1670245728956
30
0.0
41
1.0
10
42.3933508386914
20
-11.9945368445121
30
0.0
41
1.0
10
42.34373261919
20
-11.813210363616
30
0.0
41
1.0
10
42.2933474284735
20
-11.6208578499176
30
0.0
41
1.0
10
42.2428630617174
20
-11.4151049482623
30
0.0
41
1.0
10
42.1933289747363
20
-11.1934761568315
30
0.0
41
1.0
10
42.146304675502
20
-10.9535526598596
30
0.0
41
1.0
10
42.1039791162418
20
-10.6932269305275
30
0.0
41
1.0
10
42.0692384096992
20
-10.411069641562
30
0.0
41
1.0
10
42.0456176535617
20
-10.1067957507044
30
0.0
41
1.0
10
42.0370635772681
20
-9.78176254375029
30
0.0
41
1.0
10
42.0474609073918
20
-9.43936121027694
30
0.0
41
1.0
10
42.0799557008978
20
-9.08511086198622
30
0.0
41
1.0
10
42.1362303849039
20
-8.72628853199868
30
0.0
41
1.0
10
42.2159815495851
20
-8.37107009449389
30
0.0
41
1.0
10
42.3168321953162
20
-8.02737288739082
30
0.0
41
1.0
10
42.4347462008575
20
-7.70175006068643
30
0.0
41
1.0
10
42.564793971022
20
-7.39866869439754
30
0.0
41
1.0
10
42.7019893332114
20
-7.12031757337239
30
0.0
41
1.0
10
42.8419475652732
20
-6.86686908228482
30
0.0
41
1.0
10
42.9812482193115
20
-6.63699310846969
30
0.0
41
1.0
10
43.117520446988
20
-6.42841970875934
30
0.0
41
1.0
10
43.2493402157725
20
-6.23841936018147
30
0.0
41
1.0
10
43.3760372807222
20
-6.06415011984285
30
0.0
41
1.0
10
43.4974844058745
20
-5.90287548964402
30
0.0
41
1.0
10
43.6139094206696
20
-5.75208119841093
30
0.0
41
1.0
10
43.7257459753808
20
-5.60952327859067
30
0.0
41
1.0
10
43.8335241664648
20
-5.47323450878508
30
0.0
41
1.0
10
43.9377954114033
20
-5.34150852986492
30
0.0
41
1.0
10
44.0390839696875
20
-5.21287400472352
30
0.0
41
1.0
10
44.1378579059236
20
-5.08606606252317
30
0.0
41
1.0
10
44.2345135888222
20
-4.9599988712672
30
0.0
41
1.0
10
44.3293692565129
20
-4.83374110459567
30
0.0
41
1.0
10
44.4226644349776
20
-4.70649488398158
30
0.0
41
1.0
10
44.5145629821345
20
-4.57757815325059
30
0.0
41
1.0
10
44.6051582567151
20
-4.4464101495704
30
0.0
41
1.0
10
44.6944794254409
20
-4.31249952772074
30
0.0
41
1.0
10
44.7824982758145
20
-4.17543468431579
30
0.0
41
1.0
10
44.8691361398416
20
-4.03487586474319
30
0.0
41
1.0
10
44.954270691052
20
-3.89054868976939
30
0.0
41
1.0
10
45.0377424788944
20
-3.74223879634912
30
0.0
41
1.0
10
45.119361129096
20
-3.58978734111194
30
0.0
41
1.0
10
45.1989111784495
20
-3.43308716241083
30
0.0
41
1.0
10
45.276157536271
20
-3.27207943701246
30
0.0
41
1.0
10
45.3508505781843
20
-3.10675070084321
30
0.0
41
1.0
10
45.4227308847532
20
-2.93713013048151
30
0.0
41
1.0
10
45.4915336403035
20
-2.76328700422457
30
0.0
41
1.0
10
45.5569927076862
20
-2.5853282794469
30
0.0
41
1.0
10
45.6188443937892
20
-2.40339623739448
30
0.0
41
1.0
10
45.6768309189681
20
-2.21766615819093
30
0.0
41
1.0
10
45.7307036016541
20
-2.02834399822532
30
0.0
41
1.0
10
45.7802257674644
20
-1.83566404968376
30
0.0
41
1.0
10
45.8251753903229
20
-1.63988656814294
30
0.0
41
1.0
10
45.8653474714753
20
-1.44129535914185
30
0.0
41
1.0
10
45.9005561608926
20
-1.24019531871186
30
0.0
41
1.0
10
45.9306366243898
20
-1.03690992615043
30
0.0
41
1.0
10
45.9554466588514
20
-0.831778690006828
30
0.0
41
1.0
10
45.9748680572181
20
-0.625154550415234
30
0.0
41
1.0
10
45.9888077243315
20
-0.417401242644068
30
0.0
41
1.0
10
45.9971985443289
20
-0.208890628091622
30
0.0
41
1.0
10
46.0
20
-0.00000000000006547
30
0.0
0
CIRCLE
5
22
330
17
100
AcDbEntity
67
0
8
cam
62
256
6
ByLayer
370
-1
48
1.0
60
0
100
AcDbCircle
10
-1.5
20
0.0
30
0.0
40
7.5
39
0.0
210
0.0
220
0.0
230
1.0
0
CIRCLE
5
24
330
17
100
AcDbEntity
67
0
8
roller
62
256
6
ByLayer
370
-1
48
1.0
60
0
100
AcDbCircle
10
50.0
20
0.0
30
0.0
40
4.0
39
0.0
210
0.0
220
0.0
230
1.0
0
CIRCLE
5
25
330
17
100
AcDbEntity
67
0
8
roller
62
256
6
ByLayer
370
-1
48
1.0
60
0
100
AcDbCircle
10
46.6236114702178
20
18.0620833093576
30
0.0
40
4.0
39
0.0
210
0.0
220
0.0
230
1.0
0
CIRCLE
5
26
330
17
100
AcDbEntity
67
0
8
roller
62
256
6
ByLayer
370
-1
48
1.0
60
0
100
AcDbCircle
10
36.950445861033
20
33.6847821823279
30
0.0
40
4.0
39
0.0
210
0.0
220
0.0
230
1.0
0
CIRCLE
5
27
330
17
100
AcDbEntity
67
0
8
roller
62
256
6
ByLayer
370
-1
48
1.0
60
0
100
AcDbCircle
10
22.2869177888269
20
44.7581645677531
30
0.0
40
4.0
39
0.0
210
0.0
220
0.0
230
1.0
0
CIRCLE
5
28
330
17
100
AcDbEntity
67
0
8
roller
62
256
6
ByLayer
370
-1
48
1.0
60
0
100
AcDbCircle
10
4.6134179731651
20
49.7867088147517
30
0.0
40
4.0
39
0.0
210
0.0
220
0.0
230
1.0
0
CIRCLE
5
29
330
17
100
AcDbEntity
67
0
8
roller
62
256
6
ByLayer
370
-1
48
1.0
60
0
100
AcDbCircle
10
-13.6831495036041
20
48.091282158641
30
0.0
40
4.0
39
0.0
210
0.0
220
0.0
230
1.0
0
CIRCLE
5
2A
330
17
100
AcDbEntity
67
0
8
roller
62
256
6
ByLayer
370
-1
48
1.0
60
0
100
AcDbCircle
10
-30.1317318189628
20
39.900861364012
30
0.0
40
4.0
39
0.0
210
0.0
220
0.0
230
1.0
0
CIRCLE
5
2B
330
17
100
AcDbEntity
67
0
8
roller
62
256
6
ByLayer
370
-1
48
1.0
60
0
100
AcDbCircle
10
-42.5108567864807
20
26.3216081438678
30
0.0
40
4.0
39
0.0
210
0.0
220
0.0
230
1.0
0
CIRCLE
5
2C
330
17
100
AcDbEntity
67
0
8
roller
62
256
6
ByLayer
370
-1
48
1.0
60
0
100
AcDbCircle
10
-49.1486549841951
20
9.18747589082852
30
0.0
40
4.0
39
0.0
210
0.0
220
0.0
230
1.0
0
CIRCLE
5
2D
330
17
100
AcDbEntity
67
0
8
roller
62
256
6
ByLayer
370
-1
48
1.0
60
0
100
AcDbCircle
10
-49.1486549841951
20
-9.18747589082851
30
0.0
40
4.0
39
0.0
210
0.0
220
0.0
230
1.0
0
CIRCLE
5
2E
330
17
100
AcDbEntity
67
0
8
roller
62
256
6
ByLayer
370
-1
48
1.0
60
0
100
AcDbCircle
10
-42.5108567864807
20
-26.3216081438678
30
0.0
40
4.0
39
0.0
210
0.0
220
0.0
230
1.0
0
CIRCLE
5
2F
330
17
100
AcDbEntity
67
0
8
roller
62
256
6
ByLayer
370
-1
48
1.0
60
0
100
AcDbCircle
10
-30.1317318189628
20
-39.900861364012
30
0.0
40
4.0
39
0.0
210
0.0
220
0.0
230
1.0
0
CIRCLE
5
30
330
17
100
AcDbEntity
67
0
8
roller
62
256
6
ByLayer
370
-1
48
1.0
60
0
100
AcDbCircle
10
-13.6831495036042
20
-48.091282158641
30
0.0
40
4.0
39
0.0
210
0.0
220
0.0
230
1.0
0
CIRCLE
5
31
330
17
100
AcDbEntity
67
0
8
roller
62
256
6
ByLayer
370
-1
48
1.0
60
0
100
AcDbCircle
10
4.61341797316508
20
-49.7867088147517
30
0.0
40
4.0
39
0.0
210
0.0
220
0.0
230
1.0
0
CIRCLE
5
32
330
17
100
AcDbEntity
67
0
8
roller
62
256
6
ByLayer
370
-1
48
1.0
60
0
100
AcDbCircle
10
22.2869177888269
20
-44.7581645677531
30
0.0
40
4.0
39
0.0
210
0.0
220
0.0
230
1.0
0
CIRCLE
5
33
330
17
100
AcDbEntity
67
0
8
roller
62
256
6
ByLayer
370
-1
48
1.0
60
0
100
AcDbCircle
10
36.950445861033
20
-33.6847821823279
30
0.0
40
4.0
39
0.0
210
0.0
220
0.0
230
1.0
0
CIRCLE
5
34
330
17
100
AcDbEntity
67
0
8
roller
62
256
6
ByLayer
370
-1
48
1.0
60
0
100
AcDbCircle
10
46.6236114702178
20
-18.0620833093577
30
0.0
40
4.0
39
0.0
210
0.0
220
0.0
230
1.0
0
CIRCLE
5
35
330
17
100
AcDbEntity
67
0
8
roller
62
256
6
ByLayer
370
-1
48
1.0
60
0
100
AcDbCircle
10
0.0
20
0.0
30
0.0
40
3.5
39
0.0
210
0.0
220
0.0
230
1.0
0
VIEWPORT
5
3A
330
36
100
AcDbEntity
67
1
8
0
62
256
6
ByLayer
370
-1
48
1.0
60
0
100
AcDbViewport
10
0.0
20
0.0
30
0.0
40
297.0
41
210.0
68
1
69
1
12
50.0
22
100.0
13
0.0
23
0.0
14
10.0
24
10.0
15
10.0
25
10.0
16
0.0
26
0.0
36
1.0
17
0.0
27
0.0
37
0.0
42
50.0
43
0.0
44
0.0
45
250.0
50
0.0
51
0.0
72
1000
90
819232
110
0.0
120
0.0
130
0.0
111
1.0
121
0.0
131
0.0
112
0.0
122
1.0
132
0.0
0
ENDSEC
0
SECTION
2
OBJECTS
0
DICTIONARY
5
3D
330
0
100
AcDbDictionary
280
0
281
1
3
ACAD_GROUP
350
3E
3
ACAD_LAYOUT
350
3F
3
ACAD_MLINESTYLE
350
40
0
DICTIONARY
5
3E
330
3D
100
AcDbDictionary
280
0
281
1
0
DICTIONARY
5
3F
330
3D
100
AcDbDictionary
280
0
281
1
3
Model
350
1B
3
Layout1
350
3B
0
DICTIONARY
5
40
330
3D
100
AcDbDictionary
280
0
281
1
3
Standard
350
16
0
LAYOUT
5
1B
330
3F
100
AcDbPlotSettings
1

2
none_device
4
ISO_A4_(210.00_x_297.00_MM)
6

40
7.5
41
20.0
42
7.5
43
20.0
44
210.0
45
297.0
46
0.0
47
0.0
48
0.0
49
0.0
140
0.0
141
0.0
142
1.0
143
1.0
70
11952
72
1
73
1
74
5
7

75
16
147
1.0
148
0.0
149
0.0
100
AcDbLayout
1
Model
70
1
71
0
10
-20.0
20
-7.5
11
277.0
21
202.5
12
0.0
22
0.0
32
0.0
14
25.7
24
19.5
34
0.0
15
231.3
25
175.5
35
0.0
146
0.0
13
0.0
23
0.0
33
0.0
16
1.0
26
0.0
36
0.0
17
0.0
27
1.0
37
0.0
76
0
330
17
0
LAYOUT
5
3B
330
3F
100
AcDbPlotSettings
1

2
none_device
4
ISO_A4_(210.00_x_297.00_MM)
6

40
7.5
41
20.0
42
7.5
43
20.0
44
210.0
45
297.0
46
0.0
47
0.0
48
0.0
49
0.0
140
0.0
141
0.0
142
1.0
143
1.0
70
688
72
1
73
1
74
5
7

75
16
147
1.0
148
0.0
149
0.0
100
AcDbLayout
1
Layout1
70
1
71
1
10
-20.0
20
-7.5
11
277.0
21
202.5
12
0.0
22
0.0
32
0.0
14
25.7
24
19.5
34
0.0
15
231.3
25
175.5
35
0.0
146
0.0
13
0.0
23
0.0
33
0.0
16
1.0
26
0.0
36
0.0
17
0.0
27
1.0
37
0.0
76
0
330
36
0
MLINESTYLE
5
16
330
40
100
AcDbMlineStyle
2
Standard
70
0
3

62
256
51
90.0
52
90.0
71
2
49
0.5
62
256
6
ByLayer
49
-0.5
62
256
6
ByLayer
0
ENDSEC
0
EOF
