999
Dxf file generated by netDxf http://netdxf.codeplex.com, Copyright(C) 2014 Daniel Carvajal, Licensed under LGPL
0
SECTION
2
HEADER
9
$ACADVER
1
AC1015
9
$DWGCODEPAGE
3
ANSI_1200
9
$HANDSEED
5
42
9
$ANGBASE
50
0.0
9
$ANGDIR
70
0
9
$ATTMODE
70
1
9
$AUNITS
70
0
9
$AUPREC
70
0
9
$CECOLOR
62
256
9
$CELTSCALE
40
1.0
9
$CELTYPE
6
ByLayer
9
$CELWEIGHT
370
-1
9
$CLAYER
8
0
9
$CMLJUST
70
0
9
$CMLSCALE
40
20.0
9
$CMLSTYLE
2
Standard
9
$DIMSTYLE
2
Standard
9
$TEXTSIZE
40
2.5
9
$TEXTSTYLE
7
Standard
9
$LUNITS
70
2
9
$LUPREC
70
4
9
$EXTNAMES
290
1
9
$INSBASE
10
0.0
20
0.0
30
0.0
9
$INSUNITS
70
0
9
$LTSCALE
40
1.0
9
$LWDISPLAY
290
0
9
$PDMODE
70
0
9
$PDSIZE
40
0.0
9
$PLINEGEN
70
0
9
$TDCREATE
40
2460861.12854502
9
$TDUCREATE
40
2460860.96187836
9
$TDUPDATE
40
2460861.12854502
9
$TDUUPDATE
40
2460860.96187836
9
$TDINDWG
40
0.0
0
ENDSEC
0
SECTION
2
CLASSES
0
CLASS
1
RASTERVARIABLES
2
AcDbRasterVariables
3
ISM
90
0
280
0
281
0
0
ENDSEC
0
SECTION
2
TABLES
0
TABLE
2
APPID
5
3
330
0
100
AcDbSymbolTable
70
2
0
APPID
5
14
330
3
100
AcDbSymbolTableRecord
100
AcDbRegAppTableRecord
2
ACAD
70
0
0
APPID
5
3C
330
3
100
AcDbSymbolTableRecord
100
AcDbRegAppTableRecord
2
AcCmTransparency
70
0
0
ENDTAB
0
TABLE
2
VPORT
5
1
330
0
100
AcDbSymbolTable
70
1
0
VPORT
5
E
330
1
100
AcDbSymbolTableRecord
100
AcDbViewportTableRecord
2
*Active
70
0
10
0.0
20
0.0
11
1.0
21
1.0
12
-1.0
22
1.0
13
0.0
23
0.0
14
0.5
24
0.5
15
10.0
25
10.0
16
0.0
26
0.0
36
1.0
17
0.0
27
0.0
37
0.0
0
ENDTAB
0
TABLE
2
LTYPE
5
5
330
0
100
AcDbSymbolTable
70
3
0
LTYPE
5
10
330
5
100
AcDbSymbolTableRecord
100
AcDbLinetypeTableRecord
70
0
2
Continuous
3
Solid line
72
65
73
0
40
0.0
0
LTYPE
5
11
330
5
100
AcDbSymbolTableRecord
100
AcDbLinetypeTableRecord
70
0
2
ByLayer
3

72
65
73
0
40
0.0
0
LTYPE
5
12
330
5
100
AcDbSymbolTableRecord
100
AcDbLinetypeTableRecord
70
0
2
ByBlock
3

72
65
73
0
40
0.0
0
ENDTAB
0
TABLE
2
LAYER
5
4
330
0
100
AcDbSymbolTable
70
4
0
LAYER
5
F
330
4
100
AcDbSymbolTableRecord
100
AcDbLayerTableRecord
2
0
70
0
62
7
6
Continuous
290
1
370
-3
390
0
0
LAYER
5
1D
330
4
100
AcDbSymbolTableRecord
100
AcDbLayerTableRecord
2
pressure
70
0
62
7
6
Continuous
290
1
370
-3
390
0
0
LAYER
5
20
330
4
100
AcDbSymbolTableRecord
100
AcDbLayerTableRecord
2
cam
70
0
62
7
6
Continuous
290
1
370
-3
390
0
0
LAYER
5
23
330
4
100
AcDbSymbolTableRecord
100
AcDbLayerTableRecord
2
roller
70
0
62
7
6
Continuous
290
1
370
-3
390
0
0
ENDTAB
0
TABLE
2
STYLE
5
6
330
0
100
AcDbSymbolTable
70
1
0
STYLE
5
13
330
6
100
AcDbSymbolTableRecord
100
AcDbTextStyleTableRecord
2
Standard
3
simplex.shx
70
0
71
0
40
0.0
41
1.0
42
0.0
50
0.0
0
ENDTAB
0
TABLE
2
DIMSTYLE
5
7
330
0
100
AcDbSymbolTable
70
1
100
AcDbDimStyleTable
0
DIMSTYLE
105
15
330
7
100
AcDbSymbolTableRecord
100
AcDbDimStyleTableRecord
2
Standard
70
0
3
<>
40
1.0
41
0.18
42
0.0625
43
0.38
44
0.18
46
0.0
73
0
74
0
75
0
76
0
77
1
140
0.18
141
0.09
147
0.09
173
0
176
0
177
0
178
0
179
0
271
2
275
0
278
46
280
0
340
13
345
12
346
12
347
12
371
-2
372
-2
0
ENDTAB
0
TABLE
2
VIEW
5
2
330
0
100
AcDbSymbolTable
70
0
0
ENDTAB
0
TABLE
2
UCS
5
9
330
0
100
AcDbSymbolTable
70
0
0
ENDTAB
0
TABLE
2
BLOCK_RECORD
5
A
330
0
100
AcDbSymbolTable
70
2
0
BLOCK_RECORD
5
17
330
A
100
AcDbSymbolTableRecord
100
AcDbBlockTableRecord
2
*Model_Space
340
1B
0
BLOCK_RECORD
5
36
330
A
100
AcDbSymbolTableRecord
100
AcDbBlockTableRecord
2
*Paper_Space
340
3B
0
ENDTAB
0
ENDSEC
0
SECTION
2
BLOCKS
0
BLOCK
5
19
330
17
100
AcDbEntity
8
0
100
AcDbBlockBegin
2
*Model_Space
70
0
10
0.0
20
0.0
30
0.0
3
*Model_Space
0
ENDBLK
5
18
330
17
100
AcDbEntity
8
0
100
AcDbBlockEnd
0
BLOCK
5
38
330
36
100
AcDbEntity
8
0
100
AcDbBlockBegin
2
*Paper_Space
70
0
10
0.0
20
0.0
30
0.0
3
*Paper_Space
0
ENDBLK
5
37
330
36
100
AcDbEntity
8
0
100
AcDbBlockEnd
0
ENDSEC
0
SECTION
2
ENTITIES
0
CIRCLE
5
1E
330
17
100
AcDbEntity
67
0
8
pressure
62
256
6
ByLayer
370
-1
48
1.0
60
0
100
AcDbCircle
10
1.5
20
0.0
30
0.0
40
47.5037129351242
39
0.0
210
0.0
220
0.0
230
1.0
0
CIRCLE
5
1F
330
17
100
AcDbEntity
67
0
8
pressure
62
256
6
ByLayer
370
-1
48
1.0
60
0
100
AcDbCircle
10
1.5
20
0.0
30
0.0
40
44.5014682467885
39
0.0
210
0.0
220
0.0
230
1.0
0
SPLINE
5
21
330
17
100
AcDbEntity
67
0
8
cam
62
256
6
ByLayer
370
-1
48
1.0
60
0
100
AcDbSpline
70
2053
71
3
40
0.0
40
0.0
40
0.0
40
0.0
40
1.0
40
2.0
40
3.0
40
4.0
40
5.0
40
6.0
40
7.0
40
8.0
40
9.0
40
10.0
40
11.0
40
12.0
40
13.0
40
14.0
40
15.0
40
16.0
40
17.0
40
18.0
40
19.0
40
20.0
40
21.0
40
22.0
40
23.0
40
24.0
40
25.0
40
26.0
40
27.0
40
28.0
40
29.0
40
30.0
40
31.0
40
32.0
40
33.0
40
34.0
40
35.0
40
36.0
40
37.0
40
38.0
40
39.0
40
40.0
40
41.0
40
42.0
40
43.0
40
44.0
40
45.0
40
46.0
40
47.0
40
48.0
40
49.0
40
50.0
40
51.0
40
52.0
40
53.0
40
54.0
40
55.0
40
56.0
40
57.0
40
58.0
40
59.0
40
60.0
40
61.0
40
62.0
40
63.0
40
64.0
40
65.0
40
66.0
40
67.0
40
68.0
40
69.0
40
70.0
40
71.0
40
72.0
40
73.0
40
74.0
40
75.0
40
76.0
40
77.0
40
78.0
40
79.0
40
80.0
40
81.0
40
82.0
40
83.0
40
84.0
40
85.0
40
86.0
40
87.0
40
88.0
40
89.0
40
90.0
40
91.0
40
92.0
40
93.0
40
94.0
40
95.0
40
96.0
40
97.0
40
98.0
40
99.0
40
100.0
40
101.0
40
102.0
40
103.0
40
104.0
40
105.0
40
106.0
40
107.0
40
108.0
40
109.0
40
110.0
40
111.0
40
112.0
40
113.0
40
114.0
40
115.0
40
116.0
40
117.0
40
118.0
40
119.0
40
120.0
40
121.0
40
122.0
40
123.0
40
124.0
40
125.0
40
126.0
40
127.0
40
128.0
40
129.0
40
130.0
40
131.0
40
132.0
40
133.0
40
134.0
40
135.0
40
136.0
40
137.0
40
138.0
40
139.0
40
140.0
40
141.0
40
142.0
40
143.0
40
144.0
40
145.0
40
146.0
40
147.0
40
148.0
40
149.0
40
150.0
40
151.0
40
152.0
40
153.0
40
154.0
40
155.0
40
156.0
40
157.0
40
158.0
40
159.0
40
160.0
40
161.0
40
162.0
40
163.0
40
164.0
40
165.0
40
166.0
40
167.0
40
168.0
40
169.0
40
170.0
40
171.0
40
172.0
40
173.0
40
174.0
40
175.0
40
176.0
40
177.0
40
178.0
40
179.0
40
180.0
40
181.0
40
182.0
40
183.0
40
184.0
40
185.0
40
186.0
40
187.0
40
188.0
40
189.0
40
190.0
40
191.0
40
192.0
40
193.0
40
194.0
40
195.0
40
196.0
40
197.0
40
198.0
40
199.0
40
200.0
40
201.0
40
202.0
40
203.0
40
204.0
40
205.0
40
206.0
40
207.0
40
208.0
40
209.0
40
210.0
40
211.0
40
212.0
40
213.0
40
214.0
40
215.0
40
216.0
40
217.0
40
218.0
40
219.0
40
220.0
40
221.0
40
222.0
40
223.0
40
224.0
40
225.0
40
226.0
40
227.0
40
228.0
40
229.0
40
230.0
40
231.0
40
232.0
40
233.0
40
234.0
40
235.0
40
236.0
40
237.0
40
238.0
40
239.0
40
240.0
40
241.0
40
242.0
40
243.0
40
244.0
40
245.0
40
246.0
40
247.0
40
248.0
40
249.0
40
250.0
40
251.0
40
252.0
40
253.0
40
254.0
40
255.0
40
256.0
40
257.0
40
258.0
40
259.0
40
260.0
40
261.0
40
262.0
40
263.0
40
264.0
40
265.0
40
266.0
40
267.0
40
268.0
40
269.0
40
270.0
40
271.0
40
272.0
40
273.0
40
274.0
40
275.0
40
276.0
40
277.0
40
278.0
40
279.0
40
280.0
40
281.0
40
282.0
40
283.0
40
284.0
40
285.0
40
286.0
40
287.0
40
288.0
40
289.0
40
290.0
40
291.0
40
292.0
40
293.0
40
294.0
40
295.0
40
296.0
40
297.0
40
298.0
40
299.0
40
300.0
40
301.0
40
302.0
40
303.0
40
304.0
40
305.0
40
306.0
40
307.0
40
308.0
40
309.0
40
310.0
40
311.0
40
312.0
40
313.0
40
314.0
40
315.0
40
316.0
40
317.0
40
318.0
40
319.0
40
320.0
40
321.0
40
322.0
40
323.0
40
324.0
40
325.0
40
326.0
40
327.0
40
328.0
40
329.0
40
330.0
40
331.0
40
332.0
40
333.0
40
334.0
40
335.0
40
336.0
40
337.0
40
338.0
40
339.0
40
340.0
40
341.0
40
342.0
40
343.0
40
344.0
40
345.0
40
346.0
40
347.0
40
348.0
40
349.0
40
350.0
40
351.0
40
352.0
40
353.0
40
354.0
40
355.0
40
356.0
40
357.0
40
358.0
40
359.0
40
360.0
40
361.0
40
362.0
40
363.0
40
364.0
40
365.0
40
366.0
40
367.0
40
368.0
40
369.0
40
370.0
40
371.0
40
372.0
40
373.0
40
374.0
40
375.0
40
376.0
40
377.0
40
378.0
40
379.0
40
380.0
40
381.0
40
382.0
40
383.0
40
384.0
40
385.0
40
386.0
40
387.0
40
388.0
40
389.0
40
390.0
40
391.0
40
392.0
40
393.0
40
394.0
40
395.0
40
396.0
40
397.0
40
398.0
40
399.0
40
400.0
40
401.0
40
402.0
40
403.0
40
404.0
40
405.0
40
406.0
40
407.0
40
408.0
40
409.0
40
410.0
40
411.0
40
412.0
40
413.0
40
414.0
40
415.0
40
416.0
40
417.0
40
418.0
40
419.0
40
420.0
40
421.0
40
422.0
40
423.0
40
424.0
40
425.0
40
426.0
40
427.0
40
428.0
40
429.0
40
430.0
40
431.0
40
432.0
40
433.0
40
434.0
40
435.0
40
436.0
40
437.0
40
438.0
40
439.0
40
440.0
40
441.0
40
442.0
40
443.0
40
444.0
40
445.0
40
446.0
40
447.0
40
448.0
40
449.0
40
450.0
40
451.0
40
452.0
40
453.0
40
454.0
40
455.0
40
456.0
40
457.0
40
458.0
40
459.0
40
460.0
40
461.0
40
462.0
40
463.0
40
464.0
40
465.0
40
466.0
40
467.0
40
468.0
40
469.0
40
470.0
40
471.0
40
472.0
40
473.0
40
474.0
40
475.0
40
476.0
40
477.0
40
478.0
40
479.0
40
480.0
40
481.0
40
482.0
40
483.0
40
484.0
40
485.0
40
486.0
40
487.0
40
488.0
40
489.0
40
490.0
40
491.0
40
492.0
40
493.0
40
494.0
40
495.0
40
496.0
40
497.0
40
498.0
40
499.0
40
500.0
40
501.0
40
502.0
40
503.0
40
504.0
40
505.0
40
506.0
40
507.0
40
508.0
40
509.0
40
510.0
40
511.0
40
512.0
40
513.0
40
514.0
40
515.0
40
516.0
40
517.0
40
518.0
40
519.0
40
520.0
40
521.0
40
522.0
40
523.0
40
524.0
40
525.0
40
526.0
40
527.0
40
528.0
40
529.0
40
530.0
40
531.0
40
532.0
40
533.0
40
534.0
40
535.0
40
536.0
40
537.0
40
538.0
40
539.0
40
540.0
40
541.0
40
542.0
40
543.0
40
544.0
40
545.0
40
546.0
40
547.0
40
548.0
40
549.0
40
550.0
40
551.0
40
552.0
40
553.0
40
554.0
40
555.0
40
556.0
40
557.0
40
558.0
40
559.0
40
560.0
40
561.0
40
562.0
40
563.0
40
564.0
40
565.0
40
566.0
40
567.0
40
568.0
40
569.0
40
570.0
40
571.0
40
572.0
40
573.0
40
574.0
40
575.0
40
576.0
40
577.0
40
578.0
40
579.0
40
580.0
40
581.0
40
582.0
40
583.0
40
584.0
40
585.0
40
586.0
40
587.0
40
588.0
40
589.0
40
590.0
40
591.0
40
592.0
40
593.0
40
594.0
40
595.0
40
596.0
40
597.0
40
598.0
40
599.0
40
600.0
40
601.0
40
602.0
40
603.0
40
604.0
40
605.0
40
606.0
40
607.0
40
608.0
40
609.0
40
610.0
40
611.0
40
612.0
40
613.0
40
614.0
40
615.0
40
616.0
40
617.0
40
618.0
40
619.0
40
620.0
40
621.0
40
622.0
40
623.0
40
624.0
40
625.0
40
626.0
40
627.0
40
628.0
40
629.0
40
630.0
40
631.0
40
632.0
40
633.0
40
634.0
40
635.0
40
636.0
40
637.0
40
638.0
40
639.0
40
640.0
40
641.0
40
642.0
40
643.0
40
644.0
40
645.0
40
646.0
40
647.0
40
648.0
40
649.0
40
650.0
40
651.0
40
652.0
40
653.0
40
654.0
40
655.0
40
656.0
40
657.0
40
658.0
40
659.0
40
660.0
40
661.0
40
662.0
40
663.0
40
664.0
40
665.0
40
666.0
40
667.0
40
668.0
40
669.0
40
670.0
40
671.0
40
672.0
40
673.0
40
674.0
40
675.0
40
676.0
40
677.0
40
678.0
40
679.0
40
680.0
40
681.0
40
682.0
40
683.0
40
684.0
40
685.0
40
686.0
40
687.0
40
688.0
40
689.0
40
690.0
40
691.0
40
692.0
40
693.0
40
694.0
40
695.0
40
696.0
40
697.0
40
698.0
40
699.0
40
700.0
40
701.0
40
702.0
40
703.0
40
704.0
40
705.0
40
706.0
40
707.0
40
708.0
40
709.0
40
710.0
40
711.0
40
712.0
40
713.0
40
714.0
40
715.0
40
716.0
40
717.0
40
718.0
40
719.0
40
720.0
40
721.0
40
722.0
40
723.0
40
724.0
40
725.0
40
726.0
40
727.0
40
728.0
40
729.0
40
730.0
40
731.0
40
732.0
40
733.0
40
734.0
40
735.0
40
736.0
40
737.0
40
738.0
40
739.0
40
740.0
40
741.0
40
742.0
40
743.0
40
744.0
40
745.0
40
746.0
40
747.0
40
748.0
40
749.0
40
750.0
40
751.0
40
752.0
40
753.0
40
754.0
40
755.0
40
756.0
40
757.0
40
758.0
40
759.0
40
760.0
40
761.0
40
762.0
40
763.0
40
764.0
40
765.0
40
766.0
40
767.0
40
768.0
40
769.0
40
770.0
40
771.0
40
772.0
40
773.0
40
774.0
40
775.0
40
776.0
40
777.0
40
778.0
40
779.0
40
780.0
40
781.0
40
782.0
40
783.0
40
784.0
40
785.0
40
786.0
40
787.0
40
788.0
40
789.0
40
790.0
40
791.0
40
792.0
40
793.0
40
794.0
40
795.0
40
796.0
40
797.0
40
798.0
40
799.0
40
800.0
40
801.0
40
802.0
40
803.0
40
804.0
40
805.0
40
806.0
40
807.0
40
808.0
40
809.0
40
810.0
40
811.0
40
812.0
40
813.0
40
814.0
40
815.0
40
816.0
40
817.0
40
818.0
40
819.0
40
820.0
40
821.0
40
822.0
40
823.0
40
824.0
40
825.0
40
826.0
40
827.0
40
828.0
40
829.0
40
830.0
40
831.0
40
832.0
40
833.0
40
834.0
40
835.0
40
836.0
40
837.0
40
838.0
40
839.0
40
840.0
40
841.0
40
842.0
40
843.0
40
844.0
40
845.0
40
846.0
40
847.0
40
848.0
40
849.0
40
850.0
40
851.0
40
852.0
40
853.0
40
854.0
40
855.0
40
856.0
40
857.0
40
858.0
40
859.0
40
860.0
40
861.0
40
862.0
40
863.0
40
864.0
40
865.0
40
866.0
40
867.0
40
868.0
40
869.0
40
870.0
40
871.0
40
872.0
40
873.0
40
874.0
40
875.0
40
876.0
40
877.0
40
878.0
40
879.0
40
880.0
40
881.0
40
882.0
40
883.0
40
884.0
40
885.0
40
886.0
40
887.0
40
888.0
40
889.0
40
890.0
40
891.0
40
892.0
40
893.0
40
894.0
40
895.0
40
896.0
40
897.0
40
898.0
40
899.0
40
900.0
40
901.0
40
902.0
40
903.0
40
904.0
40
905.0
40
906.0
40
907.0
40
908.0
40
909.0
40
910.0
40
911.0
40
912.0
40
913.0
40
914.0
40
915.0
40
916.0
40
917.0
40
918.0
40
919.0
40
920.0
40
921.0
40
922.0
40
923.0
40
924.0
40
925.0
40
926.0
40
927.0
40
928.0
40
929.0
40
930.0
40
931.0
40
932.0
40
933.0
40
934.0
40
935.0
40
936.0
40
937.0
40
938.0
40
939.0
40
940.0
40
941.0
40
942.0
40
943.0
40
944.0
40
945.0
40
946.0
40
947.0
40
948.0
40
949.0
40
950.0
40
951.0
40
952.0
40
953.0
40
954.0
40
955.0
40
956.0
40
957.0
40
958.0
40
959.0
40
960.0
40
961.0
40
962.0
40
963.0
40
964.0
40
965.0
40
966.0
40
967.0
40
968.0
40
969.0
40
970.0
40
971.0
40
972.0
40
973.0
40
974.0
40
975.0
40
976.0
40
977.0
40
978.0
40
979.0
40
980.0
40
981.0
40
982.0
40
983.0
40
984.0
40
985.0
40
986.0
40
987.0
40
988.0
40
989.0
40
990.0
40
991.0
40
992.0
40
993.0
40
994.0
40
995.0
40
996.0
40
997.0
40
998.0
40
999.0
40
1000.0
40
1001.0
40
1002.0
40
1003.0
40
1004.0
40
1005.0
40
1006.0
40
1007.0
40
1008.0
40
1009.0
40
1010.0
40
1011.0
40
1012.0
40
1013.0
40
1014.0
40
1015.0
40
1016.0
40
1017.0
40
1018.0
40
1019.0
40
1020.0
40
1021.0
40
1022.0
40
1023.0
40
1024.0
40
1025.0
40
1026.0
40
1027.0
40
1028.0
40
1029.0
40
1030.0
40
1031.0
40
1032.0
40
1033.0
40
1034.0
40
1035.0
40
1036.0
40
1037.0
40
1038.0
40
1039.0
40
1040.0
40
1041.0
40
1042.0
40
1043.0
40
1044.0
40
1045.0
40
1046.0
40
1047.0
40
1048.0
40
1049.0
40
1050.0
40
1051.0
40
1052.0
40
1053.0
40
1054.0
40
1055.0
40
1056.0
40
1057.0
40
1058.0
40
1059.0
40
1060.0
40
1061.0
40
1062.0
40
1063.0
40
1064.0
40
1065.0
40
1066.0
40
1067.0
40
1068.0
40
1069.0
40
1070.0
40
1071.0
40
1072.0
40
1073.0
40
1074.0
40
1075.0
40
1076.0
40
1077.0
40
1078.0
40
1079.0
40
1080.0
40
1081.0
40
1082.0
40
1083.0
40
1084.0
40
1085.0
40
1086.0
40
1087.0
40
1088.0
40
1089.0
40
1090.0
40
1091.0
40
1092.0
40
1093.0
40
1094.0
40
1095.0
40
1096.0
40
1097.0
40
1098.0
40
1099.0
40
1100.0
40
1101.0
40
1102.0
40
1103.0
40
1104.0
40
1105.0
40
1106.0
40
1107.0
40
1108.0
40
1109.0
40
1110.0
40
1111.0
40
1112.0
40
1113.0
40
1114.0
40
1115.0
40
1116.0
40
1117.0
40
1118.0
40
1119.0
40
1120.0
40
1121.0
40
1122.0
40
1123.0
40
1124.0
40
1125.0
40
1126.0
40
1127.0
40
1128.0
40
1129.0
40
1130.0
40
1131.0
40
1132.0
40
1133.0
40
1134.0
40
1135.0
40
1136.0
40
1137.0
40
1138.0
40
1139.0
40
1140.0
40
1141.0
40
1142.0
40
1143.0
40
1144.0
40
1145.0
40
1146.0
40
1147.0
40
1148.0
40
1149.0
40
1150.0
40
1151.0
40
1152.0
40
1153.0
40
1154.0
40
1155.0
40
1156.0
40
1157.0
40
1158.0
40
1159.0
40
1160.0
40
1161.0
40
1162.0
40
1163.0
40
1164.0
40
1165.0
40
1166.0
40
1167.0
40
1168.0
40
1169.0
40
1170.0
40
1171.0
40
1172.0
40
1173.0
40
1174.0
40
1175.0
40
1176.0
40
1177.0
40
1178.0
40
1179.0
40
1180.0
40
1181.0
40
1182.0
40
1183.0
40
1184.0
40
1185.0
40
1186.0
40
1187.0
40
1188.0
40
1189.0
40
1190.0
40
1191.0
40
1192.0
40
1193.0
40
1194.0
40
1195.0
40
1196.0
40
1197.0
40
1198.0
40
1199.0
40
1200.0
40
1201.0
40
1202.0
40
1203.0
40
1204.0
40
1205.0
40
1206.0
40
1207.0
40
1208.0
40
1209.0
40
1210.0
40
1211.0
40
1212.0
40
1213.0
40
1214.0
40
1215.0
40
1216.0
40
1217.0
40
1218.0
40
1219.0
40
1220.0
40
1221.0
40
1222.0
40
1223.0
40
1224.0
40
1225.0
40
1226.0
40
1227.0
40
1228.0
40
1229.0
40
1230.0
40
1231.0
40
1232.0
40
1233.0
40
1234.0
40
1235.0
40
1236.0
40
1237.0
40
1238.0
40
1239.0
40
1240.0
40
1241.0
40
1242.0
40
1243.0
40
1244.0
40
1245.0
40
1246.0
40
1247.0
40
1248.0
40
1249.0
40
1250.0
40
1251.0
40
1252.0
40
1253.0
40
1254.0
40
1255.0
40
1256.0
40
1257.0
40
1258.0
40
1259.0
40
1260.0
40
1261.0
40
1262.0
40
1263.0
40
1264.0
40
1265.0
40
1266.0
40
1267.0
40
1268.0
40
1269.0
40
1270.0
40
1271.0
40
1272.0
40
1273.0
40
1274.0
40
1275.0
40
1276.0
40
1277.0
40
1278.0
40
1279.0
40
1280.0
40
1281.0
40
1282.0
40
1283.0
40
1284.0
40
1285.0
40
1286.0
40
1287.0
40
1288.0
40
1289.0
40
1290.0
40
1291.0
40
1292.0
40
1293.0
40
1294.0
40
1295.0
40
1296.0
40
1297.0
40
1298.0
40
1299.0
40
1300.0
40
1301.0
40
1302.0
40
1303.0
40
1304.0
40
1305.0
40
1306.0
40
1307.0
40
1308.0
40
1309.0
40
1310.0
40
1311.0
40
1312.0
40
1313.0
40
1314.0
40
1315.0
40
1316.0
40
1317.0
40
1318.0
40
1319.0
40
1320.0
40
1321.0
40
1322.0
40
1323.0
40
1324.0
40
1325.0
40
1326.0
40
1327.0
40
1328.0
40
1329.0
40
1330.0
40
1331.0
40
1332.0
40
1333.0
40
1334.0
40
1335.0
40
1336.0
40
1337.0
40
1338.0
40
1339.0
40
1340.0
40
1341.0
40
1342.0
40
1343.0
40
1344.0
40
1345.0
40
1346.0
40
1347.0
40
1348.0
40
1349.0
40
1350.0
40
1351.0
40
1352.0
40
1353.0
40
1354.0
40
1355.0
40
1356.0
40
1357.0
40
1358.0
40
1359.0
40
1360.0
40
1361.0
40
1362.0
40
1363.0
40
1364.0
40
1365.0
40
1366.0
40
1367.0
40
1368.0
40
1369.0
40
1370.0
40
1371.0
40
1372.0
40
1373.0
40
1374.0
40
1375.0
40
1376.0
40
1377.0
40
1378.0
40
1379.0
40
1380.0
40
1381.0
40
1382.0
40
1383.0
40
1384.0
40
1385.0
40
1386.0
40
1387.0
40
1388.0
40
1389.0
40
1390.0
40
1391.0
40
1392.0
40
1393.0
40
1394.0
40
1395.0
40
1396.0
40
1397.0
40
1398.0
40
1399.0
40
1400.0
40
1401.0
40
1402.0
40
1403.0
40
1404.0
40
1405.0
40
1406.0
40
1407.0
40
1408.0
40
1409.0
40
1410.0
40
1411.0
40
1412.0
40
1413.0
40
1414.0
40
1415.0
40
1416.0
40
1417.0
40
1418.0
40
1419.0
40
1420.0
40
1421.0
40
1422.0
40
1423.0
40
1424.0
40
1425.0
40
1426.0
40
1427.0
40
1428.0
40
1429.0
40
1430.0
40
1431.0
40
1432.0
40
1433.0
40
1434.0
40
1435.0
40
1436.0
40
1437.0
40
1438.0
40
1439.0
40
1440.0
40
1441.0
40
1442.0
40
1443.0
40
1444.0
40
1445.0
40
1446.0
40
1447.0
40
1448.0
40
1449.0
40
1450.0
40
1451.0
40
1452.0
40
1453.0
40
1454.0
40
1455.0
40
1456.0
40
1457.0
40
1458.0
40
1459.0
40
1460.0
40
1461.0
40
1462.0
40
1463.0
40
1464.0
40
1465.0
40
1466.0
40
1467.0
40
1468.0
40
1469.0
40
1470.0
40
1471.0
40
1472.0
40
1473.0
40
1474.0
40
1475.0
40
1476.0
40
1477.0
40
1478.0
40
1479.0
40
1480.0
40
1481.0
40
1482.0
40
1483.0
40
1484.0
40
1485.0
40
1486.0
40
1487.0
40
1488.0
40
1489.0
40
1490.0
40
1491.0
40
1492.0
40
1493.0
40
1494.0
40
1495.0
40
1496.0
40
1497.0
40
1498.0
40
1498.0
40
1498.0
40
1498.0
41
1.0
10
46.0
20
0.0
30
0.0
41
1.0
10
46.0118725651467
20
0.363493536548234
30
0.0
41
1.0
10
46.0464461202076
20
0.718824440867918
30
0.0
41
1.0
10
46.1008404853833
20
1.05897453541789
30
0.0
41
1.0
10
46.1709864930983
20
1.37887049504468
30
0.0
41
1.0
10
46.2524112932347
20
1.67567002092215
30
0.0
41
1.0
10
46.3409103237749
20
1.94858394996673
30
0.0
41
1.0
10
46.4329694628526
20
2.19841980194191
30
0.0
41
1.0
10
46.525928999171
20
2.42704571376867
30
0.0
41
1.0
10
46.6179575418347
20
2.63691118543787
30
0.0
41
1.0
10
46.7079216843389
20
2.83068466021969
30
0.0
41
1.0
10
46.7952201828787
20
3.01101309901193
30
0.0
41
1.0
10
46.8796246769947
20
3.18038173338174
30
0.0
41
1.0
10
46.9611464416565
20
3.34104519981551
30
0.0
41
1.0
10
47.0399342253642
20
3.49500441124419
30
0.0
41
1.0
10
47.1162008003825
20
3.64400997480446
30
0.0
41
1.0
10
47.1901729953021
20
3.7895792624758
30
0.0
41
1.0
10
47.2620595888304
20
3.93301915600487
30
0.0
41
1.0
10
47.3320321372668
20
4.07544989569349
30
0.0
41
1.0
10
47.4002148266234
20
4.21782764776986
30
0.0
41
1.0
10
47.4666804269413
20
4.36096472153455
30
0.0
41
1.0
10
47.5314502479696
20
4.50554711435999
30
0.0
41
1.0
10
47.5944966278899
20
4.65214945661646
30
0.0
41
1.0
10
47.6557469510637
20
4.8012476140366
30
0.0
41
1.0
10
47.7150885209604
20
4.95322927290562
30
0.0
41
1.0
10
47.7723738439738
20
5.10840283880656
30
0.0
41
1.0
10
47.8274260366527
20
5.26700495454619
30
0.0
41
1.0
10
47.8800441744152
20
5.4292069053531
30
0.0
41
1.0
10
47.9300084698774
20
5.59512013911355
30
0.0
41
1.0
10
47.9770852147429
20
5.7648010910954
30
0.0
41
1.0
10
48.0210314486566
20
5.93825546839622
30
0.0
41
1.0
10
48.0615993369543
20
6.11544211986982
30
0.0
41
1.0
10
48.0985402505459
20
6.29627659243165
30
0.0
41
1.0
10
48.1316085477772
20
6.48063445397428
30
0.0
41
1.0
10
48.1605650616989
20
6.66835444608154
30
0.0
41
1.0
10
48.1851802978714
20
6.85924151574906
30
0.0
41
1.0
10
48.2052373483858
20
7.05306976388119
30
0.0
41
1.0
10
48.2205345276774
20
7.24958533899088
30
0.0
41
1.0
10
48.230887735262
20
7.44850929689808
30
0.0
41
1.0
10
48.2361325499336
20
7.64954044099121
30
0.0
41
1.0
10
48.2361260593501
20
7.85235815252839
30
0.0
41
1.0
10
48.2307484283645
20
8.05662521630441
30
0.0
41
1.0
10
48.2199042089779
20
8.26199064362941
30
0.0
41
1.0
10
48.2035233944054
20
8.46809249182433
30
0.0
41
1.0
10
48.1815622194569
20
8.67456067723121
30
0.0
41
1.0
10
48.154003709241
20
8.88101977698011
30
0.0
41
1.0
10
48.1208579780715
20
9.08709181338432
30
0.0
41
1.0
10
48.0821622803946
20
9.29239901380064
30
0.0
41
1.0
10
48.0379808155175
20
9.49656653805376
30
0.0
41
1.0
10
47.988404287904
20
9.69922516505465
30
0.0
41
1.0
10
47.9335492247687
20
9.90001393002235
30
0.0
41
1.0
10
47.8735570526344
20
10.098582703736
30
0.0
41
1.0
10
47.8085929343875
20
10.2945947054931
30
0.0
41
1.0
10
47.7388443681394
20
10.4877289419366
30
0.0
41
1.0
10
47.6645195488604
20
10.6776825646448
30
0.0
41
1.0
10
47.5858454932496
20
10.8641731403787
30
0.0
41
1.0
10
47.5030659276177
20
11.0469408291769
30
0.0
41
1.0
10
47.4164389376428
20
11.2257504671256
30
0.0
41
1.0
10
47.3262343776805
20
11.4003935526663
30
0.0
41
1.0
10
47.2327310358261
20
11.5706901378165
30
0.0
41
1.0
10
47.136213549094
20
11.736490628774
30
0.0
41
1.0
10
47.036969060872
20
11.8976775041869
30
0.0
41
1.0
10
46.9352836101907
20
12.0541669640811
30
0.0
41
1.0
10
46.8314382393115
20
12.2059105282761
30
0.0
41
1.0
10
46.7257048027141
20
12.352896610388
30
0.0
41
1.0
10
46.6183414568251
20
12.4951521026096
30
0.0
41
1.0
10
46.5095878059503
20
12.6327440178712
30
0.0
41
1.0
10
46.399659676179
20
12.7657812503604
30
0.0
41
1.0
10
46.2887434860793
20
12.8944165335258
30
0.0
41
1.0
10
46.1769901817226
20
13.0188486976148
30
0.0
41
1.0
10
46.0645087055034
20
13.1393253577044
30
0.0
41
1.0
10
45.9513589757423
20
13.256146199508
30
0.0
41
1.0
10
45.8375443709865
20
13.3696670755026
30
0.0
41
1.0
10
45.723003745103
20
13.4803051795633
30
0.0
41
1.0
10
45.6076030556676
20
13.5885456351951
30
0.0
41
1.0
10
45.4911267823418
20
13.6949499099806
30
0.0
41
1.0
10
45.3732694640094
20
13.8001665530842
30
0.0
41
1.0
10
45.2536279227222
20
13.9049448330931
30
0.0
41
1.0
10
45.1316951102917
20
14.0101519073639
30
0.0
41
1.0
10
45.0068570653599
20
14.11679413667
30
0.0
41
1.0
10
44.8783952743716
20
14.2260429880493
30
0.0
41
1.0
10
44.7454978630754
20
14.3392655010342
30
0.0
41
1.0
10
44.6072845563801
20
14.4580582921011
30
0.0
41
1.0
10
44.4628521927925
20
14.5842821782054
30
0.0
41
1.0
10
44.3113494958883
20
14.7200912175254
30
0.0
41
1.0
10
44.1520910485895
20
14.8679447439383
30
0.0
41
1.0
10
43.9847194217999
20
15.0305835065425
30
0.0
41
1.0
10
43.8094184511622
20
15.2109419899107
30
0.0
41
1.0
10
43.6271659745694
20
15.4119613866619
30
0.0
41
1.0
10
43.439987721865
20
15.6362685693743
30
0.0
41
1.0
10
43.2511371220456
20
15.8857073697597
30
0.0
41
1.0
10
43.0650919639389
20
16.1607613098368
30
0.0
41
1.0
10
42.8872575477332
20
16.4599903721707
30
0.0
41
1.0
10
42.7233319706498
20
16.7796856492563
30
0.0
41
1.0
10
42.5784282482048
20
17.1139580865034
30
0.0
41
1.0
10
42.4561998419736
20
17.4553625285477
30
0.0
41
1.0
10
42.3582707542006
20
17.795939167058
30
0.0
41
1.0
10
42.2841609954747
20
18.1283583552162
30
0.0
41
1.0
10
42.2316810747629
20
18.4468186797818
30
0.0
41
1.0
10
42.1975895773653
20
18.747490395313
30
0.0
41
1.0
10
42.1782653464323
20
19.028504456469
30
0.0
41
1.0
10
42.1702235916508
20
19.2896323133981
30
0.0
41
1.0
10
42.1704195383712
20
19.531836384923
30
0.0
41
1.0
10
42.176366454376
20
19.7568285893118
30
0.0
41
1.0
10
42.1861286684955
20
19.966709276861
30
0.0
41
1.0
10
42.1982486109866
20
20.1637066721657
30
0.0
41
1.0
10
42.2116504473414
20
20.3500073762725
30
0.0
41
1.0
10
42.2255452244705
20
20.5276572640349
30
0.0
41
1.0
10
42.239349204324
20
20.698511467922
30
0.0
41
1.0
10
42.2526189298192
20
20.864215946564
30
0.0
41
1.0
10
42.2650023566876
20
21.0262078947693
30
0.0
41
1.0
10
42.2762036360438
20
21.1857264254091
30
0.0
41
1.0
10
42.2859587215673
20
21.343828105687
30
0.0
41
1.0
10
42.2940191884616
20
21.50140411397
30
0.0
41
1.0
10
42.300142091157
20
21.65919720944
30
0.0
41
1.0
10
42.3040841563778
20
21.8178175956944
30
0.0
41
1.0
10
42.3055990245238
20
21.9777572898608
30
0.0
41
1.0
10
42.3044365901285
20
22.1394029101979
30
0.0
41
1.0
10
42.3003437527952
20
22.3030469552514
30
0.0
41
1.0
10
42.2930660848724
20
22.4688977233614
30
0.0
41
1.0
10
42.2823500648134
20
22.6370880484957
30
0.0
41
1.0
10
42.2679456281876
20
22.8076830289498
30
0.0
41
1.0
10
42.2496088619601
20
22.9806869125181
30
0.0
41
1.0
10
42.2271047199424
20
23.1560492828987
30
0.0
41
1.0
10
42.2002096742601
20
23.3336706716246
30
0.0
41
1.0
10
42.1687142436879
20
23.5134076999554
30
0.0
41
1.0
10
42.1324253579737
20
23.6950778370161
30
0.0
41
1.0
10
42.0911685300968
20
23.878463844449
30
0.0
41
1.0
10
42.0447898174128
20
24.0633179640121
30
0.0
41
1.0
10
41.9931575589741
20
24.2493658927893
30
0.0
41
1.0
10
41.9361638808032
20
24.4363105807637
30
0.0
41
1.0
10
41.8737259640966
20
24.6238358772195
30
0.0
41
1.0
10
41.8057870736535
20
24.8116100455428
30
0.0
41
1.0
10
41.7323173455307
20
24.9992891602905
30
0.0
41
1.0
10
41.653314334215
20
25.1865203956938
30
0.0
41
1.0
10
41.5688033206079
20
25.3729452109116
30
0.0
41
1.0
10
41.478837382919
20
25.5582024342061
30
0.0
41
1.0
10
41.38349723323
20
25.7419312456767
30
0.0
41
1.0
10
41.2828908230417
20
25.923774056158
30
0.0
41
1.0
10
41.1771527215893
20
26.103379278291
30
0.0
41
1.0
10
41.0664432711004
20
26.2804039845506
30
0.0
41
1.0
10
40.9509475234852
20
26.45451644611
30
0.0
41
1.0
10
40.8308739631797
20
26.625398545788
30
0.0
41
1.0
10
40.7064530209985
20
26.7927480579504
30
0.0
41
1.0
10
40.5779353838806
20
26.9562807880698
30
0.0
41
1.0
10
40.4455901053082
20
27.1157325646866
30
0.0
41
1.0
10
40.3097025209199
20
27.2708610767439
30
0.0
41
1.0
10
40.1705719733979
20
27.4214475496734
30
0.0
41
1.0
10
40.0285093500558
20
27.5672982542038
30
0.0
41
1.0
10
39.8838344356353
20
27.7082458426403
30
0.0
41
1.0
10
39.7368730816132
20
27.8441505083557
30
0.0
41
1.0
10
39.587954191754
20
27.9749009654553
30
0.0
41
1.0
10
39.4374065216611
20
28.1004152470826
30
0.0
41
1.0
10
39.2855552876246
20
28.2206413226796
30
0.0
41
1.0
10
39.1327185770359
20
28.3355575367916
30
0.0
41
1.0
10
38.9792035489706
20
28.4451728748325
30
0.0
41
1.0
10
38.8253024091235
20
28.549527064778
30
0.0
41
1.0
10
38.6712881380254
20
28.6486905282459
30
0.0
41
1.0
10
38.5174099452824
20
28.7427642001799
30
0.0
41
1.0
10
38.3638884153925
20
28.8318792437854
30
0.0
41
1.0
10
38.2109103024937
20
28.9161966970559
30
0.0
41
1.0
10
38.0586229222661
20
28.9959070999332
30
0.0
41
1.0
10
37.9071280794087
20
29.0712301679123
30
0.0
41
1.0
10
37.7564754592187
20
29.1424146000995
30
0.0
41
1.0
10
37.606655402897
20
29.2097381391969
30
0.0
41
1.0
10
37.4575909802436
20
29.2735080399901
30
0.0
41
1.0
10
37.3091292736947
20
29.3340621547046
30
0.0
41
1.0
10
37.161031799713
20
29.3917709118161
30
0.0
41
1.0
10
37.012964026332
20
29.4470405539344
30
0.0
41
1.0
10
36.8644840134947
20
29.5003181148077
30
0.0
41
1.0
10
36.7150303281628
20
29.5520987589975
30
0.0
41
1.0
10
36.5639096035382
20
29.6029362807136
30
0.0
41
1.0
10
36.4102844728645
20
29.6534577526984
30
0.0
41
1.0
10
36.2531631880676
20
29.7043835062875
30
0.0
41
1.0
10
36.0913931347281
20
29.7565537495917
30
0.0
41
1.0
10
35.9236618064147
20
29.8109630688593
30
0.0
41
1.0
10
35.7485107377048
20
29.8688035780739
30
0.0
41
1.0
10
35.5643704923618
20
29.9315161870087
30
0.0
41
1.0
10
35.3696279285537
20
30.0008467283608
30
0.0
41
1.0
10
35.1627399782237
20
30.0788986824238
30
0.0
41
1.0
10
34.9424094496275
20
30.1681661230105
30
0.0
41
1.0
10
34.7078346673332
20
30.2715191406406
30
0.0
41
1.0
10
34.4590310620248
20
30.3921014662233
30
0.0
41
1.0
10
34.1971936133675
20
30.5330929732588
30
0.0
41
1.0
10
33.9250231921655
20
30.697301083904
30
0.0
41
1.0
10
33.6468894834031
20
30.8865908511109
30
0.0
41
1.0
10
33.368681365372
20
31.1012491805685
30
0.0
41
1.0
10
33.097247737677
20
31.339477196812
30
0.0
41
1.0
10
32.839477196812
20
31.597247737677
30
0.0
41
1.0
10
32.6012491805685
20
31.868681365372
30
0.0
41
1.0
10
32.3865908511109
20
32.1468894834031
30
0.0
41
1.0
10
32.197301083904
20
32.4250231921655
30
0.0
41
1.0
10
32.0330929732588
20
32.6971936133674
30
0.0
41
1.0
10
31.8921014662233
20
32.9590310620248
30
0.0
41
1.0
10
31.7715191406406
20
33.2078346673333
30
0.0
41
1.0
10
31.6681661230105
20
33.4424094496275
30
0.0
41
1.0
10
31.5788986824238
20
33.6627399782237
30
0.0
41
1.0
10
31.5008467283608
20
33.8696279285537
30
0.0
41
1.0
10
31.4315161870087
20
34.0643704923618
30
0.0
41
1.0
10
31.3688035780739
20
34.2485107377048
30
0.0
41
1.0
10
31.3109630688593
20
34.4236618064147
30
0.0
41
1.0
10
31.2565537495917
20
34.5913931347281
30
0.0
41
1.0
10
31.2043835062876
20
34.7531631880676
30
0.0
41
1.0
10
31.1534577526984
20
34.9102844728645
30
0.0
41
1.0
10
31.1029362807136
20
35.0639096035382
30
0.0
41
1.0
10
31.0520987589975
20
35.2150303281628
30
0.0
41
1.0
10
31.0003181148077
20
35.3644840134947
30
0.0
41
1.0
10
30.9470405539344
20
35.512964026332
30
0.0
41
1.0
10
30.8917709118161
20
35.6610317997129
30
0.0
41
1.0
10
30.8340621547046
20
35.8091292736947
30
0.0
41
1.0
10
30.7735080399901
20
35.9575909802435
30
0.0
41
1.0
10
30.7097381391969
20
36.106655402897
30
0.0
41
1.0
10
30.6424146000995
20
36.2564754592187
30
0.0
41
1.0
10
30.5712301679123
20
36.4071280794087
30
0.0
41
1.0
10
30.4959070999332
20
36.5586229222661
30
0.0
41
1.0
10
30.4161966970559
20
36.7109103024937
30
0.0
41
1.0
10
30.3318792437854
20
36.8638884153925
30
0.0
41
1.0
10
30.2427642001799
20
37.0174099452824
30
0.0
41
1.0
10
30.1486905282459
20
37.1712881380254
30
0.0
41
1.0
10
30.049527064778
20
37.3253024091235
30
0.0
41
1.0
10
29.9451728748326
20
37.4792035489706
30
0.0
41
1.0
10
29.8355575367916
20
37.6327185770359
30
0.0
41
1.0
10
29.7206413226797
20
37.7855552876246
30
0.0
41
1.0
10
29.6004152470826
20
37.9374065216611
30
0.0
41
1.0
10
29.4749009654554
20
38.087954191754
30
0.0
41
1.0
10
29.3441505083557
20
38.2368730816132
30
0.0
41
1.0
10
29.2082458426403
20
38.3838344356353
30
0.0
41
1.0
10
29.0672982542038
20
38.5285093500558
30
0.0
41
1.0
10
28.9214475496734
20
38.6705719733979
30
0.0
41
1.0
10
28.7708610767439
20
38.8097025209198
30
0.0
41
1.0
10
28.6157325646866
20
38.9455901053082
30
0.0
41
1.0
10
28.4562807880698
20
39.0779353838806
30
0.0
41
1.0
10
28.2927480579504
20
39.2064530209985
30
0.0
41
1.0
10
28.125398545788
20
39.3308739631797
30
0.0
41
1.0
10
27.95451644611
20
39.4509475234852
30
0.0
41
1.0
10
27.7804039845506
20
39.5664432711004
30
0.0
41
1.0
10
27.603379278291
20
39.6771527215893
30
0.0
41
1.0
10
27.4237740561581
20
39.7828908230417
30
0.0
41
1.0
10
27.2419312456767
20
39.88349723323
30
0.0
41
1.0
10
27.0582024342061
20
39.978837382919
30
0.0
41
1.0
10
26.8729452109116
20
40.0688033206078
30
0.0
41
1.0
10
26.6865203956938
20
40.153314334215
30
0.0
41
1.0
10
26.4992891602905
20
40.2323173455306
30
0.0
41
1.0
10
26.3116100455428
20
40.3057870736535
30
0.0
41
1.0
10
26.1238358772195
20
40.3737259640966
30
0.0
41
1.0
10
25.9363105807637
20
40.4361638808032
30
0.0
41
1.0
10
25.7493658927893
20
40.4931575589741
30
0.0
41
1.0
10
25.5633179640121
20
40.5447898174128
30
0.0
41
1.0
10
25.378463844449
20
40.5911685300968
30
0.0
41
1.0
10
25.1950778370161
20
40.6324253579737
30
0.0
41
1.0
10
25.0134076999554
20
40.6687142436879
30
0.0
41
1.0
10
24.8336706716246
20
40.7002096742601
30
0.0
41
1.0
10
24.6560492828987
20
40.7271047199424
30
0.0
41
1.0
10
24.4806869125181
20
40.7496088619601
30
0.0
41
1.0
10
24.3076830289498
20
40.7679456281876
30
0.0
41
1.0
10
24.1370880484957
20
40.7823500648133
30
0.0
41
1.0
10
23.9688977233614
20
40.7930660848724
30
0.0
41
1.0
10
23.8030469552514
20
40.8003437527952
30
0.0
41
1.0
10
23.6394029101979
20
40.8044365901285
30
0.0
41
1.0
10
23.4777572898608
20
40.8055990245238
30
0.0
41
1.0
10
23.3178175956944
20
40.8040841563778
30
0.0
41
1.0
10
23.15919720944
20
40.800142091157
30
0.0
41
1.0
10
23.00140411397
20
40.7940191884616
30
0.0
41
1.0
10
22.843828105687
20
40.7859587215673
30
0.0
41
1.0
10
22.6857264254091
20
40.7762036360438
30
0.0
41
1.0
10
22.5262078947693
20
40.7650023566876
30
0.0
41
1.0
10
22.364215946564
20
40.7526189298192
30
0.0
41
1.0
10
22.198511467922
20
40.739349204324
30
0.0
41
1.0
10
22.0276572640349
20
40.7255452244705
30
0.0
41
1.0
10
21.8500073762725
20
40.7116504473414
30
0.0
41
1.0
10
21.6637066721658
20
40.6982486109866
30
0.0
41
1.0
10
21.466709276861
20
40.6861286684955
30
0.0
41
1.0
10
21.2568285893118
20
40.676366454376
30
0.0
41
1.0
10
21.031836384923
20
40.6704195383712
30
0.0
41
1.0
10
20.7896323133981
20
40.6702235916508
30
0.0
41
1.0
10
20.528504456469
20
40.6782653464323
30
0.0
41
1.0
10
20.247490395313
20
40.6975895773653
30
0.0
41
1.0
10
19.9468186797818
20
40.7316810747629
30
0.0
41
1.0
10
19.6283583552162
20
40.7841609954748
30
0.0
41
1.0
10
19.2959391670581
20
40.8582707542005
30
0.0
41
1.0
10
18.9553625285477
20
40.9561998419736
30
0.0
41
1.0
10
18.6139580865034
20
41.0784282482048
30
0.0
41
1.0
10
18.2796856492563
20
41.2233319706498
30
0.0
41
1.0
10
17.9599903721707
20
41.3872575477332
30
0.0
41
1.0
10
17.6607613098368
20
41.5650919639389
30
0.0
41
1.0
10
17.3857073697597
20
41.7511371220456
30
0.0
41
1.0
10
17.1362685693744
20
41.939987721865
30
0.0
41
1.0
10
16.9119613866619
20
42.1271659745694
30
0.0
41
1.0
10
16.7109419899107
20
42.3094184511622
30
0.0
41
1.0
10
16.5305835065425
20
42.4847194217999
30
0.0
41
1.0
10
16.3679447439383
20
42.6520910485895
30
0.0
41
1.0
10
16.2200912175254
20
42.8113494958883
30
0.0
41
1.0
10
16.0842821782054
20
42.9628521927925
30
0.0
41
1.0
10
15.9580582921012
20
43.1072845563801
30
0.0
41
1.0
10
15.8392655010343
20
43.2454978630754
30
0.0
41
1.0
10
15.7260429880493
20
43.3783952743716
30
0.0
41
1.0
10
15.61679413667
20
43.5068570653599
30
0.0
41
1.0
10
15.5101519073639
20
43.6316951102917
30
0.0
41
1.0
10
15.4049448330931
20
43.7536279227222
30
0.0
41
1.0
10
15.3001665530842
20
43.8732694640093
30
0.0
41
1.0
10
15.1949499099806
20
43.9911267823418
30
0.0
41
1.0
10
15.0885456351951
20
44.1076030556676
30
0.0
41
1.0
10
14.9803051795633
20
44.223003745103
30
0.0
41
1.0
10
14.8696670755027
20
44.3375443709865
30
0.0
41
1.0
10
14.756146199508
20
44.4513589757423
30
0.0
41
1.0
10
14.6393253577044
20
44.5645087055034
30
0.0
41
1.0
10
14.5188486976148
20
44.6769901817226
30
0.0
41
1.0
10
14.3944165335258
20
44.7887434860793
30
0.0
41
1.0
10
14.2657812503604
20
44.899659676179
30
0.0
41
1.0
10
14.1327440178712
20
45.0095878059502
30
0.0
41
1.0
10
13.9951521026096
20
45.1183414568251
30
0.0
41
1.0
10
13.852896610388
20
45.2257048027141
30
0.0
41
1.0
10
13.7059105282761
20
45.3314382393115
30
0.0
41
1.0
10
13.5541669640811
20
45.4352836101908
30
0.0
41
1.0
10
13.3976775041869
20
45.536969060872
30
0.0
41
1.0
10
13.2364906287741
20
45.636213549094
30
0.0
41
1.0
10
13.0706901378165
20
45.7327310358261
30
0.0
41
1.0
10
12.9003935526663
20
45.8262343776805
30
0.0
41
1.0
10
12.7257504671256
20
45.9164389376428
30
0.0
41
1.0
10
12.5469408291769
20
46.0030659276177
30
0.0
41
1.0
10
12.3641731403787
20
46.0858454932496
30
0.0
41
1.0
10
12.1776825646448
20
46.1645195488604
30
0.0
41
1.0
10
11.9877289419366
20
46.2388443681394
30
0.0
41
1.0
10
11.7945947054931
20
46.3085929343875
30
0.0
41
1.0
10
11.598582703736
20
46.3735570526344
30
0.0
41
1.0
10
11.4000139300224
20
46.4335492247686
30
0.0
41
1.0
10
11.1992251650547
20
46.488404287904
30
0.0
41
1.0
10
10.9965665380538
20
46.5379808155175
30
0.0
41
1.0
10
10.7923990138006
20
46.5821622803946
30
0.0
41
1.0
10
10.5870918133843
20
46.6208579780715
30
0.0
41
1.0
10
10.3810197769801
20
46.654003709241
30
0.0
41
1.0
10
10.1745606772312
20
46.6815622194569
30
0.0
41
1.0
10
9.96809249182434
20
46.7035233944054
30
0.0
41
1.0
10
9.76199064362942
20
46.719904208978
30
0.0
41
1.0
10
9.55662521630443
20
46.7307484283645
30
0.0
41
1.0
10
9.35235815252839
20
46.7361260593501
30
0.0
41
1.0
10
9.14954044099121
20
46.7361325499336
30
0.0
41
1.0
10
8.94850929689808
20
46.730887735262
30
0.0
41
1.0
10
8.74958533899088
20
46.7205345276774
30
0.0
41
1.0
10
8.5530697638812
20
46.7052373483858
30
0.0
41
1.0
10
8.35924151574907
20
46.6851802978714
30
0.0
41
1.0
10
8.16835444608154
20
46.6605650616989
30
0.0
41
1.0
10
7.98063445397428
20
46.6316085477772
30
0.0
41
1.0
10
7.79627659243166
20
46.5985402505459
30
0.0
41
1.0
10
7.61544211986984
20
46.5615993369543
30
0.0
41
1.0
10
7.43825546839623
20
46.5210314486566
30
0.0
41
1.0
10
7.26480109109542
20
46.4770852147429
30
0.0
41
1.0
10
7.09512013911355
20
46.4300084698774
30
0.0
41
1.0
10
6.92920690535311
20
46.3800441744152
30
0.0
41
1.0
10
6.76700495454619
20
46.3274260366527
30
0.0
41
1.0
10
6.60840283880656
20
46.2723738439738
30
0.0
41
1.0
10
6.45322927290563
20
46.2150885209604
30
0.0
41
1.0
10
6.30124761403661
20
46.1557469510638
30
0.0
41
1.0
10
6.15214945661647
20
46.0944966278899
30
0.0
41
1.0
10
6.00554711436
20
46.0314502479696
30
0.0
41
1.0
10
5.86096472153456
20
45.9666804269413
30
0.0
41
1.0
10
5.71782764776988
20
45.9002148266234
30
0.0
41
1.0
10
5.5754498956935
20
45.8320321372668
30
0.0
41
1.0
10
5.43301915600487
20
45.7620595888304
30
0.0
41
1.0
10
5.2895792624758
20
45.6901729953021
30
0.0
41
1.0
10
5.14400997480447
20
45.6162008003825
30
0.0
41
1.0
10
4.99500441124419
20
45.5399342253642
30
0.0
41
1.0
10
4.84104519981552
20
45.4611464416565
30
0.0
41
1.0
10
4.68038173338175
20
45.3796246769947
30
0.0
41
1.0
10
4.51101309901194
20
45.2952201828787
30
0.0
41
1.0
10
4.33068466021969
20
45.2079216843389
30
0.0
41
1.0
10
4.13691118543788
20
45.1179575418347
30
0.0
41
1.0
10
3.92704571376868
20
45.025928999171
30
0.0
41
1.0
10
3.69841980194193
20
44.9329694628526
30
0.0
41
1.0
10
3.44858394996675
20
44.8409103237749
30
0.0
41
1.0
10
3.17567002092215
20
44.7524112932347
30
0.0
41
1.0
10
2.87887049504469
20
44.6709864930983
30
0.0
41
1.0
10
2.55897453541791
20
44.6008404853833
30
0.0
41
1.0
10
2.21882444086793
20
44.5464461202077
30
0.0
41
1.0
10
1.86349353654826
20
44.5118725651467
30
0.0
41
1.0
10
1.50000000000002
20
44.5
30
0.0
41
1.0
10
1.13650646345178
20
44.5118725651467
30
0.0
41
1.0
10
0.781175559132101
20
44.5464461202076
30
0.0
41
1.0
10
0.44102546458212
20
44.6008404853833
30
0.0
41
1.0
10
0.12112950495534
20
44.6709864930983
30
0.0
41
1.0
10
-0.175670020922136
20
44.7524112932347
30
0.0
41
1.0
10
-0.448583949966713
20
44.8409103237749
30
0.0
41
1.0
10
-0.698419801941911
20
44.9329694628526
30
0.0
41
1.0
10
-0.92704571376866
20
45.025928999171
30
0.0
41
1.0
10
-1.13691118543787
20
45.1179575418347
30
0.0
41
1.0
10
-1.33068466021968
20
45.2079216843389
30
0.0
41
1.0
10
-1.51101309901192
20
45.2952201828787
30
0.0
41
1.0
10
-1.68038173338174
20
45.3796246769947
30
0.0
41
1.0
10
-1.84104519981551
20
45.4611464416565
30
0.0
41
1.0
10
-1.99500441124418
20
45.5399342253642
30
0.0
41
1.0
10
-2.14400997480446
20
45.6162008003825
30
0.0
41
1.0
10
-2.28957926247579
20
45.6901729953021
30
0.0
41
1.0
10
-2.43301915600485
20
45.7620595888304
30
0.0
41
1.0
10
-2.57544989569349
20
45.8320321372668
30
0.0
41
1.0
10
-2.71782764776986
20
45.9002148266234
30
0.0
41
1.0
10
-2.86096472153455
20
45.9666804269413
30
0.0
41
1.0
10
-3.00554711435998
20
46.0314502479696
30
0.0
41
1.0
10
-3.15214945661646
20
46.0944966278899
30
0.0
41
1.0
10
-3.30124761403659
20
46.1557469510638
30
0.0
41
1.0
10
-3.45322927290562
20
46.2150885209604
30
0.0
41
1.0
10
-3.60840283880656
20
46.2723738439738
30
0.0
41
1.0
10
-3.76700495454618
20
46.3274260366527
30
0.0
41
1.0
10
-3.92920690535309
20
46.3800441744152
30
0.0
41
1.0
10
-4.09512013911354
20
46.4300084698774
30
0.0
41
1.0
10
-4.26480109109539
20
46.4770852147429
30
0.0
41
1.0
10
-4.43825546839623
20
46.5210314486566
30
0.0
41
1.0
10
-4.61544211986982
20
46.5615993369543
30
0.0
41
1.0
10
-4.79627659243165
20
46.5985402505459
30
0.0
41
1.0
10
-4.98063445397427
20
46.6316085477772
30
0.0
41
1.0
10
-5.16835444608153
20
46.6605650616989
30
0.0
41
1.0
10
-5.35924151574905
20
46.6851802978714
30
0.0
41
1.0
10
-5.55306976388118
20
46.7052373483858
30
0.0
41
1.0
10
-5.74958533899087
20
46.7205345276774
30
0.0
41
1.0
10
-5.94850929689807
20
46.730887735262
30
0.0
41
1.0
10
-6.1495404409912
20
46.7361325499336
30
0.0
41
1.0
10
-6.35235815252838
20
46.7361260593501
30
0.0
41
1.0
10
-6.55662521630441
20
46.7307484283645
30
0.0
41
1.0
10
-6.7619906436294
20
46.719904208978
30
0.0
41
1.0
10
-6.96809249182432
20
46.7035233944054
30
0.0
41
1.0
10
-7.1745606772312
20
46.6815622194569
30
0.0
41
1.0
10
-7.38101977698011
20
46.654003709241
30
0.0
41
1.0
10
-7.5870918133843
20
46.6208579780715
30
0.0
41
1.0
10
-7.79239901380063
20
46.5821622803946
30
0.0
41
1.0
10
-7.99656653805376
20
46.5379808155175
30
0.0
41
1.0
10
-8.19922516505464
20
46.488404287904
30
0.0
41
1.0
10
-8.40001393002234
20
46.4335492247686
30
0.0
41
1.0
10
-8.59858270373596
20
46.3735570526344
30
0.0
41
1.0
10
-8.79459470549306
20
46.3085929343875
30
0.0
41
1.0
10
-8.98772894193657
20
46.2388443681394
30
0.0
41
1.0
10
-9.17768256464478
20
46.1645195488604
30
0.0
41
1.0
10
-9.36417314037868
20
46.0858454932496
30
0.0
41
1.0
10
-9.54694082917685
20
46.0030659276177
30
0.0
41
1.0
10
-9.72575046712556
20
45.9164389376428
30
0.0
41
1.0
10
-9.90039355266625
20
45.8262343776805
30
0.0
41
1.0
10
-10.0706901378165
20
45.7327310358261
30
0.0
41
1.0
10
-10.236490628774
20
45.636213549094
30
0.0
41
1.0
10
-10.3976775041869
20
45.536969060872
30
0.0
41
1.0
10
-10.5541669640811
20
45.4352836101908
30
0.0
41
1.0
10
-10.7059105282761
20
45.3314382393115
30
0.0
41
1.0
10
-10.8528966103879
20
45.2257048027141
30
0.0
41
1.0
10
-10.9951521026096
20
45.1183414568251
30
0.0
41
1.0
10
-11.1327440178712
20
45.0095878059503
30
0.0
41
1.0
10
-11.2657812503604
20
44.8996596761791
30
0.0
41
1.0
10
-11.3944165335258
20
44.7887434860793
30
0.0
41
1.0
10
-11.5188486976148
20
44.6769901817226
30
0.0
41
1.0
10
-11.6393253577044
20
44.5645087055034
30
0.0
41
1.0
10
-11.756146199508
20
44.4513589757423
30
0.0
41
1.0
10
-11.8696670755026
20
44.3375443709865
30
0.0
41
1.0
10
-11.9803051795632
20
44.223003745103
30
0.0
41
1.0
10
-12.0885456351951
20
44.1076030556676
30
0.0
41
1.0
10
-12.1949499099806
20
43.9911267823418
30
0.0
41
1.0
10
-12.3001665530842
20
43.8732694640094
30
0.0
41
1.0
10
-12.4049448330931
20
43.7536279227222
30
0.0
41
1.0
10
-12.5101519073639
20
43.6316951102917
30
0.0
41
1.0
10
-12.61679413667
20
43.5068570653599
30
0.0
41
1.0
10
-12.7260429880493
20
43.3783952743716
30
0.0
41
1.0
10
-12.8392655010342
20
43.2454978630754
30
0.0
41
1.0
10
-12.9580582921011
20
43.1072845563801
30
0.0
41
1.0
10
-13.0842821782054
20
42.9628521927925
30
0.0
41
1.0
10
-13.2200912175254
20
42.8113494958883
30
0.0
41
1.0
10
-13.3679447439383
20
42.6520910485895
30
0.0
41
1.0
10
-13.5305835065425
20
42.4847194217999
30
0.0
41
1.0
10
-13.7109419899107
20
42.3094184511622
30
0.0
41
1.0
10
-13.9119613866619
20
42.1271659745694
30
0.0
41
1.0
10
-14.1362685693743
20
41.939987721865
30
0.0
41
1.0
10
-14.3857073697597
20
41.7511371220456
30
0.0
41
1.0
10
-14.6607613098368
20
41.5650919639389
30
0.0
41
1.0
10
-14.9599903721707
20
41.3872575477332
30
0.0
41
1.0
10
-15.2796856492562
20
41.2233319706499
30
0.0
41
1.0
10
-15.6139580865034
20
41.0784282482048
30
0.0
41
1.0
10
-15.9553625285477
20
40.9561998419736
30
0.0
41
1.0
10
-16.295939167058
20
40.8582707542005
30
0.0
41
1.0
10
-16.6283583552162
20
40.7841609954747
30
0.0
41
1.0
10
-16.9468186797818
20
40.7316810747629
30
0.0
41
1.0
10
-17.2474903953129
20
40.6975895773653
30
0.0
41
1.0
10
-17.528504456469
20
40.6782653464323
30
0.0
41
1.0
10
-17.7896323133981
20
40.6702235916508
30
0.0
41
1.0
10
-18.031836384923
20
40.6704195383712
30
0.0
41
1.0
10
-18.2568285893118
20
40.676366454376
30
0.0
41
1.0
10
-18.466709276861
20
40.6861286684955
30
0.0
41
1.0
10
-18.6637066721657
20
40.6982486109866
30
0.0
41
1.0
10
-18.8500073762725
20
40.7116504473414
30
0.0
41
1.0
10
-19.0276572640349
20
40.7255452244705
30
0.0
41
1.0
10
-19.198511467922
20
40.7393492043241
30
0.0
41
1.0
10
-19.364215946564
20
40.7526189298192
30
0.0
41
1.0
10
-19.5262078947693
20
40.7650023566876
30
0.0
41
1.0
10
-19.6857264254091
20
40.7762036360438
30
0.0
41
1.0
10
-19.843828105687
20
40.7859587215673
30
0.0
41
1.0
10
-20.00140411397
20
40.7940191884616
30
0.0
41
1.0
10
-20.15919720944
20
40.800142091157
30
0.0
41
1.0
10
-20.3178175956944
20
40.8040841563778
30
0.0
41
1.0
10
-20.4777572898608
20
40.8055990245238
30
0.0
41
1.0
10
-20.6394029101978
20
40.8044365901285
30
0.0
41
1.0
10
-20.8030469552514
20
40.8003437527952
30
0.0
41
1.0
10
-20.9688977233614
20
40.7930660848724
30
0.0
41
1.0
10
-21.1370880484956
20
40.7823500648134
30
0.0
41
1.0
10
-21.3076830289498
20
40.7679456281876
30
0.0
41
1.0
10
-21.4806869125181
20
40.7496088619601
30
0.0
41
1.0
10
-21.6560492828987
20
40.7271047199423
30
0.0
41
1.0
10
-21.8336706716246
20
40.7002096742601
30
0.0
41
1.0
10
-22.0134076999554
20
40.6687142436879
30
0.0
41
1.0
10
-22.1950778370161
20
40.6324253579737
30
0.0
41
1.0
10
-22.378463844449
20
40.5911685300968
30
0.0
41
1.0
10
-22.5633179640121
20
40.5447898174128
30
0.0
41
1.0
10
-22.7493658927893
20
40.4931575589741
30
0.0
41
1.0
10
-22.9363105807637
20
40.4361638808032
30
0.0
41
1.0
10
-23.1238358772195
20
40.3737259640966
30
0.0
41
1.0
10
-23.3116100455428
20
40.3057870736535
30
0.0
41
1.0
10
-23.4992891602904
20
40.2323173455307
30
0.0
41
1.0
10
-23.6865203956938
20
40.153314334215
30
0.0
41
1.0
10
-23.8729452109116
20
40.0688033206079
30
0.0
41
1.0
10
-24.0582024342061
20
39.978837382919
30
0.0
41
1.0
10
-24.2419312456767
20
39.88349723323
30
0.0
41
1.0
10
-24.4237740561581
20
39.7828908230417
30
0.0
41
1.0
10
-24.6033792782909
20
39.6771527215893
30
0.0
41
1.0
10
-24.7804039845506
20
39.5664432711004
30
0.0
41
1.0
10
-24.95451644611
20
39.4509475234852
30
0.0
41
1.0
10
-25.125398545788
20
39.3308739631797
30
0.0
41
1.0
10
-25.2927480579504
20
39.2064530209985
30
0.0
41
1.0
10
-25.4562807880698
20
39.0779353838806
30
0.0
41
1.0
10
-25.6157325646866
20
38.9455901053083
30
0.0
41
1.0
10
-25.7708610767439
20
38.8097025209199
30
0.0
41
1.0
10
-25.9214475496734
20
38.6705719733979
30
0.0
41
1.0
10
-26.0672982542037
20
38.5285093500559
30
0.0
41
1.0
10
-26.2082458426403
20
38.3838344356353
30
0.0
41
1.0
10
-26.3441505083557
20
38.2368730816132
30
0.0
41
1.0
10
-26.4749009654553
20
38.0879541917541
30
0.0
41
1.0
10
-26.6004152470826
20
37.9374065216611
30
0.0
41
1.0
10
-26.7206413226796
20
37.7855552876246
30
0.0
41
1.0
10
-26.8355575367916
20
37.632718577036
30
0.0
41
1.0
10
-26.9451728748325
20
37.4792035489706
30
0.0
41
1.0
10
-27.049527064778
20
37.3253024091235
30
0.0
41
1.0
10
-27.1486905282459
20
37.1712881380254
30
0.0
41
1.0
10
-27.2427642001799
20
37.0174099452824
30
0.0
41
1.0
10
-27.3318792437854
20
36.8638884153925
30
0.0
41
1.0
10
-27.4161966970559
20
36.7109103024937
30
0.0
41
1.0
10
-27.4959070999332
20
36.5586229222661
30
0.0
41
1.0
10
-27.5712301679123
20
36.4071280794087
30
0.0
41
1.0
10
-27.6424146000995
20
36.2564754592187
30
0.0
41
1.0
10
-27.7097381391969
20
36.106655402897
30
0.0
41
1.0
10
-27.7735080399901
20
35.9575909802436
30
0.0
41
1.0
10
-27.8340621547046
20
35.8091292736947
30
0.0
41
1.0
10
-27.8917709118161
20
35.661031799713
30
0.0
41
1.0
10
-27.9470405539344
20
35.5129640263321
30
0.0
41
1.0
10
-28.0003181148077
20
35.3644840134947
30
0.0
41
1.0
10
-28.0520987589975
20
35.2150303281628
30
0.0
41
1.0
10
-28.1029362807136
20
35.0639096035382
30
0.0
41
1.0
10
-28.1534577526984
20
34.9102844728645
30
0.0
41
1.0
10
-28.2043835062875
20
34.7531631880677
30
0.0
41
1.0
10
-28.2565537495917
20
34.5913931347281
30
0.0
41
1.0
10
-28.3109630688593
20
34.4236618064147
30
0.0
41
1.0
10
-28.3688035780739
20
34.2485107377048
30
0.0
41
1.0
10
-28.4315161870087
20
34.0643704923618
30
0.0
41
1.0
10
-28.5008467283608
20
33.8696279285537
30
0.0
41
1.0
10
-28.5788986824238
20
33.6627399782237
30
0.0
41
1.0
10
-28.6681661230105
20
33.4424094496275
30
0.0
41
1.0
10
-28.7715191406406
20
33.2078346673333
30
0.0
41
1.0
10
-28.8921014662233
20
32.9590310620248
30
0.0
41
1.0
10
-29.0330929732588
20
32.6971936133675
30
0.0
41
1.0
10
-29.197301083904
20
32.4250231921655
30
0.0
41
1.0
10
-29.3865908511109
20
32.1468894834031
30
0.0
41
1.0
10
-29.6012491805685
20
31.868681365372
30
0.0
41
1.0
10
-29.839477196812
20
31.597247737677
30
0.0
41
1.0
10
-30.0972477376769
20
31.339477196812
30
0.0
41
1.0
10
-30.368681365372
20
31.1012491805686
30
0.0
41
1.0
10
-30.6468894834031
20
30.8865908511109
30
0.0
41
1.0
10
-30.9250231921655
20
30.697301083904
30
0.0
41
1.0
10
-31.1971936133674
20
30.5330929732588
30
0.0
41
1.0
10
-31.4590310620248
20
30.3921014662233
30
0.0
41
1.0
10
-31.7078346673332
20
30.2715191406407
30
0.0
41
1.0
10
-31.9424094496275
20
30.1681661230105
30
0.0
41
1.0
10
-32.1627399782237
20
30.0788986824238
30
0.0
41
1.0
10
-32.3696279285537
20
30.0008467283608
30
0.0
41
1.0
10
-32.5643704923618
20
29.9315161870087
30
0.0
41
1.0
10
-32.7485107377048
20
29.8688035780739
30
0.0
41
1.0
10
-32.9236618064147
20
29.8109630688593
30
0.0
41
1.0
10
-33.0913931347281
20
29.7565537495917
30
0.0
41
1.0
10
-33.2531631880676
20
29.7043835062875
30
0.0
41
1.0
10
-33.4102844728645
20
29.6534577526984
30
0.0
41
1.0
10
-33.5639096035382
20
29.6029362807136
30
0.0
41
1.0
10
-33.7150303281628
20
29.5520987589976
30
0.0
41
1.0
10
-33.8644840134947
20
29.5003181148077
30
0.0
41
1.0
10
-34.012964026332
20
29.4470405539344
30
0.0
41
1.0
10
-34.1610317997129
20
29.391770911816
30
0.0
41
1.0
10
-34.3091292736947
20
29.3340621547046
30
0.0
41
1.0
10
-34.4575909802435
20
29.2735080399901
30
0.0
41
1.0
10
-34.6066554028969
20
29.2097381391969
30
0.0
41
1.0
10
-34.7564754592187
20
29.1424146000995
30
0.0
41
1.0
10
-34.9071280794087
20
29.0712301679123
30
0.0
41
1.0
10
-35.0586229222661
20
28.9959070999332
30
0.0
41
1.0
10
-35.2109103024937
20
28.9161966970559
30
0.0
41
1.0
10
-35.3638884153925
20
28.8318792437854
30
0.0
41
1.0
10
-35.5174099452824
20
28.7427642001799
30
0.0
41
1.0
10
-35.6712881380254
20
28.6486905282459
30
0.0
41
1.0
10
-35.8253024091235
20
28.549527064778
30
0.0
41
1.0
10
-35.9792035489706
20
28.4451728748325
30
0.0
41
1.0
10
-36.1327185770359
20
28.3355575367917
30
0.0
41
1.0
10
-36.2855552876246
20
28.2206413226797
30
0.0
41
1.0
10
-36.4374065216611
20
28.1004152470826
30
0.0
41
1.0
10
-36.587954191754
20
27.9749009654554
30
0.0
41
1.0
10
-36.7368730816132
20
27.8441505083557
30
0.0
41
1.0
10
-36.8838344356352
20
27.7082458426403
30
0.0
41
1.0
10
-37.0285093500558
20
27.5672982542038
30
0.0
41
1.0
10
-37.1705719733979
20
27.4214475496734
30
0.0
41
1.0
10
-37.3097025209198
20
27.2708610767439
30
0.0
41
1.0
10
-37.4455901053082
20
27.1157325646867
30
0.0
41
1.0
10
-37.5779353838806
20
26.9562807880698
30
0.0
41
1.0
10
-37.7064530209985
20
26.7927480579505
30
0.0
41
1.0
10
-37.8308739631797
20
26.625398545788
30
0.0
41
1.0
10
-37.9509475234852
20
26.45451644611
30
0.0
41
1.0
10
-38.0664432711004
20
26.2804039845507
30
0.0
41
1.0
10
-38.1771527215893
20
26.103379278291
30
0.0
41
1.0
10
-38.2828908230417
20
25.9237740561581
30
0.0
41
1.0
10
-38.38349723323
20
25.7419312456767
30
0.0
41
1.0
10
-38.478837382919
20
25.5582024342061
30
0.0
41
1.0
10
-38.5688033206078
20
25.3729452109116
30
0.0
41
1.0
10
-38.653314334215
20
25.1865203956938
30
0.0
41
1.0
10
-38.7323173455307
20
24.9992891602905
30
0.0
41
1.0
10
-38.8057870736535
20
24.8116100455428
30
0.0
41
1.0
10
-38.8737259640966
20
24.6238358772195
30
0.0
41
1.0
10
-38.9361638808032
20
24.4363105807638
30
0.0
41
1.0
10
-38.9931575589741
20
24.2493658927893
30
0.0
41
1.0
10
-39.0447898174128
20
24.0633179640121
30
0.0
41
1.0
10
-39.0911685300968
20
23.878463844449
30
0.0
41
1.0
10
-39.1324253579737
20
23.6950778370161
30
0.0
41
1.0
10
-39.1687142436879
20
23.5134076999555
30
0.0
41
1.0
10
-39.2002096742601
20
23.3336706716246
30
0.0
41
1.0
10
-39.2271047199424
20
23.1560492828987
30
0.0
41
1.0
10
-39.2496088619601
20
22.9806869125181
30
0.0
41
1.0
10
-39.2679456281876
20
22.8076830289498
30
0.0
41
1.0
10
-39.2823500648133
20
22.6370880484957
30
0.0
41
1.0
10
-39.2930660848724
20
22.4688977233614
30
0.0
41
1.0
10
-39.3003437527952
20
22.3030469552514
30
0.0
41
1.0
10
-39.3044365901285
20
22.1394029101979
30
0.0
41
1.0
10
-39.3055990245238
20
21.9777572898608
30
0.0
41
1.0
10
-39.3040841563778
20
21.8178175956944
30
0.0
41
1.0
10
-39.300142091157
20
21.65919720944
30
0.0
41
1.0
10
-39.2940191884616
20
21.50140411397
30
0.0
41
1.0
10
-39.2859587215673
20
21.343828105687
30
0.0
41
1.0
10
-39.2762036360438
20
21.1857264254091
30
0.0
41
1.0
10
-39.2650023566876
20
21.0262078947693
30
0.0
41
1.0
10
-39.2526189298192
20
20.864215946564
30
0.0
41
1.0
10
-39.239349204324
20
20.698511467922
30
0.0
41
1.0
10
-39.2255452244705
20
20.5276572640349
30
0.0
41
1.0
10
-39.2116504473414
20
20.3500073762725
30
0.0
41
1.0
10
-39.1982486109865
20
20.1637066721658
30
0.0
41
1.0
10
-39.1861286684955
20
19.966709276861
30
0.0
41
1.0
10
-39.176366454376
20
19.7568285893118
30
0.0
41
1.0
10
-39.1704195383712
20
19.531836384923
30
0.0
41
1.0
10
-39.1702235916508
20
19.2896323133981
30
0.0
41
1.0
10
-39.1782653464323
20
19.028504456469
30
0.0
41
1.0
10
-39.1975895773653
20
18.747490395313
30
0.0
41
1.0
10
-39.2316810747629
20
18.4468186797818
30
0.0
41
1.0
10
-39.2841609954748
20
18.1283583552162
30
0.0
41
1.0
10
-39.3582707542005
20
17.7959391670581
30
0.0
41
1.0
10
-39.4561998419736
20
17.4553625285477
30
0.0
41
1.0
10
-39.5784282482047
20
17.1139580865035
30
0.0
41
1.0
10
-39.7233319706498
20
16.7796856492563
30
0.0
41
1.0
10
-39.8872575477332
20
16.4599903721707
30
0.0
41
1.0
10
-40.0650919639389
20
16.1607613098368
30
0.0
41
1.0
10
-40.2511371220456
20
15.8857073697597
30
0.0
41
1.0
10
-40.439987721865
20
15.6362685693744
30
0.0
41
1.0
10
-40.6271659745694
20
15.4119613866619
30
0.0
41
1.0
10
-40.8094184511622
20
15.2109419899107
30
0.0
41
1.0
10
-40.9847194217999
20
15.0305835065425
30
0.0
41
1.0
10
-41.1520910485895
20
14.8679447439383
30
0.0
41
1.0
10
-41.3113494958883
20
14.7200912175254
30
0.0
41
1.0
10
-41.4628521927925
20
14.5842821782054
30
0.0
41
1.0
10
-41.6072845563801
20
14.4580582921011
30
0.0
41
1.0
10
-41.7454978630754
20
14.3392655010343
30
0.0
41
1.0
10
-41.8783952743716
20
14.2260429880493
30
0.0
41
1.0
10
-42.0068570653599
20
14.11679413667
30
0.0
41
1.0
10
-42.1316951102917
20
14.0101519073639
30
0.0
41
1.0
10
-42.2536279227222
20
13.9049448330931
30
0.0
41
1.0
10
-42.3732694640094
20
13.8001665530842
30
0.0
41
1.0
10
-42.4911267823418
20
13.6949499099806
30
0.0
41
1.0
10
-42.6076030556676
20
13.5885456351951
30
0.0
41
1.0
10
-42.723003745103
20
13.4803051795633
30
0.0
41
1.0
10
-42.8375443709865
20
13.3696670755027
30
0.0
41
1.0
10
-42.9513589757423
20
13.256146199508
30
0.0
41
1.0
10
-43.0645087055034
20
13.1393253577044
30
0.0
41
1.0
10
-43.1769901817226
20
13.0188486976148
30
0.0
41
1.0
10
-43.2887434860793
20
12.8944165335258
30
0.0
41
1.0
10
-43.399659676179
20
12.7657812503604
30
0.0
41
1.0
10
-43.5095878059502
20
12.6327440178712
30
0.0
41
1.0
10
-43.6183414568251
20
12.4951521026096
30
0.0
41
1.0
10
-43.7257048027141
20
12.352896610388
30
0.0
41
1.0
10
-43.8314382393115
20
12.2059105282761
30
0.0
41
1.0
10
-43.9352836101907
20
12.0541669640811
30
0.0
41
1.0
10
-44.036969060872
20
11.8976775041869
30
0.0
41
1.0
10
-44.136213549094
20
11.7364906287741
30
0.0
41
1.0
10
-44.2327310358261
20
11.5706901378165
30
0.0
41
1.0
10
-44.3262343776805
20
11.4003935526663
30
0.0
41
1.0
10
-44.4164389376428
20
11.2257504671256
30
0.0
41
1.0
10
-44.5030659276177
20
11.0469408291769
30
0.0
41
1.0
10
-44.5858454932496
20
10.8641731403787
30
0.0
41
1.0
10
-44.6645195488604
20
10.6776825646448
30
0.0
41
1.0
10
-44.7388443681394
20
10.4877289419366
30
0.0
41
1.0
10
-44.8085929343875
20
10.2945947054931
30
0.0
41
1.0
10
-44.8735570526344
20
10.098582703736
30
0.0
41
1.0
10
-44.9335492247686
20
9.90001393002237
30
0.0
41
1.0
10
-44.988404287904
20
9.69922516505466
30
0.0
41
1.0
10
-45.0379808155175
20
9.49656653805378
30
0.0
41
1.0
10
-45.0821622803946
20
9.29239901380064
30
0.0
41
1.0
10
-45.1208579780715
20
9.08709181338435
30
0.0
41
1.0
10
-45.154003709241
20
8.88101977698013
30
0.0
41
1.0
10
-45.1815622194569
20
8.67456067723123
30
0.0
41
1.0
10
-45.2035233944054
20
8.46809249182435
30
0.0
41
1.0
10
-45.2199042089779
20
8.26199064362943
30
0.0
41
1.0
10
-45.2307484283645
20
8.05662521630444
30
0.0
41
1.0
10
-45.2361260593501
20
7.85235815252841
30
0.0
41
1.0
10
-45.2361325499336
20
7.64954044099122
30
0.0
41
1.0
10
-45.230887735262
20
7.4485092968981
30
0.0
41
1.0
10
-45.2205345276774
20
7.2495853389909
30
0.0
41
1.0
10
-45.2052373483858
20
7.05306976388121
30
0.0
41
1.0
10
-45.1851802978714
20
6.85924151574907
30
0.0
41
1.0
10
-45.1605650616989
20
6.66835444608154
30
0.0
41
1.0
10
-45.1316085477772
20
6.48063445397429
30
0.0
41
1.0
10
-45.0985402505459
20
6.29627659243167
30
0.0
41
1.0
10
-45.0615993369543
20
6.11544211986984
30
0.0
41
1.0
10
-45.0210314486566
20
5.93825546839624
30
0.0
41
1.0
10
-44.9770852147429
20
5.76480109109543
30
0.0
41
1.0
10
-44.9300084698774
20
5.59512013911356
30
0.0
41
1.0
10
-44.8800441744152
20
5.4292069053531
30
0.0
41
1.0
10
-44.8274260366527
20
5.2670049545462
30
0.0
41
1.0
10
-44.7723738439738
20
5.10840283880656
30
0.0
41
1.0
10
-44.7150885209604
20
4.95322927290565
30
0.0
41
1.0
10
-44.6557469510638
20
4.80124761403661
30
0.0
41
1.0
10
-44.5944966278899
20
4.65214945661647
30
0.0
41
1.0
10
-44.5314502479696
20
4.50554711436001
30
0.0
41
1.0
10
-44.4666804269413
20
4.36096472153456
30
0.0
41
1.0
10
-44.4002148266234
20
4.21782764776989
30
0.0
41
1.0
10
-44.3320321372668
20
4.0754498956935
30
0.0
41
1.0
10
-44.2620595888304
20
3.93301915600488
30
0.0
41
1.0
10
-44.1901729953021
20
3.7895792624758
30
0.0
41
1.0
10
-44.1162008003826
20
3.64400997480448
30
0.0
41
1.0
10
-44.0399342253642
20
3.49500441124421
30
0.0
41
1.0
10
-43.9611464416565
20
3.34104519981553
30
0.0
41
1.0
10
-43.8796246769947
20
3.18038173338175
30
0.0
41
1.0
10
-43.7952201828787
20
3.01101309901194
30
0.0
41
1.0
10
-43.7079216843389
20
2.83068466021969
30
0.0
41
1.0
10
-43.6179575418347
20
2.6369111854379
30
0.0
41
1.0
10
-43.525928999171
20
2.42704571376868
30
0.0
41
1.0
10
-43.4329694628526
20
2.19841980194195
30
0.0
41
1.0
10
-43.3409103237749
20
1.94858394996675
30
0.0
41
1.0
10
-43.2524112932347
20
1.67567002092216
30
0.0
41
1.0
10
-43.1709864930983
20
1.3788704950447
30
0.0
41
1.0
10
-43.1008404853833
20
1.05897453541791
30
0.0
41
1.0
10
-43.0464461202077
20
0.718824440867957
30
0.0
41
1.0
10
-43.0118725651467
20
0.363493536548258
30
0.0
41
1.0
10
-43.0
20
0.00000000000004497
30
0.0
41
1.0
10
-43.0118725651467
20
-0.363493536548199
30
0.0
41
1.0
10
-43.0464461202076
20
-0.718824440867898
30
0.0
41
1.0
10
-43.1008404853833
20
-1.05897453541785
30
0.0
41
1.0
10
-43.1709864930983
20
-1.37887049504466
30
0.0
41
1.0
10
-43.2524112932347
20
-1.6756700209221
30
0.0
41
1.0
10
-43.3409103237749
20
-1.94858394996671
30
0.0
41
1.0
10
-43.4329694628526
20
-2.19841980194191
30
0.0
41
1.0
10
-43.525928999171
20
-2.42704571376864
30
0.0
41
1.0
10
-43.6179575418347
20
-2.63691118543785
30
0.0
41
1.0
10
-43.7079216843389
20
-2.83068466021965
30
0.0
41
1.0
10
-43.7952201828787
20
-3.01101309901192
30
0.0
41
1.0
10
-43.8796246769947
20
-3.18038173338171
30
0.0
41
1.0
10
-43.9611464416565
20
-3.34104519981549
30
0.0
41
1.0
10
-44.0399342253642
20
-3.49500441124417
30
0.0
41
1.0
10
-44.1162008003825
20
-3.64400997480446
30
0.0
41
1.0
10
-44.1901729953021
20
-3.78957926247578
30
0.0
41
1.0
10
-44.2620595888304
20
-3.93301915600484
30
0.0
41
1.0
10
-44.3320321372668
20
-4.07544989569348
30
0.0
41
1.0
10
-44.4002148266234
20
-4.21782764776987
30
0.0
41
1.0
10
-44.4666804269413
20
-4.36096472153454
30
0.0
41
1.0
10
-44.5314502479696
20
-4.50554711435999
30
0.0
41
1.0
10
-44.5944966278899
20
-4.65214945661644
30
0.0
41
1.0
10
-44.6557469510638
20
-4.80124761403659
30
0.0
41
1.0
10
-44.7150885209604
20
-4.95322927290561
30
0.0
41
1.0
10
-44.7723738439738
20
-5.10840283880654
30
0.0
41
1.0
10
-44.8274260366527
20
-5.26700495454617
30
0.0
41
1.0
10
-44.8800441744152
20
-5.42920690535308
30
0.0
41
1.0
10
-44.9300084698774
20
-5.59512013911354
30
0.0
41
1.0
10
-44.9770852147429
20
-5.76480109109539
30
0.0
41
1.0
10
-45.0210314486566
20
-5.93825546839621
30
0.0
41
1.0
10
-45.0615993369543
20
-6.11544211986982
30
0.0
41
1.0
10
-45.0985402505459
20
-6.29627659243163
30
0.0
41
1.0
10
-45.1316085477772
20
-6.48063445397427
30
0.0
41
1.0
10
-45.1605650616989
20
-6.66835444608152
30
0.0
41
1.0
10
-45.1851802978714
20
-6.85924151574905
30
0.0
41
1.0
10
-45.2052373483858
20
-7.05306976388117
30
0.0
41
1.0
10
-45.2205345276774
20
-7.24958533899086
30
0.0
41
1.0
10
-45.230887735262
20
-7.44850929689807
30
0.0
41
1.0
10
-45.2361325499336
20
-7.64954044099117
30
0.0
41
1.0
10
-45.2361260593501
20
-7.85235815252836
30
0.0
41
1.0
10
-45.2307484283645
20
-8.05662521630437
30
0.0
41
1.0
10
-45.2199042089779
20
-8.26199064362939
30
0.0
41
1.0
10
-45.2035233944054
20
-8.46809249182431
30
0.0
41
1.0
10
-45.1815622194569
20
-8.67456067723118
30
0.0
41
1.0
10
-45.154003709241
20
-8.88101977698009
30
0.0
41
1.0
10
-45.1208579780715
20
-9.0870918133843
30
0.0
41
1.0
10
-45.0821622803946
20
-9.29239901380062
30
0.0
41
1.0
10
-45.0379808155175
20
-9.49656653805376
30
0.0
41
1.0
10
-44.988404287904
20
-9.69922516505462
30
0.0
41
1.0
10
-44.9335492247687
20
-9.90001393002233
30
0.0
41
1.0
10
-44.8735570526344
20
-10.0985827037359
30
0.0
41
1.0
10
-44.8085929343875
20
-10.294594705493
30
0.0
41
1.0
10
-44.7388443681394
20
-10.4877289419366
30
0.0
41
1.0
10
-44.6645195488604
20
-10.6776825646448
30
0.0
41
1.0
10
-44.5858454932496
20
-10.8641731403787
30
0.0
41
1.0
10
-44.5030659276177
20
-11.0469408291769
30
0.0
41
1.0
10
-44.4164389376428
20
-11.2257504671255
30
0.0
41
1.0
10
-44.3262343776805
20
-11.4003935526662
30
0.0
41
1.0
10
-44.2327310358261
20
-11.5706901378165
30
0.0
41
1.0
10
-44.136213549094
20
-11.736490628774
30
0.0
41
1.0
10
-44.036969060872
20
-11.8976775041869
30
0.0
41
1.0
10
-43.9352836101908
20
-12.0541669640811
30
0.0
41
1.0
10
-43.8314382393115
20
-12.2059105282761
30
0.0
41
1.0
10
-43.7257048027141
20
-12.352896610388
30
0.0
41
1.0
10
-43.6183414568251
20
-12.4951521026096
30
0.0
41
1.0
10
-43.5095878059503
20
-12.6327440178712
30
0.0
41
1.0
10
-43.399659676179
20
-12.7657812503604
30
0.0
41
1.0
10
-43.2887434860793
20
-12.8944165335258
30
0.0
41
1.0
10
-43.1769901817226
20
-13.0188486976148
30
0.0
41
1.0
10
-43.0645087055034
20
-13.1393253577044
30
0.0
41
1.0
10
-42.9513589757423
20
-13.256146199508
30
0.0
41
1.0
10
-42.8375443709865
20
-13.3696670755026
30
0.0
41
1.0
10
-42.723003745103
20
-13.4803051795632
30
0.0
41
1.0
10
-42.6076030556676
20
-13.5885456351951
30
0.0
41
1.0
10
-42.4911267823418
20
-13.6949499099806
30
0.0
41
1.0
10
-42.3732694640094
20
-13.8001665530842
30
0.0
41
1.0
10
-42.2536279227222
20
-13.9049448330931
30
0.0
41
1.0
10
-42.1316951102917
20
-14.0101519073639
30
0.0
41
1.0
10
-42.0068570653599
20
-14.11679413667
30
0.0
41
1.0
10
-41.8783952743716
20
-14.2260429880493
30
0.0
41
1.0
10
-41.7454978630754
20
-14.3392655010343
30
0.0
41
1.0
10
-41.6072845563801
20
-14.4580582921012
30
0.0
41
1.0
10
-41.4628521927925
20
-14.5842821782053
30
0.0
41
1.0
10
-41.3113494958883
20
-14.7200912175254
30
0.0
41
1.0
10
-41.1520910485895
20
-14.8679447439382
30
0.0
41
1.0
10
-40.9847194217999
20
-15.0305835065425
30
0.0
41
1.0
10
-40.8094184511623
20
-15.2109419899107
30
0.0
41
1.0
10
-40.6271659745694
20
-15.4119613866619
30
0.0
41
1.0
10
-40.439987721865
20
-15.6362685693743
30
0.0
41
1.0
10
-40.2511371220456
20
-15.8857073697597
30
0.0
41
1.0
10
-40.0650919639389
20
-16.1607613098367
30
0.0
41
1.0
10
-39.8872575477332
20
-16.4599903721707
30
0.0
41
1.0
10
-39.7233319706498
20
-16.7796856492562
30
0.0
41
1.0
10
-39.5784282482048
20
-17.1139580865034
30
0.0
41
1.0
10
-39.4561998419736
20
-17.4553625285477
30
0.0
41
1.0
10
-39.3582707542006
20
-17.795939167058
30
0.0
41
1.0
10
-39.2841609954748
20
-18.1283583552162
30
0.0
41
1.0
10
-39.2316810747629
20
-18.4468186797818
30
0.0
41
1.0
10
-39.1975895773653
20
-18.7474903953129
30
0.0
41
1.0
10
-39.1782653464323
20
-19.028504456469
30
0.0
41
1.0
10
-39.1702235916508
20
-19.2896323133981
30
0.0
41
1.0
10
-39.1704195383712
20
-19.531836384923
30
0.0
41
1.0
10
-39.176366454376
20
-19.7568285893118
30
0.0
41
1.0
10
-39.1861286684955
20
-19.9667092768609
30
0.0
41
1.0
10
-39.1982486109865
20
-20.1637066721657
30
0.0
41
1.0
10
-39.2116504473414
20
-20.3500073762725
30
0.0
41
1.0
10
-39.2255452244705
20
-20.5276572640349
30
0.0
41
1.0
10
-39.239349204324
20
-20.698511467922
30
0.0
41
1.0
10
-39.2526189298192
20
-20.864215946564
30
0.0
41
1.0
10
-39.2650023566876
20
-21.0262078947693
30
0.0
41
1.0
10
-39.2762036360438
20
-21.1857264254091
30
0.0
41
1.0
10
-39.2859587215673
20
-21.343828105687
30
0.0
41
1.0
10
-39.2940191884616
20
-21.50140411397
30
0.0
41
1.0
10
-39.300142091157
20
-21.6591972094399
30
0.0
41
1.0
10
-39.3040841563778
20
-21.8178175956944
30
0.0
41
1.0
10
-39.3055990245238
20
-21.9777572898608
30
0.0
41
1.0
10
-39.3044365901285
20
-22.1394029101979
30
0.0
41
1.0
10
-39.3003437527952
20
-22.3030469552514
30
0.0
41
1.0
10
-39.2930660848724
20
-22.4688977233614
30
0.0
41
1.0
10
-39.2823500648134
20
-22.6370880484957
30
0.0
41
1.0
10
-39.2679456281876
20
-22.8076830289498
30
0.0
41
1.0
10
-39.2496088619601
20
-22.980686912518
30
0.0
41
1.0
10
-39.2271047199424
20
-23.1560492828987
30
0.0
41
1.0
10
-39.2002096742601
20
-23.3336706716246
30
0.0
41
1.0
10
-39.1687142436879
20
-23.5134076999554
30
0.0
41
1.0
10
-39.1324253579737
20
-23.6950778370161
30
0.0
41
1.0
10
-39.0911685300968
20
-23.878463844449
30
0.0
41
1.0
10
-39.0447898174128
20
-24.0633179640121
30
0.0
41
1.0
10
-38.9931575589741
20
-24.2493658927893
30
0.0
41
1.0
10
-38.9361638808032
20
-24.4363105807637
30
0.0
41
1.0
10
-38.8737259640966
20
-24.6238358772195
30
0.0
41
1.0
10
-38.8057870736535
20
-24.8116100455428
30
0.0
41
1.0
10
-38.7323173455307
20
-24.9992891602904
30
0.0
41
1.0
10
-38.653314334215
20
-25.1865203956938
30
0.0
41
1.0
10
-38.5688033206078
20
-25.3729452109116
30
0.0
41
1.0
10
-38.478837382919
20
-25.5582024342061
30
0.0
41
1.0
10
-38.38349723323
20
-25.7419312456767
30
0.0
41
1.0
10
-38.2828908230417
20
-25.923774056158
30
0.0
41
1.0
10
-38.1771527215893
20
-26.1033792782909
30
0.0
41
1.0
10
-38.0664432711004
20
-26.2804039845506
30
0.0
41
1.0
10
-37.9509475234852
20
-26.45451644611
30
0.0
41
1.0
10
-37.8308739631797
20
-26.625398545788
30
0.0
41
1.0
10
-37.7064530209985
20
-26.7927480579504
30
0.0
41
1.0
10
-37.5779353838806
20
-26.9562807880698
30
0.0
41
1.0
10
-37.4455901053083
20
-27.1157325646866
30
0.0
41
1.0
10
-37.3097025209199
20
-27.2708610767439
30
0.0
41
1.0
10
-37.1705719733979
20
-27.4214475496734
30
0.0
41
1.0
10
-37.0285093500559
20
-27.5672982542037
30
0.0
41
1.0
10
-36.8838344356353
20
-27.7082458426403
30
0.0
41
1.0
10
-36.7368730816133
20
-27.8441505083557
30
0.0
41
1.0
10
-36.587954191754
20
-27.9749009654553
30
0.0
41
1.0
10
-36.4374065216611
20
-28.1004152470826
30
0.0
41
1.0
10
-36.2855552876246
20
-28.2206413226796
30
0.0
41
1.0
10
-36.132718577036
20
-28.3355575367916
30
0.0
41
1.0
10
-35.9792035489707
20
-28.4451728748325
30
0.0
41
1.0
10
-35.8253024091235
20
-28.549527064778
30
0.0
41
1.0
10
-35.6712881380254
20
-28.6486905282459
30
0.0
41
1.0
10
-35.5174099452824
20
-28.7427642001799
30
0.0
41
1.0
10
-35.3638884153925
20
-28.8318792437854
30
0.0
41
1.0
10
-35.2109103024937
20
-28.9161966970559
30
0.0
41
1.0
10
-35.0586229222661
20
-28.9959070999332
30
0.0
41
1.0
10
-34.9071280794087
20
-29.0712301679123
30
0.0
41
1.0
10
-34.7564754592187
20
-29.1424146000995
30
0.0
41
1.0
10
-34.606655402897
20
-29.2097381391969
30
0.0
41
1.0
10
-34.4575909802436
20
-29.2735080399901
30
0.0
41
1.0
10
-34.3091292736947
20
-29.3340621547046
30
0.0
41
1.0
10
-34.161031799713
20
-29.3917709118161
30
0.0
41
1.0
10
-34.012964026332
20
-29.4470405539344
30
0.0
41
1.0
10
-33.8644840134947
20
-29.5003181148077
30
0.0
41
1.0
10
-33.7150303281628
20
-29.5520987589975
30
0.0
41
1.0
10
-33.5639096035382
20
-29.6029362807137
30
0.0
41
1.0
10
-33.4102844728645
20
-29.6534577526984
30
0.0
41
1.0
10
-33.2531631880677
20
-29.7043835062875
30
0.0
41
1.0
10
-33.0913931347281
20
-29.7565537495917
30
0.0
41
1.0
10
-32.9236618064147
20
-29.8109630688593
30
0.0
41
1.0
10
-32.7485107377048
20
-29.8688035780739
30
0.0
41
1.0
10
-32.5643704923619
20
-29.9315161870087
30
0.0
41
1.0
10
-32.3696279285538
20
-30.0008467283608
30
0.0
41
1.0
10
-32.1627399782237
20
-30.0788986824238
30
0.0
41
1.0
10
-31.9424094496275
20
-30.1681661230104
30
0.0
41
1.0
10
-31.7078346673333
20
-30.2715191406406
30
0.0
41
1.0
10
-31.4590310620248
20
-30.3921014662233
30
0.0
41
1.0
10
-31.1971936133675
20
-30.5330929732588
30
0.0
41
1.0
10
-30.9250231921655
20
-30.697301083904
30
0.0
41
1.0
10
-30.6468894834031
20
-30.8865908511109
30
0.0
41
1.0
10
-30.3686813653721
20
-31.1012491805685
30
0.0
41
1.0
10
-30.097247737677
20
-31.339477196812
30
0.0
41
1.0
10
-29.839477196812
20
-31.5972477376769
30
0.0
41
1.0
10
-29.6012491805686
20
-31.868681365372
30
0.0
41
1.0
10
-29.3865908511109
20
-32.1468894834031
30
0.0
41
1.0
10
-29.1973010839041
20
-32.4250231921655
30
0.0
41
1.0
10
-29.0330929732588
20
-32.6971936133674
30
0.0
41
1.0
10
-28.8921014662233
20
-32.9590310620248
30
0.0
41
1.0
10
-28.7715191406406
20
-33.2078346673332
30
0.0
41
1.0
10
-28.6681661230105
20
-33.4424094496275
30
0.0
41
1.0
10
-28.5788986824238
20
-33.6627399782237
30
0.0
41
1.0
10
-28.5008467283608
20
-33.8696279285537
30
0.0
41
1.0
10
-28.4315161870087
20
-34.0643704923618
30
0.0
41
1.0
10
-28.3688035780739
20
-34.2485107377048
30
0.0
41
1.0
10
-28.3109630688593
20
-34.4236618064147
30
0.0
41
1.0
10
-28.2565537495917
20
-34.591393134728
30
0.0
41
1.0
10
-28.2043835062875
20
-34.7531631880676
30
0.0
41
1.0
10
-28.1534577526984
20
-34.9102844728645
30
0.0
41
1.0
10
-28.1029362807137
20
-35.0639096035382
30
0.0
41
1.0
10
-28.0520987589975
20
-35.2150303281628
30
0.0
41
1.0
10
-28.0003181148077
20
-35.3644840134947
30
0.0
41
1.0
10
-27.9470405539344
20
-35.512964026332
30
0.0
41
1.0
10
-27.8917709118161
20
-35.661031799713
30
0.0
41
1.0
10
-27.8340621547046
20
-35.8091292736947
30
0.0
41
1.0
10
-27.7735080399901
20
-35.9575909802435
30
0.0
41
1.0
10
-27.7097381391969
20
-36.106655402897
30
0.0
41
1.0
10
-27.6424146000995
20
-36.2564754592187
30
0.0
41
1.0
10
-27.5712301679123
20
-36.4071280794087
30
0.0
41
1.0
10
-27.4959070999332
20
-36.5586229222661
30
0.0
41
1.0
10
-27.4161966970559
20
-36.7109103024937
30
0.0
41
1.0
10
-27.3318792437854
20
-36.8638884153925
30
0.0
41
1.0
10
-27.2427642001799
20
-37.0174099452824
30
0.0
41
1.0
10
-27.1486905282459
20
-37.1712881380254
30
0.0
41
1.0
10
-27.049527064778
20
-37.3253024091235
30
0.0
41
1.0
10
-26.9451728748326
20
-37.4792035489706
30
0.0
41
1.0
10
-26.8355575367917
20
-37.6327185770359
30
0.0
41
1.0
10
-26.7206413226797
20
-37.7855552876246
30
0.0
41
1.0
10
-26.6004152470826
20
-37.9374065216611
30
0.0
41
1.0
10
-26.4749009654554
20
-38.087954191754
30
0.0
41
1.0
10
-26.3441505083557
20
-38.2368730816132
30
0.0
41
1.0
10
-26.2082458426403
20
-38.3838344356353
30
0.0
41
1.0
10
-26.0672982542038
20
-38.5285093500558
30
0.0
41
1.0
10
-25.9214475496734
20
-38.6705719733979
30
0.0
41
1.0
10
-25.7708610767439
20
-38.8097025209198
30
0.0
41
1.0
10
-25.6157325646867
20
-38.9455901053082
30
0.0
41
1.0
10
-25.4562807880699
20
-39.0779353838806
30
0.0
41
1.0
10
-25.2927480579504
20
-39.2064530209985
30
0.0
41
1.0
10
-25.125398545788
20
-39.3308739631797
30
0.0
41
1.0
10
-24.95451644611
20
-39.4509475234852
30
0.0
41
1.0
10
-24.7804039845506
20
-39.5664432711004
30
0.0
41
1.0
10
-24.603379278291
20
-39.6771527215893
30
0.0
41
1.0
10
-24.4237740561581
20
-39.7828908230417
30
0.0
41
1.0
10
-24.2419312456767
20
-39.88349723323
30
0.0
41
1.0
10
-24.0582024342061
20
-39.978837382919
30
0.0
41
1.0
10
-23.8729452109116
20
-40.0688033206078
30
0.0
41
1.0
10
-23.6865203956938
20
-40.153314334215
30
0.0
41
1.0
10
-23.4992891602905
20
-40.2323173455307
30
0.0
41
1.0
10
-23.3116100455428
20
-40.3057870736535
30
0.0
41
1.0
10
-23.1238358772196
20
-40.3737259640966
30
0.0
41
1.0
10
-22.9363105807637
20
-40.4361638808032
30
0.0
41
1.0
10
-22.7493658927893
20
-40.4931575589741
30
0.0
41
1.0
10
-22.5633179640121
20
-40.5447898174128
30
0.0
41
1.0
10
-22.378463844449
20
-40.5911685300968
30
0.0
41
1.0
10
-22.1950778370161
20
-40.6324253579737
30
0.0
41
1.0
10
-22.0134076999555
20
-40.6687142436879
30
0.0
41
1.0
10
-21.8336706716246
20
-40.7002096742601
30
0.0
41
1.0
10
-21.6560492828987
20
-40.7271047199424
30
0.0
41
1.0
10
-21.4806869125181
20
-40.7496088619601
30
0.0
41
1.0
10
-21.3076830289498
20
-40.7679456281876
30
0.0
41
1.0
10
-21.1370880484957
20
-40.7823500648134
30
0.0
41
1.0
10
-20.9688977233614
20
-40.7930660848724
30
0.0
41
1.0
10
-20.8030469552514
20
-40.8003437527952
30
0.0
41
1.0
10
-20.6394029101979
20
-40.8044365901285
30
0.0
41
1.0
10
-20.4777572898608
20
-40.8055990245238
30
0.0
41
1.0
10
-20.3178175956944
20
-40.8040841563778
30
0.0
41
1.0
10
-20.15919720944
20
-40.800142091157
30
0.0
41
1.0
10
-20.00140411397
20
-40.7940191884617
30
0.0
41
1.0
10
-19.843828105687
20
-40.7859587215673
30
0.0
41
1.0
10
-19.6857264254091
20
-40.7762036360438
30
0.0
41
1.0
10
-19.5262078947694
20
-40.7650023566876
30
0.0
41
1.0
10
-19.364215946564
20
-40.7526189298192
30
0.0
41
1.0
10
-19.198511467922
20
-40.739349204324
30
0.0
41
1.0
10
-19.0276572640349
20
-40.7255452244705
30
0.0
41
1.0
10
-18.8500073762725
20
-40.7116504473414
30
0.0
41
1.0
10
-18.6637066721658
20
-40.6982486109865
30
0.0
41
1.0
10
-18.466709276861
20
-40.6861286684955
30
0.0
41
1.0
10
-18.2568285893119
20
-40.676366454376
30
0.0
41
1.0
10
-18.031836384923
20
-40.6704195383712
30
0.0
41
1.0
10
-17.7896323133981
20
-40.6702235916508
30
0.0
41
1.0
10
-17.528504456469
20
-40.6782653464323
30
0.0
41
1.0
10
-17.247490395313
20
-40.6975895773653
30
0.0
41
1.0
10
-16.9468186797818
20
-40.7316810747629
30
0.0
41
1.0
10
-16.6283583552163
20
-40.7841609954747
30
0.0
41
1.0
10
-16.2959391670581
20
-40.8582707542005
30
0.0
41
1.0
10
-15.9553625285477
20
-40.9561998419736
30
0.0
41
1.0
10
-15.6139580865035
20
-41.0784282482048
30
0.0
41
1.0
10
-15.2796856492563
20
-41.2233319706498
30
0.0
41
1.0
10
-14.9599903721707
20
-41.3872575477332
30
0.0
41
1.0
10
-14.6607613098368
20
-41.5650919639389
30
0.0
41
1.0
10
-14.3857073697598
20
-41.7511371220456
30
0.0
41
1.0
10
-14.1362685693743
20
-41.939987721865
30
0.0
41
1.0
10
-13.9119613866619
20
-42.1271659745694
30
0.0
41
1.0
10
-13.7109419899107
20
-42.3094184511622
30
0.0
41
1.0
10
-13.5305835065425
20
-42.4847194217999
30
0.0
41
1.0
10
-13.3679447439383
20
-42.6520910485895
30
0.0
41
1.0
10
-13.2200912175254
20
-42.8113494958883
30
0.0
41
1.0
10
-13.0842821782054
20
-42.9628521927925
30
0.0
41
1.0
10
-12.9580582921012
20
-43.1072845563801
30
0.0
41
1.0
10
-12.8392655010343
20
-43.2454978630754
30
0.0
41
1.0
10
-12.7260429880493
20
-43.3783952743716
30
0.0
41
1.0
10
-12.61679413667
20
-43.5068570653599
30
0.0
41
1.0
10
-12.5101519073639
20
-43.6316951102917
30
0.0
41
1.0
10
-12.4049448330931
20
-43.7536279227222
30
0.0
41
1.0
10
-12.3001665530842
20
-43.8732694640093
30
0.0
41
1.0
10
-12.1949499099806
20
-43.9911267823418
30
0.0
41
1.0
10
-12.0885456351951
20
-44.1076030556676
30
0.0
41
1.0
10
-11.9803051795633
20
-44.2230037451029
30
0.0
41
1.0
10
-11.8696670755027
20
-44.3375443709865
30
0.0
41
1.0
10
-11.756146199508
20
-44.4513589757423
30
0.0
41
1.0
10
-11.6393253577044
20
-44.5645087055034
30
0.0
41
1.0
10
-11.5188486976148
20
-44.6769901817225
30
0.0
41
1.0
10
-11.3944165335258
20
-44.7887434860793
30
0.0
41
1.0
10
-11.2657812503604
20
-44.899659676179
30
0.0
41
1.0
10
-11.1327440178713
20
-45.0095878059502
30
0.0
41
1.0
10
-10.9951521026096
20
-45.1183414568251
30
0.0
41
1.0
10
-10.852896610388
20
-45.2257048027141
30
0.0
41
1.0
10
-10.7059105282761
20
-45.3314382393115
30
0.0
41
1.0
10
-10.5541669640811
20
-45.4352836101907
30
0.0
41
1.0
10
-10.3976775041869
20
-45.536969060872
30
0.0
41
1.0
10
-10.2364906287741
20
-45.636213549094
30
0.0
41
1.0
10
-10.0706901378165
20
-45.7327310358261
30
0.0
41
1.0
10
-9.90039355266627
20
-45.8262343776805
30
0.0
41
1.0
10
-9.72575046712558
20
-45.9164389376428
30
0.0
41
1.0
10
-9.54694082917689
20
-46.0030659276177
30
0.0
41
1.0
10
-9.36417314037872
20
-46.0858454932496
30
0.0
41
1.0
10
-9.1776825646448
20
-46.1645195488604
30
0.0
41
1.0
10
-8.98772894193658
20
-46.2388443681394
30
0.0
41
1.0
10
-8.79459470549312
20
-46.3085929343875
30
0.0
41
1.0
10
-8.59858270373598
20
-46.3735570526344
30
0.0
41
1.0
10
-8.40001393002239
20
-46.4335492247687
30
0.0
41
1.0
10
-8.19922516505468
20
-46.488404287904
30
0.0
41
1.0
10
-7.99656653805377
20
-46.5379808155175
30
0.0
41
1.0
10
-7.79239901380065
20
-46.5821622803946
30
0.0
41
1.0
10
-7.58709181338436
20
-46.6208579780715
30
0.0
41
1.0
10
-7.38101977698015
20
-46.654003709241
30
0.0
41
1.0
10
-7.17456067723123
20
-46.6815622194569
30
0.0
41
1.0
10
-6.96809249182435
20
-46.7035233944054
30
0.0
41
1.0
10
-6.76199064362946
20
-46.7199042089779
30
0.0
41
1.0
10
-6.55662521630442
20
-46.7307484283645
30
0.0
41
1.0
10
-6.35235815252842
20
-46.7361260593501
30
0.0
41
1.0
10
-6.14954044099124
20
-46.7361325499336
30
0.0
41
1.0
10
-5.94850929689813
20
-46.730887735262
30
0.0
41
1.0
10
-5.74958533899089
20
-46.7205345276774
30
0.0
41
1.0
10
-5.55306976388123
20
-46.7052373483858
30
0.0
41
1.0
10
-5.35924151574909
20
-46.6851802978714
30
0.0
41
1.0
10
-5.16835444608154
20
-46.6605650616989
30
0.0
41
1.0
10
-4.9806344539743
20
-46.6316085477772
30
0.0
41
1.0
10
-4.7962765924317
20
-46.5985402505459
30
0.0
41
1.0
10
-4.61544211986983
20
-46.5615993369543
30
0.0
41
1.0
10
-4.43825546839624
20
-46.5210314486566
30
0.0
41
1.0
10
-4.26480109109543
20
-46.4770852147429
30
0.0
41
1.0
10
-4.09512013911358
20
-46.4300084698774
30
0.0
41
1.0
10
-3.92920690535311
20
-46.3800441744152
30
0.0
41
1.0
10
-3.76700495454621
20
-46.3274260366527
30
0.0
41
1.0
10
-3.60840283880659
20
-46.2723738439738
30
0.0
41
1.0
10
-3.45322927290562
20
-46.2150885209604
30
0.0
41
1.0
10
-3.30124761403661
20
-46.1557469510638
30
0.0
41
1.0
10
-3.15214945661649
20
-46.0944966278899
30
0.0
41
1.0
10
-3.00554711436002
20
-46.0314502479696
30
0.0
41
1.0
10
-2.86096472153457
20
-45.9666804269413
30
0.0
41
1.0
10
-2.71782764776988
20
-45.9002148266234
30
0.0
41
1.0
10
-2.57544989569351
20
-45.8320321372668
30
0.0
41
1.0
10
-2.43301915600487
20
-45.7620595888304
30
0.0
41
1.0
10
-2.28957926247581
20
-45.6901729953021
30
0.0
41
1.0
10
-2.14400997480448
20
-45.6162008003826
30
0.0
41
1.0
10
-1.99500441124423
20
-45.5399342253642
30
0.0
41
1.0
10
-1.84104519981552
20
-45.4611464416565
30
0.0
41
1.0
10
-1.68038173338176
20
-45.3796246769947
30
0.0
41
1.0
10
-1.51101309901197
20
-45.2952201828788
30
0.0
41
1.0
10
-1.3306846602197
20
-45.2079216843389
30
0.0
41
1.0
10
-1.13691118543789
20
-45.1179575418347
30
0.0
41
1.0
10
-0.927045713768711
20
-45.025928999171
30
0.0
41
1.0
10
-0.698419801941931
20
-44.9329694628526
30
0.0
41
1.0
10
-0.448583949966753
20
-44.8409103237749
30
0.0
41
1.0
10
-0.175670020922187
20
-44.7524112932348
30
0.0
41
1.0
10
0.12112950495526
20
-44.6709864930983
30
0.0
41
1.0
10
0.44102546458207
20
-44.6008404853833
30
0.0
41
1.0
10
0.781175559132041
20
-44.5464461202077
30
0.0
41
1.0
10
1.13650646345169
20
-44.5118725651467
30
0.0
41
1.0
10
1.49999999999999
20
-44.5
30
0.0
41
1.0
10
1.86349353654819
20
-44.5118725651467
30
0.0
41
1.0
10
2.21882444086786
20
-44.5464461202076
30
0.0
41
1.0
10
2.55897453541781
20
-44.6008404853833
30
0.0
41
1.0
10
2.87887049504466
20
-44.6709864930983
30
0.0
41
1.0
10
3.1756700209221
20
-44.7524112932347
30
0.0
41
1.0
10
3.44858394996668
20
-44.8409103237749
30
0.0
41
1.0
10
3.6984198019419
20
-44.9329694628526
30
0.0
41
1.0
10
3.92704571376864
20
-45.025928999171
30
0.0
41
1.0
10
4.13691118543783
20
-45.1179575418347
30
0.0
41
1.0
10
4.33068466021968
20
-45.2079216843389
30
0.0
41
1.0
10
4.51101309901192
20
-45.2952201828787
30
0.0
41
1.0
10
4.68038173338171
20
-45.3796246769946
30
0.0
41
1.0
10
4.84104519981548
20
-45.4611464416565
30
0.0
41
1.0
10
4.99500441124418
20
-45.5399342253642
30
0.0
41
1.0
10
5.14400997480444
20
-45.6162008003825
30
0.0
41
1.0
10
5.28957926247578
20
-45.690172995302
30
0.0
41
1.0
10
5.43301915600486
20
-45.7620595888304
30
0.0
41
1.0
10
5.57544989569347
20
-45.8320321372668
30
0.0
41
1.0
10
5.71782764776984
20
-45.9002148266234
30
0.0
41
1.0
10
5.86096472153453
20
-45.9666804269413
30
0.0
41
1.0
10
6.00554711435998
20
-46.0314502479696
30
0.0
41
1.0
10
6.15214945661644
20
-46.0944966278899
30
0.0
41
1.0
10
6.30124761403658
20
-46.1557469510637
30
0.0
41
1.0
10
6.45322927290562
20
-46.2150885209604
30
0.0
41
1.0
10
6.60840283880654
20
-46.2723738439738
30
0.0
41
1.0
10
6.76700495454616
20
-46.3274260366527
30
0.0
41
1.0
10
6.9292069053531
20
-46.3800441744152
30
0.0
41
1.0
10
7.09512013911354
20
-46.4300084698774
30
0.0
41
1.0
10
7.26480109109538
20
-46.4770852147429
30
0.0
41
1.0
10
7.43825546839619
20
-46.5210314486566
30
0.0
41
1.0
10
7.61544211986981
20
-46.5615993369543
30
0.0
41
1.0
10
7.79627659243164
20
-46.5985402505459
30
0.0
41
1.0
10
7.98063445397424
20
-46.6316085477772
30
0.0
41
1.0
10
8.16835444608154
20
-46.6605650616989
30
0.0
41
1.0
10
8.35924151574904
20
-46.6851802978714
30
0.0
41
1.0
10
8.55306976388115
20
-46.7052373483858
30
0.0
41
1.0
10
8.74958533899083
20
-46.7205345276774
30
0.0
41
1.0
10
8.94850929689807
20
-46.730887735262
30
0.0
41
1.0
10
9.14954044099117
20
-46.7361325499335
30
0.0
41
1.0
10
9.35235815252835
20
-46.7361260593501
30
0.0
41
1.0
10
9.55662521630439
20
-46.7307484283645
30
0.0
41
1.0
10
9.76199064362939
20
-46.7199042089779
30
0.0
41
1.0
10
9.96809249182429
20
-46.7035233944054
30
0.0
41
1.0
10
10.1745606772312
20
-46.6815622194569
30
0.0
41
1.0
10
10.3810197769801
20
-46.654003709241
30
0.0
41
1.0
10
10.5870918133843
20
-46.6208579780715
30
0.0
41
1.0
10
10.7923990138006
20
-46.5821622803946
30
0.0
41
1.0
10
10.9965665380537
20
-46.5379808155175
30
0.0
41
1.0
10
11.1992251650546
20
-46.488404287904
30
0.0
41
1.0
10
11.4000139300223
20
-46.4335492247687
30
0.0
41
1.0
10
11.598582703736
20
-46.3735570526344
30
0.0
41
1.0
10
11.7945947054931
20
-46.3085929343875
30
0.0
41
1.0
10
11.9877289419366
20
-46.2388443681394
30
0.0
41
1.0
10
12.1776825646447
20
-46.1645195488604
30
0.0
41
1.0
10
12.3641731403787
20
-46.0858454932496
30
0.0
41
1.0
10
12.5469408291768
20
-46.0030659276178
30
0.0
41
1.0
10
12.7257504671255
20
-45.9164389376428
30
0.0
41
1.0
10
12.9003935526662
20
-45.8262343776805
30
0.0
41
1.0
10
13.0706901378165
20
-45.7327310358261
30
0.0
41
1.0
10
13.236490628774
20
-45.636213549094
30
0.0
41
1.0
10
13.3976775041869
20
-45.5369690608721
30
0.0
41
1.0
10
13.5541669640811
20
-45.4352836101908
30
0.0
41
1.0
10
13.7059105282761
20
-45.3314382393115
30
0.0
41
1.0
10
13.8528966103879
20
-45.2257048027141
30
0.0
41
1.0
10
13.9951521026096
20
-45.1183414568251
30
0.0
41
1.0
10
14.1327440178712
20
-45.0095878059503
30
0.0
41
1.0
10
14.2657812503603
20
-44.8996596761791
30
0.0
41
1.0
10
14.3944165335258
20
-44.7887434860793
30
0.0
41
1.0
10
14.5188486976148
20
-44.6769901817226
30
0.0
41
1.0
10
14.6393253577044
20
-44.5645087055034
30
0.0
41
1.0
10
14.756146199508
20
-44.4513589757423
30
0.0
41
1.0
10
14.8696670755026
20
-44.3375443709866
30
0.0
41
1.0
10
14.9803051795632
20
-44.223003745103
30
0.0
41
1.0
10
15.0885456351951
20
-44.1076030556676
30
0.0
41
1.0
10
15.1949499099806
20
-43.9911267823418
30
0.0
41
1.0
10
15.3001665530842
20
-43.8732694640094
30
0.0
41
1.0
10
15.4049448330931
20
-43.7536279227222
30
0.0
41
1.0
10
15.5101519073639
20
-43.6316951102917
30
0.0
41
1.0
10
15.61679413667
20
-43.5068570653599
30
0.0
41
1.0
10
15.7260429880493
20
-43.3783952743716
30
0.0
41
1.0
10
15.8392655010342
20
-43.2454978630754
30
0.0
41
1.0
10
15.9580582921011
20
-43.1072845563801
30
0.0
41
1.0
10
16.0842821782054
20
-42.9628521927925
30
0.0
41
1.0
10
16.2200912175254
20
-42.8113494958883
30
0.0
41
1.0
10
16.3679447439382
20
-42.6520910485895
30
0.0
41
1.0
10
16.5305835065425
20
-42.4847194217999
30
0.0
41
1.0
10
16.7109419899106
20
-42.3094184511623
30
0.0
41
1.0
10
16.9119613866619
20
-42.1271659745695
30
0.0
41
1.0
10
17.1362685693743
20
-41.939987721865
30
0.0
41
1.0
10
17.3857073697597
20
-41.7511371220456
30
0.0
41
1.0
10
17.6607613098367
20
-41.5650919639389
30
0.0
41
1.0
10
17.9599903721707
20
-41.3872575477332
30
0.0
41
1.0
10
18.2796856492562
20
-41.2233319706499
30
0.0
41
1.0
10
18.6139580865034
20
-41.0784282482048
30
0.0
41
1.0
10
18.9553625285476
20
-40.9561998419736
30
0.0
41
1.0
10
19.295939167058
20
-40.8582707542006
30
0.0
41
1.0
10
19.6283583552162
20
-40.7841609954748
30
0.0
41
1.0
10
19.9468186797818
20
-40.7316810747629
30
0.0
41
1.0
10
20.2474903953129
20
-40.6975895773653
30
0.0
41
1.0
10
20.5285044564689
20
-40.6782653464323
30
0.0
41
1.0
10
20.789632313398
20
-40.6702235916508
30
0.0
41
1.0
10
21.0318363849229
20
-40.6704195383712
30
0.0
41
1.0
10
21.2568285893118
20
-40.676366454376
30
0.0
41
1.0
10
21.4667092768609
20
-40.6861286684955
30
0.0
41
1.0
10
21.6637066721657
20
-40.6982486109866
30
0.0
41
1.0
10
21.8500073762724
20
-40.7116504473414
30
0.0
41
1.0
10
22.0276572640349
20
-40.7255452244705
30
0.0
41
1.0
10
22.1985114679219
20
-40.739349204324
30
0.0
41
1.0
10
22.364215946564
20
-40.7526189298192
30
0.0
41
1.0
10
22.5262078947693
20
-40.7650023566876
30
0.0
41
1.0
10
22.6857264254091
20
-40.7762036360438
30
0.0
41
1.0
10
22.843828105687
20
-40.7859587215673
30
0.0
41
1.0
10
23.00140411397
20
-40.7940191884616
30
0.0
41
1.0
10
23.1591972094399
20
-40.800142091157
30
0.0
41
1.0
10
23.3178175956944
20
-40.8040841563778
30
0.0
41
1.0
10
23.4777572898608
20
-40.8055990245238
30
0.0
41
1.0
10
23.6394029101978
20
-40.8044365901285
30
0.0
41
1.0
10
23.8030469552513
20
-40.8003437527952
30
0.0
41
1.0
10
23.9688977233614
20
-40.7930660848724
30
0.0
41
1.0
10
24.1370880484956
20
-40.7823500648134
30
0.0
41
1.0
10
24.3076830289498
20
-40.7679456281876
30
0.0
41
1.0
10
24.480686912518
20
-40.7496088619601
30
0.0
41
1.0
10
24.6560492828987
20
-40.7271047199423
30
0.0
41
1.0
10
24.8336706716246
20
-40.7002096742601
30
0.0
41
1.0
10
25.0134076999554
20
-40.6687142436879
30
0.0
41
1.0
10
25.1950778370161
20
-40.6324253579737
30
0.0
41
1.0
10
25.378463844449
20
-40.5911685300968
30
0.0
41
1.0
10
25.5633179640121
20
-40.5447898174128
30
0.0
41
1.0
10
25.7493658927893
20
-40.4931575589741
30
0.0
41
1.0
10
25.9363105807637
20
-40.4361638808032
30
0.0
41
1.0
10
26.1238358772195
20
-40.3737259640966
30
0.0
41
1.0
10
26.3116100455428
20
-40.3057870736535
30
0.0
41
1.0
10
26.4992891602904
20
-40.2323173455307
30
0.0
41
1.0
10
26.6865203956938
20
-40.153314334215
30
0.0
41
1.0
10
26.8729452109116
20
-40.0688033206079
30
0.0
41
1.0
10
27.058202434206
20
-39.978837382919
30
0.0
41
1.0
10
27.2419312456767
20
-39.88349723323
30
0.0
41
1.0
10
27.423774056158
20
-39.7828908230417
30
0.0
41
1.0
10
27.6033792782909
20
-39.6771527215893
30
0.0
41
1.0
10
27.7804039845506
20
-39.5664432711004
30
0.0
41
1.0
10
27.95451644611
20
-39.4509475234852
30
0.0
41
1.0
10
28.1253985457879
20
-39.3308739631797
30
0.0
41
1.0
10
28.2927480579504
20
-39.2064530209985
30
0.0
41
1.0
10
28.4562807880698
20
-39.0779353838806
30
0.0
41
1.0
10
28.6157325646866
20
-38.9455901053083
30
0.0
41
1.0
10
28.7708610767439
20
-38.8097025209199
30
0.0
41
1.0
10
28.9214475496734
20
-38.6705719733979
30
0.0
41
1.0
10
29.0672982542037
20
-38.5285093500559
30
0.0
41
1.0
10
29.2082458426402
20
-38.3838344356353
30
0.0
41
1.0
10
29.3441505083557
20
-38.2368730816132
30
0.0
41
1.0
10
29.4749009654553
20
-38.0879541917541
30
0.0
41
1.0
10
29.6004152470826
20
-37.9374065216612
30
0.0
41
1.0
10
29.7206413226796
20
-37.7855552876247
30
0.0
41
1.0
10
29.8355575367916
20
-37.632718577036
30
0.0
41
1.0
10
29.9451728748325
20
-37.4792035489707
30
0.0
41
1.0
10
30.049527064778
20
-37.3253024091235
30
0.0
41
1.0
10
30.1486905282459
20
-37.1712881380254
30
0.0
41
1.0
10
30.2427642001799
20
-37.0174099452825
30
0.0
41
1.0
10
30.3318792437854
20
-36.8638884153925
30
0.0
41
1.0
10
30.4161966970558
20
-36.7109103024937
30
0.0
41
1.0
10
30.4959070999332
20
-36.5586229222661
30
0.0
41
1.0
10
30.5712301679123
20
-36.4071280794088
30
0.0
41
1.0
10
30.6424146000995
20
-36.2564754592187
30
0.0
41
1.0
10
30.7097381391969
20
-36.106655402897
30
0.0
41
1.0
10
30.7735080399901
20
-35.9575909802436
30
0.0
41
1.0
10
30.8340621547046
20
-35.8091292736947
30
0.0
41
1.0
10
30.891770911816
20
-35.6610317997129
30
0.0
41
1.0
10
30.9470405539344
20
-35.512964026332
30
0.0
41
1.0
10
31.0003181148076
20
-35.3644840134947
30
0.0
41
1.0
10
31.0520987589975
20
-35.2150303281628
30
0.0
41
1.0
10
31.1029362807136
20
-35.0639096035383
30
0.0
41
1.0
10
31.1534577526984
20
-34.9102844728645
30
0.0
41
1.0
10
31.2043835062875
20
-34.7531631880677
30
0.0
41
1.0
10
31.2565537495917
20
-34.5913931347281
30
0.0
41
1.0
10
31.3109630688593
20
-34.4236618064147
30
0.0
41
1.0
10
31.3688035780739
20
-34.2485107377049
30
0.0
41
1.0
10
31.4315161870087
20
-34.0643704923619
30
0.0
41
1.0
10
31.5008467283608
20
-33.8696279285538
30
0.0
41
1.0
10
31.5788986824238
20
-33.6627399782237
30
0.0
41
1.0
10
31.6681661230105
20
-33.4424094496275
30
0.0
41
1.0
10
31.7715191406406
20
-33.2078346673333
30
0.0
41
1.0
10
31.8921014662233
20
-32.9590310620248
30
0.0
41
1.0
10
32.0330929732588
20
-32.6971936133675
30
0.0
41
1.0
10
32.197301083904
20
-32.4250231921656
30
0.0
41
1.0
10
32.3865908511109
20
-32.1468894834031
30
0.0
41
1.0
10
32.6012491805685
20
-31.8686813653721
30
0.0
41
1.0
10
32.8394771968119
20
-31.597247737677
30
0.0
41
1.0
10
33.0972477376769
20
-31.339477196812
30
0.0
41
1.0
10
33.368681365372
20
-31.1012491805686
30
0.0
41
1.0
10
33.646889483403
20
-30.886590851111
30
0.0
41
1.0
10
33.9250231921655
20
-30.697301083904
30
0.0
41
1.0
10
34.1971936133674
20
-30.5330929732588
30
0.0
41
1.0
10
34.4590310620247
20
-30.3921014662233
30
0.0
41
1.0
10
34.7078346673332
20
-30.2715191406407
30
0.0
41
1.0
10
34.9424094496274
20
-30.1681661230105
30
0.0
41
1.0
10
35.1627399782237
20
-30.0788986824238
30
0.0
41
1.0
10
35.3696279285537
20
-30.0008467283608
30
0.0
41
1.0
10
35.5643704923618
20
-29.9315161870087
30
0.0
41
1.0
10
35.7485107377048
20
-29.8688035780739
30
0.0
41
1.0
10
35.9236618064147
20
-29.8109630688593
30
0.0
41
1.0
10
36.091393134728
20
-29.7565537495917
30
0.0
41
1.0
10
36.2531631880676
20
-29.7043835062876
30
0.0
41
1.0
10
36.4102844728645
20
-29.6534577526984
30
0.0
41
1.0
10
36.5639096035382
20
-29.6029362807137
30
0.0
41
1.0
10
36.7150303281628
20
-29.5520987589975
30
0.0
41
1.0
10
36.8644840134947
20
-29.5003181148077
30
0.0
41
1.0
10
37.012964026332
20
-29.4470405539344
30
0.0
41
1.0
10
37.1610317997129
20
-29.3917709118161
30
0.0
41
1.0
10
37.3091292736947
20
-29.3340621547046
30
0.0
41
1.0
10
37.4575909802435
20
-29.2735080399901
30
0.0
41
1.0
10
37.6066554028969
20
-29.2097381391969
30
0.0
41
1.0
10
37.7564754592187
20
-29.1424146000995
30
0.0
41
1.0
10
37.9071280794087
20
-29.0712301679124
30
0.0
41
1.0
10
38.058622922266
20
-28.9959070999332
30
0.0
41
1.0
10
38.2109103024937
20
-28.9161966970559
30
0.0
41
1.0
10
38.3638884153925
20
-28.8318792437854
30
0.0
41
1.0
10
38.5174099452824
20
-28.7427642001799
30
0.0
41
1.0
10
38.6712881380254
20
-28.6486905282459
30
0.0
41
1.0
10
38.8253024091235
20
-28.549527064778
30
0.0
41
1.0
10
38.9792035489706
20
-28.4451728748326
30
0.0
41
1.0
10
39.1327185770359
20
-28.3355575367917
30
0.0
41
1.0
10
39.2855552876246
20
-28.2206413226797
30
0.0
41
1.0
10
39.4374065216611
20
-28.1004152470826
30
0.0
41
1.0
10
39.587954191754
20
-27.9749009654554
30
0.0
41
1.0
10
39.7368730816132
20
-27.8441505083557
30
0.0
41
1.0
10
39.8838344356352
20
-27.7082458426403
30
0.0
41
1.0
10
40.0285093500558
20
-27.5672982542038
30
0.0
41
1.0
10
40.1705719733979
20
-27.4214475496734
30
0.0
41
1.0
10
40.3097025209198
20
-27.2708610767439
30
0.0
41
1.0
10
40.4455901053082
20
-27.1157325646867
30
0.0
41
1.0
10
40.5779353838806
20
-26.9562807880699
30
0.0
41
1.0
10
40.7064530209985
20
-26.7927480579505
30
0.0
41
1.0
10
40.8308739631797
20
-26.625398545788
30
0.0
41
1.0
10
40.9509475234852
20
-26.4545164461101
30
0.0
41
1.0
10
41.0664432711004
20
-26.2804039845507
30
0.0
41
1.0
10
41.1771527215893
20
-26.103379278291
30
0.0
41
1.0
10
41.2828908230417
20
-25.9237740561581
30
0.0
41
1.0
10
41.3834972332299
20
-25.7419312456767
30
0.0
41
1.0
10
41.4788373829189
20
-25.5582024342061
30
0.0
41
1.0
10
41.5688033206078
20
-25.3729452109116
30
0.0
41
1.0
10
41.653314334215
20
-25.1865203956938
30
0.0
41
1.0
10
41.7323173455306
20
-24.9992891602905
30
0.0
41
1.0
10
41.8057870736535
20
-24.8116100455428
30
0.0
41
1.0
10
41.8737259640966
20
-24.6238358772196
30
0.0
41
1.0
10
41.9361638808031
20
-24.4363105807638
30
0.0
41
1.0
10
41.9931575589741
20
-24.2493658927893
30
0.0
41
1.0
10
42.0447898174128
20
-24.0633179640121
30
0.0
41
1.0
10
42.0911685300968
20
-23.878463844449
30
0.0
41
1.0
10
42.1324253579737
20
-23.6950778370161
30
0.0
41
1.0
10
42.1687142436879
20
-23.5134076999554
30
0.0
41
1.0
10
42.2002096742601
20
-23.3336706716246
30
0.0
41
1.0
10
42.2271047199423
20
-23.1560492828987
30
0.0
41
1.0
10
42.2496088619601
20
-22.9806869125181
30
0.0
41
1.0
10
42.2679456281876
20
-22.8076830289498
30
0.0
41
1.0
10
42.2823500648134
20
-22.6370880484957
30
0.0
41
1.0
10
42.2930660848724
20
-22.4688977233614
30
0.0
41
1.0
10
42.3003437527952
20
-22.3030469552514
30
0.0
41
1.0
10
42.3044365901285
20
-22.1394029101979
30
0.0
41
1.0
10
42.3055990245238
20
-21.9777572898608
30
0.0
41
1.0
10
42.3040841563778
20
-21.8178175956944
30
0.0
41
1.0
10
42.300142091157
20
-21.65919720944
30
0.0
41
1.0
10
42.2940191884616
20
-21.50140411397
30
0.0
41
1.0
10
42.2859587215673
20
-21.343828105687
30
0.0
41
1.0
10
42.2762036360438
20
-21.1857264254091
30
0.0
41
1.0
10
42.2650023566876
20
-21.0262078947694
30
0.0
41
1.0
10
42.2526189298192
20
-20.864215946564
30
0.0
41
1.0
10
42.239349204324
20
-20.698511467922
30
0.0
41
1.0
10
42.2255452244705
20
-20.5276572640349
30
0.0
41
1.0
10
42.2116504473414
20
-20.3500073762725
30
0.0
41
1.0
10
42.1982486109866
20
-20.1637066721658
30
0.0
41
1.0
10
42.1861286684955
20
-19.966709276861
30
0.0
41
1.0
10
42.176366454376
20
-19.7568285893119
30
0.0
41
1.0
10
42.1704195383712
20
-19.531836384923
30
0.0
41
1.0
10
42.1702235916508
20
-19.2896323133981
30
0.0
41
1.0
10
42.1782653464323
20
-19.028504456469
30
0.0
41
1.0
10
42.1975895773653
20
-18.747490395313
30
0.0
41
1.0
10
42.2316810747629
20
-18.4468186797819
30
0.0
41
1.0
10
42.2841609954747
20
-18.1283583552163
30
0.0
41
1.0
10
42.3582707542005
20
-17.7959391670581
30
0.0
41
1.0
10
42.4561998419736
20
-17.4553625285477
30
0.0
41
1.0
10
42.5784282482047
20
-17.1139580865035
30
0.0
41
1.0
10
42.7233319706498
20
-16.7796856492563
30
0.0
41
1.0
10
42.8872575477332
20
-16.4599903721708
30
0.0
41
1.0
10
43.0650919639389
20
-16.1607613098368
30
0.0
41
1.0
10
43.2511371220455
20
-15.8857073697598
30
0.0
41
1.0
10
43.4399877218649
20
-15.6362685693744
30
0.0
41
1.0
10
43.6271659745694
20
-15.4119613866619
30
0.0
41
1.0
10
43.8094184511622
20
-15.2109419899107
30
0.0
41
1.0
10
43.9847194217999
20
-15.0305835065425
30
0.0
41
1.0
10
44.1520910485895
20
-14.8679447439383
30
0.0
41
1.0
10
44.3113494958883
20
-14.7200912175254
30
0.0
41
1.0
10
44.4628521927925
20
-14.5842821782054
30
0.0
41
1.0
10
44.60728455638
20
-14.4580582921012
30
0.0
41
1.0
10
44.7454978630754
20
-14.3392655010343
30
0.0
41
1.0
10
44.8783952743715
20
-14.2260429880493
30
0.0
41
1.0
10
45.0068570653599
20
-14.11679413667
30
0.0
41
1.0
10
45.1316951102917
20
-14.0101519073639
30
0.0
41
1.0
10
45.2536279227222
20
-13.9049448330931
30
0.0
41
1.0
10
45.3732694640093
20
-13.8001665530842
30
0.0
41
1.0
10
45.4911267823418
20
-13.6949499099807
30
0.0
41
1.0
10
45.6076030556676
20
-13.5885456351951
30
0.0
41
1.0
10
45.7230037451029
20
-13.4803051795633
30
0.0
41
1.0
10
45.8375443709865
20
-13.3696670755027
30
0.0
41
1.0
10
45.9513589757423
20
-13.256146199508
30
0.0
41
1.0
10
46.0645087055034
20
-13.1393253577044
30
0.0
41
1.0
10
46.1769901817226
20
-13.0188486976148
30
0.0
41
1.0
10
46.2887434860793
20
-12.8944165335258
30
0.0
41
1.0
10
46.399659676179
20
-12.7657812503604
30
0.0
41
1.0
10
46.5095878059502
20
-12.6327440178713
30
0.0
41
1.0
10
46.6183414568251
20
-12.4951521026096
30
0.0
41
1.0
10
46.725704802714
20
-12.352896610388
30
0.0
41
1.0
10
46.8314382393115
20
-12.2059105282761
30
0.0
41
1.0
10
46.9352836101907
20
-12.0541669640811
30
0.0
41
1.0
10
47.036969060872
20
-11.8976775041869
30
0.0
41
1.0
10
47.136213549094
20
-11.7364906287741
30
0.0
41
1.0
10
47.2327310358261
20
-11.5706901378165
30
0.0
41
1.0
10
47.3262343776805
20
-11.4003935526663
30
0.0
41
1.0
10
47.4164389376428
20
-11.2257504671256
30
0.0
41
1.0
10
47.5030659276177
20
-11.0469408291769
30
0.0
41
1.0
10
47.5858454932496
20
-10.8641731403787
30
0.0
41
1.0
10
47.6645195488604
20
-10.6776825646448
30
0.0
41
1.0
10
47.7388443681394
20
-10.4877289419366
30
0.0
41
1.0
10
47.8085929343875
20
-10.2945947054931
30
0.0
41
1.0
10
47.8735570526344
20
-10.098582703736
30
0.0
41
1.0
10
47.9335492247686
20
-9.90001393002237
30
0.0
41
1.0
10
47.988404287904
20
-9.6992251650547
30
0.0
41
1.0
10
48.0379808155175
20
-9.4965665380538
30
0.0
41
1.0
10
48.0821622803946
20
-9.29239901380066
30
0.0
41
1.0
10
48.1208579780715
20
-9.08709181338435
30
0.0
41
1.0
10
48.154003709241
20
-8.88101977698016
30
0.0
41
1.0
10
48.1815622194569
20
-8.67456067723122
30
0.0
41
1.0
10
48.2035233944054
20
-8.46809249182436
30
0.0
41
1.0
10
48.2199042089779
20
-8.26199064362944
30
0.0
41
1.0
10
48.2307484283645
20
-8.05662521630447
30
0.0
41
1.0
10
48.2361260593501
20
-7.8523581525284
30
0.0
41
1.0
10
48.2361325499336
20
-7.64954044099125
30
0.0
41
1.0
10
48.230887735262
20
-7.44850929689812
30
0.0
41
1.0
10
48.2205345276774
20
-7.2495853389909
30
0.0
41
1.0
10
48.2052373483858
20
-7.05306976388122
30
0.0
41
1.0
10
48.1851802978714
20
-6.85924151574911
30
0.0
41
1.0
10
48.1605650616989
20
-6.66835444608159
30
0.0
41
1.0
10
48.1316085477772
20
-6.48063445397431
30
0.0
41
1.0
10
48.0985402505459
20
-6.29627659243169
30
0.0
41
1.0
10
48.0615993369543
20
-6.11544211986987
30
0.0
41
1.0
10
48.0210314486566
20
-5.93825546839624
30
0.0
41
1.0
10
47.9770852147429
20
-5.76480109109544
30
0.0
41
1.0
10
47.9300084698774
20
-5.59512013911358
30
0.0
41
1.0
10
47.8800441744152
20
-5.42920690535311
30
0.0
41
1.0
10
47.8274260366527
20
-5.26700495454621
30
0.0
41
1.0
10
47.7723738439738
20
-5.10840283880659
30
0.0
41
1.0
10
47.7150885209604
20
-4.95322927290566
30
0.0
41
1.0
10
47.6557469510638
20
-4.80124761403662
30
0.0
41
1.0
10
47.5944966278899
20
-4.65214945661649
30
0.0
41
1.0
10
47.5314502479696
20
-4.50554711436002
30
0.0
41
1.0
10
47.4666804269413
20
-4.36096472153457
30
0.0
41
1.0
10
47.4002148266234
20
-4.21782764776989
30
0.0
41
1.0
10
47.3320321372669
20
-4.07544989569352
30
0.0
41
1.0
10
47.2620595888304
20
-3.93301915600491
30
0.0
41
1.0
10
47.1901729953021
20
-3.78957926247582
30
0.0
41
1.0
10
47.1162008003826
20
-3.64400997480449
30
0.0
41
1.0
10
47.0399342253642
20
-3.49500441124422
30
0.0
41
1.0
10
46.9611464416565
20
-3.34104519981553
30
0.0
41
1.0
10
46.8796246769947
20
-3.18038173338176
30
0.0
41
1.0
10
46.7952201828788
20
-3.01101309901198
30
0.0
41
1.0
10
46.7079216843389
20
-2.83068466021969
30
0.0
41
1.0
10
46.6179575418347
20
-2.6369111854379
30
0.0
41
1.0
10
46.525928999171
20
-2.42704571376871
30
0.0
41
1.0
10
46.4329694628526
20
-2.19841980194198
30
0.0
41
1.0
10
46.3409103237749
20
-1.94858394996676
30
0.0
41
1.0
10
46.2524112932347
20
-1.6756700209222
30
0.0
41
1.0
10
46.1709864930983
20
-1.37887049504474
30
0.0
41
1.0
10
46.1008404853833
20
-1.05897453541792
30
0.0
41
1.0
10
46.0464461202077
20
-0.71882444086796
30
0.0
41
1.0
10
46.0118725651467
20
-0.36349353654831
30
0.0
41
1.0
10
46.0
20
-0.00000000000008851
30
0.0
0
CIRCLE
5
22
330
17
100
AcDbEntity
67
0
8
cam
62
256
6
ByLayer
370
-1
48
1.0
60
0
100
AcDbCircle
10
1.5
20
0.0
30
0.0
40
8.5
39
0.0
210
0.0
220
0.0
230
1.0
0
CIRCLE
5
24
330
17
100
AcDbEntity
67
0
8
roller
62
256
6
ByLayer
370
-1
48
1.0
60
0
100
AcDbCircle
10
50.0
20
0.0
30
0.0
40
4.0
39
0.0
210
0.0
220
0.0
230
1.0
0
CIRCLE
5
25
330
17
100
AcDbEntity
67
0
8
roller
62
256
6
ByLayer
370
-1
48
1.0
60
0
100
AcDbCircle
10
46.6236114702178
20
18.0620833093576
30
0.0
40
4.0
39
0.0
210
0.0
220
0.0
230
1.0
0
CIRCLE
5
26
330
17
100
AcDbEntity
67
0
8
roller
62
256
6
ByLayer
370
-1
48
1.0
60
0
100
AcDbCircle
10
36.950445861033
20
33.6847821823279
30
0.0
40
4.0
39
0.0
210
0.0
220
0.0
230
1.0
0
CIRCLE
5
27
330
17
100
AcDbEntity
67
0
8
roller
62
256
6
ByLayer
370
-1
48
1.0
60
0
100
AcDbCircle
10
22.2869177888269
20
44.7581645677531
30
0.0
40
4.0
39
0.0
210
0.0
220
0.0
230
1.0
0
CIRCLE
5
28
330
17
100
AcDbEntity
67
0
8
roller
62
256
6
ByLayer
370
-1
48
1.0
60
0
100
AcDbCircle
10
4.6134179731651
20
49.7867088147517
30
0.0
40
4.0
39
0.0
210
0.0
220
0.0
230
1.0
0
CIRCLE
5
29
330
17
100
AcDbEntity
67
0
8
roller
62
256
6
ByLayer
370
-1
48
1.0
60
0
100
AcDbCircle
10
-13.6831495036041
20
48.091282158641
30
0.0
40
4.0
39
0.0
210
0.0
220
0.0
230
1.0
0
CIRCLE
5
2A
330
17
100
AcDbEntity
67
0
8
roller
62
256
6
ByLayer
370
-1
48
1.0
60
0
100
AcDbCircle
10
-30.1317318189628
20
39.900861364012
30
0.0
40
4.0
39
0.0
210
0.0
220
0.0
230
1.0
0
CIRCLE
5
2B
330
17
100
AcDbEntity
67
0
8
roller
62
256
6
ByLayer
370
-1
48
1.0
60
0
100
AcDbCircle
10
-42.5108567864807
20
26.3216081438678
30
0.0
40
4.0
39
0.0
210
0.0
220
0.0
230
1.0
0
CIRCLE
5
2C
330
17
100
AcDbEntity
67
0
8
roller
62
256
6
ByLayer
370
-1
48
1.0
60
0
100
AcDbCircle
10
-49.1486549841951
20
9.18747589082852
30
0.0
40
4.0
39
0.0
210
0.0
220
0.0
230
1.0
0
CIRCLE
5
2D
330
17
100
AcDbEntity
67
0
8
roller
62
256
6
ByLayer
370
-1
48
1.0
60
0
100
AcDbCircle
10
-49.1486549841951
20
-9.18747589082851
30
0.0
40
4.0
39
0.0
210
0.0
220
0.0
230
1.0
0
CIRCLE
5
2E
330
17
100
AcDbEntity
67
0
8
roller
62
256
6
ByLayer
370
-1
48
1.0
60
0
100
AcDbCircle
10
-42.5108567864807
20
-26.3216081438678
30
0.0
40
4.0
39
0.0
210
0.0
220
0.0
230
1.0
0
CIRCLE
5
2F
330
17
100
AcDbEntity
67
0
8
roller
62
256
6
ByLayer
370
-1
48
1.0
60
0
100
AcDbCircle
10
-30.1317318189628
20
-39.900861364012
30
0.0
40
4.0
39
0.0
210
0.0
220
0.0
230
1.0
0
CIRCLE
5
30
330
17
100
AcDbEntity
67
0
8
roller
62
256
6
ByLayer
370
-1
48
1.0
60
0
100
AcDbCircle
10
-13.6831495036042
20
-48.091282158641
30
0.0
40
4.0
39
0.0
210
0.0
220
0.0
230
1.0
0
CIRCLE
5
31
330
17
100
AcDbEntity
67
0
8
roller
62
256
6
ByLayer
370
-1
48
1.0
60
0
100
AcDbCircle
10
4.61341797316508
20
-49.7867088147517
30
0.0
40
4.0
39
0.0
210
0.0
220
0.0
230
1.0
0
CIRCLE
5
32
330
17
100
AcDbEntity
67
0
8
roller
62
256
6
ByLayer
370
-1
48
1.0
60
0
100
AcDbCircle
10
22.2869177888269
20
-44.7581645677531
30
0.0
40
4.0
39
0.0
210
0.0
220
0.0
230
1.0
0
CIRCLE
5
33
330
17
100
AcDbEntity
67
0
8
roller
62
256
6
ByLayer
370
-1
48
1.0
60
0
100
AcDbCircle
10
36.950445861033
20
-33.6847821823279
30
0.0
40
4.0
39
0.0
210
0.0
220
0.0
230
1.0
0
CIRCLE
5
34
330
17
100
AcDbEntity
67
0
8
roller
62
256
6
ByLayer
370
-1
48
1.0
60
0
100
AcDbCircle
10
46.6236114702178
20
-18.0620833093577
30
0.0
40
4.0
39
0.0
210
0.0
220
0.0
230
1.0
0
CIRCLE
5
35
330
17
100
AcDbEntity
67
0
8
roller
62
256
6
ByLayer
370
-1
48
1.0
60
0
100
AcDbCircle
10
0.0
20
0.0
30
0.0
40
4.0
39
0.0
210
0.0
220
0.0
230
1.0
0
VIEWPORT
5
3A
330
36
100
AcDbEntity
67
1
8
0
62
256
6
ByLayer
370
-1
48
1.0
60
0
100
AcDbViewport
10
0.0
20
0.0
30
0.0
40
297.0
41
210.0
68
1
69
1
12
50.0
22
100.0
13
0.0
23
0.0
14
10.0
24
10.0
15
10.0
25
10.0
16
0.0
26
0.0
36
1.0
17
0.0
27
0.0
37
0.0
42
50.0
43
0.0
44
0.0
45
250.0
50
0.0
51
0.0
72
1000
90
819232
110
0.0
120
0.0
130
0.0
111
1.0
121
0.0
131
0.0
112
0.0
122
1.0
132
0.0
0
ENDSEC
0
SECTION
2
OBJECTS
0
DICTIONARY
5
3D
330
0
100
AcDbDictionary
280
0
281
1
3
ACAD_GROUP
350
3E
3
ACAD_LAYOUT
350
3F
3
ACAD_MLINESTYLE
350
40
0
DICTIONARY
5
3E
330
3D
100
AcDbDictionary
280
0
281
1
0
DICTIONARY
5
3F
330
3D
100
AcDbDictionary
280
0
281
1
3
Model
350
1B
3
Layout1
350
3B
0
DICTIONARY
5
40
330
3D
100
AcDbDictionary
280
0
281
1
3
Standard
350
16
0
LAYOUT
5
1B
330
3F
100
AcDbPlotSettings
1

2
none_device
4
ISO_A4_(210.00_x_297.00_MM)
6

40
7.5
41
20.0
42
7.5
43
20.0
44
210.0
45
297.0
46
0.0
47
0.0
48
0.0
49
0.0
140
0.0
141
0.0
142
1.0
143
1.0
70
11952
72
1
73
1
74
5
7

75
16
147
1.0
148
0.0
149
0.0
100
AcDbLayout
1
Model
70
1
71
0
10
-20.0
20
-7.5
11
277.0
21
202.5
12
0.0
22
0.0
32
0.0
14
25.7
24
19.5
34
0.0
15
231.3
25
175.5
35
0.0
146
0.0
13
0.0
23
0.0
33
0.0
16
1.0
26
0.0
36
0.0
17
0.0
27
1.0
37
0.0
76
0
330
17
0
LAYOUT
5
3B
330
3F
100
AcDbPlotSettings
1

2
none_device
4
ISO_A4_(210.00_x_297.00_MM)
6

40
7.5
41
20.0
42
7.5
43
20.0
44
210.0
45
297.0
46
0.0
47
0.0
48
0.0
49
0.0
140
0.0
141
0.0
142
1.0
143
1.0
70
688
72
1
73
1
74
5
7

75
16
147
1.0
148
0.0
149
0.0
100
AcDbLayout
1
Layout1
70
1
71
1
10
-20.0
20
-7.5
11
277.0
21
202.5
12
0.0
22
0.0
32
0.0
14
25.7
24
19.5
34
0.0
15
231.3
25
175.5
35
0.0
146
0.0
13
0.0
23
0.0
33
0.0
16
1.0
26
0.0
36
0.0
17
0.0
27
1.0
37
0.0
76
0
330
36
0
MLINESTYLE
5
16
330
40
100
AcDbMlineStyle
2
Standard
70
0
3

62
256
51
90.0
52
90.0
71
2
49
0.5
62
256
6
ByLayer
49
-0.5
62
256
6
ByLayer
0
ENDSEC
0
EOF
